%TF.GenerationSoftware,KiCad,Pcbnew,(6.0.4)*%
%TF.CreationDate,2022-06-12T07:49:14+08:00*%
%TF.ProjectId,G030F6P6_test,47303330-4636-4503-965f-746573742e6b,rev?*%
%TF.SameCoordinates,Original*%
%TF.FileFunction,Copper,L2,Bot*%
%TF.FilePolarity,Positive*%
%FSLAX46Y46*%
G04 Gerber Fmt 4.6, Leading zero omitted, Abs format (unit mm)*
G04 Created by KiCad (PCBNEW (6.0.4)) date 2022-06-12 07:49:14*
%MOMM*%
%LPD*%
G01*
G04 APERTURE LIST*
G04 Aperture macros list*
%AMFreePoly0*
4,1,22,0.500000,-0.750000,0.000000,-0.750000,0.000000,-0.745033,-0.079941,-0.743568,-0.215256,-0.701293,-0.333266,-0.622738,-0.424486,-0.514219,-0.481581,-0.384460,-0.499164,-0.250000,-0.500000,-0.250000,-0.500000,0.250000,-0.499164,0.250000,-0.499963,0.256109,-0.478152,0.396186,-0.417904,0.524511,-0.324060,0.630769,-0.204165,0.706417,-0.067858,0.745374,0.000000,0.744959,0.000000,0.750000,
0.500000,0.750000,0.500000,-0.750000,0.500000,-0.750000,$1*%
%AMFreePoly1*
4,1,20,0.000000,0.744959,0.073905,0.744508,0.209726,0.703889,0.328688,0.626782,0.421226,0.519385,0.479903,0.390333,0.500000,0.250000,0.500000,-0.250000,0.499851,-0.262216,0.476331,-0.402017,0.414519,-0.529596,0.319384,-0.634700,0.198574,-0.708877,0.061801,-0.746166,0.000000,-0.745033,0.000000,-0.750000,-0.500000,-0.750000,-0.500000,0.750000,0.000000,0.750000,0.000000,0.744959,
0.000000,0.744959,$1*%
G04 Aperture macros list end*
%TA.AperFunction,ComponentPad*%
%ADD10R,1.700000X1.700000*%
%TD*%
%TA.AperFunction,ComponentPad*%
%ADD11O,1.700000X1.700000*%
%TD*%
%TA.AperFunction,ComponentPad*%
%ADD12C,0.600000*%
%TD*%
%TA.AperFunction,SMDPad,CuDef*%
%ADD13R,1.450000X1.450000*%
%TD*%
%TA.AperFunction,ComponentPad*%
%ADD14O,1.000000X1.600000*%
%TD*%
%TA.AperFunction,ComponentPad*%
%ADD15O,1.000000X2.100000*%
%TD*%
%TA.AperFunction,SMDPad,CuDef*%
%ADD16FreePoly0,270.000000*%
%TD*%
%TA.AperFunction,SMDPad,CuDef*%
%ADD17FreePoly1,270.000000*%
%TD*%
%TA.AperFunction,SMDPad,CuDef*%
%ADD18FreePoly0,90.000000*%
%TD*%
%TA.AperFunction,SMDPad,CuDef*%
%ADD19FreePoly1,90.000000*%
%TD*%
%TA.AperFunction,ViaPad*%
%ADD20C,0.800000*%
%TD*%
%TA.AperFunction,Conductor*%
%ADD21C,0.250000*%
%TD*%
%TA.AperFunction,Conductor*%
%ADD22C,0.600000*%
%TD*%
%TA.AperFunction,Conductor*%
%ADD23C,0.200000*%
%TD*%
G04 APERTURE END LIST*
%TO.C,JP3*%
G36*
X129975000Y-80514000D02*
G01*
X129575000Y-80514000D01*
X129575000Y-80014000D01*
X129975000Y-80014000D01*
X129975000Y-80514000D01*
G37*
G36*
X130775000Y-80514000D02*
G01*
X130375000Y-80514000D01*
X130375000Y-80014000D01*
X130775000Y-80014000D01*
X130775000Y-80514000D01*
G37*
%TO.C,JP7*%
G36*
X133912000Y-93326000D02*
G01*
X133512000Y-93326000D01*
X133512000Y-92826000D01*
X133912000Y-92826000D01*
X133912000Y-93326000D01*
G37*
G36*
X134712000Y-93326000D02*
G01*
X134312000Y-93326000D01*
X134312000Y-92826000D01*
X134712000Y-92826000D01*
X134712000Y-93326000D01*
G37*
%TO.C,JP9*%
G36*
X129378000Y-93356000D02*
G01*
X128978000Y-93356000D01*
X128978000Y-92856000D01*
X129378000Y-92856000D01*
X129378000Y-93356000D01*
G37*
G36*
X128578000Y-93356000D02*
G01*
X128178000Y-93356000D01*
X128178000Y-92856000D01*
X128578000Y-92856000D01*
X128578000Y-93356000D01*
G37*
%TO.C,JP6*%
G36*
X129507000Y-88007000D02*
G01*
X129107000Y-88007000D01*
X129107000Y-87507000D01*
X129507000Y-87507000D01*
X129507000Y-88007000D01*
G37*
G36*
X130307000Y-88007000D02*
G01*
X129907000Y-88007000D01*
X129907000Y-87507000D01*
X130307000Y-87507000D01*
X130307000Y-88007000D01*
G37*
%TO.C,JP4*%
G36*
X133442000Y-80514000D02*
G01*
X133042000Y-80514000D01*
X133042000Y-80014000D01*
X133442000Y-80014000D01*
X133442000Y-80514000D01*
G37*
G36*
X132642000Y-80514000D02*
G01*
X132242000Y-80514000D01*
X132242000Y-80014000D01*
X132642000Y-80014000D01*
X132642000Y-80514000D01*
G37*
%TO.C,JP2*%
G36*
X128451000Y-76450000D02*
G01*
X128051000Y-76450000D01*
X128051000Y-75950000D01*
X128451000Y-75950000D01*
X128451000Y-76450000D01*
G37*
G36*
X129251000Y-76450000D02*
G01*
X128851000Y-76450000D01*
X128851000Y-75950000D01*
X129251000Y-75950000D01*
X129251000Y-76450000D01*
G37*
%TO.C,JP8*%
G36*
X131245000Y-93341000D02*
G01*
X130845000Y-93341000D01*
X130845000Y-92841000D01*
X131245000Y-92841000D01*
X131245000Y-93341000D01*
G37*
G36*
X132045000Y-93341000D02*
G01*
X131645000Y-93341000D01*
X131645000Y-92841000D01*
X132045000Y-92841000D01*
X132045000Y-93341000D01*
G37*
%TO.C,JP1*%
G36*
X132515000Y-76450000D02*
G01*
X132115000Y-76450000D01*
X132115000Y-75950000D01*
X132515000Y-75950000D01*
X132515000Y-76450000D01*
G37*
G36*
X133315000Y-76450000D02*
G01*
X132915000Y-76450000D01*
X132915000Y-75950000D01*
X133315000Y-75950000D01*
X133315000Y-76450000D01*
G37*
%TO.C,JP5*%
G36*
X132159000Y-88007000D02*
G01*
X131759000Y-88007000D01*
X131759000Y-87507000D01*
X132159000Y-87507000D01*
X132159000Y-88007000D01*
G37*
G36*
X132959000Y-88007000D02*
G01*
X132559000Y-88007000D01*
X132559000Y-87507000D01*
X132959000Y-87507000D01*
X132959000Y-88007000D01*
G37*
%TD*%
D10*
%TO.P,J2,1,Pin_1*%
%TO.N,/PIN11*%
X139700000Y-96520000D03*
D11*
%TO.P,J2,2,Pin_2*%
%TO.N,/PIN12*%
X139700000Y-93980000D03*
%TO.P,J2,3,Pin_3*%
%TO.N,/PIN13*%
X139700000Y-91440000D03*
%TO.P,J2,4,Pin_4*%
%TO.N,/PIN14*%
X139700000Y-88900000D03*
%TO.P,J2,5,Pin_5*%
%TO.N,/PIN15*%
X139700000Y-86360000D03*
%TO.P,J2,6,Pin_6*%
%TO.N,/PIN16*%
X139700000Y-83820000D03*
%TO.P,J2,7,Pin_7*%
%TO.N,/PIN17*%
X139700000Y-81280000D03*
%TO.P,J2,8,Pin_8*%
%TO.N,/PIN18*%
X139700000Y-78740000D03*
%TO.P,J2,9,Pin_9*%
%TO.N,/PIN19*%
X139700000Y-76200000D03*
%TO.P,J2,10,Pin_10*%
%TO.N,/PIN20*%
X139700000Y-73660000D03*
%TD*%
D12*
%TO.P,U1,17,GND*%
%TO.N,GND*%
X130852500Y-69890000D03*
X131702500Y-69890000D03*
D13*
X131277500Y-69465000D03*
D12*
X131702500Y-69040000D03*
X130852500Y-69040000D03*
%TD*%
D14*
%TO.P,J3,S1,SHIELD*%
%TO.N,GND*%
X135130000Y-59148000D03*
X126490000Y-59148000D03*
D15*
X135130000Y-63328000D03*
X126490000Y-63328000D03*
%TD*%
D10*
%TO.P,J4,1,Pin_1*%
%TO.N,GND*%
X124460000Y-67437000D03*
D11*
%TO.P,J4,2,Pin_2*%
%TO.N,VBUS*%
X121920000Y-67437000D03*
%TO.P,J4,3,Pin_3*%
%TO.N,GND*%
X124460000Y-69977000D03*
%TO.P,J4,4,Pin_4*%
%TO.N,VBUS*%
X121920000Y-69977000D03*
%TD*%
D10*
%TO.P,J1,1,Pin_1*%
%TO.N,/PIN1*%
X121920000Y-73660000D03*
D11*
%TO.P,J1,2,Pin_2*%
%TO.N,/PIN2*%
X121920000Y-76200000D03*
%TO.P,J1,3,Pin_3*%
%TO.N,/PIN3*%
X121920000Y-78740000D03*
%TO.P,J1,4,Pin_4*%
%TO.N,/PIN4*%
X121920000Y-81280000D03*
%TO.P,J1,5,Pin_5*%
%TO.N,/PIN5*%
X121920000Y-83820000D03*
%TO.P,J1,6,Pin_6*%
%TO.N,/PIN6*%
X121920000Y-86360000D03*
%TO.P,J1,7,Pin_7*%
%TO.N,/PIN7*%
X121920000Y-88900000D03*
%TO.P,J1,8,Pin_8*%
%TO.N,/PIN8*%
X121920000Y-91440000D03*
%TO.P,J1,9,Pin_9*%
%TO.N,/PIN9*%
X121920000Y-93980000D03*
%TO.P,J1,10,Pin_10*%
%TO.N,/PIN10*%
X121920000Y-96520000D03*
%TD*%
D10*
%TO.P,J5,1,Pin_1*%
%TO.N,+3V3*%
X125730000Y-102500000D03*
D11*
%TO.P,J5,2,Pin_2*%
%TO.N,GND*%
X128270000Y-102500000D03*
%TO.P,J5,3,Pin_3*%
%TO.N,/SWCLK*%
X130810000Y-102500000D03*
%TO.P,J5,4,Pin_4*%
%TO.N,/SWDIO*%
X133350000Y-102500000D03*
%TO.P,J5,5,Pin_5*%
%TO.N,/NRST*%
X135890000Y-102500000D03*
%TD*%
D16*
%TO.P,JP3,1,A*%
%TO.N,/~{RTS}*%
X130175000Y-79614000D03*
D17*
%TO.P,JP3,2,B*%
%TO.N,/PIN6*%
X130175000Y-80914000D03*
%TD*%
D18*
%TO.P,JP7,1,A*%
%TO.N,/SWDIO*%
X134112000Y-93726000D03*
D19*
%TO.P,JP7,2,B*%
%TO.N,/PIN18*%
X134112000Y-92426000D03*
%TD*%
D18*
%TO.P,JP9,1,A*%
%TO.N,/NRST*%
X128778000Y-93756000D03*
D19*
%TO.P,JP9,2,B*%
%TO.N,/PIN6*%
X128778000Y-92456000D03*
%TD*%
D16*
%TO.P,JP6,1,A*%
%TO.N,GND*%
X129707000Y-87107000D03*
D17*
%TO.P,JP6,2,B*%
%TO.N,/PIN5*%
X129707000Y-88407000D03*
%TD*%
D16*
%TO.P,JP4,1,A*%
%TO.N,/BOOT0*%
X132842000Y-79614000D03*
D17*
%TO.P,JP4,2,B*%
%TO.N,/PIN19*%
X132842000Y-80914000D03*
%TD*%
D16*
%TO.P,JP2,1,A*%
%TO.N,/TXD*%
X128651000Y-75550000D03*
D17*
%TO.P,JP2,2,B*%
%TO.N,/PIN1*%
X128651000Y-76850000D03*
%TD*%
D18*
%TO.P,JP8,1,A*%
%TO.N,/SWCLK*%
X131445000Y-93741000D03*
D19*
%TO.P,JP8,2,B*%
%TO.N,/PIN19*%
X131445000Y-92441000D03*
%TD*%
D16*
%TO.P,JP1,1,A*%
%TO.N,/RXD*%
X132715000Y-75550000D03*
D17*
%TO.P,JP1,2,B*%
%TO.N,/PIN20*%
X132715000Y-76850000D03*
%TD*%
D16*
%TO.P,JP5,1,A*%
%TO.N,+3V3*%
X132359000Y-87107000D03*
D17*
%TO.P,JP5,2,B*%
%TO.N,/PIN4*%
X132359000Y-88407000D03*
%TD*%
D20*
%TO.N,GND*%
X136042400Y-61163200D03*
X140335000Y-70866000D03*
X139700000Y-99060000D03*
X136398000Y-97790000D03*
X129540000Y-99441000D03*
X132207000Y-99060000D03*
X133477000Y-59182000D03*
X128524000Y-59182000D03*
X124333000Y-87503000D03*
X124333000Y-95250000D03*
X124460000Y-92583000D03*
X136779000Y-90043000D03*
X136779000Y-92583000D03*
X136779000Y-95123000D03*
%TO.N,/PIN1*%
X126492000Y-72009000D03*
%TO.N,/PIN4*%
X132842000Y-90170000D03*
%TO.N,/PIN5*%
X128651000Y-90170000D03*
%TO.N,+3V3*%
X131572000Y-72263000D03*
%TO.N,GND*%
X127635000Y-89408000D03*
X134238433Y-69474012D03*
X133604000Y-78232000D03*
%TO.N,/RXD*%
X133157432Y-67621486D03*
%TO.N,/TXD*%
X134731104Y-67556702D03*
%TO.N,Net-(F1-Pad1)*%
X132969000Y-66040000D03*
X126365000Y-66421000D03*
%TO.N,VBUS*%
X134350202Y-68480779D03*
X127635000Y-70612000D03*
%TO.N,/USBD+*%
X131259500Y-66616461D03*
X129794000Y-66802000D03*
%TO.N,/~{RTS}*%
X130175000Y-72390000D03*
%TO.N,/BOOT0*%
X128579400Y-72009000D03*
X127353540Y-78740000D03*
X132080000Y-78486000D03*
%TD*%
D21*
%TO.N,VBUS*%
X134963501Y-70023099D02*
X134963501Y-69094078D01*
X134374600Y-70612000D02*
X134963501Y-70023099D01*
X127635000Y-70612000D02*
X134374600Y-70612000D01*
%TO.N,/TXD*%
X134502304Y-71120000D02*
X135413012Y-70209292D01*
X129921000Y-71120000D02*
X134502304Y-71120000D01*
X129303901Y-71737099D02*
X129921000Y-71120000D01*
X129303901Y-74897099D02*
X129303901Y-71737099D01*
X128651000Y-75550000D02*
X129303901Y-74897099D01*
%TO.N,/RXD*%
X133976918Y-66802000D02*
X133157432Y-67621486D01*
X135001000Y-66802000D02*
X133976918Y-66802000D01*
X135862523Y-72402477D02*
X135862523Y-67663523D01*
%TO.N,VBUS*%
X134963501Y-69094078D02*
X134350202Y-68480779D01*
%TO.N,/RXD*%
X135862523Y-67663523D02*
X135001000Y-66802000D01*
%TO.N,/TXD*%
X135413012Y-68238610D02*
X134731104Y-67556702D01*
%TO.N,/RXD*%
X132715000Y-75550000D02*
X135862523Y-72402477D01*
%TO.N,/TXD*%
X135413012Y-70209292D02*
X135413012Y-68238610D01*
%TO.N,/PIN1*%
X128242060Y-76850000D02*
X126492000Y-75099940D01*
X128651000Y-76850000D02*
X128242060Y-76850000D01*
X126492000Y-75099940D02*
X126492000Y-72009000D01*
%TO.N,/PIN4*%
X132359000Y-89687000D02*
X132842000Y-90170000D01*
X132359000Y-88407000D02*
X132359000Y-89687000D01*
%TO.N,/PIN5*%
X129707000Y-89114000D02*
X128651000Y-90170000D01*
X129707000Y-88407000D02*
X129707000Y-89114000D01*
%TO.N,/PIN6*%
X128397000Y-91440000D02*
X126746000Y-91440000D01*
X130175000Y-80914000D02*
X127366000Y-80914000D01*
X128778000Y-91821000D02*
X128397000Y-91440000D01*
X128778000Y-92456000D02*
X128778000Y-91821000D01*
X125857000Y-86360000D02*
X121920000Y-86360000D01*
X127366000Y-80914000D02*
X125857000Y-82423000D01*
X126746000Y-91440000D02*
X126111000Y-90805000D01*
X126111000Y-86614000D02*
X125857000Y-86360000D01*
X125857000Y-82423000D02*
X125857000Y-86360000D01*
X126111000Y-90805000D02*
X126111000Y-86614000D01*
%TO.N,/PIN18*%
X134112000Y-92426000D02*
X134112000Y-90678000D01*
X136144000Y-78740000D02*
X139700000Y-78740000D01*
X134874000Y-80010000D02*
X136144000Y-78740000D01*
X134874000Y-89916000D02*
X134874000Y-80010000D01*
X134112000Y-90678000D02*
X134874000Y-89916000D01*
%TO.N,/PIN19*%
X137456940Y-76200000D02*
X134366000Y-79290940D01*
X132842000Y-80914000D02*
X134254000Y-80914000D01*
X134254000Y-80914000D02*
X134366000Y-81026000D01*
X132469614Y-91567000D02*
X131826000Y-91567000D01*
X134366000Y-79290940D02*
X134366000Y-81026000D01*
X131445000Y-92441000D02*
X131445000Y-91948000D01*
X134366000Y-89670614D02*
X132469614Y-91567000D01*
X134366000Y-81026000D02*
X134366000Y-89670614D01*
X131445000Y-91948000D02*
X131826000Y-91567000D01*
X139700000Y-76200000D02*
X137456940Y-76200000D01*
%TO.N,/PIN20*%
X135890000Y-75565000D02*
X135890000Y-75057000D01*
X135890000Y-75057000D02*
X137287000Y-73660000D01*
X134605000Y-76850000D02*
X135890000Y-75565000D01*
X137287000Y-73660000D02*
X139700000Y-73660000D01*
X132715000Y-76850000D02*
X134605000Y-76850000D01*
D22*
%TO.N,+3V3*%
X131434499Y-79112587D02*
X131180499Y-78858587D01*
X130195489Y-96372511D02*
X129032000Y-97536000D01*
X131064000Y-87376000D02*
X131064000Y-90170000D01*
X132359000Y-87107000D02*
X131333000Y-87107000D01*
X131434499Y-86182499D02*
X131434499Y-79112587D01*
X125730000Y-99314000D02*
X125730000Y-102500000D01*
X131064000Y-90170000D02*
X130195489Y-91038511D01*
X131333000Y-87107000D02*
X131064000Y-87376000D01*
X130195489Y-91038511D02*
X130195489Y-96372511D01*
X129032000Y-97536000D02*
X127508000Y-97536000D01*
X127508000Y-97536000D02*
X125730000Y-99314000D01*
X131180499Y-78858587D02*
X131180499Y-72654501D01*
X132359000Y-87107000D02*
X131434499Y-86182499D01*
X131180499Y-72654501D02*
X131572000Y-72263000D01*
%TO.N,Net-(F1-Pad1)*%
X132969000Y-66040000D02*
X132287520Y-65358520D01*
X132287520Y-65358520D02*
X127427480Y-65358520D01*
X127427480Y-65358520D02*
X126365000Y-66421000D01*
D23*
%TO.N,/USBD+*%
X131259500Y-66616461D02*
X131073961Y-66802000D01*
X131073961Y-66802000D02*
X129794000Y-66802000D01*
D21*
%TO.N,/SWDIO*%
X134112000Y-94996000D02*
X133350000Y-95758000D01*
X134112000Y-93726000D02*
X134112000Y-94996000D01*
X133350000Y-95758000D02*
X133350000Y-102500000D01*
%TO.N,/SWCLK*%
X131445000Y-99695000D02*
X130810000Y-100330000D01*
X130810000Y-100330000D02*
X130810000Y-102500000D01*
X131445000Y-93741000D02*
X131445000Y-99695000D01*
%TO.N,/NRST*%
X128270000Y-95631000D02*
X127254000Y-95631000D01*
X123571000Y-99314000D02*
X123571000Y-103632000D01*
X135509000Y-104013000D02*
X135890000Y-103632000D01*
X123952000Y-104013000D02*
X135509000Y-104013000D01*
X127254000Y-95631000D02*
X123571000Y-99314000D01*
X128778000Y-93756000D02*
X128778000Y-95123000D01*
X128778000Y-95123000D02*
X128270000Y-95631000D01*
X123571000Y-103632000D02*
X123952000Y-104013000D01*
X135890000Y-103632000D02*
X135890000Y-102500000D01*
%TO.N,/~{RTS}*%
X130175000Y-79614000D02*
X130175000Y-72390000D01*
%TO.N,/BOOT0*%
X125640499Y-77026959D02*
X125640499Y-71835901D01*
X127516600Y-72009000D02*
X128579400Y-72009000D01*
X132080000Y-78486000D02*
X132842000Y-79248000D01*
X126191901Y-71284499D02*
X126792099Y-71284499D01*
X125640499Y-71835901D02*
X126191901Y-71284499D01*
X126792099Y-71284499D02*
X127516600Y-72009000D01*
X127353540Y-78740000D02*
X125640499Y-77026959D01*
X132842000Y-79248000D02*
X132842000Y-79614000D01*
%TD*%
%TA.AperFunction,Conductor*%
%TO.N,GND*%
G36*
X141673621Y-56408502D02*
G01*
X141720114Y-56462158D01*
X141731500Y-56514500D01*
X141731500Y-104394500D01*
X141711498Y-104462621D01*
X141657842Y-104509114D01*
X141605500Y-104520500D01*
X136201594Y-104520500D01*
X136133473Y-104500498D01*
X136086980Y-104446842D01*
X136076876Y-104376568D01*
X136106370Y-104311988D01*
X136112499Y-104305405D01*
X136282247Y-104135657D01*
X136290537Y-104128113D01*
X136297018Y-104124000D01*
X136343659Y-104074332D01*
X136346413Y-104071491D01*
X136366134Y-104051770D01*
X136368612Y-104048575D01*
X136376318Y-104039553D01*
X136401158Y-104013101D01*
X136406586Y-104007321D01*
X136416346Y-103989568D01*
X136427199Y-103973045D01*
X136434753Y-103963306D01*
X136439613Y-103957041D01*
X136457176Y-103916457D01*
X136462383Y-103905827D01*
X136483695Y-103867060D01*
X136485666Y-103859383D01*
X136485668Y-103859378D01*
X136488732Y-103847442D01*
X136495138Y-103828730D01*
X136500034Y-103817417D01*
X136503181Y-103810145D01*
X136506246Y-103790797D01*
X136509718Y-103768873D01*
X136540131Y-103704720D01*
X136578734Y-103675433D01*
X136583353Y-103673170D01*
X136583357Y-103673168D01*
X136587994Y-103670896D01*
X136769860Y-103541173D01*
X136928096Y-103383489D01*
X137058453Y-103202077D01*
X137157430Y-103001811D01*
X137222370Y-102788069D01*
X137251529Y-102566590D01*
X137253156Y-102500000D01*
X137234852Y-102277361D01*
X137180431Y-102060702D01*
X137091354Y-101855840D01*
X136970014Y-101668277D01*
X136819670Y-101503051D01*
X136815619Y-101499852D01*
X136815615Y-101499848D01*
X136648414Y-101367800D01*
X136648410Y-101367798D01*
X136644359Y-101364598D01*
X136639831Y-101362098D01*
X136523988Y-101298150D01*
X136448789Y-101256638D01*
X136443920Y-101254914D01*
X136443916Y-101254912D01*
X136243087Y-101183795D01*
X136243083Y-101183794D01*
X136238212Y-101182069D01*
X136233119Y-101181162D01*
X136233116Y-101181161D01*
X136023373Y-101143800D01*
X136023367Y-101143799D01*
X136018284Y-101142894D01*
X135944452Y-101141992D01*
X135800081Y-101140228D01*
X135800079Y-101140228D01*
X135794911Y-101140165D01*
X135574091Y-101173955D01*
X135361756Y-101243357D01*
X135288757Y-101281358D01*
X135187975Y-101333822D01*
X135163607Y-101346507D01*
X135159474Y-101349610D01*
X135159471Y-101349612D01*
X135034797Y-101443220D01*
X134984965Y-101480635D01*
X134830629Y-101642138D01*
X134723201Y-101799621D01*
X134668293Y-101844621D01*
X134597768Y-101852792D01*
X134534021Y-101821538D01*
X134513324Y-101797054D01*
X134432822Y-101672617D01*
X134432820Y-101672614D01*
X134430014Y-101668277D01*
X134279670Y-101503051D01*
X134275619Y-101499852D01*
X134275615Y-101499848D01*
X134108414Y-101367800D01*
X134108410Y-101367798D01*
X134104359Y-101364598D01*
X134099835Y-101362101D01*
X134099831Y-101362098D01*
X134048608Y-101333822D01*
X133998636Y-101283390D01*
X133983500Y-101223513D01*
X133983500Y-96072595D01*
X134003502Y-96004474D01*
X134020405Y-95983499D01*
X134258070Y-95745835D01*
X134504258Y-95499647D01*
X134512537Y-95492113D01*
X134519018Y-95488000D01*
X134565644Y-95438348D01*
X134568398Y-95435507D01*
X134588135Y-95415770D01*
X134590615Y-95412573D01*
X134598320Y-95403551D01*
X134601247Y-95400434D01*
X134628586Y-95371321D01*
X134632405Y-95364375D01*
X134632407Y-95364372D01*
X134638348Y-95353566D01*
X134649199Y-95337047D01*
X134656758Y-95327301D01*
X134661614Y-95321041D01*
X134664759Y-95313772D01*
X134664762Y-95313768D01*
X134679174Y-95280463D01*
X134684391Y-95269813D01*
X134705695Y-95231060D01*
X134710733Y-95211437D01*
X134717137Y-95192734D01*
X134722033Y-95181420D01*
X134722033Y-95181419D01*
X134725181Y-95174145D01*
X134726420Y-95166322D01*
X134726423Y-95166312D01*
X134732099Y-95130476D01*
X134734505Y-95118856D01*
X134743528Y-95083711D01*
X134743528Y-95083710D01*
X134745500Y-95076030D01*
X134745500Y-95055776D01*
X134747051Y-95036065D01*
X134748980Y-95023886D01*
X134750220Y-95016057D01*
X134746059Y-94972038D01*
X134745500Y-94960181D01*
X134745500Y-94747039D01*
X134765502Y-94678918D01*
X134820757Y-94631709D01*
X134835841Y-94625072D01*
X134892461Y-94589829D01*
X134955694Y-94550470D01*
X134955698Y-94550467D01*
X134959496Y-94548103D01*
X135058320Y-94465034D01*
X135065699Y-94458831D01*
X135065700Y-94458830D01*
X135069131Y-94455946D01*
X135166218Y-94347361D01*
X135177151Y-94330938D01*
X135243099Y-94231865D01*
X135243100Y-94231863D01*
X135245581Y-94228136D01*
X135308289Y-94096667D01*
X135350999Y-93959961D01*
X135374287Y-93816179D01*
X135376912Y-93672980D01*
X135376359Y-93668535D01*
X135376122Y-93664056D01*
X135376249Y-93664049D01*
X135375729Y-93655661D01*
X135375729Y-93226000D01*
X135370500Y-93152889D01*
X135359833Y-93116560D01*
X135356012Y-93063131D01*
X135359972Y-93035591D01*
X135375729Y-92926000D01*
X135375729Y-92438678D01*
X135375750Y-92436369D01*
X135376830Y-92377453D01*
X135376912Y-92372980D01*
X135370747Y-92323489D01*
X135359460Y-92232872D01*
X135359459Y-92232868D01*
X135358907Y-92228435D01*
X135321234Y-92090255D01*
X135316026Y-92078220D01*
X135265173Y-91960704D01*
X135265171Y-91960699D01*
X135263388Y-91956580D01*
X135188448Y-91834528D01*
X135095408Y-91722460D01*
X134989224Y-91626346D01*
X134985506Y-91623838D01*
X134872183Y-91547401D01*
X134872178Y-91547398D01*
X134868464Y-91544893D01*
X134816559Y-91519746D01*
X134763979Y-91472045D01*
X134745500Y-91406355D01*
X134745500Y-90992595D01*
X134765502Y-90924474D01*
X134782405Y-90903499D01*
X135009156Y-90676749D01*
X135266258Y-90419647D01*
X135274537Y-90412113D01*
X135281018Y-90408000D01*
X135327644Y-90358348D01*
X135330398Y-90355507D01*
X135350135Y-90335770D01*
X135352615Y-90332573D01*
X135360320Y-90323551D01*
X135367101Y-90316330D01*
X135390586Y-90291321D01*
X135394405Y-90284375D01*
X135394407Y-90284372D01*
X135400348Y-90273566D01*
X135411199Y-90257047D01*
X135418758Y-90247301D01*
X135423614Y-90241041D01*
X135426759Y-90233772D01*
X135426762Y-90233768D01*
X135441174Y-90200463D01*
X135446391Y-90189813D01*
X135467695Y-90151060D01*
X135472733Y-90131437D01*
X135479137Y-90112734D01*
X135484033Y-90101420D01*
X135484033Y-90101419D01*
X135487181Y-90094145D01*
X135488420Y-90086322D01*
X135488423Y-90086312D01*
X135494099Y-90050476D01*
X135496505Y-90038856D01*
X135505528Y-90003711D01*
X135505528Y-90003710D01*
X135507500Y-89996030D01*
X135507500Y-89975776D01*
X135509051Y-89956065D01*
X135510980Y-89943886D01*
X135512220Y-89936057D01*
X135508059Y-89892038D01*
X135507500Y-89880181D01*
X135507500Y-80324594D01*
X135527502Y-80256473D01*
X135544405Y-80235499D01*
X136369499Y-79410405D01*
X136431811Y-79376379D01*
X136458594Y-79373500D01*
X138424274Y-79373500D01*
X138492395Y-79393502D01*
X138531707Y-79433665D01*
X138599987Y-79545088D01*
X138746250Y-79713938D01*
X138918126Y-79856632D01*
X138988595Y-79897811D01*
X138991445Y-79899476D01*
X139040169Y-79951114D01*
X139053240Y-80020897D01*
X139026509Y-80086669D01*
X138986055Y-80120027D01*
X138973607Y-80126507D01*
X138969474Y-80129610D01*
X138969471Y-80129612D01*
X138828443Y-80235499D01*
X138794965Y-80260635D01*
X138640629Y-80422138D01*
X138514743Y-80606680D01*
X138420688Y-80809305D01*
X138360989Y-81024570D01*
X138337251Y-81246695D01*
X138337548Y-81251848D01*
X138337548Y-81251851D01*
X138343011Y-81346590D01*
X138350110Y-81469715D01*
X138351247Y-81474761D01*
X138351248Y-81474767D01*
X138372275Y-81568069D01*
X138399222Y-81687639D01*
X138483266Y-81894616D01*
X138525875Y-81964148D01*
X138567620Y-82032269D01*
X138599987Y-82085088D01*
X138746250Y-82253938D01*
X138918126Y-82396632D01*
X138928926Y-82402943D01*
X138991445Y-82439476D01*
X139040169Y-82491114D01*
X139053240Y-82560897D01*
X139026509Y-82626669D01*
X138986055Y-82660027D01*
X138973607Y-82666507D01*
X138969474Y-82669610D01*
X138969471Y-82669612D01*
X138799100Y-82797530D01*
X138794965Y-82800635D01*
X138640629Y-82962138D01*
X138514743Y-83146680D01*
X138420688Y-83349305D01*
X138360989Y-83564570D01*
X138337251Y-83786695D01*
X138337548Y-83791848D01*
X138337548Y-83791851D01*
X138343011Y-83886590D01*
X138350110Y-84009715D01*
X138351247Y-84014761D01*
X138351248Y-84014767D01*
X138371119Y-84102939D01*
X138399222Y-84227639D01*
X138483266Y-84434616D01*
X138599987Y-84625088D01*
X138746250Y-84793938D01*
X138918126Y-84936632D01*
X138988595Y-84977811D01*
X138991445Y-84979476D01*
X139040169Y-85031114D01*
X139053240Y-85100897D01*
X139026509Y-85166669D01*
X138986055Y-85200027D01*
X138973607Y-85206507D01*
X138969474Y-85209610D01*
X138969471Y-85209612D01*
X138945247Y-85227800D01*
X138794965Y-85340635D01*
X138640629Y-85502138D01*
X138514743Y-85686680D01*
X138499003Y-85720590D01*
X138422913Y-85884512D01*
X138420688Y-85889305D01*
X138360989Y-86104570D01*
X138337251Y-86326695D01*
X138337548Y-86331848D01*
X138337548Y-86331851D01*
X138346499Y-86487081D01*
X138350110Y-86549715D01*
X138351247Y-86554761D01*
X138351248Y-86554767D01*
X138365777Y-86619236D01*
X138399222Y-86767639D01*
X138483266Y-86974616D01*
X138485965Y-86979020D01*
X138583649Y-87138426D01*
X138599987Y-87165088D01*
X138746250Y-87333938D01*
X138918126Y-87476632D01*
X138981865Y-87513878D01*
X138991445Y-87519476D01*
X139040169Y-87571114D01*
X139053240Y-87640897D01*
X139026509Y-87706669D01*
X138986055Y-87740027D01*
X138973607Y-87746507D01*
X138969474Y-87749610D01*
X138969471Y-87749612D01*
X138799100Y-87877530D01*
X138794965Y-87880635D01*
X138640629Y-88042138D01*
X138514743Y-88226680D01*
X138499003Y-88260590D01*
X138435855Y-88396631D01*
X138420688Y-88429305D01*
X138360989Y-88644570D01*
X138337251Y-88866695D01*
X138337548Y-88871848D01*
X138337548Y-88871851D01*
X138344849Y-88998472D01*
X138350110Y-89089715D01*
X138351247Y-89094761D01*
X138351248Y-89094767D01*
X138364543Y-89153758D01*
X138399222Y-89307639D01*
X138446528Y-89424141D01*
X138477556Y-89500553D01*
X138483266Y-89514616D01*
X138495003Y-89533769D01*
X138582468Y-89676499D01*
X138599987Y-89705088D01*
X138746250Y-89873938D01*
X138918126Y-90016632D01*
X138956158Y-90038856D01*
X138991445Y-90059476D01*
X139040169Y-90111114D01*
X139053240Y-90180897D01*
X139026509Y-90246669D01*
X138986055Y-90280027D01*
X138973607Y-90286507D01*
X138969474Y-90289610D01*
X138969471Y-90289612D01*
X138799100Y-90417530D01*
X138794965Y-90420635D01*
X138773544Y-90443051D01*
X138649015Y-90573363D01*
X138640629Y-90582138D01*
X138514743Y-90766680D01*
X138493249Y-90812986D01*
X138423245Y-90963797D01*
X138420688Y-90969305D01*
X138360989Y-91184570D01*
X138337251Y-91406695D01*
X138337548Y-91411848D01*
X138337548Y-91411851D01*
X138343006Y-91506515D01*
X138350110Y-91629715D01*
X138351247Y-91634761D01*
X138351248Y-91634767D01*
X138370334Y-91719455D01*
X138399222Y-91847639D01*
X138445012Y-91960407D01*
X138476817Y-92038733D01*
X138483266Y-92054616D01*
X138599987Y-92245088D01*
X138746250Y-92413938D01*
X138918126Y-92556632D01*
X138988595Y-92597811D01*
X138991445Y-92599476D01*
X139040169Y-92651114D01*
X139053240Y-92720897D01*
X139026509Y-92786669D01*
X138986055Y-92820027D01*
X138973607Y-92826507D01*
X138969474Y-92829610D01*
X138969471Y-92829612D01*
X138835150Y-92930463D01*
X138794965Y-92960635D01*
X138735967Y-93022373D01*
X138645958Y-93116562D01*
X138640629Y-93122138D01*
X138514743Y-93306680D01*
X138420688Y-93509305D01*
X138360989Y-93724570D01*
X138337251Y-93946695D01*
X138337548Y-93951848D01*
X138337548Y-93951851D01*
X138343011Y-94046590D01*
X138350110Y-94169715D01*
X138351247Y-94174761D01*
X138351248Y-94174767D01*
X138357455Y-94202309D01*
X138399222Y-94387639D01*
X138437461Y-94481811D01*
X138463209Y-94545220D01*
X138483266Y-94594616D01*
X138503036Y-94626878D01*
X138594374Y-94775928D01*
X138599987Y-94785088D01*
X138746250Y-94953938D01*
X138750230Y-94957242D01*
X138754981Y-94961187D01*
X138794616Y-95020090D01*
X138796113Y-95091071D01*
X138758997Y-95151593D01*
X138718725Y-95176112D01*
X138674386Y-95192734D01*
X138603295Y-95219385D01*
X138486739Y-95306739D01*
X138399385Y-95423295D01*
X138348255Y-95559684D01*
X138341500Y-95621866D01*
X138341500Y-97418134D01*
X138348255Y-97480316D01*
X138399385Y-97616705D01*
X138486739Y-97733261D01*
X138603295Y-97820615D01*
X138739684Y-97871745D01*
X138801866Y-97878500D01*
X140598134Y-97878500D01*
X140660316Y-97871745D01*
X140796705Y-97820615D01*
X140913261Y-97733261D01*
X141000615Y-97616705D01*
X141051745Y-97480316D01*
X141058500Y-97418134D01*
X141058500Y-95621866D01*
X141051745Y-95559684D01*
X141000615Y-95423295D01*
X140913261Y-95306739D01*
X140796705Y-95219385D01*
X140784132Y-95214672D01*
X140678203Y-95174960D01*
X140621439Y-95132318D01*
X140596739Y-95065756D01*
X140611947Y-94996408D01*
X140633493Y-94967727D01*
X140640650Y-94960595D01*
X140738096Y-94863489D01*
X140782558Y-94801614D01*
X140865435Y-94686277D01*
X140868453Y-94682077D01*
X140876981Y-94664823D01*
X140965136Y-94486453D01*
X140965137Y-94486451D01*
X140967430Y-94481811D01*
X141032370Y-94268069D01*
X141061529Y-94046590D01*
X141062111Y-94022774D01*
X141063074Y-93983365D01*
X141063074Y-93983361D01*
X141063156Y-93980000D01*
X141044852Y-93757361D01*
X140990431Y-93540702D01*
X140901354Y-93335840D01*
X140839999Y-93241000D01*
X140782822Y-93152617D01*
X140782820Y-93152614D01*
X140780014Y-93148277D01*
X140629670Y-92983051D01*
X140625619Y-92979852D01*
X140625615Y-92979848D01*
X140458414Y-92847800D01*
X140458410Y-92847798D01*
X140454359Y-92844598D01*
X140413053Y-92821796D01*
X140363084Y-92771364D01*
X140348312Y-92701921D01*
X140373428Y-92635516D01*
X140400780Y-92608909D01*
X140444603Y-92577650D01*
X140579860Y-92481173D01*
X140738096Y-92323489D01*
X140797594Y-92240689D01*
X140865435Y-92146277D01*
X140868453Y-92142077D01*
X140902070Y-92074059D01*
X140965136Y-91946453D01*
X140965137Y-91946451D01*
X140967430Y-91941811D01*
X141032370Y-91728069D01*
X141061529Y-91506590D01*
X141062049Y-91485318D01*
X141063074Y-91443365D01*
X141063074Y-91443361D01*
X141063156Y-91440000D01*
X141044852Y-91217361D01*
X140990431Y-91000702D01*
X140901354Y-90795840D01*
X140856323Y-90726233D01*
X140782822Y-90612617D01*
X140782820Y-90612614D01*
X140780014Y-90608277D01*
X140629670Y-90443051D01*
X140625619Y-90439852D01*
X140625615Y-90439848D01*
X140458414Y-90307800D01*
X140458410Y-90307798D01*
X140454359Y-90304598D01*
X140413053Y-90281796D01*
X140363084Y-90231364D01*
X140348312Y-90161921D01*
X140373428Y-90095516D01*
X140400780Y-90068909D01*
X140444603Y-90037650D01*
X140579860Y-89941173D01*
X140738096Y-89783489D01*
X140797594Y-89700689D01*
X140865435Y-89606277D01*
X140868453Y-89602077D01*
X140872228Y-89594440D01*
X140965136Y-89406453D01*
X140965137Y-89406451D01*
X140967430Y-89401811D01*
X141032370Y-89188069D01*
X141061529Y-88966590D01*
X141061617Y-88962996D01*
X141063074Y-88903365D01*
X141063074Y-88903361D01*
X141063156Y-88900000D01*
X141044852Y-88677361D01*
X140990431Y-88460702D01*
X140901354Y-88255840D01*
X140780014Y-88068277D01*
X140629670Y-87903051D01*
X140625619Y-87899852D01*
X140625615Y-87899848D01*
X140458414Y-87767800D01*
X140458410Y-87767798D01*
X140454359Y-87764598D01*
X140413053Y-87741796D01*
X140363084Y-87691364D01*
X140348312Y-87621921D01*
X140373428Y-87555516D01*
X140400780Y-87528909D01*
X140444603Y-87497650D01*
X140579860Y-87401173D01*
X140588010Y-87393052D01*
X140699701Y-87281750D01*
X140738096Y-87243489D01*
X140797594Y-87160689D01*
X140865435Y-87066277D01*
X140868453Y-87062077D01*
X140872145Y-87054608D01*
X140965136Y-86866453D01*
X140965137Y-86866451D01*
X140967430Y-86861811D01*
X141032370Y-86648069D01*
X141061529Y-86426590D01*
X141062137Y-86401702D01*
X141063074Y-86363365D01*
X141063074Y-86363361D01*
X141063156Y-86360000D01*
X141044852Y-86137361D01*
X140990431Y-85920702D01*
X140901354Y-85715840D01*
X140780014Y-85528277D01*
X140629670Y-85363051D01*
X140625619Y-85359852D01*
X140625615Y-85359848D01*
X140458414Y-85227800D01*
X140458410Y-85227798D01*
X140454359Y-85224598D01*
X140413053Y-85201796D01*
X140363084Y-85151364D01*
X140348312Y-85081921D01*
X140373428Y-85015516D01*
X140400780Y-84988909D01*
X140444603Y-84957650D01*
X140579860Y-84861173D01*
X140738096Y-84703489D01*
X140797594Y-84620689D01*
X140865435Y-84526277D01*
X140868453Y-84522077D01*
X140967430Y-84321811D01*
X141032370Y-84108069D01*
X141061529Y-83886590D01*
X141063156Y-83820000D01*
X141044852Y-83597361D01*
X140990431Y-83380702D01*
X140901354Y-83175840D01*
X140780014Y-82988277D01*
X140629670Y-82823051D01*
X140625619Y-82819852D01*
X140625615Y-82819848D01*
X140458414Y-82687800D01*
X140458410Y-82687798D01*
X140454359Y-82684598D01*
X140413053Y-82661796D01*
X140363084Y-82611364D01*
X140348312Y-82541921D01*
X140373428Y-82475516D01*
X140400780Y-82448909D01*
X140465222Y-82402943D01*
X140579860Y-82321173D01*
X140738096Y-82163489D01*
X140797594Y-82080689D01*
X140865435Y-81986277D01*
X140868453Y-81982077D01*
X140887465Y-81943610D01*
X140965136Y-81786453D01*
X140965137Y-81786451D01*
X140967430Y-81781811D01*
X141018387Y-81614093D01*
X141030865Y-81573023D01*
X141030865Y-81573021D01*
X141032370Y-81568069D01*
X141061529Y-81346590D01*
X141063156Y-81280000D01*
X141044852Y-81057361D01*
X140990431Y-80840702D01*
X140901354Y-80635840D01*
X140802214Y-80482593D01*
X140782822Y-80452617D01*
X140782820Y-80452614D01*
X140780014Y-80448277D01*
X140629670Y-80283051D01*
X140625619Y-80279852D01*
X140625615Y-80279848D01*
X140458414Y-80147800D01*
X140458410Y-80147798D01*
X140454359Y-80144598D01*
X140413053Y-80121796D01*
X140363084Y-80071364D01*
X140348312Y-80001921D01*
X140373428Y-79935516D01*
X140400780Y-79908909D01*
X140444603Y-79877650D01*
X140579860Y-79781173D01*
X140738096Y-79623489D01*
X140747670Y-79610166D01*
X140865435Y-79446277D01*
X140868453Y-79442077D01*
X140872611Y-79433665D01*
X140965136Y-79246453D01*
X140965137Y-79246451D01*
X140967430Y-79241811D01*
X141032370Y-79028069D01*
X141061529Y-78806590D01*
X141061716Y-78798940D01*
X141063074Y-78743365D01*
X141063074Y-78743361D01*
X141063156Y-78740000D01*
X141044852Y-78517361D01*
X140990431Y-78300702D01*
X140901354Y-78095840D01*
X140830989Y-77987072D01*
X140782822Y-77912617D01*
X140782820Y-77912614D01*
X140780014Y-77908277D01*
X140629670Y-77743051D01*
X140625619Y-77739852D01*
X140625615Y-77739848D01*
X140458414Y-77607800D01*
X140458410Y-77607798D01*
X140454359Y-77604598D01*
X140413053Y-77581796D01*
X140363084Y-77531364D01*
X140348312Y-77461921D01*
X140373428Y-77395516D01*
X140400780Y-77368909D01*
X140450832Y-77333207D01*
X140579860Y-77241173D01*
X140738096Y-77083489D01*
X140750078Y-77066815D01*
X140865435Y-76906277D01*
X140868453Y-76902077D01*
X140872611Y-76893665D01*
X140965136Y-76706453D01*
X140965137Y-76706451D01*
X140967430Y-76701811D01*
X141032370Y-76488069D01*
X141061529Y-76266590D01*
X141062823Y-76213621D01*
X141063074Y-76203365D01*
X141063074Y-76203361D01*
X141063156Y-76200000D01*
X141044852Y-75977361D01*
X140990431Y-75760702D01*
X140901354Y-75555840D01*
X140780014Y-75368277D01*
X140629670Y-75203051D01*
X140625619Y-75199852D01*
X140625615Y-75199848D01*
X140458414Y-75067800D01*
X140458410Y-75067798D01*
X140454359Y-75064598D01*
X140413053Y-75041796D01*
X140363084Y-74991364D01*
X140348312Y-74921921D01*
X140373428Y-74855516D01*
X140400780Y-74828909D01*
X140444603Y-74797650D01*
X140579860Y-74701173D01*
X140605222Y-74675900D01*
X140668884Y-74612460D01*
X140738096Y-74543489D01*
X140742962Y-74536718D01*
X140865435Y-74366277D01*
X140868453Y-74362077D01*
X140872611Y-74353665D01*
X140965136Y-74166453D01*
X140965137Y-74166451D01*
X140967430Y-74161811D01*
X141032370Y-73948069D01*
X141061529Y-73726590D01*
X141063156Y-73660000D01*
X141044852Y-73437361D01*
X140990431Y-73220702D01*
X140901354Y-73015840D01*
X140822841Y-72894477D01*
X140782822Y-72832617D01*
X140782820Y-72832614D01*
X140780014Y-72828277D01*
X140629670Y-72663051D01*
X140625619Y-72659852D01*
X140625615Y-72659848D01*
X140458414Y-72527800D01*
X140458410Y-72527798D01*
X140454359Y-72524598D01*
X140258789Y-72416638D01*
X140253920Y-72414914D01*
X140253916Y-72414912D01*
X140053087Y-72343795D01*
X140053083Y-72343794D01*
X140048212Y-72342069D01*
X140043119Y-72341162D01*
X140043116Y-72341161D01*
X139833373Y-72303800D01*
X139833367Y-72303799D01*
X139828284Y-72302894D01*
X139754452Y-72301992D01*
X139610081Y-72300228D01*
X139610079Y-72300228D01*
X139604911Y-72300165D01*
X139384091Y-72333955D01*
X139171756Y-72403357D01*
X138973607Y-72506507D01*
X138969474Y-72509610D01*
X138969471Y-72509612D01*
X138807125Y-72631505D01*
X138794965Y-72640635D01*
X138791393Y-72644373D01*
X138705953Y-72733781D01*
X138640629Y-72802138D01*
X138637715Y-72806410D01*
X138637714Y-72806411D01*
X138525095Y-72971504D01*
X138470184Y-73016507D01*
X138421007Y-73026500D01*
X137365763Y-73026500D01*
X137354579Y-73025973D01*
X137347091Y-73024299D01*
X137339168Y-73024548D01*
X137279033Y-73026438D01*
X137275075Y-73026500D01*
X137247144Y-73026500D01*
X137243229Y-73026995D01*
X137243225Y-73026995D01*
X137243167Y-73027003D01*
X137243138Y-73027006D01*
X137231296Y-73027939D01*
X137187110Y-73029327D01*
X137169744Y-73034372D01*
X137167658Y-73034978D01*
X137148306Y-73038986D01*
X137141235Y-73039880D01*
X137128203Y-73041526D01*
X137120834Y-73044443D01*
X137120832Y-73044444D01*
X137087097Y-73057800D01*
X137075869Y-73061645D01*
X137033407Y-73073982D01*
X137026585Y-73078016D01*
X137026579Y-73078019D01*
X137015968Y-73084294D01*
X136998218Y-73092990D01*
X136986756Y-73097528D01*
X136986751Y-73097531D01*
X136979383Y-73100448D01*
X136972968Y-73105109D01*
X136943625Y-73126427D01*
X136933707Y-73132943D01*
X136915019Y-73143995D01*
X136895637Y-73155458D01*
X136881313Y-73169782D01*
X136866281Y-73182621D01*
X136849893Y-73194528D01*
X136832168Y-73215954D01*
X136821712Y-73228593D01*
X136813722Y-73237373D01*
X135497747Y-74553348D01*
X135489461Y-74560888D01*
X135482982Y-74565000D01*
X135477557Y-74570777D01*
X135436357Y-74614651D01*
X135433602Y-74617493D01*
X135413865Y-74637230D01*
X135411385Y-74640427D01*
X135403682Y-74649447D01*
X135373414Y-74681679D01*
X135369595Y-74688625D01*
X135369593Y-74688628D01*
X135363652Y-74699434D01*
X135352801Y-74715953D01*
X135340386Y-74731959D01*
X135337241Y-74739228D01*
X135337238Y-74739232D01*
X135322826Y-74772537D01*
X135317609Y-74783187D01*
X135296305Y-74821940D01*
X135294334Y-74829615D01*
X135294334Y-74829616D01*
X135291267Y-74841562D01*
X135284863Y-74860266D01*
X135276819Y-74878855D01*
X135275580Y-74886678D01*
X135275577Y-74886688D01*
X135269901Y-74922524D01*
X135267495Y-74934144D01*
X135258472Y-74969289D01*
X135256500Y-74976970D01*
X135256500Y-74997224D01*
X135254949Y-75016934D01*
X135251780Y-75036943D01*
X135252526Y-75044835D01*
X135255941Y-75080961D01*
X135256500Y-75092819D01*
X135256500Y-75250405D01*
X135236498Y-75318526D01*
X135219595Y-75339500D01*
X134379500Y-76179595D01*
X134317188Y-76213621D01*
X134290405Y-76216500D01*
X134100201Y-76216500D01*
X134032080Y-76196498D01*
X133985587Y-76142842D01*
X133975484Y-76072567D01*
X133978088Y-76054460D01*
X133978088Y-76054456D01*
X133978729Y-76050000D01*
X133978729Y-75559992D01*
X133978731Y-75559222D01*
X133979160Y-75489069D01*
X133979160Y-75489063D01*
X133979187Y-75484583D01*
X133967669Y-75400493D01*
X133960030Y-75344724D01*
X133960029Y-75344720D01*
X133959420Y-75340273D01*
X133948945Y-75303621D01*
X133949459Y-75232627D01*
X133981000Y-75179904D01*
X136254770Y-72906134D01*
X136263060Y-72898590D01*
X136269541Y-72894477D01*
X136316182Y-72844809D01*
X136318936Y-72841968D01*
X136338658Y-72822246D01*
X136341142Y-72819044D01*
X136348840Y-72810032D01*
X136373684Y-72783575D01*
X136379109Y-72777798D01*
X136388870Y-72760043D01*
X136399721Y-72743524D01*
X136412137Y-72727518D01*
X136427384Y-72692285D01*
X136429697Y-72686940D01*
X136434914Y-72676290D01*
X136456218Y-72637537D01*
X136461256Y-72617914D01*
X136467660Y-72599211D01*
X136472556Y-72587897D01*
X136472556Y-72587896D01*
X136475704Y-72580622D01*
X136476943Y-72572799D01*
X136476946Y-72572789D01*
X136482622Y-72536953D01*
X136485028Y-72525333D01*
X136494051Y-72490188D01*
X136494051Y-72490187D01*
X136496023Y-72482507D01*
X136496023Y-72462253D01*
X136497574Y-72442542D01*
X136499503Y-72430363D01*
X136500743Y-72422534D01*
X136496582Y-72378515D01*
X136496023Y-72366658D01*
X136496023Y-67742291D01*
X136496550Y-67731108D01*
X136498225Y-67723615D01*
X136497253Y-67692671D01*
X136496085Y-67655525D01*
X136496023Y-67651567D01*
X136496023Y-67623667D01*
X136495519Y-67619676D01*
X136494586Y-67607834D01*
X136493446Y-67571559D01*
X136493197Y-67563634D01*
X136487544Y-67544175D01*
X136483535Y-67524816D01*
X136483369Y-67523506D01*
X136480997Y-67504726D01*
X136478081Y-67497360D01*
X136478079Y-67497354D01*
X136464723Y-67463621D01*
X136460878Y-67452391D01*
X136450753Y-67417540D01*
X136450753Y-67417539D01*
X136448542Y-67409930D01*
X136438228Y-67392489D01*
X136429531Y-67374736D01*
X136424995Y-67363281D01*
X136422075Y-67355906D01*
X136396086Y-67320135D01*
X136389570Y-67310215D01*
X136380765Y-67295327D01*
X136367065Y-67272161D01*
X136352744Y-67257840D01*
X136339903Y-67242806D01*
X136332654Y-67232829D01*
X136327995Y-67226416D01*
X136321890Y-67221365D01*
X136321885Y-67221360D01*
X136293919Y-67198224D01*
X136285141Y-67190236D01*
X135504652Y-66409747D01*
X135497112Y-66401461D01*
X135493000Y-66394982D01*
X135443348Y-66348356D01*
X135440507Y-66345602D01*
X135420770Y-66325865D01*
X135417573Y-66323385D01*
X135408551Y-66315680D01*
X135382100Y-66290841D01*
X135376321Y-66285414D01*
X135369375Y-66281595D01*
X135369372Y-66281593D01*
X135358566Y-66275652D01*
X135342047Y-66264801D01*
X135341583Y-66264441D01*
X135326041Y-66252386D01*
X135318772Y-66249241D01*
X135318768Y-66249238D01*
X135285463Y-66234826D01*
X135274813Y-66229609D01*
X135236060Y-66208305D01*
X135216437Y-66203267D01*
X135197734Y-66196863D01*
X135186420Y-66191967D01*
X135186419Y-66191967D01*
X135179145Y-66188819D01*
X135171322Y-66187580D01*
X135171312Y-66187577D01*
X135135476Y-66181901D01*
X135123856Y-66179495D01*
X135088711Y-66170472D01*
X135088710Y-66170472D01*
X135081030Y-66168500D01*
X135060776Y-66168500D01*
X135041065Y-66166949D01*
X135028886Y-66165020D01*
X135021057Y-66163780D01*
X134991786Y-66166547D01*
X134977039Y-66167941D01*
X134965181Y-66168500D01*
X134055685Y-66168500D01*
X134044502Y-66167973D01*
X134037009Y-66166298D01*
X134029083Y-66166547D01*
X134029081Y-66166547D01*
X134011771Y-66167091D01*
X133943056Y-66149238D01*
X133894901Y-66097069D01*
X133882207Y-66042830D01*
X133882504Y-66040000D01*
X133862542Y-65850072D01*
X133803527Y-65668444D01*
X133708040Y-65503056D01*
X133580253Y-65361134D01*
X133425752Y-65248882D01*
X133419724Y-65246198D01*
X133419722Y-65246197D01*
X133258758Y-65174532D01*
X133220912Y-65148520D01*
X132865756Y-64793364D01*
X132864828Y-64792427D01*
X132806677Y-64733045D01*
X132806676Y-64733044D01*
X132801749Y-64728013D01*
X132765299Y-64704522D01*
X132754974Y-64697103D01*
X132721077Y-64670044D01*
X132690882Y-64655447D01*
X132677465Y-64647918D01*
X132675462Y-64646627D01*
X132649282Y-64629755D01*
X132642665Y-64627347D01*
X132642660Y-64627344D01*
X132608547Y-64614928D01*
X132596804Y-64609967D01*
X132564117Y-64594166D01*
X132564112Y-64594164D01*
X132557771Y-64591099D01*
X132550913Y-64589516D01*
X132550911Y-64589515D01*
X132525094Y-64583555D01*
X132510351Y-64579188D01*
X132478835Y-64567717D01*
X132471845Y-64566834D01*
X132471837Y-64566832D01*
X132435819Y-64562282D01*
X132423267Y-64560046D01*
X132387906Y-64551882D01*
X132387903Y-64551882D01*
X132381035Y-64550296D01*
X132373989Y-64550271D01*
X132373986Y-64550271D01*
X132340464Y-64550154D01*
X132339582Y-64550125D01*
X132338751Y-64550020D01*
X132302101Y-64550020D01*
X132301661Y-64550019D01*
X132203177Y-64549675D01*
X132203172Y-64549675D01*
X132199650Y-64549663D01*
X132198450Y-64549931D01*
X132196813Y-64550020D01*
X127483939Y-64550020D01*
X127415818Y-64530018D01*
X127369325Y-64476362D01*
X127359221Y-64406088D01*
X127373524Y-64363319D01*
X127418006Y-64282407D01*
X127422834Y-64271142D01*
X127478880Y-64094462D01*
X127481430Y-64082468D01*
X127497607Y-63938239D01*
X127498000Y-63931215D01*
X127498000Y-63715026D01*
X127518002Y-63646905D01*
X127571658Y-63600412D01*
X127641932Y-63590308D01*
X127651486Y-63592061D01*
X127821494Y-63630062D01*
X127821501Y-63630063D01*
X127826543Y-63631190D01*
X127832088Y-63631500D01*
X127965244Y-63631500D01*
X128100037Y-63616857D01*
X128218190Y-63577094D01*
X128265204Y-63561272D01*
X128265206Y-63561271D01*
X128271675Y-63559094D01*
X128426905Y-63465823D01*
X128431862Y-63461135D01*
X128431865Y-63461133D01*
X128553527Y-63346082D01*
X128553529Y-63346080D01*
X128558485Y-63341393D01*
X128562317Y-63335755D01*
X128562320Y-63335751D01*
X128656442Y-63197255D01*
X128660277Y-63191612D01*
X128727530Y-63023466D01*
X128728644Y-63016738D01*
X128728645Y-63016734D01*
X128755993Y-62851539D01*
X128755993Y-62851536D01*
X128757108Y-62844802D01*
X128752203Y-62751198D01*
X132862892Y-62751198D01*
X132863249Y-62758015D01*
X132863249Y-62758019D01*
X132868151Y-62851539D01*
X132872370Y-62932047D01*
X132874181Y-62938620D01*
X132874181Y-62938623D01*
X132907738Y-63060452D01*
X132920461Y-63106641D01*
X133004922Y-63266836D01*
X133009327Y-63272049D01*
X133009330Y-63272053D01*
X133117406Y-63399943D01*
X133117410Y-63399947D01*
X133121813Y-63405157D01*
X133127237Y-63409304D01*
X133127238Y-63409305D01*
X133260257Y-63511006D01*
X133260261Y-63511009D01*
X133265678Y-63515150D01*
X133352372Y-63555576D01*
X133423631Y-63588805D01*
X133423634Y-63588806D01*
X133429808Y-63591685D01*
X133436456Y-63593171D01*
X133436459Y-63593172D01*
X133532686Y-63614681D01*
X133606543Y-63631190D01*
X133612088Y-63631500D01*
X133745244Y-63631500D01*
X133880037Y-63616857D01*
X133886501Y-63614682D01*
X133886504Y-63614681D01*
X133953716Y-63592061D01*
X133955811Y-63591356D01*
X134026753Y-63588586D01*
X134087932Y-63624609D01*
X134119923Y-63687990D01*
X134122000Y-63710775D01*
X134122000Y-63924657D01*
X134122301Y-63930805D01*
X134135812Y-64068603D01*
X134138195Y-64080638D01*
X134191767Y-64258076D01*
X134196441Y-64269416D01*
X134283460Y-64433077D01*
X134290249Y-64443294D01*
X134407397Y-64586933D01*
X134416041Y-64595637D01*
X134558856Y-64713784D01*
X134569027Y-64720644D01*
X134732076Y-64808804D01*
X134743381Y-64813556D01*
X134858692Y-64849250D01*
X134872795Y-64849456D01*
X134876000Y-64842701D01*
X134876000Y-64835924D01*
X135384000Y-64835924D01*
X135387973Y-64849455D01*
X135395768Y-64850575D01*
X135503521Y-64818862D01*
X135514889Y-64814269D01*
X135679154Y-64728393D01*
X135689415Y-64721679D01*
X135833873Y-64605532D01*
X135842632Y-64596954D01*
X135961778Y-64454961D01*
X135968708Y-64444841D01*
X136058002Y-64282415D01*
X136062834Y-64271142D01*
X136118880Y-64094462D01*
X136121430Y-64082468D01*
X136137607Y-63938239D01*
X136138000Y-63931215D01*
X136138000Y-63600115D01*
X136133525Y-63584876D01*
X136132135Y-63583671D01*
X136124452Y-63582000D01*
X135402115Y-63582000D01*
X135386876Y-63586475D01*
X135385671Y-63587865D01*
X135384000Y-63595548D01*
X135384000Y-64835924D01*
X134876000Y-64835924D01*
X134876000Y-63055885D01*
X135384000Y-63055885D01*
X135388475Y-63071124D01*
X135389865Y-63072329D01*
X135397548Y-63074000D01*
X136119885Y-63074000D01*
X136135124Y-63069525D01*
X136136329Y-63068135D01*
X136138000Y-63060452D01*
X136138000Y-62731343D01*
X136137699Y-62725195D01*
X136124188Y-62587397D01*
X136121805Y-62575362D01*
X136068233Y-62397924D01*
X136063559Y-62386584D01*
X135976540Y-62222923D01*
X135969751Y-62212706D01*
X135852603Y-62069067D01*
X135843959Y-62060363D01*
X135701144Y-61942216D01*
X135690973Y-61935356D01*
X135527924Y-61847196D01*
X135516619Y-61842444D01*
X135401308Y-61806750D01*
X135387205Y-61806544D01*
X135384000Y-61813299D01*
X135384000Y-63055885D01*
X134876000Y-63055885D01*
X134876000Y-61820076D01*
X134872027Y-61806545D01*
X134864232Y-61805425D01*
X134756479Y-61837138D01*
X134745111Y-61841731D01*
X134580846Y-61927607D01*
X134570585Y-61934321D01*
X134426127Y-62050468D01*
X134417368Y-62059046D01*
X134373000Y-62111921D01*
X134313890Y-62151248D01*
X134242902Y-62152374D01*
X134199952Y-62131028D01*
X134134322Y-62080850D01*
X134029186Y-62031825D01*
X133976369Y-62007195D01*
X133976366Y-62007194D01*
X133970192Y-62004315D01*
X133963544Y-62002829D01*
X133963541Y-62002828D01*
X133798494Y-61965936D01*
X133798495Y-61965936D01*
X133793457Y-61964810D01*
X133787912Y-61964500D01*
X133654756Y-61964500D01*
X133519963Y-61979143D01*
X133436609Y-62007195D01*
X133354796Y-62034728D01*
X133354794Y-62034729D01*
X133348325Y-62036906D01*
X133193095Y-62130177D01*
X133188138Y-62134865D01*
X133188135Y-62134867D01*
X133066473Y-62249918D01*
X133061515Y-62254607D01*
X133057683Y-62260245D01*
X133057680Y-62260249D01*
X133006740Y-62335205D01*
X132959723Y-62404388D01*
X132892470Y-62572534D01*
X132891356Y-62579262D01*
X132891355Y-62579266D01*
X132866179Y-62731343D01*
X132862892Y-62751198D01*
X128752203Y-62751198D01*
X128747987Y-62670766D01*
X128747630Y-62663953D01*
X128724304Y-62579266D01*
X128701352Y-62495941D01*
X128699539Y-62489359D01*
X128615078Y-62329164D01*
X128610673Y-62323951D01*
X128610670Y-62323947D01*
X128502594Y-62196057D01*
X128502590Y-62196053D01*
X128498187Y-62190843D01*
X128492762Y-62186695D01*
X128359743Y-62084994D01*
X128359739Y-62084991D01*
X128354322Y-62080850D01*
X128249186Y-62031825D01*
X128196369Y-62007195D01*
X128196366Y-62007194D01*
X128190192Y-62004315D01*
X128183544Y-62002829D01*
X128183541Y-62002828D01*
X128018494Y-61965936D01*
X128018495Y-61965936D01*
X128013457Y-61964810D01*
X128007912Y-61964500D01*
X127874756Y-61964500D01*
X127739963Y-61979143D01*
X127656609Y-62007195D01*
X127574796Y-62034728D01*
X127574794Y-62034729D01*
X127568325Y-62036906D01*
X127416349Y-62128222D01*
X127416346Y-62128223D01*
X127413095Y-62130177D01*
X127412745Y-62129594D01*
X127351083Y-62153065D01*
X127281609Y-62138439D01*
X127243609Y-62107085D01*
X127212603Y-62069067D01*
X127203959Y-62060363D01*
X127061144Y-61942216D01*
X127050973Y-61935356D01*
X126887924Y-61847196D01*
X126876619Y-61842444D01*
X126761308Y-61806750D01*
X126747205Y-61806544D01*
X126744000Y-61813299D01*
X126744000Y-64846418D01*
X126723998Y-64914539D01*
X126707095Y-64935513D01*
X126113088Y-65529520D01*
X126075242Y-65555532D01*
X125914278Y-65627197D01*
X125914276Y-65627198D01*
X125908248Y-65629882D01*
X125753747Y-65742134D01*
X125625960Y-65884056D01*
X125622659Y-65889774D01*
X125545156Y-66024013D01*
X125493774Y-66073006D01*
X125424060Y-66086442D01*
X125419233Y-66085642D01*
X125361486Y-66079369D01*
X125354672Y-66079000D01*
X124732115Y-66079000D01*
X124716876Y-66083475D01*
X124715671Y-66084865D01*
X124714000Y-66092548D01*
X124714000Y-67164885D01*
X124718475Y-67180124D01*
X124719865Y-67181329D01*
X124727548Y-67183000D01*
X125817999Y-67183000D01*
X125817999Y-67186173D01*
X125860082Y-67186177D01*
X125898633Y-67205133D01*
X125902902Y-67208235D01*
X125902909Y-67208239D01*
X125908248Y-67212118D01*
X125914276Y-67214802D01*
X125914278Y-67214803D01*
X126076681Y-67287109D01*
X126082712Y-67289794D01*
X126176113Y-67309647D01*
X126263056Y-67328128D01*
X126263061Y-67328128D01*
X126269513Y-67329500D01*
X126460487Y-67329500D01*
X126466939Y-67328128D01*
X126466944Y-67328128D01*
X126553887Y-67309647D01*
X126647288Y-67289794D01*
X126653319Y-67287109D01*
X126815722Y-67214803D01*
X126815724Y-67214802D01*
X126821752Y-67212118D01*
X126827097Y-67208235D01*
X126910433Y-67147687D01*
X126976253Y-67099866D01*
X127104040Y-66957944D01*
X127190689Y-66807864D01*
X127196224Y-66798277D01*
X127199527Y-66792556D01*
X127208910Y-66763680D01*
X127220353Y-66728461D01*
X127251090Y-66678302D01*
X127485516Y-66443876D01*
X127725466Y-66203925D01*
X127787779Y-66169900D01*
X127814562Y-66167020D01*
X128893323Y-66167020D01*
X128961444Y-66187022D01*
X129007937Y-66240678D01*
X129018041Y-66310952D01*
X129002442Y-66356020D01*
X128964926Y-66421000D01*
X128959473Y-66430444D01*
X128900458Y-66612072D01*
X128899768Y-66618633D01*
X128899768Y-66618635D01*
X128888225Y-66728461D01*
X128880496Y-66802000D01*
X128881186Y-66808565D01*
X128898290Y-66971297D01*
X128900458Y-66991928D01*
X128959473Y-67173556D01*
X128962776Y-67179278D01*
X128962777Y-67179279D01*
X128966757Y-67186173D01*
X129054960Y-67338944D01*
X129059378Y-67343851D01*
X129059379Y-67343852D01*
X129178325Y-67475955D01*
X129182747Y-67480866D01*
X129337248Y-67593118D01*
X129343276Y-67595802D01*
X129343278Y-67595803D01*
X129477417Y-67655525D01*
X129511712Y-67670794D01*
X129605112Y-67690647D01*
X129692056Y-67709128D01*
X129692061Y-67709128D01*
X129698513Y-67710500D01*
X129889487Y-67710500D01*
X129895939Y-67709128D01*
X129895944Y-67709128D01*
X129982888Y-67690647D01*
X130076288Y-67670794D01*
X130110583Y-67655525D01*
X130244722Y-67595803D01*
X130244724Y-67595802D01*
X130250752Y-67593118D01*
X130280426Y-67571559D01*
X130399212Y-67485255D01*
X130405253Y-67480866D01*
X130431074Y-67452189D01*
X130491520Y-67414950D01*
X130524710Y-67410500D01*
X130782526Y-67410500D01*
X130833775Y-67421393D01*
X130956342Y-67475963D01*
X130977212Y-67485255D01*
X131063471Y-67503590D01*
X131157556Y-67523589D01*
X131157561Y-67523589D01*
X131164013Y-67524961D01*
X131354987Y-67524961D01*
X131361439Y-67523589D01*
X131361444Y-67523589D01*
X131455529Y-67503590D01*
X131541788Y-67485255D01*
X131551646Y-67480866D01*
X131710222Y-67410264D01*
X131710224Y-67410263D01*
X131716252Y-67407579D01*
X131870753Y-67295327D01*
X131878153Y-67287109D01*
X131994121Y-67158313D01*
X131994122Y-67158312D01*
X131998540Y-67153405D01*
X132056814Y-67052471D01*
X132090723Y-66993740D01*
X132090724Y-66993739D01*
X132094027Y-66988017D01*
X132153042Y-66806389D01*
X132153732Y-66799825D01*
X132155106Y-66793361D01*
X132157220Y-66793810D01*
X132180402Y-66737474D01*
X132238626Y-66696848D01*
X132309571Y-66694149D01*
X132357224Y-66719586D01*
X132357747Y-66718866D01*
X132472171Y-66802000D01*
X132480242Y-66807864D01*
X132523596Y-66864086D01*
X132529671Y-66934823D01*
X132499817Y-66994110D01*
X132418392Y-67084542D01*
X132415091Y-67090260D01*
X132346977Y-67208237D01*
X132322905Y-67249930D01*
X132263890Y-67431558D01*
X132263200Y-67438119D01*
X132263200Y-67438121D01*
X132258528Y-67482570D01*
X132243928Y-67621486D01*
X132244618Y-67628051D01*
X132251851Y-67696865D01*
X132263890Y-67811414D01*
X132322905Y-67993042D01*
X132326208Y-67998764D01*
X132326209Y-67998765D01*
X132386299Y-68102843D01*
X132403037Y-68171838D01*
X132379817Y-68238930D01*
X132324010Y-68282817D01*
X132253335Y-68289566D01*
X132232951Y-68283825D01*
X132120109Y-68241522D01*
X132104851Y-68237895D01*
X132053986Y-68232369D01*
X132047172Y-68232000D01*
X131758378Y-68232000D01*
X131743460Y-68231114D01*
X131715170Y-68227741D01*
X131701172Y-68227643D01*
X131666282Y-68231310D01*
X131653112Y-68232000D01*
X131549615Y-68232000D01*
X131534376Y-68236475D01*
X131533171Y-68237865D01*
X131531500Y-68245548D01*
X131531500Y-68491674D01*
X131539030Y-68517319D01*
X131702500Y-68680790D01*
X132219902Y-69198191D01*
X132243360Y-69211000D01*
X132492384Y-69211000D01*
X132507623Y-69206525D01*
X132508828Y-69205135D01*
X132510499Y-69197452D01*
X132510499Y-69105648D01*
X132511725Y-69088112D01*
X132514745Y-69066626D01*
X132515351Y-69058743D01*
X132515558Y-69043962D01*
X132515171Y-69036062D01*
X132511284Y-69001407D01*
X132510499Y-68987362D01*
X132510499Y-68695331D01*
X132510129Y-68688510D01*
X132504605Y-68637648D01*
X132500979Y-68622397D01*
X132465331Y-68527306D01*
X132460148Y-68456499D01*
X132494069Y-68394130D01*
X132556324Y-68360000D01*
X132627148Y-68364947D01*
X132657373Y-68381139D01*
X132700680Y-68412604D01*
X132706708Y-68415288D01*
X132706710Y-68415289D01*
X132866319Y-68486351D01*
X132875144Y-68490280D01*
X132968545Y-68510133D01*
X133055488Y-68528614D01*
X133055493Y-68528614D01*
X133061945Y-68529986D01*
X133252919Y-68529986D01*
X133265697Y-68527270D01*
X133300862Y-68519796D01*
X133371653Y-68525199D01*
X133428285Y-68568016D01*
X133452368Y-68629872D01*
X133453186Y-68637649D01*
X133456660Y-68670707D01*
X133515675Y-68852335D01*
X133611162Y-69017723D01*
X133615580Y-69022630D01*
X133615581Y-69022631D01*
X133726012Y-69145277D01*
X133738949Y-69159645D01*
X133893450Y-69271897D01*
X133899478Y-69274581D01*
X133899480Y-69274582D01*
X134061883Y-69346888D01*
X134067914Y-69349573D01*
X134173409Y-69371997D01*
X134230198Y-69384068D01*
X134292672Y-69417797D01*
X134326993Y-69479946D01*
X134330001Y-69507315D01*
X134330001Y-69708504D01*
X134309999Y-69776625D01*
X134293096Y-69797600D01*
X134149099Y-69941596D01*
X134086787Y-69975621D01*
X134060004Y-69978500D01*
X132638197Y-69978500D01*
X132570076Y-69958498D01*
X132523583Y-69904842D01*
X132512982Y-69866542D01*
X132511285Y-69851410D01*
X132510500Y-69837368D01*
X132510500Y-69737115D01*
X132506025Y-69721876D01*
X132504635Y-69720671D01*
X132496952Y-69719000D01*
X132250826Y-69719000D01*
X132225181Y-69726530D01*
X132061710Y-69890000D01*
X132010114Y-69941596D01*
X131947802Y-69975621D01*
X131921019Y-69978500D01*
X131461813Y-69978500D01*
X131393692Y-69958498D01*
X131347199Y-69904842D01*
X131345746Y-69899148D01*
X131333711Y-69880421D01*
X131290311Y-69837021D01*
X131276369Y-69829409D01*
X131274534Y-69829540D01*
X131267920Y-69833791D01*
X131224519Y-69877191D01*
X131205028Y-69912886D01*
X131154826Y-69963088D01*
X131094441Y-69978500D01*
X130633980Y-69978500D01*
X130565859Y-69958498D01*
X130544885Y-69941595D01*
X130493290Y-69890000D01*
X130335101Y-69731812D01*
X130311639Y-69719000D01*
X130062616Y-69719000D01*
X130047377Y-69723475D01*
X130046172Y-69724865D01*
X130044501Y-69732548D01*
X130044501Y-69830869D01*
X130043507Y-69846663D01*
X130040774Y-69868294D01*
X130012391Y-69933370D01*
X129953331Y-69972771D01*
X129915768Y-69978500D01*
X128343200Y-69978500D01*
X128275079Y-69958498D01*
X128255853Y-69942157D01*
X128255580Y-69942460D01*
X128250668Y-69938037D01*
X128246253Y-69933134D01*
X128207313Y-69904842D01*
X128097094Y-69824763D01*
X128097093Y-69824762D01*
X128091752Y-69820882D01*
X128085724Y-69818198D01*
X128085722Y-69818197D01*
X127923319Y-69745891D01*
X127923318Y-69745891D01*
X127917288Y-69743206D01*
X127815499Y-69721570D01*
X127736944Y-69704872D01*
X127736939Y-69704872D01*
X127730487Y-69703500D01*
X127539513Y-69703500D01*
X127533061Y-69704872D01*
X127533056Y-69704872D01*
X127454501Y-69721570D01*
X127352712Y-69743206D01*
X127346682Y-69745891D01*
X127346681Y-69745891D01*
X127184278Y-69818197D01*
X127184276Y-69818198D01*
X127178248Y-69820882D01*
X127172907Y-69824762D01*
X127172906Y-69824763D01*
X127155557Y-69837368D01*
X127023747Y-69933134D01*
X127019326Y-69938044D01*
X127019325Y-69938045D01*
X126985492Y-69975621D01*
X126895960Y-70075056D01*
X126892659Y-70080774D01*
X126805926Y-70231000D01*
X126800473Y-70240444D01*
X126741458Y-70422072D01*
X126740768Y-70428633D01*
X126740768Y-70428635D01*
X126729256Y-70538169D01*
X126702243Y-70603826D01*
X126644021Y-70644456D01*
X126603946Y-70650999D01*
X126270668Y-70650999D01*
X126259485Y-70650472D01*
X126251992Y-70648797D01*
X126244066Y-70649046D01*
X126244065Y-70649046D01*
X126183915Y-70650937D01*
X126179956Y-70650999D01*
X126152045Y-70650999D01*
X126148111Y-70651496D01*
X126148110Y-70651496D01*
X126148045Y-70651504D01*
X126136208Y-70652437D01*
X126104391Y-70653437D01*
X126099930Y-70653577D01*
X126092011Y-70653826D01*
X126074355Y-70658955D01*
X126072559Y-70659477D01*
X126053207Y-70663485D01*
X126046136Y-70664379D01*
X126033104Y-70666025D01*
X126025735Y-70668942D01*
X126025733Y-70668943D01*
X125991998Y-70682299D01*
X125980770Y-70686144D01*
X125938308Y-70698481D01*
X125931486Y-70702515D01*
X125931480Y-70702518D01*
X125920869Y-70708793D01*
X125903119Y-70717489D01*
X125891657Y-70722027D01*
X125891652Y-70722030D01*
X125884284Y-70724947D01*
X125862327Y-70740900D01*
X125795461Y-70764757D01*
X125726310Y-70748676D01*
X125676830Y-70697761D01*
X125662731Y-70628179D01*
X125675312Y-70583135D01*
X125724670Y-70483267D01*
X125728469Y-70473672D01*
X125790377Y-70269910D01*
X125792555Y-70259837D01*
X125793986Y-70248962D01*
X125791775Y-70234778D01*
X125778617Y-70231000D01*
X124732115Y-70231000D01*
X124716876Y-70235475D01*
X124715671Y-70236865D01*
X124714000Y-70244548D01*
X124714000Y-71295517D01*
X124718064Y-71309359D01*
X124731478Y-71311393D01*
X124738184Y-71310534D01*
X124748262Y-71308392D01*
X124952255Y-71247191D01*
X124961847Y-71243431D01*
X125018072Y-71215887D01*
X125088046Y-71203880D01*
X125153403Y-71231610D01*
X125193393Y-71290273D01*
X125195319Y-71361243D01*
X125168017Y-71412364D01*
X125167168Y-71413327D01*
X125164364Y-71416131D01*
X125161884Y-71419328D01*
X125154181Y-71428348D01*
X125123913Y-71460580D01*
X125120094Y-71467526D01*
X125120092Y-71467529D01*
X125114151Y-71478335D01*
X125103300Y-71494854D01*
X125090885Y-71510860D01*
X125087740Y-71518129D01*
X125087737Y-71518133D01*
X125073325Y-71551438D01*
X125068108Y-71562088D01*
X125046804Y-71600841D01*
X125044833Y-71608516D01*
X125044833Y-71608517D01*
X125041766Y-71620463D01*
X125035362Y-71639167D01*
X125027318Y-71657756D01*
X125026079Y-71665579D01*
X125026076Y-71665589D01*
X125020400Y-71701425D01*
X125017994Y-71713045D01*
X125009784Y-71745022D01*
X125006999Y-71755871D01*
X125006999Y-71776125D01*
X125005448Y-71795835D01*
X125002279Y-71815844D01*
X125003025Y-71823736D01*
X125006440Y-71859862D01*
X125006999Y-71871720D01*
X125006999Y-76948192D01*
X125006472Y-76959375D01*
X125004797Y-76966868D01*
X125005046Y-76974794D01*
X125005046Y-76974795D01*
X125006937Y-77034945D01*
X125006999Y-77038904D01*
X125006999Y-77066815D01*
X125007496Y-77070749D01*
X125007496Y-77070750D01*
X125007504Y-77070815D01*
X125008437Y-77082652D01*
X125009826Y-77126848D01*
X125015477Y-77146298D01*
X125019486Y-77165659D01*
X125022025Y-77185756D01*
X125024944Y-77193127D01*
X125024944Y-77193129D01*
X125038303Y-77226871D01*
X125042148Y-77238101D01*
X125052175Y-77272616D01*
X125054481Y-77280552D01*
X125058514Y-77287371D01*
X125058516Y-77287376D01*
X125064792Y-77297987D01*
X125073487Y-77315735D01*
X125080947Y-77334576D01*
X125085609Y-77340992D01*
X125085609Y-77340993D01*
X125106935Y-77370346D01*
X125113451Y-77380266D01*
X125131695Y-77411114D01*
X125135957Y-77418321D01*
X125150278Y-77432642D01*
X125163118Y-77447675D01*
X125175027Y-77464066D01*
X125201180Y-77485702D01*
X125209104Y-77492257D01*
X125217883Y-77500247D01*
X126406418Y-78688783D01*
X126440444Y-78751095D01*
X126442633Y-78764706D01*
X126445794Y-78794780D01*
X126455177Y-78884054D01*
X126459998Y-78929928D01*
X126519013Y-79111556D01*
X126522316Y-79117278D01*
X126522317Y-79117279D01*
X126542609Y-79152425D01*
X126614500Y-79276944D01*
X126618918Y-79281851D01*
X126618919Y-79281852D01*
X126707327Y-79380039D01*
X126742287Y-79418866D01*
X126762656Y-79433665D01*
X126886745Y-79523821D01*
X126896788Y-79531118D01*
X126902816Y-79533802D01*
X126902818Y-79533803D01*
X126928165Y-79545088D01*
X127071252Y-79608794D01*
X127157549Y-79627137D01*
X127251596Y-79647128D01*
X127251601Y-79647128D01*
X127258053Y-79648500D01*
X127449027Y-79648500D01*
X127455479Y-79647128D01*
X127455484Y-79647128D01*
X127549531Y-79627137D01*
X127635828Y-79608794D01*
X127778915Y-79545088D01*
X127804262Y-79533803D01*
X127804264Y-79533802D01*
X127810292Y-79531118D01*
X127820336Y-79523821D01*
X127944424Y-79433665D01*
X127964793Y-79418866D01*
X127999753Y-79380039D01*
X128088161Y-79281852D01*
X128088162Y-79281851D01*
X128092580Y-79276944D01*
X128164471Y-79152425D01*
X128184763Y-79117279D01*
X128184764Y-79117278D01*
X128188067Y-79111556D01*
X128247082Y-78929928D01*
X128251904Y-78884054D01*
X128266354Y-78746565D01*
X128267044Y-78740000D01*
X128259119Y-78664594D01*
X128247772Y-78556635D01*
X128247772Y-78556633D01*
X128247082Y-78550072D01*
X128188067Y-78368444D01*
X128092580Y-78203056D01*
X128012794Y-78114444D01*
X127969215Y-78066045D01*
X127969214Y-78066044D01*
X127964793Y-78061134D01*
X127951539Y-78051504D01*
X127936746Y-78040756D01*
X127889762Y-78006620D01*
X127846409Y-77950400D01*
X127840333Y-77879664D01*
X127873465Y-77816872D01*
X127935285Y-77781961D01*
X128006166Y-77786013D01*
X128018748Y-77791287D01*
X128023428Y-77793554D01*
X128162188Y-77837838D01*
X128303426Y-77861600D01*
X128382373Y-77868682D01*
X128384795Y-77868712D01*
X128384802Y-77868712D01*
X128388116Y-77868752D01*
X128394715Y-77868833D01*
X128469035Y-77863995D01*
X128477221Y-77863729D01*
X128821519Y-77863729D01*
X128832778Y-77864233D01*
X128882373Y-77868682D01*
X128884795Y-77868712D01*
X128884802Y-77868712D01*
X128888116Y-77868752D01*
X128894715Y-77868833D01*
X128931007Y-77866471D01*
X128971408Y-77863841D01*
X128971418Y-77863840D01*
X128973829Y-77863683D01*
X128991202Y-77861195D01*
X129111161Y-77844016D01*
X129111167Y-77844015D01*
X129115606Y-77843379D01*
X129119911Y-77842120D01*
X129119916Y-77842119D01*
X129251108Y-77803755D01*
X129255410Y-77802497D01*
X129259483Y-77800645D01*
X129259486Y-77800644D01*
X129363349Y-77753420D01*
X129433639Y-77743434D01*
X129498171Y-77773034D01*
X129536455Y-77832824D01*
X129541500Y-77868121D01*
X129541500Y-78592961D01*
X129521498Y-78661082D01*
X129466243Y-78708291D01*
X129451159Y-78714928D01*
X129416268Y-78736646D01*
X129331306Y-78789530D01*
X129331302Y-78789533D01*
X129327504Y-78791897D01*
X129324076Y-78794779D01*
X129324074Y-78794780D01*
X129223810Y-78879060D01*
X129217869Y-78884054D01*
X129120782Y-78992639D01*
X129118297Y-78996372D01*
X129118294Y-78996376D01*
X129043901Y-79108135D01*
X129041419Y-79111864D01*
X128978711Y-79243333D01*
X128977374Y-79247612D01*
X128977373Y-79247615D01*
X128968210Y-79276944D01*
X128936001Y-79380039D01*
X128912713Y-79523821D01*
X128910088Y-79667020D01*
X128910641Y-79671465D01*
X128910878Y-79675944D01*
X128910751Y-79675951D01*
X128911271Y-79684339D01*
X128911271Y-80114000D01*
X128913460Y-80144598D01*
X128913525Y-80145510D01*
X128898434Y-80214884D01*
X128848232Y-80265087D01*
X128787846Y-80280500D01*
X127444767Y-80280500D01*
X127433584Y-80279973D01*
X127426091Y-80278298D01*
X127418165Y-80278547D01*
X127418164Y-80278547D01*
X127358014Y-80280438D01*
X127354055Y-80280500D01*
X127326144Y-80280500D01*
X127322210Y-80280997D01*
X127322209Y-80280997D01*
X127322144Y-80281005D01*
X127310307Y-80281938D01*
X127278490Y-80282938D01*
X127274029Y-80283078D01*
X127266110Y-80283327D01*
X127248454Y-80288456D01*
X127246658Y-80288978D01*
X127227306Y-80292986D01*
X127220235Y-80293880D01*
X127207203Y-80295526D01*
X127199834Y-80298443D01*
X127199832Y-80298444D01*
X127166097Y-80311800D01*
X127154869Y-80315645D01*
X127112407Y-80327982D01*
X127105585Y-80332016D01*
X127105579Y-80332019D01*
X127094968Y-80338294D01*
X127077218Y-80346990D01*
X127065756Y-80351528D01*
X127065751Y-80351531D01*
X127058383Y-80354448D01*
X127051968Y-80359109D01*
X127022625Y-80380427D01*
X127012707Y-80386943D01*
X126994019Y-80397995D01*
X126974637Y-80409458D01*
X126960313Y-80423782D01*
X126945281Y-80436621D01*
X126928893Y-80448528D01*
X126900712Y-80482593D01*
X126892722Y-80491373D01*
X125464746Y-81919349D01*
X125456464Y-81926886D01*
X125449982Y-81931000D01*
X125438141Y-81943610D01*
X125403374Y-81980633D01*
X125400619Y-81983476D01*
X125380865Y-82003230D01*
X125378385Y-82006427D01*
X125370682Y-82015447D01*
X125340414Y-82047679D01*
X125336595Y-82054625D01*
X125336593Y-82054628D01*
X125330652Y-82065434D01*
X125319801Y-82081953D01*
X125307386Y-82097959D01*
X125304241Y-82105228D01*
X125304238Y-82105232D01*
X125289826Y-82138537D01*
X125284609Y-82149187D01*
X125263305Y-82187940D01*
X125261334Y-82195615D01*
X125261334Y-82195616D01*
X125258267Y-82207562D01*
X125251863Y-82226266D01*
X125243819Y-82244855D01*
X125242580Y-82252678D01*
X125242577Y-82252688D01*
X125236901Y-82288524D01*
X125234495Y-82300144D01*
X125225472Y-82335289D01*
X125223500Y-82342970D01*
X125223500Y-82363224D01*
X125221949Y-82382934D01*
X125218780Y-82402943D01*
X125219526Y-82410835D01*
X125222941Y-82446961D01*
X125223500Y-82458819D01*
X125223500Y-85600500D01*
X125203498Y-85668621D01*
X125149842Y-85715114D01*
X125097500Y-85726500D01*
X123196805Y-85726500D01*
X123128684Y-85706498D01*
X123091013Y-85668940D01*
X123002822Y-85532617D01*
X123002820Y-85532614D01*
X123000014Y-85528277D01*
X122849670Y-85363051D01*
X122845619Y-85359852D01*
X122845615Y-85359848D01*
X122678414Y-85227800D01*
X122678410Y-85227798D01*
X122674359Y-85224598D01*
X122633053Y-85201796D01*
X122583084Y-85151364D01*
X122568312Y-85081921D01*
X122593428Y-85015516D01*
X122620780Y-84988909D01*
X122664603Y-84957650D01*
X122799860Y-84861173D01*
X122958096Y-84703489D01*
X123017594Y-84620689D01*
X123085435Y-84526277D01*
X123088453Y-84522077D01*
X123187430Y-84321811D01*
X123252370Y-84108069D01*
X123281529Y-83886590D01*
X123283156Y-83820000D01*
X123264852Y-83597361D01*
X123210431Y-83380702D01*
X123121354Y-83175840D01*
X123000014Y-82988277D01*
X122849670Y-82823051D01*
X122845619Y-82819852D01*
X122845615Y-82819848D01*
X122678414Y-82687800D01*
X122678410Y-82687798D01*
X122674359Y-82684598D01*
X122633053Y-82661796D01*
X122583084Y-82611364D01*
X122568312Y-82541921D01*
X122593428Y-82475516D01*
X122620780Y-82448909D01*
X122685222Y-82402943D01*
X122799860Y-82321173D01*
X122958096Y-82163489D01*
X123017594Y-82080689D01*
X123085435Y-81986277D01*
X123088453Y-81982077D01*
X123107465Y-81943610D01*
X123185136Y-81786453D01*
X123185137Y-81786451D01*
X123187430Y-81781811D01*
X123238387Y-81614093D01*
X123250865Y-81573023D01*
X123250865Y-81573021D01*
X123252370Y-81568069D01*
X123281529Y-81346590D01*
X123283156Y-81280000D01*
X123264852Y-81057361D01*
X123210431Y-80840702D01*
X123121354Y-80635840D01*
X123022214Y-80482593D01*
X123002822Y-80452617D01*
X123002820Y-80452614D01*
X123000014Y-80448277D01*
X122849670Y-80283051D01*
X122845619Y-80279852D01*
X122845615Y-80279848D01*
X122678414Y-80147800D01*
X122678410Y-80147798D01*
X122674359Y-80144598D01*
X122633053Y-80121796D01*
X122583084Y-80071364D01*
X122568312Y-80001921D01*
X122593428Y-79935516D01*
X122620780Y-79908909D01*
X122664603Y-79877650D01*
X122799860Y-79781173D01*
X122958096Y-79623489D01*
X122967670Y-79610166D01*
X123085435Y-79446277D01*
X123088453Y-79442077D01*
X123092611Y-79433665D01*
X123185136Y-79246453D01*
X123185137Y-79246451D01*
X123187430Y-79241811D01*
X123252370Y-79028069D01*
X123281529Y-78806590D01*
X123281716Y-78798940D01*
X123283074Y-78743365D01*
X123283074Y-78743361D01*
X123283156Y-78740000D01*
X123264852Y-78517361D01*
X123210431Y-78300702D01*
X123121354Y-78095840D01*
X123050989Y-77987072D01*
X123002822Y-77912617D01*
X123002820Y-77912614D01*
X123000014Y-77908277D01*
X122849670Y-77743051D01*
X122845619Y-77739852D01*
X122845615Y-77739848D01*
X122678414Y-77607800D01*
X122678410Y-77607798D01*
X122674359Y-77604598D01*
X122633053Y-77581796D01*
X122583084Y-77531364D01*
X122568312Y-77461921D01*
X122593428Y-77395516D01*
X122620780Y-77368909D01*
X122670832Y-77333207D01*
X122799860Y-77241173D01*
X122958096Y-77083489D01*
X122970078Y-77066815D01*
X123085435Y-76906277D01*
X123088453Y-76902077D01*
X123092611Y-76893665D01*
X123185136Y-76706453D01*
X123185137Y-76706451D01*
X123187430Y-76701811D01*
X123252370Y-76488069D01*
X123281529Y-76266590D01*
X123282823Y-76213621D01*
X123283074Y-76203365D01*
X123283074Y-76203361D01*
X123283156Y-76200000D01*
X123264852Y-75977361D01*
X123210431Y-75760702D01*
X123121354Y-75555840D01*
X123000014Y-75368277D01*
X122996532Y-75364450D01*
X122852798Y-75206488D01*
X122821746Y-75142642D01*
X122830141Y-75072143D01*
X122875317Y-75017375D01*
X122901761Y-75003706D01*
X123008297Y-74963767D01*
X123016705Y-74960615D01*
X123133261Y-74873261D01*
X123220615Y-74756705D01*
X123271745Y-74620316D01*
X123278500Y-74558134D01*
X123278500Y-72761866D01*
X123271745Y-72699684D01*
X123220615Y-72563295D01*
X123133261Y-72446739D01*
X123016705Y-72359385D01*
X122880316Y-72308255D01*
X122818134Y-72301500D01*
X121021866Y-72301500D01*
X120959684Y-72308255D01*
X120823295Y-72359385D01*
X120706739Y-72446739D01*
X120619385Y-72563295D01*
X120568255Y-72699684D01*
X120561500Y-72761866D01*
X120561500Y-74558134D01*
X120568255Y-74620316D01*
X120619385Y-74756705D01*
X120706739Y-74873261D01*
X120823295Y-74960615D01*
X120831704Y-74963767D01*
X120831705Y-74963768D01*
X120940451Y-75004535D01*
X120997216Y-75047176D01*
X121021916Y-75113738D01*
X121006709Y-75183087D01*
X120987316Y-75209568D01*
X120860629Y-75342138D01*
X120734743Y-75526680D01*
X120640688Y-75729305D01*
X120580989Y-75944570D01*
X120557251Y-76166695D01*
X120557548Y-76171848D01*
X120557548Y-76171851D01*
X120563011Y-76266590D01*
X120570110Y-76389715D01*
X120571247Y-76394761D01*
X120571248Y-76394767D01*
X120591119Y-76482939D01*
X120619222Y-76607639D01*
X120680673Y-76758976D01*
X120697924Y-76801459D01*
X120703266Y-76814616D01*
X120749564Y-76890168D01*
X120817291Y-77000688D01*
X120819987Y-77005088D01*
X120966250Y-77173938D01*
X121138126Y-77316632D01*
X121208595Y-77357811D01*
X121211445Y-77359476D01*
X121260169Y-77411114D01*
X121273240Y-77480897D01*
X121246509Y-77546669D01*
X121206055Y-77580027D01*
X121193607Y-77586507D01*
X121189474Y-77589610D01*
X121189471Y-77589612D01*
X121086191Y-77667157D01*
X121014965Y-77720635D01*
X120989894Y-77746870D01*
X120873344Y-77868833D01*
X120860629Y-77882138D01*
X120734743Y-78066680D01*
X120640688Y-78269305D01*
X120580989Y-78484570D01*
X120557251Y-78706695D01*
X120557548Y-78711848D01*
X120557548Y-78711851D01*
X120562878Y-78804283D01*
X120570110Y-78929715D01*
X120571247Y-78934761D01*
X120571248Y-78934767D01*
X120585133Y-78996376D01*
X120619222Y-79147639D01*
X120703266Y-79354616D01*
X120739629Y-79413955D01*
X120817291Y-79540688D01*
X120819987Y-79545088D01*
X120966250Y-79713938D01*
X121138126Y-79856632D01*
X121208595Y-79897811D01*
X121211445Y-79899476D01*
X121260169Y-79951114D01*
X121273240Y-80020897D01*
X121246509Y-80086669D01*
X121206055Y-80120027D01*
X121193607Y-80126507D01*
X121189474Y-80129610D01*
X121189471Y-80129612D01*
X121048443Y-80235499D01*
X121014965Y-80260635D01*
X120860629Y-80422138D01*
X120734743Y-80606680D01*
X120640688Y-80809305D01*
X120580989Y-81024570D01*
X120557251Y-81246695D01*
X120557548Y-81251848D01*
X120557548Y-81251851D01*
X120563011Y-81346590D01*
X120570110Y-81469715D01*
X120571247Y-81474761D01*
X120571248Y-81474767D01*
X120592275Y-81568069D01*
X120619222Y-81687639D01*
X120703266Y-81894616D01*
X120745875Y-81964148D01*
X120787620Y-82032269D01*
X120819987Y-82085088D01*
X120966250Y-82253938D01*
X121138126Y-82396632D01*
X121148926Y-82402943D01*
X121211445Y-82439476D01*
X121260169Y-82491114D01*
X121273240Y-82560897D01*
X121246509Y-82626669D01*
X121206055Y-82660027D01*
X121193607Y-82666507D01*
X121189474Y-82669610D01*
X121189471Y-82669612D01*
X121019100Y-82797530D01*
X121014965Y-82800635D01*
X120860629Y-82962138D01*
X120734743Y-83146680D01*
X120640688Y-83349305D01*
X120580989Y-83564570D01*
X120557251Y-83786695D01*
X120557548Y-83791848D01*
X120557548Y-83791851D01*
X120563011Y-83886590D01*
X120570110Y-84009715D01*
X120571247Y-84014761D01*
X120571248Y-84014767D01*
X120591119Y-84102939D01*
X120619222Y-84227639D01*
X120703266Y-84434616D01*
X120819987Y-84625088D01*
X120966250Y-84793938D01*
X121138126Y-84936632D01*
X121208595Y-84977811D01*
X121211445Y-84979476D01*
X121260169Y-85031114D01*
X121273240Y-85100897D01*
X121246509Y-85166669D01*
X121206055Y-85200027D01*
X121193607Y-85206507D01*
X121189474Y-85209610D01*
X121189471Y-85209612D01*
X121165247Y-85227800D01*
X121014965Y-85340635D01*
X120860629Y-85502138D01*
X120734743Y-85686680D01*
X120719003Y-85720590D01*
X120642913Y-85884512D01*
X120640688Y-85889305D01*
X120580989Y-86104570D01*
X120557251Y-86326695D01*
X120557548Y-86331848D01*
X120557548Y-86331851D01*
X120566499Y-86487081D01*
X120570110Y-86549715D01*
X120571247Y-86554761D01*
X120571248Y-86554767D01*
X120585777Y-86619236D01*
X120619222Y-86767639D01*
X120703266Y-86974616D01*
X120705965Y-86979020D01*
X120803649Y-87138426D01*
X120819987Y-87165088D01*
X120966250Y-87333938D01*
X121138126Y-87476632D01*
X121201865Y-87513878D01*
X121211445Y-87519476D01*
X121260169Y-87571114D01*
X121273240Y-87640897D01*
X121246509Y-87706669D01*
X121206055Y-87740027D01*
X121193607Y-87746507D01*
X121189474Y-87749610D01*
X121189471Y-87749612D01*
X121019100Y-87877530D01*
X121014965Y-87880635D01*
X120860629Y-88042138D01*
X120734743Y-88226680D01*
X120719003Y-88260590D01*
X120655855Y-88396631D01*
X120640688Y-88429305D01*
X120580989Y-88644570D01*
X120557251Y-88866695D01*
X120557548Y-88871848D01*
X120557548Y-88871851D01*
X120564849Y-88998472D01*
X120570110Y-89089715D01*
X120571247Y-89094761D01*
X120571248Y-89094767D01*
X120584543Y-89153758D01*
X120619222Y-89307639D01*
X120666528Y-89424141D01*
X120697556Y-89500553D01*
X120703266Y-89514616D01*
X120715003Y-89533769D01*
X120802468Y-89676499D01*
X120819987Y-89705088D01*
X120966250Y-89873938D01*
X121138126Y-90016632D01*
X121176158Y-90038856D01*
X121211445Y-90059476D01*
X121260169Y-90111114D01*
X121273240Y-90180897D01*
X121246509Y-90246669D01*
X121206055Y-90280027D01*
X121193607Y-90286507D01*
X121189474Y-90289610D01*
X121189471Y-90289612D01*
X121019100Y-90417530D01*
X121014965Y-90420635D01*
X120993544Y-90443051D01*
X120869015Y-90573363D01*
X120860629Y-90582138D01*
X120734743Y-90766680D01*
X120713249Y-90812986D01*
X120643245Y-90963797D01*
X120640688Y-90969305D01*
X120580989Y-91184570D01*
X120557251Y-91406695D01*
X120557548Y-91411848D01*
X120557548Y-91411851D01*
X120563006Y-91506515D01*
X120570110Y-91629715D01*
X120571247Y-91634761D01*
X120571248Y-91634767D01*
X120590334Y-91719455D01*
X120619222Y-91847639D01*
X120665012Y-91960407D01*
X120696817Y-92038733D01*
X120703266Y-92054616D01*
X120819987Y-92245088D01*
X120966250Y-92413938D01*
X121138126Y-92556632D01*
X121208595Y-92597811D01*
X121211445Y-92599476D01*
X121260169Y-92651114D01*
X121273240Y-92720897D01*
X121246509Y-92786669D01*
X121206055Y-92820027D01*
X121193607Y-92826507D01*
X121189474Y-92829610D01*
X121189471Y-92829612D01*
X121055150Y-92930463D01*
X121014965Y-92960635D01*
X120955967Y-93022373D01*
X120865958Y-93116562D01*
X120860629Y-93122138D01*
X120734743Y-93306680D01*
X120640688Y-93509305D01*
X120580989Y-93724570D01*
X120557251Y-93946695D01*
X120557548Y-93951848D01*
X120557548Y-93951851D01*
X120563011Y-94046590D01*
X120570110Y-94169715D01*
X120571247Y-94174761D01*
X120571248Y-94174767D01*
X120577455Y-94202309D01*
X120619222Y-94387639D01*
X120657461Y-94481811D01*
X120683209Y-94545220D01*
X120703266Y-94594616D01*
X120723036Y-94626878D01*
X120814374Y-94775928D01*
X120819987Y-94785088D01*
X120966250Y-94953938D01*
X121138126Y-95096632D01*
X121186007Y-95124611D01*
X121211445Y-95139476D01*
X121260169Y-95191114D01*
X121273240Y-95260897D01*
X121246509Y-95326669D01*
X121206055Y-95360027D01*
X121193607Y-95366507D01*
X121189474Y-95369610D01*
X121189471Y-95369612D01*
X121019100Y-95497530D01*
X121014965Y-95500635D01*
X120982234Y-95534886D01*
X120902158Y-95618681D01*
X120860629Y-95662138D01*
X120734743Y-95846680D01*
X120640688Y-96049305D01*
X120580989Y-96264570D01*
X120557251Y-96486695D01*
X120557548Y-96491848D01*
X120557548Y-96491851D01*
X120563011Y-96586590D01*
X120570110Y-96709715D01*
X120571247Y-96714761D01*
X120571248Y-96714767D01*
X120580578Y-96756166D01*
X120619222Y-96927639D01*
X120657461Y-97021811D01*
X120695296Y-97114987D01*
X120703266Y-97134616D01*
X120819987Y-97325088D01*
X120966250Y-97493938D01*
X121138126Y-97636632D01*
X121331000Y-97749338D01*
X121539692Y-97829030D01*
X121544760Y-97830061D01*
X121544763Y-97830062D01*
X121652017Y-97851883D01*
X121758597Y-97873567D01*
X121763772Y-97873757D01*
X121763774Y-97873757D01*
X121976673Y-97881564D01*
X121976677Y-97881564D01*
X121981837Y-97881753D01*
X121986957Y-97881097D01*
X121986959Y-97881097D01*
X122198288Y-97854025D01*
X122198289Y-97854025D01*
X122203416Y-97853368D01*
X122208366Y-97851883D01*
X122412429Y-97790661D01*
X122412434Y-97790659D01*
X122417384Y-97789174D01*
X122617994Y-97690896D01*
X122799860Y-97561173D01*
X122958096Y-97403489D01*
X123017594Y-97320689D01*
X123085435Y-97226277D01*
X123088453Y-97222077D01*
X123101790Y-97195093D01*
X123185136Y-97026453D01*
X123185137Y-97026451D01*
X123187430Y-97021811D01*
X123252370Y-96808069D01*
X123281529Y-96586590D01*
X123283156Y-96520000D01*
X123264852Y-96297361D01*
X123210431Y-96080702D01*
X123121354Y-95875840D01*
X123037250Y-95745835D01*
X123002822Y-95692617D01*
X123002820Y-95692614D01*
X123000014Y-95688277D01*
X122849670Y-95523051D01*
X122845619Y-95519852D01*
X122845615Y-95519848D01*
X122678414Y-95387800D01*
X122678410Y-95387798D01*
X122674359Y-95384598D01*
X122633053Y-95361796D01*
X122583084Y-95311364D01*
X122568312Y-95241921D01*
X122593428Y-95175516D01*
X122620780Y-95148909D01*
X122688050Y-95100926D01*
X122799860Y-95021173D01*
X122822362Y-94998750D01*
X122954435Y-94867137D01*
X122958096Y-94863489D01*
X123002558Y-94801614D01*
X123085435Y-94686277D01*
X123088453Y-94682077D01*
X123096981Y-94664823D01*
X123185136Y-94486453D01*
X123185137Y-94486451D01*
X123187430Y-94481811D01*
X123252370Y-94268069D01*
X123281529Y-94046590D01*
X123282111Y-94022774D01*
X123283074Y-93983365D01*
X123283074Y-93983361D01*
X123283156Y-93980000D01*
X123264852Y-93757361D01*
X123210431Y-93540702D01*
X123121354Y-93335840D01*
X123059999Y-93241000D01*
X123002822Y-93152617D01*
X123002820Y-93152614D01*
X123000014Y-93148277D01*
X122849670Y-92983051D01*
X122845619Y-92979852D01*
X122845615Y-92979848D01*
X122678414Y-92847800D01*
X122678410Y-92847798D01*
X122674359Y-92844598D01*
X122633053Y-92821796D01*
X122583084Y-92771364D01*
X122568312Y-92701921D01*
X122593428Y-92635516D01*
X122620780Y-92608909D01*
X122664603Y-92577650D01*
X122799860Y-92481173D01*
X122958096Y-92323489D01*
X123017594Y-92240689D01*
X123085435Y-92146277D01*
X123088453Y-92142077D01*
X123122070Y-92074059D01*
X123185136Y-91946453D01*
X123185137Y-91946451D01*
X123187430Y-91941811D01*
X123252370Y-91728069D01*
X123281529Y-91506590D01*
X123282049Y-91485318D01*
X123283074Y-91443365D01*
X123283074Y-91443361D01*
X123283156Y-91440000D01*
X123264852Y-91217361D01*
X123210431Y-91000702D01*
X123121354Y-90795840D01*
X123076323Y-90726233D01*
X123002822Y-90612617D01*
X123002820Y-90612614D01*
X123000014Y-90608277D01*
X122849670Y-90443051D01*
X122845619Y-90439852D01*
X122845615Y-90439848D01*
X122678414Y-90307800D01*
X122678410Y-90307798D01*
X122674359Y-90304598D01*
X122633053Y-90281796D01*
X122583084Y-90231364D01*
X122568312Y-90161921D01*
X122593428Y-90095516D01*
X122620780Y-90068909D01*
X122664603Y-90037650D01*
X122799860Y-89941173D01*
X122958096Y-89783489D01*
X123017594Y-89700689D01*
X123085435Y-89606277D01*
X123088453Y-89602077D01*
X123092228Y-89594440D01*
X123185136Y-89406453D01*
X123185137Y-89406451D01*
X123187430Y-89401811D01*
X123252370Y-89188069D01*
X123281529Y-88966590D01*
X123281617Y-88962996D01*
X123283074Y-88903365D01*
X123283074Y-88903361D01*
X123283156Y-88900000D01*
X123264852Y-88677361D01*
X123210431Y-88460702D01*
X123121354Y-88255840D01*
X123000014Y-88068277D01*
X122849670Y-87903051D01*
X122845619Y-87899852D01*
X122845615Y-87899848D01*
X122678414Y-87767800D01*
X122678410Y-87767798D01*
X122674359Y-87764598D01*
X122633053Y-87741796D01*
X122583084Y-87691364D01*
X122568312Y-87621921D01*
X122593428Y-87555516D01*
X122620780Y-87528909D01*
X122664603Y-87497650D01*
X122799860Y-87401173D01*
X122808010Y-87393052D01*
X122919701Y-87281750D01*
X122958096Y-87243489D01*
X123017594Y-87160689D01*
X123085435Y-87066277D01*
X123088453Y-87062077D01*
X123090746Y-87057437D01*
X123092446Y-87054608D01*
X123144674Y-87006518D01*
X123200451Y-86993500D01*
X125351500Y-86993500D01*
X125419621Y-87013502D01*
X125466114Y-87067158D01*
X125477500Y-87119500D01*
X125477500Y-90726233D01*
X125476973Y-90737416D01*
X125475298Y-90744909D01*
X125475547Y-90752835D01*
X125475547Y-90752836D01*
X125477438Y-90812986D01*
X125477500Y-90816945D01*
X125477500Y-90844856D01*
X125477997Y-90848790D01*
X125477997Y-90848791D01*
X125478005Y-90848856D01*
X125478938Y-90860693D01*
X125480327Y-90904889D01*
X125485978Y-90924339D01*
X125489987Y-90943700D01*
X125492526Y-90963797D01*
X125495445Y-90971168D01*
X125495445Y-90971170D01*
X125508804Y-91004912D01*
X125512649Y-91016142D01*
X125522771Y-91050983D01*
X125524982Y-91058593D01*
X125535292Y-91076025D01*
X125543991Y-91093781D01*
X125551448Y-91112617D01*
X125556110Y-91119033D01*
X125556110Y-91119034D01*
X125577436Y-91148387D01*
X125583952Y-91158307D01*
X125596538Y-91179588D01*
X125606458Y-91196362D01*
X125620779Y-91210683D01*
X125633619Y-91225716D01*
X125645528Y-91242107D01*
X125651634Y-91247158D01*
X125679605Y-91270298D01*
X125688384Y-91278288D01*
X126242343Y-91832247D01*
X126249887Y-91840537D01*
X126254000Y-91847018D01*
X126259777Y-91852443D01*
X126303667Y-91893658D01*
X126306509Y-91896413D01*
X126326231Y-91916135D01*
X126329355Y-91918558D01*
X126329359Y-91918562D01*
X126329424Y-91918612D01*
X126338445Y-91926317D01*
X126370679Y-91956586D01*
X126377627Y-91960405D01*
X126377629Y-91960407D01*
X126388432Y-91966346D01*
X126404959Y-91977202D01*
X126414698Y-91984757D01*
X126414700Y-91984758D01*
X126420960Y-91989614D01*
X126461540Y-92007174D01*
X126472188Y-92012391D01*
X126510940Y-92033695D01*
X126518616Y-92035666D01*
X126518619Y-92035667D01*
X126530562Y-92038733D01*
X126549267Y-92045137D01*
X126567855Y-92053181D01*
X126575678Y-92054420D01*
X126575688Y-92054423D01*
X126611524Y-92060099D01*
X126623144Y-92062505D01*
X126658289Y-92071528D01*
X126665970Y-92073500D01*
X126686224Y-92073500D01*
X126705934Y-92075051D01*
X126725943Y-92078220D01*
X126733835Y-92077474D01*
X126769961Y-92074059D01*
X126781819Y-92073500D01*
X127415174Y-92073500D01*
X127483295Y-92093502D01*
X127529788Y-92147158D01*
X127539892Y-92217432D01*
X127538150Y-92226937D01*
X127537502Y-92229842D01*
X127536216Y-92234142D01*
X127514688Y-92378196D01*
X127514234Y-92452515D01*
X127514041Y-92484171D01*
X127513813Y-92521417D01*
X127514148Y-92523861D01*
X127514271Y-92527656D01*
X127514271Y-92956000D01*
X127519500Y-93029111D01*
X127529490Y-93063131D01*
X127530167Y-93065438D01*
X127533988Y-93118868D01*
X127514271Y-93256000D01*
X127514271Y-93746008D01*
X127514269Y-93746778D01*
X127513813Y-93821417D01*
X127533580Y-93965727D01*
X127572937Y-94103436D01*
X127632414Y-94236398D01*
X127634800Y-94240180D01*
X127634804Y-94240187D01*
X127684006Y-94318166D01*
X127708840Y-94357526D01*
X127803246Y-94468452D01*
X127806610Y-94471423D01*
X127873273Y-94530297D01*
X127910597Y-94563260D01*
X127914334Y-94565715D01*
X127914337Y-94565717D01*
X128028590Y-94640767D01*
X128028593Y-94640769D01*
X128032334Y-94643226D01*
X128036386Y-94645129D01*
X128036387Y-94645129D01*
X128072050Y-94661873D01*
X128125211Y-94708930D01*
X128144500Y-94775928D01*
X128144500Y-94808405D01*
X128124498Y-94876526D01*
X128107595Y-94897500D01*
X128044500Y-94960595D01*
X127982188Y-94994621D01*
X127955405Y-94997500D01*
X127332768Y-94997500D01*
X127321585Y-94996973D01*
X127314092Y-94995298D01*
X127306166Y-94995547D01*
X127306165Y-94995547D01*
X127246002Y-94997438D01*
X127242044Y-94997500D01*
X127214144Y-94997500D01*
X127210154Y-94998004D01*
X127198320Y-94998936D01*
X127154111Y-95000326D01*
X127146495Y-95002539D01*
X127146493Y-95002539D01*
X127134652Y-95005979D01*
X127115293Y-95009988D01*
X127113983Y-95010154D01*
X127095203Y-95012526D01*
X127087837Y-95015442D01*
X127087831Y-95015444D01*
X127054098Y-95028800D01*
X127042868Y-95032645D01*
X127008017Y-95042770D01*
X127000407Y-95044981D01*
X126993584Y-95049016D01*
X126982966Y-95055295D01*
X126965213Y-95063992D01*
X126957568Y-95067019D01*
X126946383Y-95071448D01*
X126921875Y-95089254D01*
X126910612Y-95097437D01*
X126900695Y-95103951D01*
X126862638Y-95126458D01*
X126848317Y-95140779D01*
X126833284Y-95153619D01*
X126816893Y-95165528D01*
X126809090Y-95174960D01*
X126788702Y-95199605D01*
X126780712Y-95208384D01*
X123178747Y-98810348D01*
X123170461Y-98817888D01*
X123163982Y-98822000D01*
X123158557Y-98827777D01*
X123117357Y-98871651D01*
X123114602Y-98874493D01*
X123094865Y-98894230D01*
X123092385Y-98897427D01*
X123084682Y-98906447D01*
X123054414Y-98938679D01*
X123050595Y-98945625D01*
X123050593Y-98945628D01*
X123044652Y-98956434D01*
X123033801Y-98972953D01*
X123021386Y-98988959D01*
X123018241Y-98996228D01*
X123018238Y-98996232D01*
X123003826Y-99029537D01*
X122998609Y-99040187D01*
X122977305Y-99078940D01*
X122975334Y-99086615D01*
X122975334Y-99086616D01*
X122972267Y-99098562D01*
X122965863Y-99117266D01*
X122957819Y-99135855D01*
X122956580Y-99143678D01*
X122956577Y-99143688D01*
X122950901Y-99179524D01*
X122948495Y-99191144D01*
X122937500Y-99233970D01*
X122937500Y-99254224D01*
X122935949Y-99273934D01*
X122932780Y-99293943D01*
X122933526Y-99301835D01*
X122936941Y-99337961D01*
X122937500Y-99349819D01*
X122937500Y-103553233D01*
X122936973Y-103564416D01*
X122935298Y-103571909D01*
X122935547Y-103579835D01*
X122935547Y-103579836D01*
X122937438Y-103639986D01*
X122937500Y-103643945D01*
X122937500Y-103671856D01*
X122937997Y-103675790D01*
X122937997Y-103675791D01*
X122938005Y-103675856D01*
X122938938Y-103687693D01*
X122940327Y-103731889D01*
X122945978Y-103751339D01*
X122949987Y-103770700D01*
X122952526Y-103790797D01*
X122955445Y-103798168D01*
X122955445Y-103798170D01*
X122968804Y-103831912D01*
X122972649Y-103843142D01*
X122984982Y-103885593D01*
X122989015Y-103892412D01*
X122989017Y-103892417D01*
X122995293Y-103903028D01*
X123003988Y-103920776D01*
X123011448Y-103939617D01*
X123016110Y-103946033D01*
X123016110Y-103946034D01*
X123037436Y-103975387D01*
X123043952Y-103985307D01*
X123060390Y-104013101D01*
X123066458Y-104023362D01*
X123080779Y-104037683D01*
X123093619Y-104052716D01*
X123105528Y-104069107D01*
X123139605Y-104097298D01*
X123148384Y-104105288D01*
X123348501Y-104305405D01*
X123382527Y-104367717D01*
X123377462Y-104438532D01*
X123334915Y-104495368D01*
X123268395Y-104520179D01*
X123259406Y-104520500D01*
X120014500Y-104520500D01*
X119946379Y-104500498D01*
X119899886Y-104446842D01*
X119888500Y-104394500D01*
X119888500Y-69943695D01*
X120557251Y-69943695D01*
X120557548Y-69948848D01*
X120557548Y-69948851D01*
X120558369Y-69963088D01*
X120570110Y-70166715D01*
X120571247Y-70171761D01*
X120571248Y-70171767D01*
X120584597Y-70231000D01*
X120619222Y-70384639D01*
X120703266Y-70591616D01*
X120740537Y-70652437D01*
X120809367Y-70764757D01*
X120819987Y-70782088D01*
X120966250Y-70950938D01*
X121138126Y-71093632D01*
X121331000Y-71206338D01*
X121539692Y-71286030D01*
X121544760Y-71287061D01*
X121544763Y-71287062D01*
X121639862Y-71306410D01*
X121758597Y-71330567D01*
X121763772Y-71330757D01*
X121763774Y-71330757D01*
X121976673Y-71338564D01*
X121976677Y-71338564D01*
X121981837Y-71338753D01*
X121986957Y-71338097D01*
X121986959Y-71338097D01*
X122198288Y-71311025D01*
X122198289Y-71311025D01*
X122203416Y-71310368D01*
X122208366Y-71308883D01*
X122412429Y-71247661D01*
X122412434Y-71247659D01*
X122417384Y-71246174D01*
X122617994Y-71147896D01*
X122799860Y-71018173D01*
X122958096Y-70860489D01*
X123017594Y-70777689D01*
X123088453Y-70679077D01*
X123089640Y-70679930D01*
X123136960Y-70636362D01*
X123206897Y-70624145D01*
X123272338Y-70651678D01*
X123300166Y-70683511D01*
X123357694Y-70777388D01*
X123363777Y-70785699D01*
X123503213Y-70946667D01*
X123510580Y-70953883D01*
X123674434Y-71089916D01*
X123682881Y-71095831D01*
X123866756Y-71203279D01*
X123876042Y-71207729D01*
X124075001Y-71283703D01*
X124084899Y-71286579D01*
X124188250Y-71307606D01*
X124202299Y-71306410D01*
X124206000Y-71296065D01*
X124206000Y-69704885D01*
X124714000Y-69704885D01*
X124718475Y-69720124D01*
X124719865Y-69721329D01*
X124727548Y-69723000D01*
X125778344Y-69723000D01*
X125791875Y-69719027D01*
X125793180Y-69709947D01*
X125751214Y-69542875D01*
X125747894Y-69533124D01*
X125662972Y-69337814D01*
X125658105Y-69328739D01*
X125542426Y-69149926D01*
X125536136Y-69141757D01*
X125439594Y-69035660D01*
X130040154Y-69035660D01*
X130043899Y-69073861D01*
X130044500Y-69086156D01*
X130044500Y-69192885D01*
X130048975Y-69208124D01*
X130050365Y-69209329D01*
X130058048Y-69211000D01*
X130304174Y-69211000D01*
X130329819Y-69203470D01*
X130852500Y-68680790D01*
X131010689Y-68522600D01*
X131023500Y-68499138D01*
X131023500Y-68250116D01*
X131019025Y-68234877D01*
X131017635Y-68233672D01*
X131009952Y-68232001D01*
X130908384Y-68232001D01*
X130893465Y-68231115D01*
X130865169Y-68227741D01*
X130851173Y-68227643D01*
X130816277Y-68231311D01*
X130803106Y-68232001D01*
X130507831Y-68232001D01*
X130501010Y-68232371D01*
X130450148Y-68237895D01*
X130434896Y-68241521D01*
X130314446Y-68286676D01*
X130298851Y-68295214D01*
X130196776Y-68371715D01*
X130184215Y-68384276D01*
X130107714Y-68486351D01*
X130099176Y-68501946D01*
X130054022Y-68622394D01*
X130050395Y-68637649D01*
X130044869Y-68688514D01*
X130044500Y-68695328D01*
X130044500Y-68980874D01*
X130043507Y-68996665D01*
X130040349Y-69021660D01*
X130040154Y-69035660D01*
X125439594Y-69035660D01*
X125391931Y-68983279D01*
X125360879Y-68919433D01*
X125369273Y-68848934D01*
X125414450Y-68794166D01*
X125440894Y-68780497D01*
X125548054Y-68740324D01*
X125563649Y-68731786D01*
X125665724Y-68655285D01*
X125678285Y-68642724D01*
X125754786Y-68540649D01*
X125763324Y-68525054D01*
X125808478Y-68404606D01*
X125812105Y-68389351D01*
X125817631Y-68338486D01*
X125818000Y-68331672D01*
X125818000Y-67709115D01*
X125813525Y-67693876D01*
X125812135Y-67692671D01*
X125804452Y-67691000D01*
X124732115Y-67691000D01*
X124716876Y-67695475D01*
X124715671Y-67696865D01*
X124714000Y-67704548D01*
X124714000Y-69704885D01*
X124206000Y-69704885D01*
X124206000Y-66097116D01*
X124201525Y-66081877D01*
X124200135Y-66080672D01*
X124192452Y-66079001D01*
X123565331Y-66079001D01*
X123558510Y-66079371D01*
X123507648Y-66084895D01*
X123492396Y-66088521D01*
X123371946Y-66133676D01*
X123356351Y-66142214D01*
X123254276Y-66218715D01*
X123241715Y-66231276D01*
X123165214Y-66333351D01*
X123156676Y-66348946D01*
X123115297Y-66459322D01*
X123072655Y-66516087D01*
X123006093Y-66540786D01*
X122936744Y-66525578D01*
X122904121Y-66499891D01*
X122853151Y-66443876D01*
X122853148Y-66443873D01*
X122849670Y-66440051D01*
X122845619Y-66436852D01*
X122845615Y-66436848D01*
X122678414Y-66304800D01*
X122678410Y-66304798D01*
X122674359Y-66301598D01*
X122478789Y-66193638D01*
X122473920Y-66191914D01*
X122473916Y-66191912D01*
X122273087Y-66120795D01*
X122273083Y-66120794D01*
X122268212Y-66119069D01*
X122263119Y-66118162D01*
X122263116Y-66118161D01*
X122053373Y-66080800D01*
X122053367Y-66080799D01*
X122048284Y-66079894D01*
X121974452Y-66078992D01*
X121830081Y-66077228D01*
X121830079Y-66077228D01*
X121824911Y-66077165D01*
X121604091Y-66110955D01*
X121391756Y-66180357D01*
X121330738Y-66212121D01*
X121244062Y-66257242D01*
X121193607Y-66283507D01*
X121189474Y-66286610D01*
X121189471Y-66286612D01*
X121019100Y-66414530D01*
X121014965Y-66417635D01*
X120860629Y-66579138D01*
X120857715Y-66583410D01*
X120857714Y-66583411D01*
X120838943Y-66610928D01*
X120734743Y-66763680D01*
X120640688Y-66966305D01*
X120580989Y-67181570D01*
X120557251Y-67403695D01*
X120557548Y-67408848D01*
X120557548Y-67408851D01*
X120569812Y-67621547D01*
X120570110Y-67626715D01*
X120571247Y-67631761D01*
X120571248Y-67631767D01*
X120585606Y-67695475D01*
X120619222Y-67844639D01*
X120703266Y-68051616D01*
X120705965Y-68056020D01*
X120814830Y-68233672D01*
X120819987Y-68242088D01*
X120966250Y-68410938D01*
X121138126Y-68553632D01*
X121208595Y-68594811D01*
X121211445Y-68596476D01*
X121260169Y-68648114D01*
X121273240Y-68717897D01*
X121246509Y-68783669D01*
X121206055Y-68817027D01*
X121193607Y-68823507D01*
X121189474Y-68826610D01*
X121189471Y-68826612D01*
X121065845Y-68919433D01*
X121014965Y-68957635D01*
X120963008Y-69012005D01*
X120940403Y-69035660D01*
X120860629Y-69119138D01*
X120734743Y-69303680D01*
X120640688Y-69506305D01*
X120580989Y-69721570D01*
X120557251Y-69943695D01*
X119888500Y-69943695D01*
X119888500Y-63924657D01*
X125482000Y-63924657D01*
X125482301Y-63930805D01*
X125495812Y-64068603D01*
X125498195Y-64080638D01*
X125551767Y-64258076D01*
X125556441Y-64269416D01*
X125643460Y-64433077D01*
X125650249Y-64443294D01*
X125767397Y-64586933D01*
X125776041Y-64595637D01*
X125918856Y-64713784D01*
X125929027Y-64720644D01*
X126092076Y-64808804D01*
X126103381Y-64813556D01*
X126218692Y-64849250D01*
X126232795Y-64849456D01*
X126236000Y-64842701D01*
X126236000Y-63600115D01*
X126231525Y-63584876D01*
X126230135Y-63583671D01*
X126222452Y-63582000D01*
X125500115Y-63582000D01*
X125484876Y-63586475D01*
X125483671Y-63587865D01*
X125482000Y-63595548D01*
X125482000Y-63924657D01*
X119888500Y-63924657D01*
X119888500Y-63055885D01*
X125482000Y-63055885D01*
X125486475Y-63071124D01*
X125487865Y-63072329D01*
X125495548Y-63074000D01*
X126217885Y-63074000D01*
X126233124Y-63069525D01*
X126234329Y-63068135D01*
X126236000Y-63060452D01*
X126236000Y-61820076D01*
X126232027Y-61806545D01*
X126224232Y-61805425D01*
X126116479Y-61837138D01*
X126105111Y-61841731D01*
X125940846Y-61927607D01*
X125930585Y-61934321D01*
X125786127Y-62050468D01*
X125777368Y-62059046D01*
X125658222Y-62201039D01*
X125651292Y-62211159D01*
X125561998Y-62373585D01*
X125557166Y-62384858D01*
X125501120Y-62561538D01*
X125498570Y-62573532D01*
X125482393Y-62717761D01*
X125482000Y-62724785D01*
X125482000Y-63055885D01*
X119888500Y-63055885D01*
X119888500Y-59494657D01*
X125482000Y-59494657D01*
X125482301Y-59500805D01*
X125495812Y-59638603D01*
X125498195Y-59650638D01*
X125551767Y-59828076D01*
X125556441Y-59839416D01*
X125643460Y-60003077D01*
X125650249Y-60013294D01*
X125767397Y-60156933D01*
X125776041Y-60165637D01*
X125918856Y-60283784D01*
X125929027Y-60290644D01*
X126092076Y-60378804D01*
X126103381Y-60383556D01*
X126218692Y-60419250D01*
X126232795Y-60419456D01*
X126236000Y-60412701D01*
X126236000Y-60405924D01*
X126744000Y-60405924D01*
X126747973Y-60419455D01*
X126755768Y-60420575D01*
X126863521Y-60388862D01*
X126874889Y-60384269D01*
X127039154Y-60298393D01*
X127049415Y-60291679D01*
X127193873Y-60175532D01*
X127202632Y-60166954D01*
X127321778Y-60024961D01*
X127328708Y-60014841D01*
X127418002Y-59852415D01*
X127422834Y-59841142D01*
X127478880Y-59664462D01*
X127481430Y-59652468D01*
X127497607Y-59508239D01*
X127498000Y-59501215D01*
X127498000Y-59494657D01*
X134122000Y-59494657D01*
X134122301Y-59500805D01*
X134135812Y-59638603D01*
X134138195Y-59650638D01*
X134191767Y-59828076D01*
X134196441Y-59839416D01*
X134283460Y-60003077D01*
X134290249Y-60013294D01*
X134407397Y-60156933D01*
X134416041Y-60165637D01*
X134558856Y-60283784D01*
X134569027Y-60290644D01*
X134732076Y-60378804D01*
X134743381Y-60383556D01*
X134858692Y-60419250D01*
X134872795Y-60419456D01*
X134876000Y-60412701D01*
X134876000Y-60405924D01*
X135384000Y-60405924D01*
X135387973Y-60419455D01*
X135395768Y-60420575D01*
X135503521Y-60388862D01*
X135514889Y-60384269D01*
X135679154Y-60298393D01*
X135689415Y-60291679D01*
X135833873Y-60175532D01*
X135842632Y-60166954D01*
X135961778Y-60024961D01*
X135968708Y-60014841D01*
X136058002Y-59852415D01*
X136062834Y-59841142D01*
X136118880Y-59664462D01*
X136121430Y-59652468D01*
X136137607Y-59508239D01*
X136138000Y-59501215D01*
X136138000Y-59420115D01*
X136133525Y-59404876D01*
X136132135Y-59403671D01*
X136124452Y-59402000D01*
X135402115Y-59402000D01*
X135386876Y-59406475D01*
X135385671Y-59407865D01*
X135384000Y-59415548D01*
X135384000Y-60405924D01*
X134876000Y-60405924D01*
X134876000Y-59420115D01*
X134871525Y-59404876D01*
X134870135Y-59403671D01*
X134862452Y-59402000D01*
X134140115Y-59402000D01*
X134124876Y-59406475D01*
X134123671Y-59407865D01*
X134122000Y-59415548D01*
X134122000Y-59494657D01*
X127498000Y-59494657D01*
X127498000Y-59420115D01*
X127493525Y-59404876D01*
X127492135Y-59403671D01*
X127484452Y-59402000D01*
X126762115Y-59402000D01*
X126746876Y-59406475D01*
X126745671Y-59407865D01*
X126744000Y-59415548D01*
X126744000Y-60405924D01*
X126236000Y-60405924D01*
X126236000Y-59420115D01*
X126231525Y-59404876D01*
X126230135Y-59403671D01*
X126222452Y-59402000D01*
X125500115Y-59402000D01*
X125484876Y-59406475D01*
X125483671Y-59407865D01*
X125482000Y-59415548D01*
X125482000Y-59494657D01*
X119888500Y-59494657D01*
X119888500Y-58875885D01*
X125482000Y-58875885D01*
X125486475Y-58891124D01*
X125487865Y-58892329D01*
X125495548Y-58894000D01*
X126217885Y-58894000D01*
X126233124Y-58889525D01*
X126234329Y-58888135D01*
X126236000Y-58880452D01*
X126236000Y-58875885D01*
X126744000Y-58875885D01*
X126748475Y-58891124D01*
X126749865Y-58892329D01*
X126757548Y-58894000D01*
X127479885Y-58894000D01*
X127495124Y-58889525D01*
X127496329Y-58888135D01*
X127498000Y-58880452D01*
X127498000Y-58875885D01*
X134122000Y-58875885D01*
X134126475Y-58891124D01*
X134127865Y-58892329D01*
X134135548Y-58894000D01*
X134857885Y-58894000D01*
X134873124Y-58889525D01*
X134874329Y-58888135D01*
X134876000Y-58880452D01*
X134876000Y-58875885D01*
X135384000Y-58875885D01*
X135388475Y-58891124D01*
X135389865Y-58892329D01*
X135397548Y-58894000D01*
X136119885Y-58894000D01*
X136135124Y-58889525D01*
X136136329Y-58888135D01*
X136138000Y-58880452D01*
X136138000Y-58801343D01*
X136137699Y-58795195D01*
X136124188Y-58657397D01*
X136121805Y-58645362D01*
X136068233Y-58467924D01*
X136063559Y-58456584D01*
X135976540Y-58292923D01*
X135969751Y-58282706D01*
X135852603Y-58139067D01*
X135843959Y-58130363D01*
X135701144Y-58012216D01*
X135690973Y-58005356D01*
X135527924Y-57917196D01*
X135516619Y-57912444D01*
X135401308Y-57876750D01*
X135387205Y-57876544D01*
X135384000Y-57883299D01*
X135384000Y-58875885D01*
X134876000Y-58875885D01*
X134876000Y-57890076D01*
X134872027Y-57876545D01*
X134864232Y-57875425D01*
X134756479Y-57907138D01*
X134745111Y-57911731D01*
X134580846Y-57997607D01*
X134570585Y-58004321D01*
X134426127Y-58120468D01*
X134417368Y-58129046D01*
X134298222Y-58271039D01*
X134291292Y-58281159D01*
X134201998Y-58443585D01*
X134197166Y-58454858D01*
X134141120Y-58631538D01*
X134138570Y-58643532D01*
X134122393Y-58787761D01*
X134122000Y-58794785D01*
X134122000Y-58875885D01*
X127498000Y-58875885D01*
X127498000Y-58801343D01*
X127497699Y-58795195D01*
X127484188Y-58657397D01*
X127481805Y-58645362D01*
X127428233Y-58467924D01*
X127423559Y-58456584D01*
X127336540Y-58292923D01*
X127329751Y-58282706D01*
X127212603Y-58139067D01*
X127203959Y-58130363D01*
X127061144Y-58012216D01*
X127050973Y-58005356D01*
X126887924Y-57917196D01*
X126876619Y-57912444D01*
X126761308Y-57876750D01*
X126747205Y-57876544D01*
X126744000Y-57883299D01*
X126744000Y-58875885D01*
X126236000Y-58875885D01*
X126236000Y-57890076D01*
X126232027Y-57876545D01*
X126224232Y-57875425D01*
X126116479Y-57907138D01*
X126105111Y-57911731D01*
X125940846Y-57997607D01*
X125930585Y-58004321D01*
X125786127Y-58120468D01*
X125777368Y-58129046D01*
X125658222Y-58271039D01*
X125651292Y-58281159D01*
X125561998Y-58443585D01*
X125557166Y-58454858D01*
X125501120Y-58631538D01*
X125498570Y-58643532D01*
X125482393Y-58787761D01*
X125482000Y-58794785D01*
X125482000Y-58875885D01*
X119888500Y-58875885D01*
X119888500Y-56514500D01*
X119908502Y-56446379D01*
X119962158Y-56399886D01*
X120014500Y-56388500D01*
X141605500Y-56388500D01*
X141673621Y-56408502D01*
G37*
%TD.AperFunction*%
%TA.AperFunction,Conductor*%
G36*
X130729532Y-97086026D02*
G01*
X130786368Y-97128573D01*
X130811179Y-97195093D01*
X130811500Y-97204082D01*
X130811500Y-99380405D01*
X130791498Y-99448526D01*
X130774595Y-99469501D01*
X130595203Y-99648892D01*
X130417742Y-99826353D01*
X130409463Y-99833887D01*
X130402982Y-99838000D01*
X130377335Y-99865312D01*
X130356357Y-99887651D01*
X130353602Y-99890493D01*
X130333865Y-99910230D01*
X130331385Y-99913427D01*
X130323682Y-99922447D01*
X130293414Y-99954679D01*
X130289595Y-99961625D01*
X130289593Y-99961628D01*
X130283652Y-99972434D01*
X130272801Y-99988953D01*
X130260386Y-100004959D01*
X130257241Y-100012228D01*
X130257238Y-100012232D01*
X130242826Y-100045537D01*
X130237609Y-100056187D01*
X130216305Y-100094940D01*
X130214334Y-100102615D01*
X130214334Y-100102616D01*
X130211267Y-100114562D01*
X130204863Y-100133266D01*
X130196819Y-100151855D01*
X130195580Y-100159678D01*
X130195577Y-100159688D01*
X130189901Y-100195524D01*
X130187495Y-100207144D01*
X130176500Y-100249970D01*
X130176500Y-100270224D01*
X130174949Y-100289934D01*
X130171780Y-100309943D01*
X130172526Y-100317835D01*
X130175941Y-100353961D01*
X130176500Y-100365819D01*
X130176500Y-101221692D01*
X130156498Y-101289813D01*
X130108683Y-101333453D01*
X130083607Y-101346507D01*
X130079474Y-101349610D01*
X130079471Y-101349612D01*
X129954797Y-101443220D01*
X129904965Y-101480635D01*
X129750629Y-101642138D01*
X129643204Y-101799618D01*
X129642898Y-101800066D01*
X129587987Y-101845069D01*
X129517462Y-101853240D01*
X129453715Y-101821986D01*
X129433018Y-101797502D01*
X129352426Y-101672926D01*
X129346136Y-101664757D01*
X129202806Y-101507240D01*
X129195273Y-101500215D01*
X129028139Y-101368222D01*
X129019552Y-101362517D01*
X128833117Y-101259599D01*
X128823705Y-101255369D01*
X128622959Y-101184280D01*
X128612988Y-101181646D01*
X128541837Y-101168972D01*
X128528540Y-101170432D01*
X128524000Y-101184989D01*
X128524000Y-102628000D01*
X128503998Y-102696121D01*
X128450342Y-102742614D01*
X128398000Y-102754000D01*
X128142000Y-102754000D01*
X128073879Y-102733998D01*
X128027386Y-102680342D01*
X128016000Y-102628000D01*
X128016000Y-101183102D01*
X128012082Y-101169758D01*
X127997806Y-101167771D01*
X127959324Y-101173660D01*
X127949288Y-101176051D01*
X127746868Y-101242212D01*
X127737359Y-101246209D01*
X127548463Y-101344542D01*
X127539738Y-101350036D01*
X127369433Y-101477905D01*
X127361726Y-101484748D01*
X127284478Y-101565584D01*
X127222954Y-101601014D01*
X127152042Y-101597557D01*
X127094255Y-101556311D01*
X127075402Y-101522763D01*
X127033767Y-101411703D01*
X127030615Y-101403295D01*
X126943261Y-101286739D01*
X126826705Y-101199385D01*
X126690316Y-101148255D01*
X126663086Y-101145297D01*
X126650892Y-101143972D01*
X126585330Y-101116730D01*
X126544904Y-101058366D01*
X126538500Y-101018709D01*
X126538500Y-99701082D01*
X126558502Y-99632961D01*
X126575405Y-99611987D01*
X127805986Y-98381405D01*
X127868298Y-98347380D01*
X127895081Y-98344500D01*
X129022786Y-98344500D01*
X129024106Y-98344507D01*
X129114221Y-98345451D01*
X129156597Y-98336289D01*
X129169163Y-98334231D01*
X129212255Y-98329397D01*
X129218906Y-98327081D01*
X129218910Y-98327080D01*
X129243930Y-98318367D01*
X129258742Y-98314204D01*
X129284619Y-98308609D01*
X129291510Y-98307119D01*
X129330813Y-98288792D01*
X129342589Y-98284010D01*
X129383552Y-98269745D01*
X129389527Y-98266011D01*
X129389530Y-98266010D01*
X129411995Y-98251973D01*
X129425512Y-98244634D01*
X129449514Y-98233441D01*
X129449515Y-98233440D01*
X129455902Y-98230462D01*
X129490153Y-98203894D01*
X129500612Y-98196598D01*
X129531404Y-98177358D01*
X129531407Y-98177356D01*
X129537376Y-98173626D01*
X129566179Y-98145024D01*
X129566804Y-98144439D01*
X129567470Y-98143922D01*
X129593460Y-98117932D01*
X129666082Y-98045815D01*
X129666740Y-98044778D01*
X129667843Y-98043549D01*
X130596405Y-97114987D01*
X130658717Y-97080961D01*
X130729532Y-97086026D01*
G37*
%TD.AperFunction*%
%TA.AperFunction,Conductor*%
G36*
X132834666Y-93975364D02*
G01*
X132887513Y-94022774D01*
X132901506Y-94054431D01*
X132906937Y-94073436D01*
X132966414Y-94206398D01*
X132968800Y-94210180D01*
X132968804Y-94210187D01*
X133005325Y-94268069D01*
X133042840Y-94327526D01*
X133137246Y-94438452D01*
X133244597Y-94533260D01*
X133366334Y-94613226D01*
X133370358Y-94615115D01*
X133420037Y-94665827D01*
X133434414Y-94735353D01*
X133408920Y-94801614D01*
X133397930Y-94814166D01*
X133176030Y-95036065D01*
X132957742Y-95254353D01*
X132949463Y-95261887D01*
X132942982Y-95266000D01*
X132909779Y-95301358D01*
X132896357Y-95315651D01*
X132893602Y-95318493D01*
X132873865Y-95338230D01*
X132871385Y-95341427D01*
X132863682Y-95350447D01*
X132833414Y-95382679D01*
X132829595Y-95389625D01*
X132829593Y-95389628D01*
X132823652Y-95400434D01*
X132812801Y-95416953D01*
X132800386Y-95432959D01*
X132797241Y-95440228D01*
X132797238Y-95440232D01*
X132782826Y-95473537D01*
X132777609Y-95484187D01*
X132756305Y-95522940D01*
X132754334Y-95530615D01*
X132754334Y-95530616D01*
X132751267Y-95542562D01*
X132744863Y-95561266D01*
X132736819Y-95579855D01*
X132735580Y-95587678D01*
X132735577Y-95587688D01*
X132729901Y-95623524D01*
X132727495Y-95635144D01*
X132716500Y-95677970D01*
X132716500Y-95698224D01*
X132714949Y-95717934D01*
X132711780Y-95737943D01*
X132712526Y-95745835D01*
X132715941Y-95781961D01*
X132716500Y-95793819D01*
X132716500Y-101221692D01*
X132696498Y-101289813D01*
X132648683Y-101333453D01*
X132623607Y-101346507D01*
X132619474Y-101349610D01*
X132619471Y-101349612D01*
X132494797Y-101443220D01*
X132444965Y-101480635D01*
X132290629Y-101642138D01*
X132183201Y-101799621D01*
X132128293Y-101844621D01*
X132057768Y-101852792D01*
X131994021Y-101821538D01*
X131973324Y-101797054D01*
X131892822Y-101672617D01*
X131892820Y-101672614D01*
X131890014Y-101668277D01*
X131739670Y-101503051D01*
X131735619Y-101499852D01*
X131735615Y-101499848D01*
X131568414Y-101367800D01*
X131568410Y-101367798D01*
X131564359Y-101364598D01*
X131559835Y-101362101D01*
X131559831Y-101362098D01*
X131508608Y-101333822D01*
X131458636Y-101283390D01*
X131443500Y-101223513D01*
X131443500Y-100644594D01*
X131463502Y-100576473D01*
X131480405Y-100555499D01*
X131837247Y-100198657D01*
X131845537Y-100191113D01*
X131852018Y-100187000D01*
X131898659Y-100137332D01*
X131901413Y-100134491D01*
X131921135Y-100114769D01*
X131923612Y-100111576D01*
X131931317Y-100102555D01*
X131938468Y-100094940D01*
X131961586Y-100070321D01*
X131969350Y-100056198D01*
X131971346Y-100052568D01*
X131982202Y-100036041D01*
X131989757Y-100026302D01*
X131989758Y-100026300D01*
X131994614Y-100020040D01*
X132012174Y-99979460D01*
X132017391Y-99968812D01*
X132034875Y-99937009D01*
X132034876Y-99937007D01*
X132038695Y-99930060D01*
X132043733Y-99910437D01*
X132050137Y-99891734D01*
X132055033Y-99880420D01*
X132055033Y-99880419D01*
X132058181Y-99873145D01*
X132059420Y-99865322D01*
X132059423Y-99865312D01*
X132065099Y-99829476D01*
X132067505Y-99817856D01*
X132076528Y-99782711D01*
X132076528Y-99782710D01*
X132078500Y-99775030D01*
X132078500Y-99754776D01*
X132080051Y-99735065D01*
X132081980Y-99722886D01*
X132083220Y-99715057D01*
X132079059Y-99671038D01*
X132078500Y-99659181D01*
X132078500Y-94762039D01*
X132098502Y-94693918D01*
X132153757Y-94646709D01*
X132161673Y-94643226D01*
X132168841Y-94640072D01*
X132215916Y-94610770D01*
X132288694Y-94565470D01*
X132288698Y-94565467D01*
X132292496Y-94563103D01*
X132389206Y-94481811D01*
X132398699Y-94473831D01*
X132398700Y-94473830D01*
X132402131Y-94470946D01*
X132499218Y-94362361D01*
X132502437Y-94357526D01*
X132576099Y-94246865D01*
X132576100Y-94246863D01*
X132578581Y-94243136D01*
X132641289Y-94111667D01*
X132645976Y-94096667D01*
X132660091Y-94051486D01*
X132699497Y-93992429D01*
X132764576Y-93964052D01*
X132834666Y-93975364D01*
G37*
%TD.AperFunction*%
%TA.AperFunction,Conductor*%
G36*
X129142408Y-81567502D02*
G01*
X129171232Y-81593016D01*
X129191592Y-81617540D01*
X129297776Y-81713654D01*
X129301492Y-81716161D01*
X129301494Y-81716162D01*
X129414817Y-81792599D01*
X129414822Y-81792602D01*
X129418536Y-81795107D01*
X129422573Y-81797063D01*
X129422575Y-81797064D01*
X129477006Y-81823435D01*
X129547428Y-81857554D01*
X129686188Y-81901838D01*
X129827426Y-81925600D01*
X129906373Y-81932682D01*
X129908795Y-81932712D01*
X129908802Y-81932712D01*
X129912116Y-81932752D01*
X129918715Y-81932833D01*
X129993035Y-81927995D01*
X130001221Y-81927729D01*
X130345519Y-81927729D01*
X130356778Y-81928233D01*
X130406373Y-81932682D01*
X130408795Y-81932712D01*
X130408802Y-81932712D01*
X130412116Y-81932752D01*
X130418715Y-81932833D01*
X130441489Y-81931351D01*
X130491815Y-81928075D01*
X130561091Y-81943610D01*
X130610971Y-81994133D01*
X130625999Y-82053809D01*
X130625999Y-86173285D01*
X130625992Y-86174605D01*
X130625048Y-86264720D01*
X130634210Y-86307096D01*
X130636268Y-86319662D01*
X130641102Y-86362754D01*
X130643418Y-86369405D01*
X130643419Y-86369409D01*
X130652132Y-86394429D01*
X130656295Y-86409241D01*
X130663380Y-86442009D01*
X130681707Y-86481312D01*
X130686498Y-86493113D01*
X130690725Y-86505253D01*
X130694235Y-86576163D01*
X130660827Y-86635780D01*
X130498799Y-86797808D01*
X130497862Y-86798736D01*
X130433493Y-86861771D01*
X130410002Y-86898221D01*
X130402583Y-86908546D01*
X130375524Y-86942443D01*
X130372459Y-86948784D01*
X130372458Y-86948785D01*
X130360928Y-86972637D01*
X130353399Y-86986054D01*
X130335235Y-87014238D01*
X130332827Y-87020855D01*
X130332824Y-87020860D01*
X130320408Y-87054973D01*
X130315447Y-87066716D01*
X130299646Y-87099403D01*
X130299644Y-87099408D01*
X130296579Y-87105749D01*
X130294996Y-87112607D01*
X130294995Y-87112609D01*
X130289035Y-87138426D01*
X130284668Y-87153169D01*
X130273197Y-87184685D01*
X130272314Y-87191675D01*
X130272312Y-87191683D01*
X130267762Y-87227701D01*
X130265526Y-87240253D01*
X130255776Y-87282485D01*
X130255771Y-87283829D01*
X130228955Y-87347121D01*
X130170312Y-87387140D01*
X130131487Y-87393271D01*
X129995953Y-87393271D01*
X129995953Y-87393273D01*
X129992985Y-87393682D01*
X129896562Y-87392503D01*
X129892277Y-87393063D01*
X129885240Y-87393271D01*
X129495953Y-87393271D01*
X129495953Y-87393273D01*
X129492985Y-87393682D01*
X129396562Y-87392503D01*
X129392277Y-87393063D01*
X129385240Y-87393271D01*
X128957000Y-87393271D01*
X128925014Y-87395559D01*
X128890627Y-87398018D01*
X128890626Y-87398018D01*
X128883889Y-87398500D01*
X128804382Y-87421845D01*
X128752235Y-87437157D01*
X128752233Y-87437158D01*
X128743589Y-87439696D01*
X128736010Y-87444567D01*
X128628159Y-87513878D01*
X128628156Y-87513880D01*
X128620579Y-87518750D01*
X128614678Y-87525560D01*
X128530726Y-87622445D01*
X128530724Y-87622448D01*
X128524824Y-87629257D01*
X128521080Y-87637454D01*
X128521080Y-87637455D01*
X128496461Y-87691364D01*
X128464081Y-87762266D01*
X128443271Y-87907000D01*
X128443271Y-88394322D01*
X128443250Y-88396630D01*
X128442088Y-88460020D01*
X128460093Y-88604565D01*
X128497766Y-88742745D01*
X128499548Y-88746862D01*
X128499549Y-88746866D01*
X128553635Y-88871851D01*
X128555612Y-88876420D01*
X128630552Y-88998472D01*
X128633415Y-89001920D01*
X128633416Y-89001922D01*
X128677495Y-89055016D01*
X128705618Y-89120205D01*
X128694033Y-89190250D01*
X128646418Y-89242912D01*
X128580550Y-89261500D01*
X128555513Y-89261500D01*
X128549061Y-89262872D01*
X128549056Y-89262872D01*
X128462113Y-89281353D01*
X128368712Y-89301206D01*
X128362682Y-89303891D01*
X128362681Y-89303891D01*
X128200278Y-89376197D01*
X128200276Y-89376198D01*
X128194248Y-89378882D01*
X128188909Y-89382761D01*
X128188906Y-89382763D01*
X128162689Y-89401811D01*
X128039747Y-89491134D01*
X128035326Y-89496044D01*
X128035325Y-89496045D01*
X127939854Y-89602077D01*
X127911960Y-89633056D01*
X127816473Y-89798444D01*
X127757458Y-89980072D01*
X127756768Y-89986633D01*
X127756768Y-89986635D01*
X127750675Y-90044611D01*
X127737496Y-90170000D01*
X127738186Y-90176565D01*
X127755920Y-90345291D01*
X127757458Y-90359928D01*
X127816473Y-90541556D01*
X127819776Y-90547278D01*
X127819777Y-90547279D01*
X127860319Y-90617500D01*
X127877057Y-90686496D01*
X127853836Y-90753587D01*
X127798029Y-90797474D01*
X127751200Y-90806500D01*
X127060595Y-90806500D01*
X126992474Y-90786498D01*
X126971499Y-90769595D01*
X126781404Y-90579499D01*
X126747379Y-90517187D01*
X126744500Y-90490404D01*
X126744500Y-86692767D01*
X126745027Y-86681584D01*
X126746702Y-86674091D01*
X126745858Y-86647224D01*
X126744562Y-86606014D01*
X126744500Y-86602055D01*
X126744500Y-86574144D01*
X126743995Y-86570144D01*
X126743062Y-86558301D01*
X126741922Y-86522029D01*
X126741673Y-86514110D01*
X126736022Y-86494658D01*
X126732014Y-86475306D01*
X126730467Y-86463063D01*
X126729474Y-86455203D01*
X126726556Y-86447832D01*
X126713200Y-86414097D01*
X126709355Y-86402870D01*
X126706937Y-86394548D01*
X126697018Y-86360407D01*
X126692984Y-86353585D01*
X126692981Y-86353579D01*
X126686706Y-86342968D01*
X126678010Y-86325218D01*
X126673472Y-86313756D01*
X126673469Y-86313751D01*
X126670552Y-86306383D01*
X126644573Y-86270625D01*
X126638057Y-86260707D01*
X126619575Y-86229457D01*
X126615542Y-86222637D01*
X126601218Y-86208313D01*
X126588376Y-86193278D01*
X126576472Y-86176893D01*
X126542406Y-86148711D01*
X126533627Y-86140722D01*
X126527405Y-86134500D01*
X126493379Y-86072188D01*
X126490500Y-86045405D01*
X126490500Y-82737594D01*
X126510502Y-82669473D01*
X126527405Y-82648499D01*
X127591499Y-81584405D01*
X127653811Y-81550379D01*
X127680594Y-81547500D01*
X129074287Y-81547500D01*
X129142408Y-81567502D01*
G37*
%TD.AperFunction*%
%TA.AperFunction,Conductor*%
G36*
X138492395Y-74313502D02*
G01*
X138531707Y-74353665D01*
X138599987Y-74465088D01*
X138746250Y-74633938D01*
X138883996Y-74748297D01*
X138913194Y-74772537D01*
X138918126Y-74776632D01*
X138933037Y-74785345D01*
X138991445Y-74819476D01*
X139040169Y-74871114D01*
X139053240Y-74940897D01*
X139026509Y-75006669D01*
X138986055Y-75040027D01*
X138973607Y-75046507D01*
X138969474Y-75049610D01*
X138969471Y-75049612D01*
X138845567Y-75142642D01*
X138794965Y-75180635D01*
X138640629Y-75342138D01*
X138637715Y-75346410D01*
X138637714Y-75346411D01*
X138525095Y-75511504D01*
X138470184Y-75556507D01*
X138421007Y-75566500D01*
X137535707Y-75566500D01*
X137524524Y-75565973D01*
X137517031Y-75564298D01*
X137509105Y-75564547D01*
X137509104Y-75564547D01*
X137448954Y-75566438D01*
X137444995Y-75566500D01*
X137417084Y-75566500D01*
X137413150Y-75566997D01*
X137413149Y-75566997D01*
X137413084Y-75567005D01*
X137401247Y-75567938D01*
X137369430Y-75568938D01*
X137364969Y-75569078D01*
X137357050Y-75569327D01*
X137339394Y-75574456D01*
X137337598Y-75574978D01*
X137318246Y-75578986D01*
X137311175Y-75579880D01*
X137298143Y-75581526D01*
X137290774Y-75584443D01*
X137290772Y-75584444D01*
X137257037Y-75597800D01*
X137245809Y-75601645D01*
X137203347Y-75613982D01*
X137196525Y-75618016D01*
X137196519Y-75618019D01*
X137185908Y-75624294D01*
X137168158Y-75632990D01*
X137156696Y-75637528D01*
X137156691Y-75637531D01*
X137149323Y-75640448D01*
X137142908Y-75645109D01*
X137113565Y-75666427D01*
X137103647Y-75672943D01*
X137084959Y-75683995D01*
X137065577Y-75695458D01*
X137051253Y-75709782D01*
X137036221Y-75722621D01*
X137019833Y-75734528D01*
X137002108Y-75755954D01*
X136991652Y-75768593D01*
X136983662Y-75777373D01*
X133973747Y-78787288D01*
X133965461Y-78794828D01*
X133958982Y-78798940D01*
X133953557Y-78804717D01*
X133925489Y-78834607D01*
X133864276Y-78870573D01*
X133793336Y-78867736D01*
X133750232Y-78842798D01*
X133712758Y-78809703D01*
X133709403Y-78806740D01*
X133691953Y-78795277D01*
X133591414Y-78729236D01*
X133587666Y-78726774D01*
X133583609Y-78724869D01*
X133583605Y-78724867D01*
X133462076Y-78667809D01*
X133458021Y-78665905D01*
X133453738Y-78664596D01*
X133453734Y-78664594D01*
X133323011Y-78624628D01*
X133318723Y-78623317D01*
X133314300Y-78622628D01*
X133314294Y-78622627D01*
X133181626Y-78601971D01*
X133181621Y-78601971D01*
X133177205Y-78601283D01*
X133172739Y-78601228D01*
X133172734Y-78601228D01*
X133156474Y-78601030D01*
X133141410Y-78600846D01*
X133073539Y-78580013D01*
X133053854Y-78563950D01*
X133027122Y-78537218D01*
X132993096Y-78474906D01*
X132990907Y-78461293D01*
X132974232Y-78302635D01*
X132974232Y-78302633D01*
X132973542Y-78296072D01*
X132914527Y-78114444D01*
X132906529Y-78100590D01*
X132880823Y-78056067D01*
X132864085Y-77987072D01*
X132887305Y-77919980D01*
X132943112Y-77876093D01*
X132981757Y-77867333D01*
X132988654Y-77866884D01*
X133035408Y-77863841D01*
X133035418Y-77863840D01*
X133037829Y-77863683D01*
X133055202Y-77861195D01*
X133175161Y-77844016D01*
X133175167Y-77844015D01*
X133179606Y-77843379D01*
X133183911Y-77842120D01*
X133183916Y-77842119D01*
X133315108Y-77803755D01*
X133319410Y-77802497D01*
X133449789Y-77743217D01*
X133453560Y-77740805D01*
X133453568Y-77740801D01*
X133568721Y-77667157D01*
X133568722Y-77667156D01*
X133572497Y-77664742D01*
X133680998Y-77571252D01*
X133693828Y-77556545D01*
X133719890Y-77526670D01*
X133779744Y-77488486D01*
X133814838Y-77483500D01*
X134526233Y-77483500D01*
X134537416Y-77484027D01*
X134544909Y-77485702D01*
X134552835Y-77485453D01*
X134552836Y-77485453D01*
X134612986Y-77483562D01*
X134616945Y-77483500D01*
X134644856Y-77483500D01*
X134648791Y-77483003D01*
X134648856Y-77482995D01*
X134660693Y-77482062D01*
X134692951Y-77481048D01*
X134696970Y-77480922D01*
X134704889Y-77480673D01*
X134724343Y-77475021D01*
X134743700Y-77471013D01*
X134755930Y-77469468D01*
X134755931Y-77469468D01*
X134763797Y-77468474D01*
X134771168Y-77465555D01*
X134771170Y-77465555D01*
X134804912Y-77452196D01*
X134816142Y-77448351D01*
X134850983Y-77438229D01*
X134850984Y-77438229D01*
X134858593Y-77436018D01*
X134865412Y-77431985D01*
X134865417Y-77431983D01*
X134876028Y-77425707D01*
X134893776Y-77417012D01*
X134912617Y-77409552D01*
X134948387Y-77383564D01*
X134958307Y-77377048D01*
X134989535Y-77358580D01*
X134989538Y-77358578D01*
X134996362Y-77354542D01*
X135010683Y-77340221D01*
X135025717Y-77327380D01*
X135025958Y-77327205D01*
X135042107Y-77315472D01*
X135070298Y-77281395D01*
X135078288Y-77272616D01*
X136282247Y-76068657D01*
X136290537Y-76061113D01*
X136297018Y-76057000D01*
X136343659Y-76007332D01*
X136346413Y-76004491D01*
X136366134Y-75984770D01*
X136368612Y-75981575D01*
X136376318Y-75972553D01*
X136401158Y-75946101D01*
X136406586Y-75940321D01*
X136416346Y-75922568D01*
X136427199Y-75906045D01*
X136434753Y-75896306D01*
X136439613Y-75890041D01*
X136457176Y-75849457D01*
X136462383Y-75838827D01*
X136483695Y-75800060D01*
X136485666Y-75792383D01*
X136485668Y-75792378D01*
X136488732Y-75780442D01*
X136495138Y-75761730D01*
X136500034Y-75750417D01*
X136503181Y-75743145D01*
X136504583Y-75734297D01*
X136510097Y-75699481D01*
X136512504Y-75687860D01*
X136521528Y-75652711D01*
X136521528Y-75652710D01*
X136523500Y-75645030D01*
X136523500Y-75624769D01*
X136525051Y-75605058D01*
X136526979Y-75592885D01*
X136528219Y-75585057D01*
X136524059Y-75541046D01*
X136523500Y-75529189D01*
X136523500Y-75371594D01*
X136543502Y-75303473D01*
X136560405Y-75282499D01*
X137512499Y-74330405D01*
X137574811Y-74296379D01*
X137601594Y-74293500D01*
X138424274Y-74293500D01*
X138492395Y-74313502D01*
G37*
%TD.AperFunction*%
%TD*%
M02*
