M48
; DRILL file {KiCad (6.0.4)} date Sun Jun 12 07:49:14 2022
; FORMAT={-:-/ absolute / inch / decimal}
; #@! TF.CreationDate,2022-06-12T07:49:14+08:00
; #@! TF.GenerationSoftware,Kicad,Pcbnew,(6.0.4)
; #@! TF.FileFunction,Plated,1,2,PTH
FMAT,2
INCH
; #@! TA.AperFunction,Plated,PTH,ComponentDrill
T1C0.0118
; #@! TA.AperFunction,Plated,PTH,ViaDrill
T2C0.0157
; #@! TA.AperFunction,Plated,PTH,ComponentDrill
T3C0.0236
; #@! TA.AperFunction,Plated,PTH,ComponentDrill
T4C0.0394
%
G90
G05
T1
X5.1517Y-2.7181
X5.1517Y-2.7516
X5.1851Y-2.7181
X5.1851Y-2.7516
T2
X4.895Y-3.445
X4.895Y-3.75
X4.9Y-3.645
X4.975Y-2.615
X4.98Y-2.835
X5.0139Y-3.1
X5.025Y-2.78
X5.025Y-3.52
X5.06Y-2.33
X5.0622Y-2.835
X5.065Y-3.55
X5.1Y-3.915
X5.11Y-2.63
X5.125Y-2.85
X5.1677Y-2.6227
X5.18Y-2.845
X5.2Y-3.09
X5.205Y-3.9
X5.23Y-3.55
X5.235Y-2.6
X5.2424Y-2.6623
X5.255Y-2.33
X5.26Y-3.08
X5.285Y-2.7352
X5.2894Y-2.6961
X5.3044Y-2.6597
X5.356Y-2.408
X5.37Y-3.85
X5.385Y-3.545
X5.385Y-3.645
X5.385Y-3.745
X5.5Y-3.9
X5.525Y-2.79
T4
X4.8Y-2.655
X4.8Y-2.755
X4.8Y-2.9
X4.8Y-3.0
X4.8Y-3.1
X4.8Y-3.2
X4.8Y-3.3
X4.8Y-3.4
X4.8Y-3.5
X4.8Y-3.6
X4.8Y-3.7
X4.8Y-3.8
X4.9Y-2.655
X4.9Y-2.755
X4.95Y-4.0354
X5.05Y-4.0354
X5.15Y-4.0354
X5.25Y-4.0354
X5.35Y-4.0354
X5.5Y-2.9
X5.5Y-3.0
X5.5Y-3.1
X5.5Y-3.2
X5.5Y-3.3
X5.5Y-3.4
X5.5Y-3.5
X5.5Y-3.6
X5.5Y-3.7
X5.5Y-3.8
T3
G00X4.9799Y-2.3405
M15
G01X4.9799Y-2.3169
M16
G05
G00X4.9799Y-2.5149
M15
G01X4.9799Y-2.4716
M16
G05
G00X5.3201Y-2.3405
M15
G01X5.3201Y-2.3169
M16
G05
G00X5.3201Y-2.5149
M15
G01X5.3201Y-2.4716
M16
G05
T0
M30
