%TF.GenerationSoftware,KiCad,Pcbnew,(6.0.4)*%
%TF.CreationDate,2022-06-11T09:06:55+08:00*%
%TF.ProjectId,G030F6P6_test,47303330-4636-4503-965f-746573742e6b,rev?*%
%TF.SameCoordinates,Original*%
%TF.FileFunction,Legend,Bot*%
%TF.FilePolarity,Positive*%
%FSLAX46Y46*%
G04 Gerber Fmt 4.6, Leading zero omitted, Abs format (unit mm)*
G04 Created by KiCad (PCBNEW (6.0.4)) date 2022-06-11 09:06:55*
%MOMM*%
%LPD*%
G01*
G04 APERTURE LIST*
%ADD10C,0.150000*%
%ADD11C,0.200000*%
%ADD12C,0.120000*%
%ADD13C,0.010000*%
G04 APERTURE END LIST*
D10*
X126746000Y-74295000D02*
X135636000Y-74295000D01*
X135636000Y-74295000D02*
X135636000Y-82042000D01*
X135636000Y-82042000D02*
X126746000Y-82042000D01*
X126746000Y-82042000D02*
X126746000Y-74295000D01*
D11*
X127381000Y-91313000D02*
X135509000Y-91313000D01*
X135509000Y-91313000D02*
X135509000Y-97790000D01*
X135509000Y-97790000D02*
X127381000Y-97790000D01*
X127381000Y-97790000D02*
X127381000Y-91313000D01*
D10*
X128270000Y-89408000D02*
X133731000Y-89408000D01*
X133731000Y-89408000D02*
X133731000Y-83058000D01*
X133731000Y-83058000D02*
X128270000Y-83058000D01*
X128270000Y-83058000D02*
X128270000Y-89408000D01*
X131929142Y-95416761D02*
X131976761Y-95369142D01*
X132024380Y-95226285D01*
X132024380Y-95131047D01*
X131976761Y-94988190D01*
X131881523Y-94892952D01*
X131786285Y-94845333D01*
X131595809Y-94797714D01*
X131452952Y-94797714D01*
X131262476Y-94845333D01*
X131167238Y-94892952D01*
X131072000Y-94988190D01*
X131024380Y-95131047D01*
X131024380Y-95226285D01*
X131072000Y-95369142D01*
X131119619Y-95416761D01*
X132024380Y-96321523D02*
X132024380Y-95845333D01*
X131024380Y-95845333D01*
X132024380Y-96654857D02*
X131024380Y-96654857D01*
X132024380Y-97226285D02*
X131452952Y-96797714D01*
X131024380Y-97226285D02*
X131595809Y-96654857D01*
X129881380Y-75065095D02*
X129881380Y-75636523D01*
X130881380Y-75350809D02*
X129881380Y-75350809D01*
X129881380Y-75874619D02*
X130881380Y-76541285D01*
X129881380Y-76541285D02*
X130881380Y-75874619D01*
X130881380Y-76922238D02*
X129881380Y-76922238D01*
X129881380Y-77160333D01*
X129929000Y-77303190D01*
X130024238Y-77398428D01*
X130119476Y-77446047D01*
X130309952Y-77493666D01*
X130452809Y-77493666D01*
X130643285Y-77446047D01*
X130738523Y-77398428D01*
X130833761Y-77303190D01*
X130881380Y-77160333D01*
X130881380Y-76922238D01*
X134691380Y-94988190D02*
X133691380Y-94988190D01*
X133691380Y-95226285D01*
X133739000Y-95369142D01*
X133834238Y-95464380D01*
X133929476Y-95512000D01*
X134119952Y-95559619D01*
X134262809Y-95559619D01*
X134453285Y-95512000D01*
X134548523Y-95464380D01*
X134643761Y-95369142D01*
X134691380Y-95226285D01*
X134691380Y-94988190D01*
X134691380Y-95988190D02*
X133691380Y-95988190D01*
X133691380Y-96654857D02*
X133691380Y-96845333D01*
X133739000Y-96940571D01*
X133834238Y-97035809D01*
X134024714Y-97083428D01*
X134358047Y-97083428D01*
X134548523Y-97035809D01*
X134643761Y-96940571D01*
X134691380Y-96845333D01*
X134691380Y-96654857D01*
X134643761Y-96559619D01*
X134548523Y-96464380D01*
X134358047Y-96416761D01*
X134024714Y-96416761D01*
X133834238Y-96464380D01*
X133739000Y-96559619D01*
X133691380Y-96654857D01*
X129357380Y-95464380D02*
X128881190Y-95131047D01*
X129357380Y-94892952D02*
X128357380Y-94892952D01*
X128357380Y-95273904D01*
X128405000Y-95369142D01*
X128452619Y-95416761D01*
X128547857Y-95464380D01*
X128690714Y-95464380D01*
X128785952Y-95416761D01*
X128833571Y-95369142D01*
X128881190Y-95273904D01*
X128881190Y-94892952D01*
X129309761Y-95845333D02*
X129357380Y-95988190D01*
X129357380Y-96226285D01*
X129309761Y-96321523D01*
X129262142Y-96369142D01*
X129166904Y-96416761D01*
X129071666Y-96416761D01*
X128976428Y-96369142D01*
X128928809Y-96321523D01*
X128881190Y-96226285D01*
X128833571Y-96035809D01*
X128785952Y-95940571D01*
X128738333Y-95892952D01*
X128643095Y-95845333D01*
X128547857Y-95845333D01*
X128452619Y-95892952D01*
X128405000Y-95940571D01*
X128357380Y-96035809D01*
X128357380Y-96273904D01*
X128405000Y-96416761D01*
X128357380Y-96702476D02*
X128357380Y-97273904D01*
X129357380Y-96988190D02*
X128357380Y-96988190D01*
X137888023Y-86939380D02*
X137888023Y-85939380D01*
X137583261Y-85939380D01*
X137507071Y-85987000D01*
X137468976Y-86034619D01*
X137430880Y-86129857D01*
X137430880Y-86272714D01*
X137468976Y-86367952D01*
X137507071Y-86415571D01*
X137583261Y-86463190D01*
X137888023Y-86463190D01*
X137126119Y-86653666D02*
X136745166Y-86653666D01*
X137202309Y-86939380D02*
X136935642Y-85939380D01*
X136668976Y-86939380D01*
X136288023Y-86367952D02*
X136364214Y-86320333D01*
X136402309Y-86272714D01*
X136440404Y-86177476D01*
X136440404Y-86129857D01*
X136402309Y-86034619D01*
X136364214Y-85987000D01*
X136288023Y-85939380D01*
X136135642Y-85939380D01*
X136059452Y-85987000D01*
X136021357Y-86034619D01*
X135983261Y-86129857D01*
X135983261Y-86177476D01*
X136021357Y-86272714D01*
X136059452Y-86320333D01*
X136135642Y-86367952D01*
X136288023Y-86367952D01*
X136364214Y-86415571D01*
X136402309Y-86463190D01*
X136440404Y-86558428D01*
X136440404Y-86748904D01*
X136402309Y-86844142D01*
X136364214Y-86891761D01*
X136288023Y-86939380D01*
X136135642Y-86939380D01*
X136059452Y-86891761D01*
X136021357Y-86844142D01*
X135983261Y-86748904D01*
X135983261Y-86558428D01*
X136021357Y-86463190D01*
X136059452Y-86415571D01*
X136135642Y-86367952D01*
X131913380Y-83375666D02*
X132913380Y-83709000D01*
X131913380Y-84042333D01*
X132818142Y-84947095D02*
X132865761Y-84899476D01*
X132913380Y-84756619D01*
X132913380Y-84661380D01*
X132865761Y-84518523D01*
X132770523Y-84423285D01*
X132675285Y-84375666D01*
X132484809Y-84328047D01*
X132341952Y-84328047D01*
X132151476Y-84375666D01*
X132056238Y-84423285D01*
X131961000Y-84518523D01*
X131913380Y-84661380D01*
X131913380Y-84756619D01*
X131961000Y-84899476D01*
X132008619Y-84947095D01*
X132818142Y-85947095D02*
X132865761Y-85899476D01*
X132913380Y-85756619D01*
X132913380Y-85661380D01*
X132865761Y-85518523D01*
X132770523Y-85423285D01*
X132675285Y-85375666D01*
X132484809Y-85328047D01*
X132341952Y-85328047D01*
X132151476Y-85375666D01*
X132056238Y-85423285D01*
X131961000Y-85518523D01*
X131913380Y-85661380D01*
X131913380Y-85756619D01*
X131961000Y-85899476D01*
X132008619Y-85947095D01*
X134548571Y-79303666D02*
X134596190Y-79446523D01*
X134643809Y-79494142D01*
X134739047Y-79541761D01*
X134881904Y-79541761D01*
X134977142Y-79494142D01*
X135024761Y-79446523D01*
X135072380Y-79351285D01*
X135072380Y-78970333D01*
X134072380Y-78970333D01*
X134072380Y-79303666D01*
X134120000Y-79398904D01*
X134167619Y-79446523D01*
X134262857Y-79494142D01*
X134358095Y-79494142D01*
X134453333Y-79446523D01*
X134500952Y-79398904D01*
X134548571Y-79303666D01*
X134548571Y-78970333D01*
X134072380Y-80160809D02*
X134072380Y-80351285D01*
X134120000Y-80446523D01*
X134215238Y-80541761D01*
X134405714Y-80589380D01*
X134739047Y-80589380D01*
X134929523Y-80541761D01*
X135024761Y-80446523D01*
X135072380Y-80351285D01*
X135072380Y-80160809D01*
X135024761Y-80065571D01*
X134929523Y-79970333D01*
X134739047Y-79922714D01*
X134405714Y-79922714D01*
X134215238Y-79970333D01*
X134120000Y-80065571D01*
X134072380Y-80160809D01*
X134072380Y-80875095D02*
X134072380Y-81446523D01*
X135072380Y-81160809D02*
X134072380Y-81160809D01*
X134945380Y-75660333D02*
X134469190Y-75327000D01*
X134945380Y-75088904D02*
X133945380Y-75088904D01*
X133945380Y-75469857D01*
X133993000Y-75565095D01*
X134040619Y-75612714D01*
X134135857Y-75660333D01*
X134278714Y-75660333D01*
X134373952Y-75612714D01*
X134421571Y-75565095D01*
X134469190Y-75469857D01*
X134469190Y-75088904D01*
X133945380Y-75993666D02*
X134945380Y-76660333D01*
X133945380Y-76660333D02*
X134945380Y-75993666D01*
X134945380Y-77041285D02*
X133945380Y-77041285D01*
X133945380Y-77279380D01*
X133993000Y-77422238D01*
X134088238Y-77517476D01*
X134183476Y-77565095D01*
X134373952Y-77612714D01*
X134516809Y-77612714D01*
X134707285Y-77565095D01*
X134802523Y-77517476D01*
X134897761Y-77422238D01*
X134945380Y-77279380D01*
X134945380Y-77041285D01*
X129294000Y-83947095D02*
X129246380Y-83851857D01*
X129246380Y-83709000D01*
X129294000Y-83566142D01*
X129389238Y-83470904D01*
X129484476Y-83423285D01*
X129674952Y-83375666D01*
X129817809Y-83375666D01*
X130008285Y-83423285D01*
X130103523Y-83470904D01*
X130198761Y-83566142D01*
X130246380Y-83709000D01*
X130246380Y-83804238D01*
X130198761Y-83947095D01*
X130151142Y-83994714D01*
X129817809Y-83994714D01*
X129817809Y-83804238D01*
X130246380Y-84423285D02*
X129246380Y-84423285D01*
X130246380Y-84994714D01*
X129246380Y-84994714D01*
X130246380Y-85470904D02*
X129246380Y-85470904D01*
X129246380Y-85709000D01*
X129294000Y-85851857D01*
X129389238Y-85947095D01*
X129484476Y-85994714D01*
X129674952Y-86042333D01*
X129817809Y-86042333D01*
X130008285Y-85994714D01*
X130103523Y-85947095D01*
X130198761Y-85851857D01*
X130246380Y-85709000D01*
X130246380Y-85470904D01*
X127694000Y-78906857D02*
X127694000Y-79906857D01*
X128976380Y-79716380D02*
X128500190Y-79383047D01*
X128976380Y-79144952D02*
X127976380Y-79144952D01*
X127976380Y-79525904D01*
X128024000Y-79621142D01*
X128071619Y-79668761D01*
X128166857Y-79716380D01*
X128309714Y-79716380D01*
X128404952Y-79668761D01*
X128452571Y-79621142D01*
X128500190Y-79525904D01*
X128500190Y-79144952D01*
X127694000Y-79906857D02*
X127694000Y-80668761D01*
X127976380Y-80002095D02*
X127976380Y-80573523D01*
X128976380Y-80287809D02*
X127976380Y-80287809D01*
X127694000Y-80668761D02*
X127694000Y-81621142D01*
X128928761Y-80859238D02*
X128976380Y-81002095D01*
X128976380Y-81240190D01*
X128928761Y-81335428D01*
X128881142Y-81383047D01*
X128785904Y-81430666D01*
X128690666Y-81430666D01*
X128595428Y-81383047D01*
X128547809Y-81335428D01*
X128500190Y-81240190D01*
X128452571Y-81049714D01*
X128404952Y-80954476D01*
X128357333Y-80906857D01*
X128262095Y-80859238D01*
X128166857Y-80859238D01*
X128071619Y-80906857D01*
X128024000Y-80954476D01*
X127976380Y-81049714D01*
X127976380Y-81287809D01*
X128024000Y-81430666D01*
D12*
%TO.C,JP3*%
X131175000Y-80964000D02*
X131175000Y-79564000D01*
X129875000Y-81664000D02*
X130475000Y-81664000D01*
X130475000Y-78864000D02*
X129875000Y-78864000D01*
X129175000Y-79564000D02*
X129175000Y-80964000D01*
X131175000Y-79564000D02*
G75*
G03*
X130475000Y-78864000I-699999J1D01*
G01*
X129875000Y-78864000D02*
G75*
G03*
X129175000Y-79564000I-1J-699999D01*
G01*
X130475000Y-81664000D02*
G75*
G03*
X131175000Y-80964000I0J700000D01*
G01*
X129175000Y-80964000D02*
G75*
G03*
X129875000Y-81664000I700000J0D01*
G01*
%TO.C,JP7*%
X134412000Y-91676000D02*
X133812000Y-91676000D01*
X133812000Y-94476000D02*
X134412000Y-94476000D01*
X133112000Y-92376000D02*
X133112000Y-93776000D01*
X135112000Y-93776000D02*
X135112000Y-92376000D01*
X133812000Y-91676000D02*
G75*
G03*
X133112000Y-92376000I0J-700000D01*
G01*
X133112000Y-93776000D02*
G75*
G03*
X133812000Y-94476000I699999J-1D01*
G01*
X134412000Y-94476000D02*
G75*
G03*
X135112000Y-93776000I1J699999D01*
G01*
X135112000Y-92376000D02*
G75*
G03*
X134412000Y-91676000I-700000J0D01*
G01*
%TO.C,REF\u002A\u002A*%
G36*
X136091307Y-60187331D02*
G01*
X136132450Y-60189540D01*
X136164582Y-60195106D01*
X136195122Y-60205414D01*
X136231489Y-60221852D01*
X136258728Y-60235800D01*
X136344429Y-60294335D01*
X136413617Y-60366381D01*
X136464741Y-60450053D01*
X136496250Y-60543469D01*
X136503225Y-60576566D01*
X136510094Y-60617040D01*
X136511919Y-60650001D01*
X136508947Y-60684302D01*
X136501426Y-60728800D01*
X136489002Y-60780066D01*
X136451112Y-60870566D01*
X136396836Y-60949655D01*
X136328770Y-61015472D01*
X136249511Y-61066160D01*
X136161654Y-61099860D01*
X136067795Y-61114714D01*
X135970530Y-61108864D01*
X135874220Y-61082601D01*
X135785494Y-61037582D01*
X135710419Y-60976627D01*
X135650641Y-60901816D01*
X135607809Y-60815232D01*
X135583571Y-60718957D01*
X135579576Y-60615072D01*
X135589850Y-60537438D01*
X135617053Y-60454687D01*
X135662484Y-60379594D01*
X135728302Y-60307702D01*
X135772567Y-60269154D01*
X135830961Y-60229744D01*
X135891586Y-60204554D01*
X135960865Y-60191139D01*
X136045222Y-60187052D01*
X136091307Y-60187331D01*
G37*
D13*
X136091307Y-60187331D02*
X136132450Y-60189540D01*
X136164582Y-60195106D01*
X136195122Y-60205414D01*
X136231489Y-60221852D01*
X136258728Y-60235800D01*
X136344429Y-60294335D01*
X136413617Y-60366381D01*
X136464741Y-60450053D01*
X136496250Y-60543469D01*
X136503225Y-60576566D01*
X136510094Y-60617040D01*
X136511919Y-60650001D01*
X136508947Y-60684302D01*
X136501426Y-60728800D01*
X136489002Y-60780066D01*
X136451112Y-60870566D01*
X136396836Y-60949655D01*
X136328770Y-61015472D01*
X136249511Y-61066160D01*
X136161654Y-61099860D01*
X136067795Y-61114714D01*
X135970530Y-61108864D01*
X135874220Y-61082601D01*
X135785494Y-61037582D01*
X135710419Y-60976627D01*
X135650641Y-60901816D01*
X135607809Y-60815232D01*
X135583571Y-60718957D01*
X135579576Y-60615072D01*
X135589850Y-60537438D01*
X135617053Y-60454687D01*
X135662484Y-60379594D01*
X135728302Y-60307702D01*
X135772567Y-60269154D01*
X135830961Y-60229744D01*
X135891586Y-60204554D01*
X135960865Y-60191139D01*
X136045222Y-60187052D01*
X136091307Y-60187331D01*
G36*
X140952178Y-67481083D02*
G01*
X140953631Y-67482443D01*
X140961992Y-67493646D01*
X140967547Y-67510748D01*
X140970840Y-67537918D01*
X140972418Y-67579322D01*
X140972822Y-67639127D01*
X140972822Y-67778489D01*
X141236589Y-67778489D01*
X141312417Y-67778564D01*
X141379083Y-67778972D01*
X141428867Y-67779954D01*
X141464784Y-67781750D01*
X141489850Y-67784601D01*
X141507081Y-67788747D01*
X141519492Y-67794429D01*
X141530100Y-67801886D01*
X141532906Y-67804176D01*
X141555548Y-67835354D01*
X141557112Y-67869734D01*
X141537267Y-67902666D01*
X141529191Y-67909645D01*
X141518593Y-67915117D01*
X141502749Y-67919137D01*
X141478773Y-67921928D01*
X141443774Y-67923712D01*
X141394864Y-67924711D01*
X141329154Y-67925148D01*
X141243756Y-67925244D01*
X140972822Y-67925244D01*
X140972822Y-68071180D01*
X140972821Y-68082280D01*
X140972596Y-68138798D01*
X140971457Y-68177642D01*
X140968657Y-68203035D01*
X140963450Y-68219196D01*
X140955089Y-68230348D01*
X140942826Y-68240711D01*
X140912138Y-68256559D01*
X140878358Y-68253457D01*
X140845822Y-68227813D01*
X140842105Y-68222871D01*
X140837269Y-68212662D01*
X140833506Y-68197236D01*
X140830683Y-68174114D01*
X140828670Y-68140817D01*
X140827333Y-68094863D01*
X140826542Y-68033772D01*
X140826163Y-67955065D01*
X140826067Y-67856260D01*
X140826068Y-67836233D01*
X140826158Y-67742110D01*
X140826498Y-67667595D01*
X140827239Y-67610189D01*
X140828535Y-67567389D01*
X140830537Y-67536696D01*
X140833396Y-67515609D01*
X140837266Y-67501627D01*
X140842298Y-67492250D01*
X140848645Y-67484978D01*
X140881362Y-67466172D01*
X140918939Y-67464725D01*
X140952178Y-67481083D01*
G37*
X140952178Y-67481083D02*
X140953631Y-67482443D01*
X140961992Y-67493646D01*
X140967547Y-67510748D01*
X140970840Y-67537918D01*
X140972418Y-67579322D01*
X140972822Y-67639127D01*
X140972822Y-67778489D01*
X141236589Y-67778489D01*
X141312417Y-67778564D01*
X141379083Y-67778972D01*
X141428867Y-67779954D01*
X141464784Y-67781750D01*
X141489850Y-67784601D01*
X141507081Y-67788747D01*
X141519492Y-67794429D01*
X141530100Y-67801886D01*
X141532906Y-67804176D01*
X141555548Y-67835354D01*
X141557112Y-67869734D01*
X141537267Y-67902666D01*
X141529191Y-67909645D01*
X141518593Y-67915117D01*
X141502749Y-67919137D01*
X141478773Y-67921928D01*
X141443774Y-67923712D01*
X141394864Y-67924711D01*
X141329154Y-67925148D01*
X141243756Y-67925244D01*
X140972822Y-67925244D01*
X140972822Y-68071180D01*
X140972821Y-68082280D01*
X140972596Y-68138798D01*
X140971457Y-68177642D01*
X140968657Y-68203035D01*
X140963450Y-68219196D01*
X140955089Y-68230348D01*
X140942826Y-68240711D01*
X140912138Y-68256559D01*
X140878358Y-68253457D01*
X140845822Y-68227813D01*
X140842105Y-68222871D01*
X140837269Y-68212662D01*
X140833506Y-68197236D01*
X140830683Y-68174114D01*
X140828670Y-68140817D01*
X140827333Y-68094863D01*
X140826542Y-68033772D01*
X140826163Y-67955065D01*
X140826067Y-67856260D01*
X140826068Y-67836233D01*
X140826158Y-67742110D01*
X140826498Y-67667595D01*
X140827239Y-67610189D01*
X140828535Y-67567389D01*
X140830537Y-67536696D01*
X140833396Y-67515609D01*
X140837266Y-67501627D01*
X140842298Y-67492250D01*
X140848645Y-67484978D01*
X140881362Y-67466172D01*
X140918939Y-67464725D01*
X140952178Y-67481083D01*
G36*
X140908915Y-65696772D02*
G01*
X140943481Y-65709636D01*
X140991826Y-65729395D01*
X141050825Y-65754619D01*
X141117355Y-65783881D01*
X141188291Y-65815750D01*
X141260507Y-65848799D01*
X141330880Y-65881599D01*
X141396285Y-65912720D01*
X141453597Y-65940735D01*
X141499692Y-65964214D01*
X141531446Y-65981728D01*
X141545733Y-65991849D01*
X141559102Y-66026257D01*
X141552741Y-66067954D01*
X141548044Y-66073319D01*
X141525893Y-66089148D01*
X141489132Y-66111350D01*
X141441415Y-66137767D01*
X141386393Y-66166240D01*
X141227150Y-66246014D01*
X141373742Y-66319201D01*
X141393032Y-66328897D01*
X141445380Y-66355875D01*
X141490170Y-66379904D01*
X141523154Y-66398668D01*
X141540089Y-66409854D01*
X141541332Y-66411000D01*
X141556619Y-66439121D01*
X141558302Y-66474183D01*
X141545733Y-66505224D01*
X141542884Y-66507650D01*
X141522259Y-66519910D01*
X141484708Y-66539648D01*
X141432880Y-66565552D01*
X141369423Y-66596315D01*
X141296985Y-66630625D01*
X141218216Y-66667175D01*
X141174093Y-66687415D01*
X141093365Y-66724188D01*
X141029687Y-66752645D01*
X140980752Y-66773669D01*
X140944257Y-66788146D01*
X140917895Y-66796961D01*
X140899361Y-66800996D01*
X140886352Y-66801138D01*
X140876561Y-66798270D01*
X140855678Y-66783613D01*
X140835377Y-66757010D01*
X140835035Y-66756255D01*
X140828034Y-66736665D01*
X140827504Y-66719210D01*
X140835478Y-66702298D01*
X140853989Y-66684337D01*
X140885071Y-66663737D01*
X140930756Y-66638905D01*
X140993078Y-66608250D01*
X141074071Y-66570180D01*
X141105454Y-66555546D01*
X141168638Y-66525797D01*
X141223244Y-66499703D01*
X141266290Y-66478708D01*
X141294793Y-66464261D01*
X141305770Y-66457809D01*
X141305189Y-66456450D01*
X141291242Y-66446458D01*
X141261704Y-66429167D01*
X141220087Y-66406570D01*
X141169903Y-66380662D01*
X141138414Y-66364689D01*
X141083061Y-66335739D01*
X141044044Y-66313251D01*
X141018566Y-66295035D01*
X141003831Y-66278904D01*
X140997042Y-66262670D01*
X140995400Y-66244143D01*
X140995875Y-66233640D01*
X141000082Y-66217524D01*
X141010946Y-66202210D01*
X141031219Y-66185612D01*
X141063654Y-66165643D01*
X141111004Y-66140217D01*
X141176022Y-66107248D01*
X141195277Y-66097515D01*
X141241946Y-66073057D01*
X141278109Y-66052822D01*
X141300497Y-66038689D01*
X141305845Y-66032540D01*
X141302573Y-66031173D01*
X141281664Y-66021798D01*
X141244725Y-66004938D01*
X141194874Y-65982021D01*
X141135226Y-65954480D01*
X141068898Y-65923745D01*
X141011677Y-65897030D01*
X140949688Y-65867407D01*
X140903949Y-65844336D01*
X140871908Y-65826357D01*
X140851014Y-65812010D01*
X140838718Y-65799834D01*
X140832466Y-65788368D01*
X140829574Y-65778958D01*
X140829425Y-65753853D01*
X140844768Y-65726710D01*
X140845753Y-65725410D01*
X140868388Y-65703326D01*
X140890613Y-65692277D01*
X140891253Y-65692231D01*
X140908915Y-65696772D01*
G37*
X140908915Y-65696772D02*
X140943481Y-65709636D01*
X140991826Y-65729395D01*
X141050825Y-65754619D01*
X141117355Y-65783881D01*
X141188291Y-65815750D01*
X141260507Y-65848799D01*
X141330880Y-65881599D01*
X141396285Y-65912720D01*
X141453597Y-65940735D01*
X141499692Y-65964214D01*
X141531446Y-65981728D01*
X141545733Y-65991849D01*
X141559102Y-66026257D01*
X141552741Y-66067954D01*
X141548044Y-66073319D01*
X141525893Y-66089148D01*
X141489132Y-66111350D01*
X141441415Y-66137767D01*
X141386393Y-66166240D01*
X141227150Y-66246014D01*
X141373742Y-66319201D01*
X141393032Y-66328897D01*
X141445380Y-66355875D01*
X141490170Y-66379904D01*
X141523154Y-66398668D01*
X141540089Y-66409854D01*
X141541332Y-66411000D01*
X141556619Y-66439121D01*
X141558302Y-66474183D01*
X141545733Y-66505224D01*
X141542884Y-66507650D01*
X141522259Y-66519910D01*
X141484708Y-66539648D01*
X141432880Y-66565552D01*
X141369423Y-66596315D01*
X141296985Y-66630625D01*
X141218216Y-66667175D01*
X141174093Y-66687415D01*
X141093365Y-66724188D01*
X141029687Y-66752645D01*
X140980752Y-66773669D01*
X140944257Y-66788146D01*
X140917895Y-66796961D01*
X140899361Y-66800996D01*
X140886352Y-66801138D01*
X140876561Y-66798270D01*
X140855678Y-66783613D01*
X140835377Y-66757010D01*
X140835035Y-66756255D01*
X140828034Y-66736665D01*
X140827504Y-66719210D01*
X140835478Y-66702298D01*
X140853989Y-66684337D01*
X140885071Y-66663737D01*
X140930756Y-66638905D01*
X140993078Y-66608250D01*
X141074071Y-66570180D01*
X141105454Y-66555546D01*
X141168638Y-66525797D01*
X141223244Y-66499703D01*
X141266290Y-66478708D01*
X141294793Y-66464261D01*
X141305770Y-66457809D01*
X141305189Y-66456450D01*
X141291242Y-66446458D01*
X141261704Y-66429167D01*
X141220087Y-66406570D01*
X141169903Y-66380662D01*
X141138414Y-66364689D01*
X141083061Y-66335739D01*
X141044044Y-66313251D01*
X141018566Y-66295035D01*
X141003831Y-66278904D01*
X140997042Y-66262670D01*
X140995400Y-66244143D01*
X140995875Y-66233640D01*
X141000082Y-66217524D01*
X141010946Y-66202210D01*
X141031219Y-66185612D01*
X141063654Y-66165643D01*
X141111004Y-66140217D01*
X141176022Y-66107248D01*
X141195277Y-66097515D01*
X141241946Y-66073057D01*
X141278109Y-66052822D01*
X141300497Y-66038689D01*
X141305845Y-66032540D01*
X141302573Y-66031173D01*
X141281664Y-66021798D01*
X141244725Y-66004938D01*
X141194874Y-65982021D01*
X141135226Y-65954480D01*
X141068898Y-65923745D01*
X141011677Y-65897030D01*
X140949688Y-65867407D01*
X140903949Y-65844336D01*
X140871908Y-65826357D01*
X140851014Y-65812010D01*
X140838718Y-65799834D01*
X140832466Y-65788368D01*
X140829574Y-65778958D01*
X140829425Y-65753853D01*
X140844768Y-65726710D01*
X140845753Y-65725410D01*
X140868388Y-65703326D01*
X140890613Y-65692277D01*
X140891253Y-65692231D01*
X140908915Y-65696772D01*
G36*
X141252526Y-63804825D02*
G01*
X141331311Y-63805050D01*
X141392021Y-63805668D01*
X141413089Y-63806225D01*
X141437396Y-63806867D01*
X141470175Y-63808837D01*
X141493095Y-63811765D01*
X141508897Y-63815842D01*
X141520319Y-63821257D01*
X141530100Y-63828197D01*
X141559845Y-63851594D01*
X141559251Y-64017286D01*
X141558953Y-64052082D01*
X141555522Y-64150565D01*
X141547839Y-64231527D01*
X141535282Y-64298621D01*
X141517227Y-64355504D01*
X141493052Y-64405831D01*
X141491135Y-64409190D01*
X141454417Y-64467002D01*
X141417451Y-64509356D01*
X141373966Y-64542172D01*
X141317689Y-64571372D01*
X141308073Y-64575654D01*
X141244887Y-64598231D01*
X141189509Y-64605203D01*
X141134483Y-64596601D01*
X141072351Y-64572459D01*
X141070658Y-64571663D01*
X141001236Y-64531212D01*
X140944638Y-64480527D01*
X140900070Y-64417802D01*
X140866741Y-64341226D01*
X140843861Y-64248991D01*
X140830636Y-64139288D01*
X140826275Y-64010309D01*
X140826270Y-64006737D01*
X140826372Y-63962844D01*
X140972822Y-63962844D01*
X140973270Y-64050333D01*
X140975746Y-64117253D01*
X140986998Y-64209651D01*
X141006537Y-64288966D01*
X141033511Y-64350940D01*
X141054240Y-64381880D01*
X141084006Y-64410000D01*
X141126434Y-64433340D01*
X141142400Y-64440467D01*
X141174902Y-64452291D01*
X141199333Y-64454721D01*
X141224061Y-64449108D01*
X141239939Y-64443382D01*
X141299847Y-64410452D01*
X141345600Y-64363114D01*
X141378736Y-64299348D01*
X141400790Y-64217139D01*
X141401292Y-64214345D01*
X141407255Y-64168060D01*
X141411483Y-64111664D01*
X141413089Y-64056726D01*
X141413089Y-63962844D01*
X140972822Y-63962844D01*
X140826372Y-63962844D01*
X140826410Y-63946717D01*
X140827446Y-63904786D01*
X140830040Y-63876672D01*
X140834853Y-63858103D01*
X140842544Y-63844806D01*
X140853776Y-63832509D01*
X140881485Y-63804800D01*
X141190920Y-63804800D01*
X141252526Y-63804825D01*
G37*
X141252526Y-63804825D02*
X141331311Y-63805050D01*
X141392021Y-63805668D01*
X141413089Y-63806225D01*
X141437396Y-63806867D01*
X141470175Y-63808837D01*
X141493095Y-63811765D01*
X141508897Y-63815842D01*
X141520319Y-63821257D01*
X141530100Y-63828197D01*
X141559845Y-63851594D01*
X141559251Y-64017286D01*
X141558953Y-64052082D01*
X141555522Y-64150565D01*
X141547839Y-64231527D01*
X141535282Y-64298621D01*
X141517227Y-64355504D01*
X141493052Y-64405831D01*
X141491135Y-64409190D01*
X141454417Y-64467002D01*
X141417451Y-64509356D01*
X141373966Y-64542172D01*
X141317689Y-64571372D01*
X141308073Y-64575654D01*
X141244887Y-64598231D01*
X141189509Y-64605203D01*
X141134483Y-64596601D01*
X141072351Y-64572459D01*
X141070658Y-64571663D01*
X141001236Y-64531212D01*
X140944638Y-64480527D01*
X140900070Y-64417802D01*
X140866741Y-64341226D01*
X140843861Y-64248991D01*
X140830636Y-64139288D01*
X140826275Y-64010309D01*
X140826270Y-64006737D01*
X140826372Y-63962844D01*
X140972822Y-63962844D01*
X140973270Y-64050333D01*
X140975746Y-64117253D01*
X140986998Y-64209651D01*
X141006537Y-64288966D01*
X141033511Y-64350940D01*
X141054240Y-64381880D01*
X141084006Y-64410000D01*
X141126434Y-64433340D01*
X141142400Y-64440467D01*
X141174902Y-64452291D01*
X141199333Y-64454721D01*
X141224061Y-64449108D01*
X141239939Y-64443382D01*
X141299847Y-64410452D01*
X141345600Y-64363114D01*
X141378736Y-64299348D01*
X141400790Y-64217139D01*
X141401292Y-64214345D01*
X141407255Y-64168060D01*
X141411483Y-64111664D01*
X141413089Y-64056726D01*
X141413089Y-63962844D01*
X140972822Y-63962844D01*
X140826372Y-63962844D01*
X140826410Y-63946717D01*
X140827446Y-63904786D01*
X140830040Y-63876672D01*
X140834853Y-63858103D01*
X140842544Y-63844806D01*
X140853776Y-63832509D01*
X140881485Y-63804800D01*
X141190920Y-63804800D01*
X141252526Y-63804825D01*
G36*
X136800011Y-56715941D02*
G01*
X136947216Y-56715638D01*
X137111349Y-56715452D01*
X137293352Y-56715358D01*
X137494165Y-56715329D01*
X137714732Y-56715339D01*
X137955992Y-56715364D01*
X138218889Y-56715378D01*
X138261040Y-56715378D01*
X138521668Y-56715354D01*
X138760796Y-56715315D01*
X138979360Y-56715292D01*
X139178295Y-56715313D01*
X139358535Y-56715407D01*
X139521015Y-56715605D01*
X139666670Y-56715937D01*
X139796434Y-56716431D01*
X139911243Y-56717117D01*
X140012030Y-56718024D01*
X140099730Y-56719183D01*
X140175279Y-56720622D01*
X140239611Y-56722371D01*
X140293661Y-56724460D01*
X140338363Y-56726917D01*
X140374652Y-56729773D01*
X140403463Y-56733057D01*
X140425731Y-56736798D01*
X140442390Y-56741026D01*
X140454375Y-56745771D01*
X140462621Y-56751061D01*
X140468062Y-56756927D01*
X140471634Y-56763398D01*
X140474270Y-56770503D01*
X140476906Y-56778272D01*
X140480477Y-56786734D01*
X140482145Y-56791092D01*
X140484111Y-56799605D01*
X140485911Y-56812306D01*
X140487555Y-56830115D01*
X140489047Y-56853951D01*
X140490397Y-56884734D01*
X140491611Y-56923383D01*
X140492697Y-56970818D01*
X140493661Y-57027957D01*
X140494511Y-57095721D01*
X140495253Y-57175029D01*
X140495897Y-57266801D01*
X140496447Y-57371956D01*
X140496913Y-57491413D01*
X140497300Y-57626092D01*
X140497616Y-57776912D01*
X140497869Y-57944794D01*
X140498066Y-58130655D01*
X140498213Y-58335417D01*
X140498318Y-58559998D01*
X140498389Y-58805318D01*
X140498432Y-59072296D01*
X140498437Y-59110679D01*
X140498480Y-59376078D01*
X140498525Y-59619950D01*
X140498548Y-59843217D01*
X140498524Y-60046804D01*
X140498430Y-60231633D01*
X140498243Y-60398627D01*
X140497939Y-60548710D01*
X140497494Y-60682804D01*
X140496885Y-60801834D01*
X140496089Y-60906721D01*
X140495080Y-60998390D01*
X140493837Y-61077763D01*
X140492335Y-61145763D01*
X140490551Y-61203314D01*
X140488461Y-61251338D01*
X140486042Y-61290760D01*
X140483270Y-61322501D01*
X140480121Y-61347486D01*
X140476572Y-61366636D01*
X140472598Y-61380877D01*
X140468178Y-61391129D01*
X140463286Y-61398318D01*
X140457900Y-61403365D01*
X140451996Y-61407195D01*
X140445549Y-61410729D01*
X140438537Y-61414892D01*
X140436687Y-61415975D01*
X140431180Y-61418187D01*
X140422868Y-61420214D01*
X140410809Y-61422062D01*
X140394063Y-61423739D01*
X140371687Y-61425255D01*
X140342740Y-61426617D01*
X140306280Y-61427833D01*
X140261367Y-61428911D01*
X140207057Y-61429860D01*
X140142410Y-61430688D01*
X140066484Y-61431403D01*
X139978338Y-61432013D01*
X139877029Y-61432526D01*
X139761617Y-61432950D01*
X139631160Y-61433294D01*
X139484716Y-61433566D01*
X139321344Y-61433773D01*
X139140101Y-61433924D01*
X138940048Y-61434028D01*
X138720241Y-61434092D01*
X138479739Y-61434124D01*
X138217602Y-61434133D01*
X136026031Y-61434133D01*
X135987649Y-61395751D01*
X135963911Y-61368645D01*
X135952111Y-61341747D01*
X135949267Y-61305440D01*
X135949267Y-61253511D01*
X136037206Y-61253511D01*
X136087102Y-61251573D01*
X136197523Y-61232801D01*
X136298987Y-61195783D01*
X136390152Y-61142631D01*
X136469673Y-61075454D01*
X136491249Y-61049805D01*
X137461978Y-61049805D01*
X138638845Y-61052880D01*
X139815711Y-61055955D01*
X139874622Y-61082593D01*
X139899183Y-61094515D01*
X139929434Y-61111754D01*
X139946560Y-61124926D01*
X139954591Y-61132924D01*
X139969493Y-61140622D01*
X139970765Y-61136740D01*
X139972791Y-61113480D01*
X139974626Y-61071126D01*
X139976227Y-61011868D01*
X139977549Y-60937893D01*
X139978548Y-60851390D01*
X139979180Y-60754548D01*
X139979400Y-60649555D01*
X139979349Y-60580644D01*
X139979091Y-60482393D01*
X139978637Y-60392970D01*
X139978010Y-60314667D01*
X139977235Y-60249777D01*
X139976335Y-60200589D01*
X139975334Y-60169396D01*
X139974257Y-60158489D01*
X139971037Y-60159678D01*
X139953452Y-60169824D01*
X139927158Y-60186960D01*
X139914691Y-60195460D01*
X139900622Y-60204671D01*
X139886351Y-60212767D01*
X139870479Y-60219815D01*
X139851609Y-60225883D01*
X139828341Y-60231039D01*
X139799278Y-60235349D01*
X139763021Y-60238881D01*
X139718170Y-60241703D01*
X139663328Y-60243882D01*
X139597097Y-60245486D01*
X139518077Y-60246581D01*
X139424871Y-60247235D01*
X139316079Y-60247516D01*
X139190303Y-60247491D01*
X139046145Y-60247228D01*
X138882207Y-60246794D01*
X138697089Y-60246255D01*
X138518232Y-60245721D01*
X138359374Y-60245195D01*
X138220316Y-60244650D01*
X138099665Y-60244055D01*
X137996028Y-60243381D01*
X137908011Y-60242597D01*
X137834223Y-60241674D01*
X137773269Y-60240581D01*
X137723757Y-60239288D01*
X137684293Y-60237765D01*
X137653484Y-60235981D01*
X137629938Y-60233908D01*
X137612260Y-60231514D01*
X137599059Y-60228770D01*
X137588940Y-60225644D01*
X137580511Y-60222108D01*
X137572375Y-60218209D01*
X137535544Y-60198562D01*
X137505391Y-60179775D01*
X137503908Y-60178728D01*
X137481659Y-60164398D01*
X137468702Y-60158489D01*
X137468249Y-60159496D01*
X137466803Y-60176695D01*
X137465480Y-60213344D01*
X137464316Y-60267038D01*
X137463347Y-60335370D01*
X137462611Y-60415936D01*
X137462142Y-60506330D01*
X137461978Y-60604147D01*
X137461978Y-61049805D01*
X136491249Y-61049805D01*
X136536205Y-60996362D01*
X136588406Y-60907466D01*
X136624930Y-60810875D01*
X136644434Y-60708700D01*
X136645573Y-60603050D01*
X136627005Y-60496036D01*
X136587384Y-60389768D01*
X136529516Y-60292781D01*
X136454684Y-60207707D01*
X136366615Y-60138985D01*
X136267616Y-60088082D01*
X136159993Y-60056465D01*
X136046054Y-60045600D01*
X135949267Y-60045600D01*
X135949267Y-58817884D01*
X136558867Y-58817884D01*
X136559117Y-59949644D01*
X136589722Y-59910133D01*
X136597089Y-59900752D01*
X136651438Y-59837817D01*
X136719259Y-59769003D01*
X136802516Y-59692404D01*
X136903178Y-59606112D01*
X136923847Y-59588948D01*
X136973409Y-59548167D01*
X137034326Y-59498412D01*
X137104898Y-59441045D01*
X137183424Y-59377431D01*
X137268204Y-59308931D01*
X137357537Y-59236910D01*
X137449722Y-59162730D01*
X137468702Y-59147483D01*
X137543060Y-59087754D01*
X137635848Y-59013347D01*
X137726388Y-58940869D01*
X137812978Y-58871686D01*
X137893918Y-58807159D01*
X137967506Y-58748653D01*
X138032044Y-58697530D01*
X138085829Y-58655153D01*
X138127162Y-58622885D01*
X138154342Y-58602090D01*
X138165668Y-58594131D01*
X138169771Y-58595889D01*
X138190334Y-58608770D01*
X138226561Y-58633115D01*
X138276824Y-58667753D01*
X138339492Y-58711514D01*
X138412936Y-58763225D01*
X138495527Y-58821716D01*
X138585636Y-58885816D01*
X138681631Y-58954354D01*
X138781885Y-59026157D01*
X138884768Y-59100056D01*
X138988650Y-59174879D01*
X139091901Y-59249455D01*
X139192892Y-59322613D01*
X139289994Y-59393181D01*
X139381577Y-59459989D01*
X139466011Y-59521865D01*
X139541667Y-59577639D01*
X139606916Y-59626138D01*
X139660128Y-59666193D01*
X139699673Y-59696631D01*
X139725026Y-59717056D01*
X139779295Y-59763101D01*
X139835775Y-59813388D01*
X139885669Y-59860185D01*
X139979400Y-59951349D01*
X139979400Y-58796910D01*
X139903200Y-58797544D01*
X139861160Y-58796426D01*
X139825334Y-58790696D01*
X139787772Y-58778110D01*
X139739577Y-58756432D01*
X139732897Y-58753211D01*
X139683359Y-58727812D01*
X139635369Y-58701004D01*
X139598466Y-58678083D01*
X139591834Y-58673515D01*
X139560593Y-58651484D01*
X139515654Y-58619307D01*
X139459147Y-58578543D01*
X139393204Y-58530755D01*
X139319957Y-58477502D01*
X139241536Y-58420345D01*
X139160072Y-58360845D01*
X139077698Y-58300563D01*
X138996544Y-58241060D01*
X138918742Y-58183895D01*
X138846423Y-58130630D01*
X138781718Y-58082826D01*
X138726759Y-58042043D01*
X138683676Y-58009842D01*
X138654602Y-57987784D01*
X138641667Y-57977429D01*
X138637351Y-57972956D01*
X138635312Y-57968764D01*
X138637926Y-57965357D01*
X138646986Y-57962675D01*
X138664285Y-57960659D01*
X138691614Y-57959252D01*
X138730765Y-57958395D01*
X138783533Y-57958030D01*
X138851707Y-57958097D01*
X138937082Y-57958540D01*
X139041449Y-57959298D01*
X139166600Y-57960315D01*
X139211300Y-57960692D01*
X139332395Y-57961831D01*
X139433688Y-57963028D01*
X139517262Y-57964364D01*
X139585204Y-57965923D01*
X139639599Y-57967785D01*
X139682532Y-57970034D01*
X139716089Y-57972752D01*
X139742355Y-57976021D01*
X139763416Y-57979922D01*
X139781357Y-57984539D01*
X139807770Y-57992808D01*
X139869772Y-58016417D01*
X139922573Y-58042315D01*
X139959645Y-58067465D01*
X139961075Y-58068661D01*
X139965424Y-58070832D01*
X139969026Y-58068672D01*
X139971951Y-58060356D01*
X139974269Y-58044060D01*
X139976051Y-58017959D01*
X139977367Y-57980229D01*
X139978286Y-57929044D01*
X139978878Y-57862580D01*
X139979215Y-57779013D01*
X139979365Y-57676517D01*
X139979400Y-57553268D01*
X139979400Y-57021704D01*
X139921783Y-57060477D01*
X139912893Y-57066568D01*
X139898069Y-57077024D01*
X139884422Y-57086421D01*
X139870765Y-57094817D01*
X139855911Y-57102267D01*
X139838670Y-57108827D01*
X139817855Y-57114554D01*
X139792280Y-57119505D01*
X139760755Y-57123734D01*
X139722093Y-57127299D01*
X139675107Y-57130256D01*
X139618608Y-57132660D01*
X139551409Y-57134569D01*
X139472322Y-57136038D01*
X139380160Y-57137124D01*
X139273734Y-57137882D01*
X139151857Y-57138370D01*
X139013341Y-57138642D01*
X138856999Y-57138757D01*
X138681642Y-57138769D01*
X138486082Y-57138735D01*
X138269133Y-57138711D01*
X138146513Y-57138720D01*
X137941447Y-57138757D01*
X137757116Y-57138773D01*
X137592334Y-57138712D01*
X137445916Y-57138516D01*
X137316674Y-57138130D01*
X137203422Y-57137495D01*
X137104975Y-57136556D01*
X137020144Y-57135255D01*
X136947744Y-57133536D01*
X136886589Y-57131341D01*
X136835492Y-57128615D01*
X136793267Y-57125299D01*
X136758727Y-57121338D01*
X136730686Y-57116675D01*
X136707958Y-57111253D01*
X136689356Y-57105014D01*
X136673693Y-57097903D01*
X136659784Y-57089862D01*
X136646441Y-57080834D01*
X136632479Y-57070764D01*
X136616711Y-57059593D01*
X136558867Y-57019803D01*
X136558867Y-58079686D01*
X136621966Y-58041689D01*
X136647005Y-58027007D01*
X136674586Y-58012469D01*
X136702700Y-58000373D01*
X136733551Y-57990468D01*
X136769344Y-57982506D01*
X136812283Y-57976239D01*
X136864574Y-57971418D01*
X136928419Y-57967794D01*
X137006025Y-57965119D01*
X137099594Y-57963143D01*
X137211333Y-57961618D01*
X137343445Y-57960296D01*
X137463434Y-57959387D01*
X137580063Y-57958980D01*
X137675531Y-57959233D01*
X137749556Y-57960143D01*
X137801855Y-57961707D01*
X137832149Y-57963921D01*
X137840156Y-57966780D01*
X137836858Y-57969839D01*
X137815408Y-57987994D01*
X137778889Y-58017725D01*
X137729442Y-58057361D01*
X137669207Y-58105229D01*
X137600327Y-58159657D01*
X137524943Y-58218973D01*
X137445196Y-58281505D01*
X137363228Y-58345579D01*
X137281180Y-58409525D01*
X137201194Y-58471669D01*
X137125411Y-58530339D01*
X137055973Y-58583863D01*
X136995021Y-58630570D01*
X136944696Y-58668786D01*
X136907140Y-58696839D01*
X136884495Y-58713057D01*
X136812212Y-58758365D01*
X136732463Y-58798339D01*
X136664188Y-58819870D01*
X136606844Y-58823173D01*
X136558867Y-58817884D01*
X135949267Y-58817884D01*
X135949267Y-58425247D01*
X135949280Y-58214103D01*
X135949330Y-58009980D01*
X135949430Y-57826314D01*
X135949592Y-57662009D01*
X135949829Y-57515971D01*
X135950153Y-57387106D01*
X135950575Y-57274317D01*
X135951109Y-57176512D01*
X135951767Y-57092596D01*
X135952561Y-57021473D01*
X135953504Y-56962050D01*
X135954608Y-56913232D01*
X135955884Y-56873923D01*
X135957347Y-56843031D01*
X135959007Y-56819459D01*
X135960878Y-56802114D01*
X135962972Y-56789901D01*
X135965300Y-56781725D01*
X135967876Y-56776492D01*
X135971445Y-56770496D01*
X135974978Y-56763721D01*
X135978488Y-56757522D01*
X135982918Y-56751874D01*
X135989208Y-56746753D01*
X135998301Y-56742131D01*
X136011139Y-56737985D01*
X136028662Y-56734287D01*
X136051813Y-56731013D01*
X136081534Y-56728137D01*
X136118765Y-56725633D01*
X136164449Y-56723476D01*
X136219527Y-56721640D01*
X136284941Y-56720100D01*
X136361633Y-56718830D01*
X136450544Y-56717805D01*
X136552617Y-56716999D01*
X136558867Y-56716966D01*
X136668792Y-56716386D01*
X136800011Y-56715941D01*
G37*
X136800011Y-56715941D02*
X136947216Y-56715638D01*
X137111349Y-56715452D01*
X137293352Y-56715358D01*
X137494165Y-56715329D01*
X137714732Y-56715339D01*
X137955992Y-56715364D01*
X138218889Y-56715378D01*
X138261040Y-56715378D01*
X138521668Y-56715354D01*
X138760796Y-56715315D01*
X138979360Y-56715292D01*
X139178295Y-56715313D01*
X139358535Y-56715407D01*
X139521015Y-56715605D01*
X139666670Y-56715937D01*
X139796434Y-56716431D01*
X139911243Y-56717117D01*
X140012030Y-56718024D01*
X140099730Y-56719183D01*
X140175279Y-56720622D01*
X140239611Y-56722371D01*
X140293661Y-56724460D01*
X140338363Y-56726917D01*
X140374652Y-56729773D01*
X140403463Y-56733057D01*
X140425731Y-56736798D01*
X140442390Y-56741026D01*
X140454375Y-56745771D01*
X140462621Y-56751061D01*
X140468062Y-56756927D01*
X140471634Y-56763398D01*
X140474270Y-56770503D01*
X140476906Y-56778272D01*
X140480477Y-56786734D01*
X140482145Y-56791092D01*
X140484111Y-56799605D01*
X140485911Y-56812306D01*
X140487555Y-56830115D01*
X140489047Y-56853951D01*
X140490397Y-56884734D01*
X140491611Y-56923383D01*
X140492697Y-56970818D01*
X140493661Y-57027957D01*
X140494511Y-57095721D01*
X140495253Y-57175029D01*
X140495897Y-57266801D01*
X140496447Y-57371956D01*
X140496913Y-57491413D01*
X140497300Y-57626092D01*
X140497616Y-57776912D01*
X140497869Y-57944794D01*
X140498066Y-58130655D01*
X140498213Y-58335417D01*
X140498318Y-58559998D01*
X140498389Y-58805318D01*
X140498432Y-59072296D01*
X140498437Y-59110679D01*
X140498480Y-59376078D01*
X140498525Y-59619950D01*
X140498548Y-59843217D01*
X140498524Y-60046804D01*
X140498430Y-60231633D01*
X140498243Y-60398627D01*
X140497939Y-60548710D01*
X140497494Y-60682804D01*
X140496885Y-60801834D01*
X140496089Y-60906721D01*
X140495080Y-60998390D01*
X140493837Y-61077763D01*
X140492335Y-61145763D01*
X140490551Y-61203314D01*
X140488461Y-61251338D01*
X140486042Y-61290760D01*
X140483270Y-61322501D01*
X140480121Y-61347486D01*
X140476572Y-61366636D01*
X140472598Y-61380877D01*
X140468178Y-61391129D01*
X140463286Y-61398318D01*
X140457900Y-61403365D01*
X140451996Y-61407195D01*
X140445549Y-61410729D01*
X140438537Y-61414892D01*
X140436687Y-61415975D01*
X140431180Y-61418187D01*
X140422868Y-61420214D01*
X140410809Y-61422062D01*
X140394063Y-61423739D01*
X140371687Y-61425255D01*
X140342740Y-61426617D01*
X140306280Y-61427833D01*
X140261367Y-61428911D01*
X140207057Y-61429860D01*
X140142410Y-61430688D01*
X140066484Y-61431403D01*
X139978338Y-61432013D01*
X139877029Y-61432526D01*
X139761617Y-61432950D01*
X139631160Y-61433294D01*
X139484716Y-61433566D01*
X139321344Y-61433773D01*
X139140101Y-61433924D01*
X138940048Y-61434028D01*
X138720241Y-61434092D01*
X138479739Y-61434124D01*
X138217602Y-61434133D01*
X136026031Y-61434133D01*
X135987649Y-61395751D01*
X135963911Y-61368645D01*
X135952111Y-61341747D01*
X135949267Y-61305440D01*
X135949267Y-61253511D01*
X136037206Y-61253511D01*
X136087102Y-61251573D01*
X136197523Y-61232801D01*
X136298987Y-61195783D01*
X136390152Y-61142631D01*
X136469673Y-61075454D01*
X136491249Y-61049805D01*
X137461978Y-61049805D01*
X138638845Y-61052880D01*
X139815711Y-61055955D01*
X139874622Y-61082593D01*
X139899183Y-61094515D01*
X139929434Y-61111754D01*
X139946560Y-61124926D01*
X139954591Y-61132924D01*
X139969493Y-61140622D01*
X139970765Y-61136740D01*
X139972791Y-61113480D01*
X139974626Y-61071126D01*
X139976227Y-61011868D01*
X139977549Y-60937893D01*
X139978548Y-60851390D01*
X139979180Y-60754548D01*
X139979400Y-60649555D01*
X139979349Y-60580644D01*
X139979091Y-60482393D01*
X139978637Y-60392970D01*
X139978010Y-60314667D01*
X139977235Y-60249777D01*
X139976335Y-60200589D01*
X139975334Y-60169396D01*
X139974257Y-60158489D01*
X139971037Y-60159678D01*
X139953452Y-60169824D01*
X139927158Y-60186960D01*
X139914691Y-60195460D01*
X139900622Y-60204671D01*
X139886351Y-60212767D01*
X139870479Y-60219815D01*
X139851609Y-60225883D01*
X139828341Y-60231039D01*
X139799278Y-60235349D01*
X139763021Y-60238881D01*
X139718170Y-60241703D01*
X139663328Y-60243882D01*
X139597097Y-60245486D01*
X139518077Y-60246581D01*
X139424871Y-60247235D01*
X139316079Y-60247516D01*
X139190303Y-60247491D01*
X139046145Y-60247228D01*
X138882207Y-60246794D01*
X138697089Y-60246255D01*
X138518232Y-60245721D01*
X138359374Y-60245195D01*
X138220316Y-60244650D01*
X138099665Y-60244055D01*
X137996028Y-60243381D01*
X137908011Y-60242597D01*
X137834223Y-60241674D01*
X137773269Y-60240581D01*
X137723757Y-60239288D01*
X137684293Y-60237765D01*
X137653484Y-60235981D01*
X137629938Y-60233908D01*
X137612260Y-60231514D01*
X137599059Y-60228770D01*
X137588940Y-60225644D01*
X137580511Y-60222108D01*
X137572375Y-60218209D01*
X137535544Y-60198562D01*
X137505391Y-60179775D01*
X137503908Y-60178728D01*
X137481659Y-60164398D01*
X137468702Y-60158489D01*
X137468249Y-60159496D01*
X137466803Y-60176695D01*
X137465480Y-60213344D01*
X137464316Y-60267038D01*
X137463347Y-60335370D01*
X137462611Y-60415936D01*
X137462142Y-60506330D01*
X137461978Y-60604147D01*
X137461978Y-61049805D01*
X136491249Y-61049805D01*
X136536205Y-60996362D01*
X136588406Y-60907466D01*
X136624930Y-60810875D01*
X136644434Y-60708700D01*
X136645573Y-60603050D01*
X136627005Y-60496036D01*
X136587384Y-60389768D01*
X136529516Y-60292781D01*
X136454684Y-60207707D01*
X136366615Y-60138985D01*
X136267616Y-60088082D01*
X136159993Y-60056465D01*
X136046054Y-60045600D01*
X135949267Y-60045600D01*
X135949267Y-58817884D01*
X136558867Y-58817884D01*
X136559117Y-59949644D01*
X136589722Y-59910133D01*
X136597089Y-59900752D01*
X136651438Y-59837817D01*
X136719259Y-59769003D01*
X136802516Y-59692404D01*
X136903178Y-59606112D01*
X136923847Y-59588948D01*
X136973409Y-59548167D01*
X137034326Y-59498412D01*
X137104898Y-59441045D01*
X137183424Y-59377431D01*
X137268204Y-59308931D01*
X137357537Y-59236910D01*
X137449722Y-59162730D01*
X137468702Y-59147483D01*
X137543060Y-59087754D01*
X137635848Y-59013347D01*
X137726388Y-58940869D01*
X137812978Y-58871686D01*
X137893918Y-58807159D01*
X137967506Y-58748653D01*
X138032044Y-58697530D01*
X138085829Y-58655153D01*
X138127162Y-58622885D01*
X138154342Y-58602090D01*
X138165668Y-58594131D01*
X138169771Y-58595889D01*
X138190334Y-58608770D01*
X138226561Y-58633115D01*
X138276824Y-58667753D01*
X138339492Y-58711514D01*
X138412936Y-58763225D01*
X138495527Y-58821716D01*
X138585636Y-58885816D01*
X138681631Y-58954354D01*
X138781885Y-59026157D01*
X138884768Y-59100056D01*
X138988650Y-59174879D01*
X139091901Y-59249455D01*
X139192892Y-59322613D01*
X139289994Y-59393181D01*
X139381577Y-59459989D01*
X139466011Y-59521865D01*
X139541667Y-59577639D01*
X139606916Y-59626138D01*
X139660128Y-59666193D01*
X139699673Y-59696631D01*
X139725026Y-59717056D01*
X139779295Y-59763101D01*
X139835775Y-59813388D01*
X139885669Y-59860185D01*
X139979400Y-59951349D01*
X139979400Y-58796910D01*
X139903200Y-58797544D01*
X139861160Y-58796426D01*
X139825334Y-58790696D01*
X139787772Y-58778110D01*
X139739577Y-58756432D01*
X139732897Y-58753211D01*
X139683359Y-58727812D01*
X139635369Y-58701004D01*
X139598466Y-58678083D01*
X139591834Y-58673515D01*
X139560593Y-58651484D01*
X139515654Y-58619307D01*
X139459147Y-58578543D01*
X139393204Y-58530755D01*
X139319957Y-58477502D01*
X139241536Y-58420345D01*
X139160072Y-58360845D01*
X139077698Y-58300563D01*
X138996544Y-58241060D01*
X138918742Y-58183895D01*
X138846423Y-58130630D01*
X138781718Y-58082826D01*
X138726759Y-58042043D01*
X138683676Y-58009842D01*
X138654602Y-57987784D01*
X138641667Y-57977429D01*
X138637351Y-57972956D01*
X138635312Y-57968764D01*
X138637926Y-57965357D01*
X138646986Y-57962675D01*
X138664285Y-57960659D01*
X138691614Y-57959252D01*
X138730765Y-57958395D01*
X138783533Y-57958030D01*
X138851707Y-57958097D01*
X138937082Y-57958540D01*
X139041449Y-57959298D01*
X139166600Y-57960315D01*
X139211300Y-57960692D01*
X139332395Y-57961831D01*
X139433688Y-57963028D01*
X139517262Y-57964364D01*
X139585204Y-57965923D01*
X139639599Y-57967785D01*
X139682532Y-57970034D01*
X139716089Y-57972752D01*
X139742355Y-57976021D01*
X139763416Y-57979922D01*
X139781357Y-57984539D01*
X139807770Y-57992808D01*
X139869772Y-58016417D01*
X139922573Y-58042315D01*
X139959645Y-58067465D01*
X139961075Y-58068661D01*
X139965424Y-58070832D01*
X139969026Y-58068672D01*
X139971951Y-58060356D01*
X139974269Y-58044060D01*
X139976051Y-58017959D01*
X139977367Y-57980229D01*
X139978286Y-57929044D01*
X139978878Y-57862580D01*
X139979215Y-57779013D01*
X139979365Y-57676517D01*
X139979400Y-57553268D01*
X139979400Y-57021704D01*
X139921783Y-57060477D01*
X139912893Y-57066568D01*
X139898069Y-57077024D01*
X139884422Y-57086421D01*
X139870765Y-57094817D01*
X139855911Y-57102267D01*
X139838670Y-57108827D01*
X139817855Y-57114554D01*
X139792280Y-57119505D01*
X139760755Y-57123734D01*
X139722093Y-57127299D01*
X139675107Y-57130256D01*
X139618608Y-57132660D01*
X139551409Y-57134569D01*
X139472322Y-57136038D01*
X139380160Y-57137124D01*
X139273734Y-57137882D01*
X139151857Y-57138370D01*
X139013341Y-57138642D01*
X138856999Y-57138757D01*
X138681642Y-57138769D01*
X138486082Y-57138735D01*
X138269133Y-57138711D01*
X138146513Y-57138720D01*
X137941447Y-57138757D01*
X137757116Y-57138773D01*
X137592334Y-57138712D01*
X137445916Y-57138516D01*
X137316674Y-57138130D01*
X137203422Y-57137495D01*
X137104975Y-57136556D01*
X137020144Y-57135255D01*
X136947744Y-57133536D01*
X136886589Y-57131341D01*
X136835492Y-57128615D01*
X136793267Y-57125299D01*
X136758727Y-57121338D01*
X136730686Y-57116675D01*
X136707958Y-57111253D01*
X136689356Y-57105014D01*
X136673693Y-57097903D01*
X136659784Y-57089862D01*
X136646441Y-57080834D01*
X136632479Y-57070764D01*
X136616711Y-57059593D01*
X136558867Y-57019803D01*
X136558867Y-58079686D01*
X136621966Y-58041689D01*
X136647005Y-58027007D01*
X136674586Y-58012469D01*
X136702700Y-58000373D01*
X136733551Y-57990468D01*
X136769344Y-57982506D01*
X136812283Y-57976239D01*
X136864574Y-57971418D01*
X136928419Y-57967794D01*
X137006025Y-57965119D01*
X137099594Y-57963143D01*
X137211333Y-57961618D01*
X137343445Y-57960296D01*
X137463434Y-57959387D01*
X137580063Y-57958980D01*
X137675531Y-57959233D01*
X137749556Y-57960143D01*
X137801855Y-57961707D01*
X137832149Y-57963921D01*
X137840156Y-57966780D01*
X137836858Y-57969839D01*
X137815408Y-57987994D01*
X137778889Y-58017725D01*
X137729442Y-58057361D01*
X137669207Y-58105229D01*
X137600327Y-58159657D01*
X137524943Y-58218973D01*
X137445196Y-58281505D01*
X137363228Y-58345579D01*
X137281180Y-58409525D01*
X137201194Y-58471669D01*
X137125411Y-58530339D01*
X137055973Y-58583863D01*
X136995021Y-58630570D01*
X136944696Y-58668786D01*
X136907140Y-58696839D01*
X136884495Y-58713057D01*
X136812212Y-58758365D01*
X136732463Y-58798339D01*
X136664188Y-58819870D01*
X136606844Y-58823173D01*
X136558867Y-58817884D01*
X135949267Y-58817884D01*
X135949267Y-58425247D01*
X135949280Y-58214103D01*
X135949330Y-58009980D01*
X135949430Y-57826314D01*
X135949592Y-57662009D01*
X135949829Y-57515971D01*
X135950153Y-57387106D01*
X135950575Y-57274317D01*
X135951109Y-57176512D01*
X135951767Y-57092596D01*
X135952561Y-57021473D01*
X135953504Y-56962050D01*
X135954608Y-56913232D01*
X135955884Y-56873923D01*
X135957347Y-56843031D01*
X135959007Y-56819459D01*
X135960878Y-56802114D01*
X135962972Y-56789901D01*
X135965300Y-56781725D01*
X135967876Y-56776492D01*
X135971445Y-56770496D01*
X135974978Y-56763721D01*
X135978488Y-56757522D01*
X135982918Y-56751874D01*
X135989208Y-56746753D01*
X135998301Y-56742131D01*
X136011139Y-56737985D01*
X136028662Y-56734287D01*
X136051813Y-56731013D01*
X136081534Y-56728137D01*
X136118765Y-56725633D01*
X136164449Y-56723476D01*
X136219527Y-56721640D01*
X136284941Y-56720100D01*
X136361633Y-56718830D01*
X136450544Y-56717805D01*
X136552617Y-56716999D01*
X136558867Y-56716966D01*
X136668792Y-56716386D01*
X136800011Y-56715941D01*
G36*
X141278567Y-59944041D02*
G01*
X141352789Y-59944299D01*
X141409541Y-59944970D01*
X141451512Y-59946248D01*
X141481389Y-59948327D01*
X141501861Y-59951401D01*
X141515614Y-59955666D01*
X141525337Y-59961316D01*
X141533717Y-59968545D01*
X141555181Y-60000009D01*
X141556947Y-60035174D01*
X141537267Y-60068178D01*
X141531398Y-60073484D01*
X141522314Y-60078934D01*
X141508973Y-60083100D01*
X141488757Y-60086154D01*
X141459049Y-60088268D01*
X141417232Y-60089614D01*
X141360689Y-60090362D01*
X141286802Y-60090686D01*
X141192956Y-60090755D01*
X141117294Y-60090716D01*
X141039385Y-60090461D01*
X140979375Y-60089817D01*
X140934648Y-60088613D01*
X140902585Y-60086676D01*
X140880571Y-60083836D01*
X140865987Y-60079921D01*
X140856218Y-60074758D01*
X140848645Y-60068178D01*
X140829623Y-60038994D01*
X140830463Y-60005863D01*
X140853776Y-59971709D01*
X140881485Y-59944000D01*
X141194537Y-59944000D01*
X141278567Y-59944041D01*
G37*
X141278567Y-59944041D02*
X141352789Y-59944299D01*
X141409541Y-59944970D01*
X141451512Y-59946248D01*
X141481389Y-59948327D01*
X141501861Y-59951401D01*
X141515614Y-59955666D01*
X141525337Y-59961316D01*
X141533717Y-59968545D01*
X141555181Y-60000009D01*
X141556947Y-60035174D01*
X141537267Y-60068178D01*
X141531398Y-60073484D01*
X141522314Y-60078934D01*
X141508973Y-60083100D01*
X141488757Y-60086154D01*
X141459049Y-60088268D01*
X141417232Y-60089614D01*
X141360689Y-60090362D01*
X141286802Y-60090686D01*
X141192956Y-60090755D01*
X141117294Y-60090716D01*
X141039385Y-60090461D01*
X140979375Y-60089817D01*
X140934648Y-60088613D01*
X140902585Y-60086676D01*
X140880571Y-60083836D01*
X140865987Y-60079921D01*
X140856218Y-60074758D01*
X140848645Y-60068178D01*
X140829623Y-60038994D01*
X140830463Y-60005863D01*
X140853776Y-59971709D01*
X140881485Y-59944000D01*
X141194537Y-59944000D01*
X141278567Y-59944041D01*
G36*
X141263911Y-62788829D02*
G01*
X141342228Y-62789061D01*
X141402496Y-62789681D01*
X141447393Y-62790874D01*
X141479602Y-62792821D01*
X141501800Y-62795706D01*
X141516669Y-62799712D01*
X141526889Y-62805021D01*
X141535138Y-62811817D01*
X141539795Y-62816332D01*
X141546282Y-62824562D01*
X141551194Y-62835922D01*
X141554749Y-62853190D01*
X141557167Y-62879145D01*
X141558667Y-62916564D01*
X141559467Y-62968227D01*
X141559787Y-63036911D01*
X141559845Y-63125394D01*
X141559838Y-63145069D01*
X141559572Y-63232094D01*
X141558806Y-63299746D01*
X141557392Y-63350701D01*
X141555180Y-63387633D01*
X141552022Y-63413217D01*
X141547769Y-63430129D01*
X141542271Y-63441043D01*
X141532285Y-63451536D01*
X141501168Y-63464797D01*
X141465280Y-63463614D01*
X141433733Y-63447450D01*
X141431457Y-63445261D01*
X141425189Y-63436573D01*
X141420523Y-63423231D01*
X141417227Y-63402248D01*
X141415068Y-63370637D01*
X141413814Y-63325410D01*
X141413231Y-63263580D01*
X141413089Y-63182161D01*
X141413089Y-62935555D01*
X141255045Y-62935555D01*
X141255045Y-63097994D01*
X141254964Y-63133662D01*
X141254167Y-63189432D01*
X141252162Y-63228570D01*
X141248521Y-63255024D01*
X141242812Y-63272741D01*
X141234607Y-63285671D01*
X141231423Y-63289314D01*
X141200448Y-63307722D01*
X141164112Y-63308356D01*
X141130493Y-63290817D01*
X141130424Y-63290755D01*
X141121798Y-63281084D01*
X141115742Y-63267791D01*
X141111811Y-63247083D01*
X141109556Y-63215172D01*
X141108531Y-63168266D01*
X141108289Y-63102576D01*
X141108289Y-62934429D01*
X141043378Y-62937814D01*
X140978467Y-62941200D01*
X140975414Y-63183277D01*
X140975086Y-63208293D01*
X140973606Y-63289913D01*
X140971222Y-63352232D01*
X140967227Y-63397846D01*
X140960913Y-63429348D01*
X140951574Y-63449333D01*
X140938503Y-63460396D01*
X140920992Y-63465131D01*
X140898335Y-63466133D01*
X140895970Y-63466127D01*
X140875939Y-63464973D01*
X140860146Y-63460176D01*
X140848090Y-63449368D01*
X140839267Y-63430183D01*
X140833175Y-63400255D01*
X140829311Y-63357217D01*
X140827174Y-63298701D01*
X140826260Y-63222343D01*
X140826067Y-63125774D01*
X140826067Y-62835594D01*
X140855811Y-62812197D01*
X140862495Y-62807248D01*
X140873066Y-62801404D01*
X140887153Y-62796943D01*
X140907478Y-62793679D01*
X140936765Y-62791426D01*
X140977737Y-62789998D01*
X141033117Y-62789208D01*
X141105628Y-62788871D01*
X141197994Y-62788800D01*
X141263911Y-62788829D01*
G37*
X141263911Y-62788829D02*
X141342228Y-62789061D01*
X141402496Y-62789681D01*
X141447393Y-62790874D01*
X141479602Y-62792821D01*
X141501800Y-62795706D01*
X141516669Y-62799712D01*
X141526889Y-62805021D01*
X141535138Y-62811817D01*
X141539795Y-62816332D01*
X141546282Y-62824562D01*
X141551194Y-62835922D01*
X141554749Y-62853190D01*
X141557167Y-62879145D01*
X141558667Y-62916564D01*
X141559467Y-62968227D01*
X141559787Y-63036911D01*
X141559845Y-63125394D01*
X141559838Y-63145069D01*
X141559572Y-63232094D01*
X141558806Y-63299746D01*
X141557392Y-63350701D01*
X141555180Y-63387633D01*
X141552022Y-63413217D01*
X141547769Y-63430129D01*
X141542271Y-63441043D01*
X141532285Y-63451536D01*
X141501168Y-63464797D01*
X141465280Y-63463614D01*
X141433733Y-63447450D01*
X141431457Y-63445261D01*
X141425189Y-63436573D01*
X141420523Y-63423231D01*
X141417227Y-63402248D01*
X141415068Y-63370637D01*
X141413814Y-63325410D01*
X141413231Y-63263580D01*
X141413089Y-63182161D01*
X141413089Y-62935555D01*
X141255045Y-62935555D01*
X141255045Y-63097994D01*
X141254964Y-63133662D01*
X141254167Y-63189432D01*
X141252162Y-63228570D01*
X141248521Y-63255024D01*
X141242812Y-63272741D01*
X141234607Y-63285671D01*
X141231423Y-63289314D01*
X141200448Y-63307722D01*
X141164112Y-63308356D01*
X141130493Y-63290817D01*
X141130424Y-63290755D01*
X141121798Y-63281084D01*
X141115742Y-63267791D01*
X141111811Y-63247083D01*
X141109556Y-63215172D01*
X141108531Y-63168266D01*
X141108289Y-63102576D01*
X141108289Y-62934429D01*
X141043378Y-62937814D01*
X140978467Y-62941200D01*
X140975414Y-63183277D01*
X140975086Y-63208293D01*
X140973606Y-63289913D01*
X140971222Y-63352232D01*
X140967227Y-63397846D01*
X140960913Y-63429348D01*
X140951574Y-63449333D01*
X140938503Y-63460396D01*
X140920992Y-63465131D01*
X140898335Y-63466133D01*
X140895970Y-63466127D01*
X140875939Y-63464973D01*
X140860146Y-63460176D01*
X140848090Y-63449368D01*
X140839267Y-63430183D01*
X140833175Y-63400255D01*
X140829311Y-63357217D01*
X140827174Y-63298701D01*
X140826260Y-63222343D01*
X140826067Y-63125774D01*
X140826067Y-62835594D01*
X140855811Y-62812197D01*
X140862495Y-62807248D01*
X140873066Y-62801404D01*
X140887153Y-62796943D01*
X140907478Y-62793679D01*
X140936765Y-62791426D01*
X140977737Y-62789998D01*
X141033117Y-62789208D01*
X141105628Y-62788871D01*
X141197994Y-62788800D01*
X141263911Y-62788829D01*
G36*
X141211259Y-60419702D02*
G01*
X141262592Y-60432643D01*
X141319118Y-60455806D01*
X141373035Y-60485698D01*
X141416539Y-60518827D01*
X141426887Y-60529023D01*
X141478662Y-60596108D01*
X141518554Y-60676234D01*
X141542956Y-60762444D01*
X141551068Y-60817408D01*
X141557673Y-60910861D01*
X141555586Y-61000642D01*
X141545340Y-61083131D01*
X141527470Y-61154714D01*
X141502508Y-61211772D01*
X141470988Y-61250689D01*
X141469012Y-61252064D01*
X141443786Y-61259152D01*
X141396535Y-61263391D01*
X141327071Y-61264800D01*
X141264838Y-61263940D01*
X141217456Y-61259220D01*
X141185353Y-61247530D01*
X141165800Y-61225761D01*
X141156070Y-61190802D01*
X141153433Y-61139544D01*
X141155161Y-61068877D01*
X141158173Y-61020257D01*
X141166366Y-60970061D01*
X141180419Y-60937567D01*
X141201654Y-60920108D01*
X141231394Y-60915017D01*
X141235936Y-60915123D01*
X141270730Y-60923825D01*
X141294147Y-60947835D01*
X141307347Y-60989100D01*
X141311489Y-61049569D01*
X141311489Y-61118044D01*
X141349841Y-61118044D01*
X141358976Y-61117994D01*
X141376227Y-61115773D01*
X141386521Y-61106506D01*
X141393459Y-61085125D01*
X141400641Y-61046564D01*
X141401575Y-61041090D01*
X141411478Y-60944140D01*
X141408559Y-60854148D01*
X141393829Y-60773240D01*
X141368299Y-60703541D01*
X141332978Y-60647176D01*
X141288879Y-60606271D01*
X141237012Y-60582949D01*
X141178388Y-60579337D01*
X141149494Y-60584855D01*
X141093604Y-60611539D01*
X141047945Y-60657727D01*
X141013108Y-60722709D01*
X140989690Y-60805771D01*
X140985241Y-60830445D01*
X140974742Y-60919774D01*
X140975971Y-60999581D01*
X140988906Y-61077674D01*
X140995696Y-61112817D01*
X140996713Y-61158255D01*
X140984182Y-61189570D01*
X140957395Y-61209723D01*
X140929148Y-61216107D01*
X140897924Y-61206621D01*
X140884499Y-61197292D01*
X140860967Y-61163057D01*
X140843095Y-61110435D01*
X140831599Y-61041919D01*
X140827192Y-60960000D01*
X140831179Y-60862850D01*
X140847494Y-60756843D01*
X140875545Y-60663031D01*
X140914452Y-60584235D01*
X140963334Y-60523281D01*
X140996195Y-60497211D01*
X141045394Y-60467703D01*
X141099252Y-60442432D01*
X141150419Y-60424782D01*
X141191544Y-60418142D01*
X141211259Y-60419702D01*
G37*
X141211259Y-60419702D02*
X141262592Y-60432643D01*
X141319118Y-60455806D01*
X141373035Y-60485698D01*
X141416539Y-60518827D01*
X141426887Y-60529023D01*
X141478662Y-60596108D01*
X141518554Y-60676234D01*
X141542956Y-60762444D01*
X141551068Y-60817408D01*
X141557673Y-60910861D01*
X141555586Y-61000642D01*
X141545340Y-61083131D01*
X141527470Y-61154714D01*
X141502508Y-61211772D01*
X141470988Y-61250689D01*
X141469012Y-61252064D01*
X141443786Y-61259152D01*
X141396535Y-61263391D01*
X141327071Y-61264800D01*
X141264838Y-61263940D01*
X141217456Y-61259220D01*
X141185353Y-61247530D01*
X141165800Y-61225761D01*
X141156070Y-61190802D01*
X141153433Y-61139544D01*
X141155161Y-61068877D01*
X141158173Y-61020257D01*
X141166366Y-60970061D01*
X141180419Y-60937567D01*
X141201654Y-60920108D01*
X141231394Y-60915017D01*
X141235936Y-60915123D01*
X141270730Y-60923825D01*
X141294147Y-60947835D01*
X141307347Y-60989100D01*
X141311489Y-61049569D01*
X141311489Y-61118044D01*
X141349841Y-61118044D01*
X141358976Y-61117994D01*
X141376227Y-61115773D01*
X141386521Y-61106506D01*
X141393459Y-61085125D01*
X141400641Y-61046564D01*
X141401575Y-61041090D01*
X141411478Y-60944140D01*
X141408559Y-60854148D01*
X141393829Y-60773240D01*
X141368299Y-60703541D01*
X141332978Y-60647176D01*
X141288879Y-60606271D01*
X141237012Y-60582949D01*
X141178388Y-60579337D01*
X141149494Y-60584855D01*
X141093604Y-60611539D01*
X141047945Y-60657727D01*
X141013108Y-60722709D01*
X140989690Y-60805771D01*
X140985241Y-60830445D01*
X140974742Y-60919774D01*
X140975971Y-60999581D01*
X140988906Y-61077674D01*
X140995696Y-61112817D01*
X140996713Y-61158255D01*
X140984182Y-61189570D01*
X140957395Y-61209723D01*
X140929148Y-61216107D01*
X140897924Y-61206621D01*
X140884499Y-61197292D01*
X140860967Y-61163057D01*
X140843095Y-61110435D01*
X140831599Y-61041919D01*
X140827192Y-60960000D01*
X140831179Y-60862850D01*
X140847494Y-60756843D01*
X140875545Y-60663031D01*
X140914452Y-60584235D01*
X140963334Y-60523281D01*
X140996195Y-60497211D01*
X141045394Y-60467703D01*
X141099252Y-60442432D01*
X141150419Y-60424782D01*
X141191544Y-60418142D01*
X141211259Y-60419702D01*
G36*
X141251486Y-61603489D02*
G01*
X141330573Y-61603708D01*
X141391516Y-61604317D01*
X141437062Y-61605508D01*
X141469963Y-61607471D01*
X141492968Y-61610397D01*
X141508826Y-61614477D01*
X141520286Y-61619903D01*
X141530100Y-61626864D01*
X141554493Y-61657292D01*
X141557372Y-61692235D01*
X141538282Y-61729216D01*
X141534807Y-61733400D01*
X141526279Y-61741576D01*
X141514728Y-61747636D01*
X141496896Y-61752019D01*
X141469524Y-61755161D01*
X141429354Y-61757498D01*
X141373128Y-61759469D01*
X141297589Y-61761511D01*
X141078458Y-61767155D01*
X141319099Y-62032444D01*
X141385875Y-62106278D01*
X141443991Y-62171458D01*
X141488949Y-62223652D01*
X141521871Y-62264727D01*
X141543879Y-62296545D01*
X141556094Y-62320974D01*
X141559639Y-62339876D01*
X141555636Y-62355117D01*
X141545207Y-62368561D01*
X141529474Y-62382073D01*
X141520991Y-62388318D01*
X141510413Y-62393950D01*
X141496255Y-62398161D01*
X141475803Y-62401113D01*
X141446342Y-62402968D01*
X141405161Y-62403887D01*
X141349544Y-62404032D01*
X141276779Y-62403565D01*
X141184151Y-62402648D01*
X140869199Y-62399333D01*
X140847633Y-62372682D01*
X140831441Y-62346617D01*
X140828670Y-62313759D01*
X140847623Y-62279228D01*
X140851208Y-62274916D01*
X140859737Y-62266784D01*
X140871329Y-62260755D01*
X140889235Y-62256394D01*
X140916706Y-62253266D01*
X140956994Y-62250937D01*
X141013351Y-62248971D01*
X141089029Y-62246933D01*
X141308878Y-62241289D01*
X141145084Y-62060666D01*
X141066451Y-61973928D01*
X140998058Y-61898157D01*
X140942708Y-61836020D01*
X140899338Y-61785922D01*
X140866881Y-61746265D01*
X140844273Y-61715452D01*
X140830448Y-61691886D01*
X140824343Y-61673970D01*
X140824892Y-61660107D01*
X140831029Y-61648699D01*
X140841691Y-61638150D01*
X140855811Y-61626864D01*
X140861772Y-61622411D01*
X140872268Y-61616412D01*
X140886093Y-61611833D01*
X140905998Y-61608481D01*
X140934732Y-61606167D01*
X140975045Y-61604699D01*
X141029687Y-61603887D01*
X141101407Y-61603540D01*
X141192956Y-61603466D01*
X141251486Y-61603489D01*
G37*
X141251486Y-61603489D02*
X141330573Y-61603708D01*
X141391516Y-61604317D01*
X141437062Y-61605508D01*
X141469963Y-61607471D01*
X141492968Y-61610397D01*
X141508826Y-61614477D01*
X141520286Y-61619903D01*
X141530100Y-61626864D01*
X141554493Y-61657292D01*
X141557372Y-61692235D01*
X141538282Y-61729216D01*
X141534807Y-61733400D01*
X141526279Y-61741576D01*
X141514728Y-61747636D01*
X141496896Y-61752019D01*
X141469524Y-61755161D01*
X141429354Y-61757498D01*
X141373128Y-61759469D01*
X141297589Y-61761511D01*
X141078458Y-61767155D01*
X141319099Y-62032444D01*
X141385875Y-62106278D01*
X141443991Y-62171458D01*
X141488949Y-62223652D01*
X141521871Y-62264727D01*
X141543879Y-62296545D01*
X141556094Y-62320974D01*
X141559639Y-62339876D01*
X141555636Y-62355117D01*
X141545207Y-62368561D01*
X141529474Y-62382073D01*
X141520991Y-62388318D01*
X141510413Y-62393950D01*
X141496255Y-62398161D01*
X141475803Y-62401113D01*
X141446342Y-62402968D01*
X141405161Y-62403887D01*
X141349544Y-62404032D01*
X141276779Y-62403565D01*
X141184151Y-62402648D01*
X140869199Y-62399333D01*
X140847633Y-62372682D01*
X140831441Y-62346617D01*
X140828670Y-62313759D01*
X140847623Y-62279228D01*
X140851208Y-62274916D01*
X140859737Y-62266784D01*
X140871329Y-62260755D01*
X140889235Y-62256394D01*
X140916706Y-62253266D01*
X140956994Y-62250937D01*
X141013351Y-62248971D01*
X141089029Y-62246933D01*
X141308878Y-62241289D01*
X141145084Y-62060666D01*
X141066451Y-61973928D01*
X140998058Y-61898157D01*
X140942708Y-61836020D01*
X140899338Y-61785922D01*
X140866881Y-61746265D01*
X140844273Y-61715452D01*
X140830448Y-61691886D01*
X140824343Y-61673970D01*
X140824892Y-61660107D01*
X140831029Y-61648699D01*
X140841691Y-61638150D01*
X140855811Y-61626864D01*
X140861772Y-61622411D01*
X140872268Y-61616412D01*
X140886093Y-61611833D01*
X140905998Y-61608481D01*
X140934732Y-61606167D01*
X140975045Y-61604699D01*
X141029687Y-61603887D01*
X141101407Y-61603540D01*
X141192956Y-61603466D01*
X141251486Y-61603489D01*
G36*
X139234363Y-64264739D02*
G01*
X139309202Y-64268368D01*
X139371401Y-64275978D01*
X139427984Y-64288312D01*
X139554076Y-64332687D01*
X139668679Y-64395600D01*
X139769568Y-64475762D01*
X139855924Y-64572260D01*
X139926932Y-64684178D01*
X139981776Y-64810603D01*
X140019638Y-64950622D01*
X140025351Y-64986851D01*
X140031313Y-65065845D01*
X140031646Y-65154159D01*
X140026659Y-65243925D01*
X140016666Y-65327278D01*
X140001978Y-65396349D01*
X139971749Y-65482813D01*
X139917057Y-65592714D01*
X139849543Y-65690044D01*
X139798556Y-65752133D01*
X139894622Y-65755395D01*
X139990689Y-65758657D01*
X139990689Y-66181550D01*
X139990686Y-66192457D01*
X139990380Y-66286944D01*
X139989616Y-66373669D01*
X139988451Y-66450163D01*
X139986942Y-66513957D01*
X139985147Y-66562582D01*
X139983121Y-66593567D01*
X139980922Y-66604444D01*
X139980463Y-66604422D01*
X139964910Y-66597386D01*
X139942071Y-66581566D01*
X139936638Y-66577266D01*
X139922606Y-66566223D01*
X139909186Y-66556689D01*
X139894722Y-66548539D01*
X139877556Y-66541648D01*
X139856034Y-66535889D01*
X139828498Y-66531138D01*
X139793292Y-66527269D01*
X139748760Y-66524156D01*
X139693246Y-66521675D01*
X139625093Y-66519700D01*
X139542645Y-66518106D01*
X139444246Y-66516766D01*
X139328239Y-66515556D01*
X139192968Y-66514351D01*
X139036778Y-66513025D01*
X138894012Y-66511772D01*
X138748942Y-66510349D01*
X138623027Y-66508824D01*
X138514436Y-66507067D01*
X138421334Y-66504949D01*
X138341891Y-66502340D01*
X138274273Y-66499110D01*
X138216649Y-66495131D01*
X138167185Y-66490272D01*
X138124050Y-66484403D01*
X138085410Y-66477396D01*
X138049434Y-66469120D01*
X138014289Y-66459446D01*
X137978142Y-66448244D01*
X137939161Y-66435384D01*
X137896091Y-66419910D01*
X137803871Y-66377006D01*
X137724099Y-66323265D01*
X137649965Y-66254424D01*
X137586405Y-66176815D01*
X137524725Y-66072239D01*
X137477202Y-65952756D01*
X137443567Y-65817492D01*
X137423552Y-65665574D01*
X137416889Y-65496128D01*
X137417287Y-65438110D01*
X137419335Y-65372602D01*
X137423704Y-65311307D01*
X137431035Y-65249903D01*
X137441969Y-65184068D01*
X137457147Y-65109480D01*
X137477209Y-65021816D01*
X137502797Y-64916755D01*
X137509820Y-64888194D01*
X137527776Y-64812946D01*
X137543820Y-64742612D01*
X137557028Y-64681433D01*
X137566474Y-64633646D01*
X137571231Y-64603489D01*
X137574910Y-64575217D01*
X137580187Y-64548940D01*
X137584942Y-64538941D01*
X137593781Y-64542048D01*
X137621072Y-64552806D01*
X137663906Y-64570136D01*
X137719425Y-64592874D01*
X137784772Y-64619853D01*
X137857089Y-64649910D01*
X137872879Y-64656507D01*
X137963484Y-64695093D01*
X138033217Y-64726232D01*
X138082405Y-64750083D01*
X138111374Y-64766802D01*
X138120452Y-64776546D01*
X138118405Y-64784234D01*
X138108760Y-64810585D01*
X138093190Y-64849018D01*
X138073815Y-64894178D01*
X138035814Y-64988707D01*
X137994780Y-65125520D01*
X137969612Y-65266711D01*
X137965611Y-65304686D01*
X137963447Y-65407941D01*
X137976622Y-65495048D01*
X138005756Y-65566871D01*
X138051466Y-65624269D01*
X138114372Y-65668104D01*
X138195092Y-65699238D01*
X138294245Y-65718530D01*
X138353224Y-65725950D01*
X138346445Y-65564064D01*
X138346110Y-65538106D01*
X138868842Y-65538106D01*
X138868857Y-65546993D01*
X138869655Y-65602340D01*
X138871488Y-65649264D01*
X138874111Y-65683047D01*
X138877274Y-65698972D01*
X138883741Y-65703057D01*
X138905875Y-65707428D01*
X138944988Y-65710396D01*
X139002939Y-65712086D01*
X139081586Y-65712622D01*
X139277462Y-65712622D01*
X139333973Y-65667952D01*
X139349212Y-65655215D01*
X139391844Y-65608396D01*
X139427672Y-65547745D01*
X139432850Y-65537103D01*
X139449745Y-65498324D01*
X139459909Y-65463308D01*
X139465325Y-65423278D01*
X139467978Y-65369459D01*
X139468383Y-65351352D01*
X139465540Y-65275989D01*
X139453620Y-65215257D01*
X139431037Y-65163548D01*
X139396211Y-65115254D01*
X139391798Y-65110197D01*
X139336160Y-65061728D01*
X139272333Y-65033541D01*
X139197282Y-65024248D01*
X139125693Y-65031480D01*
X139062645Y-65056204D01*
X139004758Y-65100751D01*
X138957808Y-65155681D01*
X138917961Y-65228106D01*
X138890263Y-65314660D01*
X138874096Y-65417330D01*
X138868842Y-65538106D01*
X138346110Y-65538106D01*
X138344813Y-65437505D01*
X138351194Y-65286049D01*
X138365777Y-65137604D01*
X138387882Y-65001422D01*
X138402821Y-64936755D01*
X138445741Y-64804510D01*
X138502340Y-64682238D01*
X138571017Y-64572315D01*
X138650170Y-64477117D01*
X138738196Y-64399020D01*
X138833493Y-64340401D01*
X138885864Y-64316405D01*
X138956590Y-64290768D01*
X139027812Y-64274522D01*
X139106712Y-64266178D01*
X139197282Y-64264310D01*
X139200467Y-64264245D01*
X139234363Y-64264739D01*
G37*
X139234363Y-64264739D02*
X139309202Y-64268368D01*
X139371401Y-64275978D01*
X139427984Y-64288312D01*
X139554076Y-64332687D01*
X139668679Y-64395600D01*
X139769568Y-64475762D01*
X139855924Y-64572260D01*
X139926932Y-64684178D01*
X139981776Y-64810603D01*
X140019638Y-64950622D01*
X140025351Y-64986851D01*
X140031313Y-65065845D01*
X140031646Y-65154159D01*
X140026659Y-65243925D01*
X140016666Y-65327278D01*
X140001978Y-65396349D01*
X139971749Y-65482813D01*
X139917057Y-65592714D01*
X139849543Y-65690044D01*
X139798556Y-65752133D01*
X139894622Y-65755395D01*
X139990689Y-65758657D01*
X139990689Y-66181550D01*
X139990686Y-66192457D01*
X139990380Y-66286944D01*
X139989616Y-66373669D01*
X139988451Y-66450163D01*
X139986942Y-66513957D01*
X139985147Y-66562582D01*
X139983121Y-66593567D01*
X139980922Y-66604444D01*
X139980463Y-66604422D01*
X139964910Y-66597386D01*
X139942071Y-66581566D01*
X139936638Y-66577266D01*
X139922606Y-66566223D01*
X139909186Y-66556689D01*
X139894722Y-66548539D01*
X139877556Y-66541648D01*
X139856034Y-66535889D01*
X139828498Y-66531138D01*
X139793292Y-66527269D01*
X139748760Y-66524156D01*
X139693246Y-66521675D01*
X139625093Y-66519700D01*
X139542645Y-66518106D01*
X139444246Y-66516766D01*
X139328239Y-66515556D01*
X139192968Y-66514351D01*
X139036778Y-66513025D01*
X138894012Y-66511772D01*
X138748942Y-66510349D01*
X138623027Y-66508824D01*
X138514436Y-66507067D01*
X138421334Y-66504949D01*
X138341891Y-66502340D01*
X138274273Y-66499110D01*
X138216649Y-66495131D01*
X138167185Y-66490272D01*
X138124050Y-66484403D01*
X138085410Y-66477396D01*
X138049434Y-66469120D01*
X138014289Y-66459446D01*
X137978142Y-66448244D01*
X137939161Y-66435384D01*
X137896091Y-66419910D01*
X137803871Y-66377006D01*
X137724099Y-66323265D01*
X137649965Y-66254424D01*
X137586405Y-66176815D01*
X137524725Y-66072239D01*
X137477202Y-65952756D01*
X137443567Y-65817492D01*
X137423552Y-65665574D01*
X137416889Y-65496128D01*
X137417287Y-65438110D01*
X137419335Y-65372602D01*
X137423704Y-65311307D01*
X137431035Y-65249903D01*
X137441969Y-65184068D01*
X137457147Y-65109480D01*
X137477209Y-65021816D01*
X137502797Y-64916755D01*
X137509820Y-64888194D01*
X137527776Y-64812946D01*
X137543820Y-64742612D01*
X137557028Y-64681433D01*
X137566474Y-64633646D01*
X137571231Y-64603489D01*
X137574910Y-64575217D01*
X137580187Y-64548940D01*
X137584942Y-64538941D01*
X137593781Y-64542048D01*
X137621072Y-64552806D01*
X137663906Y-64570136D01*
X137719425Y-64592874D01*
X137784772Y-64619853D01*
X137857089Y-64649910D01*
X137872879Y-64656507D01*
X137963484Y-64695093D01*
X138033217Y-64726232D01*
X138082405Y-64750083D01*
X138111374Y-64766802D01*
X138120452Y-64776546D01*
X138118405Y-64784234D01*
X138108760Y-64810585D01*
X138093190Y-64849018D01*
X138073815Y-64894178D01*
X138035814Y-64988707D01*
X137994780Y-65125520D01*
X137969612Y-65266711D01*
X137965611Y-65304686D01*
X137963447Y-65407941D01*
X137976622Y-65495048D01*
X138005756Y-65566871D01*
X138051466Y-65624269D01*
X138114372Y-65668104D01*
X138195092Y-65699238D01*
X138294245Y-65718530D01*
X138353224Y-65725950D01*
X138346445Y-65564064D01*
X138346110Y-65538106D01*
X138868842Y-65538106D01*
X138868857Y-65546993D01*
X138869655Y-65602340D01*
X138871488Y-65649264D01*
X138874111Y-65683047D01*
X138877274Y-65698972D01*
X138883741Y-65703057D01*
X138905875Y-65707428D01*
X138944988Y-65710396D01*
X139002939Y-65712086D01*
X139081586Y-65712622D01*
X139277462Y-65712622D01*
X139333973Y-65667952D01*
X139349212Y-65655215D01*
X139391844Y-65608396D01*
X139427672Y-65547745D01*
X139432850Y-65537103D01*
X139449745Y-65498324D01*
X139459909Y-65463308D01*
X139465325Y-65423278D01*
X139467978Y-65369459D01*
X139468383Y-65351352D01*
X139465540Y-65275989D01*
X139453620Y-65215257D01*
X139431037Y-65163548D01*
X139396211Y-65115254D01*
X139391798Y-65110197D01*
X139336160Y-65061728D01*
X139272333Y-65033541D01*
X139197282Y-65024248D01*
X139125693Y-65031480D01*
X139062645Y-65056204D01*
X139004758Y-65100751D01*
X138957808Y-65155681D01*
X138917961Y-65228106D01*
X138890263Y-65314660D01*
X138874096Y-65417330D01*
X138868842Y-65538106D01*
X138346110Y-65538106D01*
X138344813Y-65437505D01*
X138351194Y-65286049D01*
X138365777Y-65137604D01*
X138387882Y-65001422D01*
X138402821Y-64936755D01*
X138445741Y-64804510D01*
X138502340Y-64682238D01*
X138571017Y-64572315D01*
X138650170Y-64477117D01*
X138738196Y-64399020D01*
X138833493Y-64340401D01*
X138885864Y-64316405D01*
X138956590Y-64290768D01*
X139027812Y-64274522D01*
X139106712Y-64266178D01*
X139197282Y-64264310D01*
X139200467Y-64264245D01*
X139234363Y-64264739D01*
G36*
X141538264Y-67110873D02*
G01*
X141555739Y-67142233D01*
X141556575Y-67178034D01*
X141536082Y-67209472D01*
X141531416Y-67213348D01*
X141521949Y-67218814D01*
X141508267Y-67223021D01*
X141487748Y-67226133D01*
X141457768Y-67228313D01*
X141415704Y-67229724D01*
X141358932Y-67230529D01*
X141284830Y-67230893D01*
X141190773Y-67230978D01*
X140869227Y-67230978D01*
X140847647Y-67204327D01*
X140832877Y-67180614D01*
X140826067Y-67157600D01*
X140831949Y-67136594D01*
X140847647Y-67110873D01*
X140869227Y-67084222D01*
X141516684Y-67084222D01*
X141538264Y-67110873D01*
G37*
X141538264Y-67110873D02*
X141555739Y-67142233D01*
X141556575Y-67178034D01*
X141536082Y-67209472D01*
X141531416Y-67213348D01*
X141521949Y-67218814D01*
X141508267Y-67223021D01*
X141487748Y-67226133D01*
X141457768Y-67228313D01*
X141415704Y-67229724D01*
X141358932Y-67230529D01*
X141284830Y-67230893D01*
X141190773Y-67230978D01*
X140869227Y-67230978D01*
X140847647Y-67204327D01*
X140832877Y-67180614D01*
X140826067Y-67157600D01*
X140831949Y-67136594D01*
X140847647Y-67110873D01*
X140869227Y-67084222D01*
X141516684Y-67084222D01*
X141538264Y-67110873D01*
G36*
X141234631Y-68488891D02*
G01*
X141351000Y-68489375D01*
X141365175Y-68489443D01*
X141426937Y-68490029D01*
X141470620Y-68491352D01*
X141500001Y-68493897D01*
X141518855Y-68498152D01*
X141530959Y-68504604D01*
X141540089Y-68513738D01*
X141557506Y-68547196D01*
X141554604Y-68582144D01*
X141530100Y-68613047D01*
X141516897Y-68622056D01*
X141498361Y-68629508D01*
X141472333Y-68633876D01*
X141433787Y-68635931D01*
X141377700Y-68636444D01*
X141255045Y-68636444D01*
X141255045Y-69133155D01*
X141389871Y-69133155D01*
X141425662Y-69133228D01*
X141471992Y-69133991D01*
X141502526Y-69136167D01*
X141521557Y-69140464D01*
X141533374Y-69147588D01*
X141542271Y-69158245D01*
X141557341Y-69190496D01*
X141554673Y-69225783D01*
X141530100Y-69256514D01*
X141523845Y-69261169D01*
X141513321Y-69267105D01*
X141499391Y-69271636D01*
X141479317Y-69274952D01*
X141450360Y-69277241D01*
X141409780Y-69278692D01*
X141354840Y-69279495D01*
X141282799Y-69279838D01*
X141190920Y-69279911D01*
X140881485Y-69279911D01*
X140853776Y-69252202D01*
X140831533Y-69220823D01*
X140828844Y-69187594D01*
X140848645Y-69155733D01*
X140858415Y-69147447D01*
X140874307Y-69140035D01*
X140898275Y-69135698D01*
X140935148Y-69133662D01*
X140989756Y-69133155D01*
X141108289Y-69133155D01*
X141108289Y-68636444D01*
X140992776Y-68636444D01*
X140941078Y-68636006D01*
X140906554Y-68634042D01*
X140883978Y-68629526D01*
X140868126Y-68621433D01*
X140853776Y-68608735D01*
X140831533Y-68577357D01*
X140828844Y-68544128D01*
X140848645Y-68512266D01*
X140854835Y-68506634D01*
X140863041Y-68501544D01*
X140874817Y-68497457D01*
X140892276Y-68494279D01*
X140917530Y-68491913D01*
X140952690Y-68490262D01*
X140999869Y-68489231D01*
X141061177Y-68488723D01*
X141138727Y-68488641D01*
X141234631Y-68488891D01*
G37*
X141234631Y-68488891D02*
X141351000Y-68489375D01*
X141365175Y-68489443D01*
X141426937Y-68490029D01*
X141470620Y-68491352D01*
X141500001Y-68493897D01*
X141518855Y-68498152D01*
X141530959Y-68504604D01*
X141540089Y-68513738D01*
X141557506Y-68547196D01*
X141554604Y-68582144D01*
X141530100Y-68613047D01*
X141516897Y-68622056D01*
X141498361Y-68629508D01*
X141472333Y-68633876D01*
X141433787Y-68635931D01*
X141377700Y-68636444D01*
X141255045Y-68636444D01*
X141255045Y-69133155D01*
X141389871Y-69133155D01*
X141425662Y-69133228D01*
X141471992Y-69133991D01*
X141502526Y-69136167D01*
X141521557Y-69140464D01*
X141533374Y-69147588D01*
X141542271Y-69158245D01*
X141557341Y-69190496D01*
X141554673Y-69225783D01*
X141530100Y-69256514D01*
X141523845Y-69261169D01*
X141513321Y-69267105D01*
X141499391Y-69271636D01*
X141479317Y-69274952D01*
X141450360Y-69277241D01*
X141409780Y-69278692D01*
X141354840Y-69279495D01*
X141282799Y-69279838D01*
X141190920Y-69279911D01*
X140881485Y-69279911D01*
X140853776Y-69252202D01*
X140831533Y-69220823D01*
X140828844Y-69187594D01*
X140848645Y-69155733D01*
X140858415Y-69147447D01*
X140874307Y-69140035D01*
X140898275Y-69135698D01*
X140935148Y-69133662D01*
X140989756Y-69133155D01*
X141108289Y-69133155D01*
X141108289Y-68636444D01*
X140992776Y-68636444D01*
X140941078Y-68636006D01*
X140906554Y-68634042D01*
X140883978Y-68629526D01*
X140868126Y-68621433D01*
X140853776Y-68608735D01*
X140831533Y-68577357D01*
X140828844Y-68544128D01*
X140848645Y-68512266D01*
X140854835Y-68506634D01*
X140863041Y-68501544D01*
X140874817Y-68497457D01*
X140892276Y-68494279D01*
X140917530Y-68491913D01*
X140952690Y-68490262D01*
X140999869Y-68489231D01*
X141061177Y-68488723D01*
X141138727Y-68488641D01*
X141234631Y-68488891D01*
G36*
X138877158Y-66806732D02*
G01*
X139028594Y-66815311D01*
X139165283Y-66834167D01*
X139291276Y-66864163D01*
X139410625Y-66906164D01*
X139527381Y-66961031D01*
X139638179Y-67027833D01*
X139751739Y-67118637D01*
X139847211Y-67222292D01*
X139924073Y-67338113D01*
X139981797Y-67465414D01*
X140019858Y-67603511D01*
X140025666Y-67641207D01*
X140031396Y-67720248D01*
X140031583Y-67808371D01*
X140026539Y-67897764D01*
X140016578Y-67980616D01*
X140002012Y-68049113D01*
X139992364Y-68079965D01*
X139962123Y-68157270D01*
X139924617Y-68234321D01*
X139883614Y-68303800D01*
X139842879Y-68358385D01*
X139823505Y-68381084D01*
X139805662Y-68403799D01*
X139798778Y-68415221D01*
X139800424Y-68416463D01*
X139818205Y-68419272D01*
X139851370Y-68421224D01*
X139894733Y-68421955D01*
X139990689Y-68421955D01*
X139990689Y-69280104D01*
X139929974Y-69245839D01*
X139920868Y-69240645D01*
X139906249Y-69232285D01*
X139892173Y-69224712D01*
X139877540Y-69217888D01*
X139861249Y-69211773D01*
X139842198Y-69206327D01*
X139819286Y-69201513D01*
X139791413Y-69197292D01*
X139757478Y-69193623D01*
X139716379Y-69190469D01*
X139667015Y-69187789D01*
X139608286Y-69185546D01*
X139539090Y-69183701D01*
X139458326Y-69182213D01*
X139364894Y-69181045D01*
X139257692Y-69180156D01*
X139135620Y-69179509D01*
X138997576Y-69179064D01*
X138842459Y-69178782D01*
X138669168Y-69178625D01*
X138476603Y-69178552D01*
X138263662Y-69178526D01*
X138029245Y-69178507D01*
X136344378Y-69178311D01*
X136344378Y-68272983D01*
X136381067Y-68297415D01*
X136390647Y-68303682D01*
X136436981Y-68329792D01*
X136484102Y-68347531D01*
X136539251Y-68359092D01*
X136609667Y-68366669D01*
X136616650Y-68367161D01*
X136654641Y-68368938D01*
X136708576Y-68370556D01*
X136775703Y-68372001D01*
X136853271Y-68373260D01*
X136938528Y-68374320D01*
X137028724Y-68375171D01*
X137121107Y-68375797D01*
X137212925Y-68376188D01*
X137301427Y-68376330D01*
X137383862Y-68376210D01*
X137457479Y-68375817D01*
X137519526Y-68375138D01*
X137567251Y-68374159D01*
X137597904Y-68372868D01*
X137608733Y-68371253D01*
X137604333Y-68363043D01*
X137589362Y-68341353D01*
X137567448Y-68311986D01*
X137533236Y-68263121D01*
X137486714Y-68174875D01*
X137453046Y-68076084D01*
X137450231Y-68061557D01*
X138004465Y-68061557D01*
X138016389Y-68146681D01*
X138043040Y-68230867D01*
X138083962Y-68309392D01*
X138127530Y-68376800D01*
X139277721Y-68376800D01*
X139324089Y-68306244D01*
X139347791Y-68265583D01*
X139373639Y-68211454D01*
X139391829Y-68162311D01*
X139407551Y-68098835D01*
X139418541Y-68002669D01*
X139410365Y-67918100D01*
X139382805Y-67844781D01*
X139335642Y-67782363D01*
X139268658Y-67730498D01*
X139181633Y-67688840D01*
X139074350Y-67657038D01*
X139062009Y-67654455D01*
X139000772Y-67646000D01*
X138923692Y-67640337D01*
X138836002Y-67637424D01*
X138742934Y-67637217D01*
X138649720Y-67639670D01*
X138561594Y-67644739D01*
X138483788Y-67652381D01*
X138421533Y-67662552D01*
X138415666Y-67663833D01*
X138305121Y-67692874D01*
X138214575Y-67727390D01*
X138141953Y-67768544D01*
X138085181Y-67817501D01*
X138042184Y-67875426D01*
X138026615Y-67907380D01*
X138007722Y-67980216D01*
X138004465Y-68061557D01*
X137450231Y-68061557D01*
X137431231Y-67963490D01*
X137420265Y-67833836D01*
X137419219Y-67741330D01*
X137429014Y-67619989D01*
X137453174Y-67509901D01*
X137492785Y-67406611D01*
X137548932Y-67305662D01*
X137579883Y-67260497D01*
X137671115Y-67155089D01*
X137780106Y-67063462D01*
X137906726Y-66985668D01*
X138050845Y-66921759D01*
X138212332Y-66871786D01*
X138391059Y-66835802D01*
X138586895Y-66813857D01*
X138742934Y-66808100D01*
X138799711Y-66806006D01*
X138877158Y-66806732D01*
G37*
X138877158Y-66806732D02*
X139028594Y-66815311D01*
X139165283Y-66834167D01*
X139291276Y-66864163D01*
X139410625Y-66906164D01*
X139527381Y-66961031D01*
X139638179Y-67027833D01*
X139751739Y-67118637D01*
X139847211Y-67222292D01*
X139924073Y-67338113D01*
X139981797Y-67465414D01*
X140019858Y-67603511D01*
X140025666Y-67641207D01*
X140031396Y-67720248D01*
X140031583Y-67808371D01*
X140026539Y-67897764D01*
X140016578Y-67980616D01*
X140002012Y-68049113D01*
X139992364Y-68079965D01*
X139962123Y-68157270D01*
X139924617Y-68234321D01*
X139883614Y-68303800D01*
X139842879Y-68358385D01*
X139823505Y-68381084D01*
X139805662Y-68403799D01*
X139798778Y-68415221D01*
X139800424Y-68416463D01*
X139818205Y-68419272D01*
X139851370Y-68421224D01*
X139894733Y-68421955D01*
X139990689Y-68421955D01*
X139990689Y-69280104D01*
X139929974Y-69245839D01*
X139920868Y-69240645D01*
X139906249Y-69232285D01*
X139892173Y-69224712D01*
X139877540Y-69217888D01*
X139861249Y-69211773D01*
X139842198Y-69206327D01*
X139819286Y-69201513D01*
X139791413Y-69197292D01*
X139757478Y-69193623D01*
X139716379Y-69190469D01*
X139667015Y-69187789D01*
X139608286Y-69185546D01*
X139539090Y-69183701D01*
X139458326Y-69182213D01*
X139364894Y-69181045D01*
X139257692Y-69180156D01*
X139135620Y-69179509D01*
X138997576Y-69179064D01*
X138842459Y-69178782D01*
X138669168Y-69178625D01*
X138476603Y-69178552D01*
X138263662Y-69178526D01*
X138029245Y-69178507D01*
X136344378Y-69178311D01*
X136344378Y-68272983D01*
X136381067Y-68297415D01*
X136390647Y-68303682D01*
X136436981Y-68329792D01*
X136484102Y-68347531D01*
X136539251Y-68359092D01*
X136609667Y-68366669D01*
X136616650Y-68367161D01*
X136654641Y-68368938D01*
X136708576Y-68370556D01*
X136775703Y-68372001D01*
X136853271Y-68373260D01*
X136938528Y-68374320D01*
X137028724Y-68375171D01*
X137121107Y-68375797D01*
X137212925Y-68376188D01*
X137301427Y-68376330D01*
X137383862Y-68376210D01*
X137457479Y-68375817D01*
X137519526Y-68375138D01*
X137567251Y-68374159D01*
X137597904Y-68372868D01*
X137608733Y-68371253D01*
X137604333Y-68363043D01*
X137589362Y-68341353D01*
X137567448Y-68311986D01*
X137533236Y-68263121D01*
X137486714Y-68174875D01*
X137453046Y-68076084D01*
X137450231Y-68061557D01*
X138004465Y-68061557D01*
X138016389Y-68146681D01*
X138043040Y-68230867D01*
X138083962Y-68309392D01*
X138127530Y-68376800D01*
X139277721Y-68376800D01*
X139324089Y-68306244D01*
X139347791Y-68265583D01*
X139373639Y-68211454D01*
X139391829Y-68162311D01*
X139407551Y-68098835D01*
X139418541Y-68002669D01*
X139410365Y-67918100D01*
X139382805Y-67844781D01*
X139335642Y-67782363D01*
X139268658Y-67730498D01*
X139181633Y-67688840D01*
X139074350Y-67657038D01*
X139062009Y-67654455D01*
X139000772Y-67646000D01*
X138923692Y-67640337D01*
X138836002Y-67637424D01*
X138742934Y-67637217D01*
X138649720Y-67639670D01*
X138561594Y-67644739D01*
X138483788Y-67652381D01*
X138421533Y-67662552D01*
X138415666Y-67663833D01*
X138305121Y-67692874D01*
X138214575Y-67727390D01*
X138141953Y-67768544D01*
X138085181Y-67817501D01*
X138042184Y-67875426D01*
X138026615Y-67907380D01*
X138007722Y-67980216D01*
X138004465Y-68061557D01*
X137450231Y-68061557D01*
X137431231Y-67963490D01*
X137420265Y-67833836D01*
X137419219Y-67741330D01*
X137429014Y-67619989D01*
X137453174Y-67509901D01*
X137492785Y-67406611D01*
X137548932Y-67305662D01*
X137579883Y-67260497D01*
X137671115Y-67155089D01*
X137780106Y-67063462D01*
X137906726Y-66985668D01*
X138050845Y-66921759D01*
X138212332Y-66871786D01*
X138391059Y-66835802D01*
X138586895Y-66813857D01*
X138742934Y-66808100D01*
X138799711Y-66806006D01*
X138877158Y-66806732D01*
G36*
X138378325Y-61674449D02*
G01*
X138579581Y-61691209D01*
X138774128Y-61724708D01*
X138957756Y-61774956D01*
X139075053Y-61818810D01*
X139237951Y-61896652D01*
X139391866Y-61990172D01*
X139533671Y-62097178D01*
X139660239Y-62215481D01*
X139768441Y-62342889D01*
X139821120Y-62420394D01*
X139890750Y-62547275D01*
X139949468Y-62684757D01*
X139994587Y-62826284D01*
X140023422Y-62965298D01*
X140025106Y-62979403D01*
X140028434Y-63022847D01*
X140031275Y-63080277D01*
X140033373Y-63145878D01*
X140034468Y-63213833D01*
X140032140Y-63340622D01*
X140019136Y-63488327D01*
X139994133Y-63626221D01*
X139956318Y-63759986D01*
X139947889Y-63783438D01*
X139928408Y-63831388D01*
X139903473Y-63887860D01*
X139874722Y-63949621D01*
X139843790Y-64013437D01*
X139812315Y-64076074D01*
X139781934Y-64134297D01*
X139754283Y-64184873D01*
X139730999Y-64224567D01*
X139713718Y-64250146D01*
X139704079Y-64258375D01*
X139700984Y-64256924D01*
X139681079Y-64245750D01*
X139645420Y-64224866D01*
X139596459Y-64195735D01*
X139536646Y-64159819D01*
X139468433Y-64118580D01*
X139394271Y-64073483D01*
X139097008Y-63892215D01*
X139141539Y-63845685D01*
X139219865Y-63754277D01*
X139294439Y-63640666D01*
X139348474Y-63522878D01*
X139381290Y-63402441D01*
X139392211Y-63280883D01*
X139390868Y-63239415D01*
X139372612Y-63121920D01*
X139333617Y-63011911D01*
X139274670Y-62910570D01*
X139196557Y-62819079D01*
X139100064Y-62738620D01*
X138985978Y-62670373D01*
X138951724Y-62654092D01*
X138828240Y-62608018D01*
X138689918Y-62572894D01*
X138540561Y-62548803D01*
X138383973Y-62535827D01*
X138223956Y-62534051D01*
X138064314Y-62543557D01*
X137908850Y-62564428D01*
X137761366Y-62596748D01*
X137625667Y-62640601D01*
X137539076Y-62678018D01*
X137425688Y-62742815D01*
X137332070Y-62818228D01*
X137257959Y-62904582D01*
X137203094Y-63002205D01*
X137167212Y-63111423D01*
X137150051Y-63232561D01*
X137148880Y-63301962D01*
X137163141Y-63424832D01*
X137198241Y-63540336D01*
X137253682Y-63647047D01*
X137328964Y-63743536D01*
X137343440Y-63759280D01*
X137369962Y-63789850D01*
X137387138Y-63812191D01*
X137391787Y-63822309D01*
X137389597Y-63824294D01*
X137370721Y-63838759D01*
X137337397Y-63862600D01*
X137292380Y-63893971D01*
X137238425Y-63931026D01*
X137178285Y-63971917D01*
X137114718Y-64014798D01*
X137050476Y-64057822D01*
X136988315Y-64099143D01*
X136930991Y-64136914D01*
X136881257Y-64169288D01*
X136841868Y-64194418D01*
X136815580Y-64210458D01*
X136805147Y-64215561D01*
X136800941Y-64210950D01*
X136795933Y-64191733D01*
X136793386Y-64182162D01*
X136782249Y-64154191D01*
X136763802Y-64112552D01*
X136739725Y-64061005D01*
X136711699Y-64003310D01*
X136706154Y-63992043D01*
X136626889Y-63814313D01*
X136567385Y-63644510D01*
X136527245Y-63480570D01*
X136506071Y-63320429D01*
X136503466Y-63162023D01*
X136519033Y-63003289D01*
X136536523Y-62907732D01*
X136581564Y-62743442D01*
X136644656Y-62589411D01*
X136726915Y-62443491D01*
X136829457Y-62303534D01*
X136953399Y-62167392D01*
X136998661Y-62123527D01*
X137130865Y-62011242D01*
X137268832Y-61918028D01*
X137416750Y-61841281D01*
X137578803Y-61778397D01*
X137590391Y-61774580D01*
X137776392Y-61724493D01*
X137972521Y-61691101D01*
X138174568Y-61674416D01*
X138378325Y-61674449D01*
G37*
X138378325Y-61674449D02*
X138579581Y-61691209D01*
X138774128Y-61724708D01*
X138957756Y-61774956D01*
X139075053Y-61818810D01*
X139237951Y-61896652D01*
X139391866Y-61990172D01*
X139533671Y-62097178D01*
X139660239Y-62215481D01*
X139768441Y-62342889D01*
X139821120Y-62420394D01*
X139890750Y-62547275D01*
X139949468Y-62684757D01*
X139994587Y-62826284D01*
X140023422Y-62965298D01*
X140025106Y-62979403D01*
X140028434Y-63022847D01*
X140031275Y-63080277D01*
X140033373Y-63145878D01*
X140034468Y-63213833D01*
X140032140Y-63340622D01*
X140019136Y-63488327D01*
X139994133Y-63626221D01*
X139956318Y-63759986D01*
X139947889Y-63783438D01*
X139928408Y-63831388D01*
X139903473Y-63887860D01*
X139874722Y-63949621D01*
X139843790Y-64013437D01*
X139812315Y-64076074D01*
X139781934Y-64134297D01*
X139754283Y-64184873D01*
X139730999Y-64224567D01*
X139713718Y-64250146D01*
X139704079Y-64258375D01*
X139700984Y-64256924D01*
X139681079Y-64245750D01*
X139645420Y-64224866D01*
X139596459Y-64195735D01*
X139536646Y-64159819D01*
X139468433Y-64118580D01*
X139394271Y-64073483D01*
X139097008Y-63892215D01*
X139141539Y-63845685D01*
X139219865Y-63754277D01*
X139294439Y-63640666D01*
X139348474Y-63522878D01*
X139381290Y-63402441D01*
X139392211Y-63280883D01*
X139390868Y-63239415D01*
X139372612Y-63121920D01*
X139333617Y-63011911D01*
X139274670Y-62910570D01*
X139196557Y-62819079D01*
X139100064Y-62738620D01*
X138985978Y-62670373D01*
X138951724Y-62654092D01*
X138828240Y-62608018D01*
X138689918Y-62572894D01*
X138540561Y-62548803D01*
X138383973Y-62535827D01*
X138223956Y-62534051D01*
X138064314Y-62543557D01*
X137908850Y-62564428D01*
X137761366Y-62596748D01*
X137625667Y-62640601D01*
X137539076Y-62678018D01*
X137425688Y-62742815D01*
X137332070Y-62818228D01*
X137257959Y-62904582D01*
X137203094Y-63002205D01*
X137167212Y-63111423D01*
X137150051Y-63232561D01*
X137148880Y-63301962D01*
X137163141Y-63424832D01*
X137198241Y-63540336D01*
X137253682Y-63647047D01*
X137328964Y-63743536D01*
X137343440Y-63759280D01*
X137369962Y-63789850D01*
X137387138Y-63812191D01*
X137391787Y-63822309D01*
X137389597Y-63824294D01*
X137370721Y-63838759D01*
X137337397Y-63862600D01*
X137292380Y-63893971D01*
X137238425Y-63931026D01*
X137178285Y-63971917D01*
X137114718Y-64014798D01*
X137050476Y-64057822D01*
X136988315Y-64099143D01*
X136930991Y-64136914D01*
X136881257Y-64169288D01*
X136841868Y-64194418D01*
X136815580Y-64210458D01*
X136805147Y-64215561D01*
X136800941Y-64210950D01*
X136795933Y-64191733D01*
X136793386Y-64182162D01*
X136782249Y-64154191D01*
X136763802Y-64112552D01*
X136739725Y-64061005D01*
X136711699Y-64003310D01*
X136706154Y-63992043D01*
X136626889Y-63814313D01*
X136567385Y-63644510D01*
X136527245Y-63480570D01*
X136506071Y-63320429D01*
X136503466Y-63162023D01*
X136519033Y-63003289D01*
X136536523Y-62907732D01*
X136581564Y-62743442D01*
X136644656Y-62589411D01*
X136726915Y-62443491D01*
X136829457Y-62303534D01*
X136953399Y-62167392D01*
X136998661Y-62123527D01*
X137130865Y-62011242D01*
X137268832Y-61918028D01*
X137416750Y-61841281D01*
X137578803Y-61778397D01*
X137590391Y-61774580D01*
X137776392Y-61724493D01*
X137972521Y-61691101D01*
X138174568Y-61674416D01*
X138378325Y-61674449D01*
G36*
X141092041Y-56715130D02*
G01*
X141192956Y-56715378D01*
X141268617Y-56715417D01*
X141346526Y-56715672D01*
X141406536Y-56716316D01*
X141451264Y-56717520D01*
X141483326Y-56719457D01*
X141505340Y-56722297D01*
X141519924Y-56726212D01*
X141529694Y-56731374D01*
X141537267Y-56737955D01*
X141543501Y-56744923D01*
X141550801Y-56757921D01*
X141555554Y-56777069D01*
X141558292Y-56806472D01*
X141559545Y-56850238D01*
X141559845Y-56912472D01*
X141559469Y-56961418D01*
X141555041Y-57068278D01*
X141544953Y-57157506D01*
X141528365Y-57232304D01*
X141504435Y-57295875D01*
X141472321Y-57351421D01*
X141431182Y-57402146D01*
X141425330Y-57408134D01*
X141376821Y-57445001D01*
X141316013Y-57476101D01*
X141251769Y-57497583D01*
X141192956Y-57505600D01*
X141171739Y-57504321D01*
X141114323Y-57492009D01*
X141054413Y-57469480D01*
X141000363Y-57440250D01*
X140960532Y-57407833D01*
X140943510Y-57388292D01*
X140904322Y-57333580D01*
X140874193Y-57273277D01*
X140852232Y-57204081D01*
X140837550Y-57122689D01*
X140829259Y-57025800D01*
X140827148Y-56938333D01*
X140972808Y-56938333D01*
X140972817Y-56941361D01*
X140974782Y-56992481D01*
X140979507Y-57052584D01*
X140986035Y-57109292D01*
X140995331Y-57159250D01*
X141021600Y-57234002D01*
X141060899Y-57291511D01*
X141113933Y-57333012D01*
X141165200Y-57354229D01*
X141213026Y-57355647D01*
X141263961Y-57337365D01*
X141309878Y-57307695D01*
X141352287Y-57260998D01*
X141382090Y-57199608D01*
X141401226Y-57120462D01*
X141401464Y-57118972D01*
X141407256Y-57070001D01*
X141411396Y-57011307D01*
X141413004Y-56955266D01*
X141413089Y-56862133D01*
X140972822Y-56862133D01*
X140972808Y-56938333D01*
X140827148Y-56938333D01*
X140826467Y-56910111D01*
X140826066Y-56870629D01*
X140825653Y-56824918D01*
X140827457Y-56789117D01*
X140833739Y-56762026D01*
X140846759Y-56742444D01*
X140868778Y-56729170D01*
X140902055Y-56721002D01*
X140948851Y-56716740D01*
X140972822Y-56716143D01*
X141011427Y-56715183D01*
X141092041Y-56715130D01*
G37*
X141092041Y-56715130D02*
X141192956Y-56715378D01*
X141268617Y-56715417D01*
X141346526Y-56715672D01*
X141406536Y-56716316D01*
X141451264Y-56717520D01*
X141483326Y-56719457D01*
X141505340Y-56722297D01*
X141519924Y-56726212D01*
X141529694Y-56731374D01*
X141537267Y-56737955D01*
X141543501Y-56744923D01*
X141550801Y-56757921D01*
X141555554Y-56777069D01*
X141558292Y-56806472D01*
X141559545Y-56850238D01*
X141559845Y-56912472D01*
X141559469Y-56961418D01*
X141555041Y-57068278D01*
X141544953Y-57157506D01*
X141528365Y-57232304D01*
X141504435Y-57295875D01*
X141472321Y-57351421D01*
X141431182Y-57402146D01*
X141425330Y-57408134D01*
X141376821Y-57445001D01*
X141316013Y-57476101D01*
X141251769Y-57497583D01*
X141192956Y-57505600D01*
X141171739Y-57504321D01*
X141114323Y-57492009D01*
X141054413Y-57469480D01*
X141000363Y-57440250D01*
X140960532Y-57407833D01*
X140943510Y-57388292D01*
X140904322Y-57333580D01*
X140874193Y-57273277D01*
X140852232Y-57204081D01*
X140837550Y-57122689D01*
X140829259Y-57025800D01*
X140827148Y-56938333D01*
X140972808Y-56938333D01*
X140972817Y-56941361D01*
X140974782Y-56992481D01*
X140979507Y-57052584D01*
X140986035Y-57109292D01*
X140995331Y-57159250D01*
X141021600Y-57234002D01*
X141060899Y-57291511D01*
X141113933Y-57333012D01*
X141165200Y-57354229D01*
X141213026Y-57355647D01*
X141263961Y-57337365D01*
X141309878Y-57307695D01*
X141352287Y-57260998D01*
X141382090Y-57199608D01*
X141401226Y-57120462D01*
X141401464Y-57118972D01*
X141407256Y-57070001D01*
X141411396Y-57011307D01*
X141413004Y-56955266D01*
X141413089Y-56862133D01*
X140972822Y-56862133D01*
X140972808Y-56938333D01*
X140827148Y-56938333D01*
X140826467Y-56910111D01*
X140826066Y-56870629D01*
X140825653Y-56824918D01*
X140827457Y-56789117D01*
X140833739Y-56762026D01*
X140846759Y-56742444D01*
X140868778Y-56729170D01*
X140902055Y-56721002D01*
X140948851Y-56716740D01*
X140972822Y-56716143D01*
X141011427Y-56715183D01*
X141092041Y-56715130D01*
G36*
X141267713Y-57844303D02*
G01*
X141345889Y-57844552D01*
X141406103Y-57845188D01*
X141450982Y-57846385D01*
X141483152Y-57848316D01*
X141505239Y-57851154D01*
X141519870Y-57855073D01*
X141529670Y-57860245D01*
X141537267Y-57866844D01*
X141540444Y-57870178D01*
X141546554Y-57878700D01*
X141551229Y-57890702D01*
X141554659Y-57908913D01*
X141557036Y-57936060D01*
X141558552Y-57974871D01*
X141559398Y-58028076D01*
X141559765Y-58098402D01*
X141559845Y-58188578D01*
X141559833Y-58230686D01*
X141559651Y-58311833D01*
X141559098Y-58374325D01*
X141557982Y-58420891D01*
X141556113Y-58454259D01*
X141553298Y-58477156D01*
X141549346Y-58492312D01*
X141544066Y-58502454D01*
X141537267Y-58510311D01*
X141515667Y-58525037D01*
X141486467Y-58532889D01*
X141462560Y-58527390D01*
X141435667Y-58510311D01*
X141431059Y-58505332D01*
X141424772Y-58495557D01*
X141420146Y-58481441D01*
X141416930Y-58459946D01*
X141414870Y-58428032D01*
X141413712Y-58382658D01*
X141413202Y-58320787D01*
X141413089Y-58239378D01*
X141413089Y-57991022D01*
X141255045Y-57991022D01*
X141255045Y-58152199D01*
X141254899Y-58188017D01*
X141253176Y-58253641D01*
X141248741Y-58300882D01*
X141240637Y-58332617D01*
X141227906Y-58351723D01*
X141209592Y-58361077D01*
X141184738Y-58363555D01*
X141164482Y-58362758D01*
X141142656Y-58357506D01*
X141127304Y-58344712D01*
X141117309Y-58321372D01*
X141111553Y-58284483D01*
X141108919Y-58231041D01*
X141108289Y-58158042D01*
X141108289Y-57989895D01*
X141043378Y-57993281D01*
X140978467Y-57996666D01*
X140975418Y-58244383D01*
X140974539Y-58306974D01*
X140973095Y-58375435D01*
X140971164Y-58426339D01*
X140968514Y-58462592D01*
X140964910Y-58487099D01*
X140960121Y-58502765D01*
X140953913Y-58512494D01*
X140947510Y-58518509D01*
X140915828Y-58531518D01*
X140880142Y-58527957D01*
X140849084Y-58508182D01*
X140846161Y-58504931D01*
X140839810Y-58495951D01*
X140834957Y-58483847D01*
X140831403Y-58465841D01*
X140828946Y-58439153D01*
X140827385Y-58401003D01*
X140826518Y-58348614D01*
X140826146Y-58279206D01*
X140826067Y-58189999D01*
X140826083Y-58135266D01*
X140826275Y-58058169D01*
X140826860Y-57999223D01*
X140828051Y-57955636D01*
X140830064Y-57924617D01*
X140833112Y-57903375D01*
X140837409Y-57889118D01*
X140843172Y-57879055D01*
X140850612Y-57870394D01*
X140852293Y-57868609D01*
X140859832Y-57861365D01*
X140868850Y-57855723D01*
X140881984Y-57851483D01*
X140901872Y-57848444D01*
X140931151Y-57846406D01*
X140972458Y-57845170D01*
X141028431Y-57844535D01*
X141101707Y-57844300D01*
X141194923Y-57844266D01*
X141267713Y-57844303D01*
G37*
X141267713Y-57844303D02*
X141345889Y-57844552D01*
X141406103Y-57845188D01*
X141450982Y-57846385D01*
X141483152Y-57848316D01*
X141505239Y-57851154D01*
X141519870Y-57855073D01*
X141529670Y-57860245D01*
X141537267Y-57866844D01*
X141540444Y-57870178D01*
X141546554Y-57878700D01*
X141551229Y-57890702D01*
X141554659Y-57908913D01*
X141557036Y-57936060D01*
X141558552Y-57974871D01*
X141559398Y-58028076D01*
X141559765Y-58098402D01*
X141559845Y-58188578D01*
X141559833Y-58230686D01*
X141559651Y-58311833D01*
X141559098Y-58374325D01*
X141557982Y-58420891D01*
X141556113Y-58454259D01*
X141553298Y-58477156D01*
X141549346Y-58492312D01*
X141544066Y-58502454D01*
X141537267Y-58510311D01*
X141515667Y-58525037D01*
X141486467Y-58532889D01*
X141462560Y-58527390D01*
X141435667Y-58510311D01*
X141431059Y-58505332D01*
X141424772Y-58495557D01*
X141420146Y-58481441D01*
X141416930Y-58459946D01*
X141414870Y-58428032D01*
X141413712Y-58382658D01*
X141413202Y-58320787D01*
X141413089Y-58239378D01*
X141413089Y-57991022D01*
X141255045Y-57991022D01*
X141255045Y-58152199D01*
X141254899Y-58188017D01*
X141253176Y-58253641D01*
X141248741Y-58300882D01*
X141240637Y-58332617D01*
X141227906Y-58351723D01*
X141209592Y-58361077D01*
X141184738Y-58363555D01*
X141164482Y-58362758D01*
X141142656Y-58357506D01*
X141127304Y-58344712D01*
X141117309Y-58321372D01*
X141111553Y-58284483D01*
X141108919Y-58231041D01*
X141108289Y-58158042D01*
X141108289Y-57989895D01*
X141043378Y-57993281D01*
X140978467Y-57996666D01*
X140975418Y-58244383D01*
X140974539Y-58306974D01*
X140973095Y-58375435D01*
X140971164Y-58426339D01*
X140968514Y-58462592D01*
X140964910Y-58487099D01*
X140960121Y-58502765D01*
X140953913Y-58512494D01*
X140947510Y-58518509D01*
X140915828Y-58531518D01*
X140880142Y-58527957D01*
X140849084Y-58508182D01*
X140846161Y-58504931D01*
X140839810Y-58495951D01*
X140834957Y-58483847D01*
X140831403Y-58465841D01*
X140828946Y-58439153D01*
X140827385Y-58401003D01*
X140826518Y-58348614D01*
X140826146Y-58279206D01*
X140826067Y-58189999D01*
X140826083Y-58135266D01*
X140826275Y-58058169D01*
X140826860Y-57999223D01*
X140828051Y-57955636D01*
X140830064Y-57924617D01*
X140833112Y-57903375D01*
X140837409Y-57889118D01*
X140843172Y-57879055D01*
X140850612Y-57870394D01*
X140852293Y-57868609D01*
X140859832Y-57861365D01*
X140868850Y-57855723D01*
X140881984Y-57851483D01*
X140901872Y-57848444D01*
X140931151Y-57846406D01*
X140972458Y-57845170D01*
X141028431Y-57844535D01*
X141101707Y-57844300D01*
X141194923Y-57844266D01*
X141267713Y-57844303D01*
G36*
X141077232Y-58816048D02*
G01*
X141102029Y-58821840D01*
X141123699Y-58836647D01*
X141151049Y-58864620D01*
X141158378Y-58872598D01*
X141179281Y-58896308D01*
X141196251Y-58918702D01*
X141210205Y-58942735D01*
X141222056Y-58971363D01*
X141232720Y-59007540D01*
X141243111Y-59054220D01*
X141254146Y-59114359D01*
X141266738Y-59190910D01*
X141281804Y-59286829D01*
X141284838Y-59305192D01*
X141298458Y-59367522D01*
X141314192Y-59412740D01*
X141331263Y-59439024D01*
X141348897Y-59444553D01*
X141353168Y-59441932D01*
X141368233Y-59424000D01*
X141384867Y-59395874D01*
X141390857Y-59383074D01*
X141398050Y-59361776D01*
X141402827Y-59335390D01*
X141405646Y-59299546D01*
X141406964Y-59249872D01*
X141407237Y-59182000D01*
X141407164Y-59164215D01*
X141406053Y-59096594D01*
X141403828Y-59031655D01*
X141400762Y-58976030D01*
X141397127Y-58936349D01*
X141393059Y-58900838D01*
X141392276Y-58871585D01*
X141396876Y-58852685D01*
X141407551Y-58837571D01*
X141411144Y-58833915D01*
X141442918Y-58817573D01*
X141478572Y-58818893D01*
X141509190Y-58837850D01*
X141520796Y-58858220D01*
X141533491Y-58894204D01*
X141543541Y-58936628D01*
X141544140Y-58940078D01*
X141549356Y-58982748D01*
X141553730Y-59040134D01*
X141556818Y-59105151D01*
X141558177Y-59170711D01*
X141558218Y-59186943D01*
X141555741Y-59285256D01*
X141547735Y-59365308D01*
X141533203Y-59430487D01*
X141511149Y-59484183D01*
X141480576Y-59529784D01*
X141440486Y-59570677D01*
X141414259Y-59590798D01*
X141384712Y-59602424D01*
X141344995Y-59605333D01*
X141333026Y-59605192D01*
X141300345Y-59601319D01*
X141273819Y-59588935D01*
X141242971Y-59563770D01*
X141220831Y-59542558D01*
X141198285Y-59516162D01*
X141179917Y-59486445D01*
X141164661Y-59450215D01*
X141151449Y-59404283D01*
X141139214Y-59345456D01*
X141126889Y-59270544D01*
X141113406Y-59176355D01*
X141106396Y-59131043D01*
X141091837Y-59063089D01*
X141075337Y-59013953D01*
X141057439Y-58984386D01*
X141038685Y-58975136D01*
X141019615Y-58986952D01*
X141000771Y-59020584D01*
X140999557Y-59023630D01*
X140987479Y-59069989D01*
X140979279Y-59132639D01*
X140975119Y-59206073D01*
X140975161Y-59284783D01*
X140979569Y-59363261D01*
X140988505Y-59436000D01*
X140989154Y-59439927D01*
X140996861Y-59488743D01*
X141000473Y-59520995D01*
X140999876Y-59541992D01*
X140994954Y-59557046D01*
X140985596Y-59571466D01*
X140984725Y-59572636D01*
X140954351Y-59597153D01*
X140918850Y-59601946D01*
X140884269Y-59586140D01*
X140879813Y-59581594D01*
X140864673Y-59551980D01*
X140851550Y-59504998D01*
X140840750Y-59444694D01*
X140832581Y-59375112D01*
X140827351Y-59300297D01*
X140825367Y-59224294D01*
X140826936Y-59151147D01*
X140832366Y-59084900D01*
X140841964Y-59029600D01*
X140856825Y-58978717D01*
X140889958Y-58907405D01*
X140932640Y-58856248D01*
X140984705Y-58825425D01*
X141045983Y-58815111D01*
X141077232Y-58816048D01*
G37*
X141077232Y-58816048D02*
X141102029Y-58821840D01*
X141123699Y-58836647D01*
X141151049Y-58864620D01*
X141158378Y-58872598D01*
X141179281Y-58896308D01*
X141196251Y-58918702D01*
X141210205Y-58942735D01*
X141222056Y-58971363D01*
X141232720Y-59007540D01*
X141243111Y-59054220D01*
X141254146Y-59114359D01*
X141266738Y-59190910D01*
X141281804Y-59286829D01*
X141284838Y-59305192D01*
X141298458Y-59367522D01*
X141314192Y-59412740D01*
X141331263Y-59439024D01*
X141348897Y-59444553D01*
X141353168Y-59441932D01*
X141368233Y-59424000D01*
X141384867Y-59395874D01*
X141390857Y-59383074D01*
X141398050Y-59361776D01*
X141402827Y-59335390D01*
X141405646Y-59299546D01*
X141406964Y-59249872D01*
X141407237Y-59182000D01*
X141407164Y-59164215D01*
X141406053Y-59096594D01*
X141403828Y-59031655D01*
X141400762Y-58976030D01*
X141397127Y-58936349D01*
X141393059Y-58900838D01*
X141392276Y-58871585D01*
X141396876Y-58852685D01*
X141407551Y-58837571D01*
X141411144Y-58833915D01*
X141442918Y-58817573D01*
X141478572Y-58818893D01*
X141509190Y-58837850D01*
X141520796Y-58858220D01*
X141533491Y-58894204D01*
X141543541Y-58936628D01*
X141544140Y-58940078D01*
X141549356Y-58982748D01*
X141553730Y-59040134D01*
X141556818Y-59105151D01*
X141558177Y-59170711D01*
X141558218Y-59186943D01*
X141555741Y-59285256D01*
X141547735Y-59365308D01*
X141533203Y-59430487D01*
X141511149Y-59484183D01*
X141480576Y-59529784D01*
X141440486Y-59570677D01*
X141414259Y-59590798D01*
X141384712Y-59602424D01*
X141344995Y-59605333D01*
X141333026Y-59605192D01*
X141300345Y-59601319D01*
X141273819Y-59588935D01*
X141242971Y-59563770D01*
X141220831Y-59542558D01*
X141198285Y-59516162D01*
X141179917Y-59486445D01*
X141164661Y-59450215D01*
X141151449Y-59404283D01*
X141139214Y-59345456D01*
X141126889Y-59270544D01*
X141113406Y-59176355D01*
X141106396Y-59131043D01*
X141091837Y-59063089D01*
X141075337Y-59013953D01*
X141057439Y-58984386D01*
X141038685Y-58975136D01*
X141019615Y-58986952D01*
X141000771Y-59020584D01*
X140999557Y-59023630D01*
X140987479Y-59069989D01*
X140979279Y-59132639D01*
X140975119Y-59206073D01*
X140975161Y-59284783D01*
X140979569Y-59363261D01*
X140988505Y-59436000D01*
X140989154Y-59439927D01*
X140996861Y-59488743D01*
X141000473Y-59520995D01*
X140999876Y-59541992D01*
X140994954Y-59557046D01*
X140985596Y-59571466D01*
X140984725Y-59572636D01*
X140954351Y-59597153D01*
X140918850Y-59601946D01*
X140884269Y-59586140D01*
X140879813Y-59581594D01*
X140864673Y-59551980D01*
X140851550Y-59504998D01*
X140840750Y-59444694D01*
X140832581Y-59375112D01*
X140827351Y-59300297D01*
X140825367Y-59224294D01*
X140826936Y-59151147D01*
X140832366Y-59084900D01*
X140841964Y-59029600D01*
X140856825Y-58978717D01*
X140889958Y-58907405D01*
X140932640Y-58856248D01*
X140984705Y-58825425D01*
X141045983Y-58815111D01*
X141077232Y-58816048D01*
D12*
%TO.C,JP9*%
X128478000Y-94506000D02*
X129078000Y-94506000D01*
X129778000Y-93806000D02*
X129778000Y-92406000D01*
X129078000Y-91706000D02*
X128478000Y-91706000D01*
X127778000Y-92406000D02*
X127778000Y-93806000D01*
X128478000Y-91706000D02*
G75*
G03*
X127778000Y-92406000I0J-700000D01*
G01*
X129078000Y-94506000D02*
G75*
G03*
X129778000Y-93806000I1J699999D01*
G01*
X127778000Y-93806000D02*
G75*
G03*
X128478000Y-94506000I699999J-1D01*
G01*
X129778000Y-92406000D02*
G75*
G03*
X129078000Y-91706000I-700000J0D01*
G01*
%TO.C,JP6*%
X128707000Y-87057000D02*
X128707000Y-88457000D01*
X130007000Y-86357000D02*
X129407000Y-86357000D01*
X129407000Y-89157000D02*
X130007000Y-89157000D01*
X130707000Y-88457000D02*
X130707000Y-87057000D01*
X129407000Y-86357000D02*
G75*
G03*
X128707000Y-87057000I-1J-699999D01*
G01*
X130707000Y-87057000D02*
G75*
G03*
X130007000Y-86357000I-699999J1D01*
G01*
X128707000Y-88457000D02*
G75*
G03*
X129407000Y-89157000I700000J0D01*
G01*
X130007000Y-89157000D02*
G75*
G03*
X130707000Y-88457000I0J700000D01*
G01*
%TO.C,JP4*%
X131842000Y-79564000D02*
X131842000Y-80964000D01*
X132542000Y-81664000D02*
X133142000Y-81664000D01*
X133142000Y-78864000D02*
X132542000Y-78864000D01*
X133842000Y-80964000D02*
X133842000Y-79564000D01*
X133142000Y-81664000D02*
G75*
G03*
X133842000Y-80964000I0J700000D01*
G01*
X132542000Y-78864000D02*
G75*
G03*
X131842000Y-79564000I-1J-699999D01*
G01*
X133842000Y-79564000D02*
G75*
G03*
X133142000Y-78864000I-699999J1D01*
G01*
X131842000Y-80964000D02*
G75*
G03*
X132542000Y-81664000I700000J0D01*
G01*
%TO.C,JP2*%
X128351000Y-77600000D02*
X128951000Y-77600000D01*
X129651000Y-76900000D02*
X129651000Y-75500000D01*
X128951000Y-74800000D02*
X128351000Y-74800000D01*
X127651000Y-75500000D02*
X127651000Y-76900000D01*
X128351000Y-74800000D02*
G75*
G03*
X127651000Y-75500000I-1J-699999D01*
G01*
X128951000Y-77600000D02*
G75*
G03*
X129651000Y-76900000I0J700000D01*
G01*
X127651000Y-76900000D02*
G75*
G03*
X128351000Y-77600000I700000J0D01*
G01*
X129651000Y-75500000D02*
G75*
G03*
X128951000Y-74800000I-699999J1D01*
G01*
%TO.C,JP8*%
X132445000Y-93791000D02*
X132445000Y-92391000D01*
X130445000Y-92391000D02*
X130445000Y-93791000D01*
X131745000Y-91691000D02*
X131145000Y-91691000D01*
X131145000Y-94491000D02*
X131745000Y-94491000D01*
X131145000Y-91691000D02*
G75*
G03*
X130445000Y-92391000I0J-700000D01*
G01*
X130445000Y-93791000D02*
G75*
G03*
X131145000Y-94491000I699999J-1D01*
G01*
X132445000Y-92391000D02*
G75*
G03*
X131745000Y-91691000I-700000J0D01*
G01*
X131745000Y-94491000D02*
G75*
G03*
X132445000Y-93791000I1J699999D01*
G01*
%TO.C,JP1*%
X133715000Y-76900000D02*
X133715000Y-75500000D01*
X132415000Y-77600000D02*
X133015000Y-77600000D01*
X131715000Y-75500000D02*
X131715000Y-76900000D01*
X133015000Y-74800000D02*
X132415000Y-74800000D01*
X132415000Y-74800000D02*
G75*
G03*
X131715000Y-75500000I-1J-699999D01*
G01*
X133715000Y-75500000D02*
G75*
G03*
X133015000Y-74800000I-699999J1D01*
G01*
X131715000Y-76900000D02*
G75*
G03*
X132415000Y-77600000I700000J0D01*
G01*
X133015000Y-77600000D02*
G75*
G03*
X133715000Y-76900000I0J700000D01*
G01*
%TO.C,JP5*%
X133359000Y-88457000D02*
X133359000Y-87057000D01*
X131359000Y-87057000D02*
X131359000Y-88457000D01*
X132659000Y-86357000D02*
X132059000Y-86357000D01*
X132059000Y-89157000D02*
X132659000Y-89157000D01*
X132659000Y-89157000D02*
G75*
G03*
X133359000Y-88457000I0J700000D01*
G01*
X131359000Y-88457000D02*
G75*
G03*
X132059000Y-89157000I700000J0D01*
G01*
X133359000Y-87057000D02*
G75*
G03*
X132659000Y-86357000I-699999J1D01*
G01*
X132059000Y-86357000D02*
G75*
G03*
X131359000Y-87057000I-1J-699999D01*
G01*
%TD*%
M02*
