%TF.GenerationSoftware,KiCad,Pcbnew,(6.0.4)*%
%TF.CreationDate,2022-06-12T07:49:14+08:00*%
%TF.ProjectId,G030F6P6_test,47303330-4636-4503-965f-746573742e6b,rev?*%
%TF.SameCoordinates,Original*%
%TF.FileFunction,Soldermask,Top*%
%TF.FilePolarity,Negative*%
%FSLAX46Y46*%
G04 Gerber Fmt 4.6, Leading zero omitted, Abs format (unit mm)*
G04 Created by KiCad (PCBNEW (6.0.4)) date 2022-06-12 07:49:14*
%MOMM*%
%LPD*%
G01*
G04 APERTURE LIST*
G04 Aperture macros list*
%AMRoundRect*
0 Rectangle with rounded corners*
0 $1 Rounding radius*
0 $2 $3 $4 $5 $6 $7 $8 $9 X,Y pos of 4 corners*
0 Add a 4 corners polygon primitive as box body*
4,1,4,$2,$3,$4,$5,$6,$7,$8,$9,$2,$3,0*
0 Add four circle primitives for the rounded corners*
1,1,$1+$1,$2,$3*
1,1,$1+$1,$4,$5*
1,1,$1+$1,$6,$7*
1,1,$1+$1,$8,$9*
0 Add four rect primitives between the rounded corners*
20,1,$1+$1,$2,$3,$4,$5,0*
20,1,$1+$1,$4,$5,$6,$7,0*
20,1,$1+$1,$6,$7,$8,$9,0*
20,1,$1+$1,$8,$9,$2,$3,0*%
G04 Aperture macros list end*
%ADD10C,0.200000*%
%ADD11RoundRect,0.243750X0.456250X-0.243750X0.456250X0.243750X-0.456250X0.243750X-0.456250X-0.243750X0*%
%ADD12RoundRect,0.243750X-0.456250X0.243750X-0.456250X-0.243750X0.456250X-0.243750X0.456250X0.243750X0*%
%ADD13RoundRect,0.250000X0.450000X-0.262500X0.450000X0.262500X-0.450000X0.262500X-0.450000X-0.262500X0*%
%ADD14RoundRect,0.250000X-0.450000X0.262500X-0.450000X-0.262500X0.450000X-0.262500X0.450000X0.262500X0*%
%ADD15R,1.700000X1.700000*%
%ADD16O,1.700000X1.700000*%
%ADD17RoundRect,0.150000X0.150000X-0.587500X0.150000X0.587500X-0.150000X0.587500X-0.150000X-0.587500X0*%
%ADD18RoundRect,0.250000X-0.475000X0.250000X-0.475000X-0.250000X0.475000X-0.250000X0.475000X0.250000X0*%
%ADD19RoundRect,0.062500X0.375000X0.062500X-0.375000X0.062500X-0.375000X-0.062500X0.375000X-0.062500X0*%
%ADD20RoundRect,0.062500X0.062500X0.375000X-0.062500X0.375000X-0.062500X-0.375000X0.062500X-0.375000X0*%
%ADD21R,1.450000X1.450000*%
%ADD22C,0.650000*%
%ADD23R,0.600000X1.450000*%
%ADD24R,0.300000X1.450000*%
%ADD25O,1.000000X1.600000*%
%ADD26O,1.000000X2.100000*%
%ADD27RoundRect,0.100000X-0.637500X-0.100000X0.637500X-0.100000X0.637500X0.100000X-0.637500X0.100000X0*%
%ADD28RoundRect,0.250000X0.250000X0.475000X-0.250000X0.475000X-0.250000X-0.475000X0.250000X-0.475000X0*%
G04 APERTURE END LIST*
D10*
X140739761Y-69373000D02*
X140787380Y-69230142D01*
X140787380Y-68992047D01*
X140739761Y-68896809D01*
X140692142Y-68849190D01*
X140596904Y-68801571D01*
X140501666Y-68801571D01*
X140406428Y-68849190D01*
X140358809Y-68896809D01*
X140311190Y-68992047D01*
X140263571Y-69182523D01*
X140215952Y-69277761D01*
X140168333Y-69325380D01*
X140073095Y-69373000D01*
X139977857Y-69373000D01*
X139882619Y-69325380D01*
X139835000Y-69277761D01*
X139787380Y-69182523D01*
X139787380Y-68944428D01*
X139835000Y-68801571D01*
X139787380Y-68515857D02*
X139787380Y-67944428D01*
X140787380Y-68230142D02*
X139787380Y-68230142D01*
X140787380Y-67611095D02*
X139787380Y-67611095D01*
X140501666Y-67277761D01*
X139787380Y-66944428D01*
X140787380Y-66944428D01*
X139787380Y-66563476D02*
X139787380Y-65944428D01*
X140168333Y-66277761D01*
X140168333Y-66134904D01*
X140215952Y-66039666D01*
X140263571Y-65992047D01*
X140358809Y-65944428D01*
X140596904Y-65944428D01*
X140692142Y-65992047D01*
X140739761Y-66039666D01*
X140787380Y-66134904D01*
X140787380Y-66420619D01*
X140739761Y-66515857D01*
X140692142Y-66563476D01*
X139882619Y-65563476D02*
X139835000Y-65515857D01*
X139787380Y-65420619D01*
X139787380Y-65182523D01*
X139835000Y-65087285D01*
X139882619Y-65039666D01*
X139977857Y-64992047D01*
X140073095Y-64992047D01*
X140215952Y-65039666D01*
X140787380Y-65611095D01*
X140787380Y-64992047D01*
X139835000Y-64039666D02*
X139787380Y-64134904D01*
X139787380Y-64277761D01*
X139835000Y-64420619D01*
X139930238Y-64515857D01*
X140025476Y-64563476D01*
X140215952Y-64611095D01*
X140358809Y-64611095D01*
X140549285Y-64563476D01*
X140644523Y-64515857D01*
X140739761Y-64420619D01*
X140787380Y-64277761D01*
X140787380Y-64182523D01*
X140739761Y-64039666D01*
X140692142Y-63992047D01*
X140358809Y-63992047D01*
X140358809Y-64182523D01*
X139787380Y-63373000D02*
X139787380Y-63277761D01*
X139835000Y-63182523D01*
X139882619Y-63134904D01*
X139977857Y-63087285D01*
X140168333Y-63039666D01*
X140406428Y-63039666D01*
X140596904Y-63087285D01*
X140692142Y-63134904D01*
X140739761Y-63182523D01*
X140787380Y-63277761D01*
X140787380Y-63373000D01*
X140739761Y-63468238D01*
X140692142Y-63515857D01*
X140596904Y-63563476D01*
X140406428Y-63611095D01*
X140168333Y-63611095D01*
X139977857Y-63563476D01*
X139882619Y-63515857D01*
X139835000Y-63468238D01*
X139787380Y-63373000D01*
X139787380Y-62706333D02*
X139787380Y-62087285D01*
X140168333Y-62420619D01*
X140168333Y-62277761D01*
X140215952Y-62182523D01*
X140263571Y-62134904D01*
X140358809Y-62087285D01*
X140596904Y-62087285D01*
X140692142Y-62134904D01*
X140739761Y-62182523D01*
X140787380Y-62277761D01*
X140787380Y-62563476D01*
X140739761Y-62658714D01*
X140692142Y-62706333D01*
X139787380Y-61468238D02*
X139787380Y-61373000D01*
X139835000Y-61277761D01*
X139882619Y-61230142D01*
X139977857Y-61182523D01*
X140168333Y-61134904D01*
X140406428Y-61134904D01*
X140596904Y-61182523D01*
X140692142Y-61230142D01*
X140739761Y-61277761D01*
X140787380Y-61373000D01*
X140787380Y-61468238D01*
X140739761Y-61563476D01*
X140692142Y-61611095D01*
X140596904Y-61658714D01*
X140406428Y-61706333D01*
X140168333Y-61706333D01*
X139977857Y-61658714D01*
X139882619Y-61611095D01*
X139835000Y-61563476D01*
X139787380Y-61468238D01*
X140263571Y-60373000D02*
X140263571Y-60706333D01*
X140787380Y-60706333D02*
X139787380Y-60706333D01*
X139787380Y-60230142D01*
X139787380Y-59420619D02*
X139787380Y-59611095D01*
X139835000Y-59706333D01*
X139882619Y-59753952D01*
X140025476Y-59849190D01*
X140215952Y-59896809D01*
X140596904Y-59896809D01*
X140692142Y-59849190D01*
X140739761Y-59801571D01*
X140787380Y-59706333D01*
X140787380Y-59515857D01*
X140739761Y-59420619D01*
X140692142Y-59373000D01*
X140596904Y-59325380D01*
X140358809Y-59325380D01*
X140263571Y-59373000D01*
X140215952Y-59420619D01*
X140168333Y-59515857D01*
X140168333Y-59706333D01*
X140215952Y-59801571D01*
X140263571Y-59849190D01*
X140358809Y-59896809D01*
X140787380Y-58896809D02*
X139787380Y-58896809D01*
X139787380Y-58515857D01*
X139835000Y-58420619D01*
X139882619Y-58373000D01*
X139977857Y-58325380D01*
X140120714Y-58325380D01*
X140215952Y-58373000D01*
X140263571Y-58420619D01*
X140311190Y-58515857D01*
X140311190Y-58896809D01*
X139787380Y-57468238D02*
X139787380Y-57658714D01*
X139835000Y-57753952D01*
X139882619Y-57801571D01*
X140025476Y-57896809D01*
X140215952Y-57944428D01*
X140596904Y-57944428D01*
X140692142Y-57896809D01*
X140739761Y-57849190D01*
X140787380Y-57753952D01*
X140787380Y-57563476D01*
X140739761Y-57468238D01*
X140692142Y-57420619D01*
X140596904Y-57373000D01*
X140358809Y-57373000D01*
X140263571Y-57420619D01*
X140215952Y-57468238D01*
X140168333Y-57563476D01*
X140168333Y-57753952D01*
X140215952Y-57849190D01*
X140263571Y-57896809D01*
X140358809Y-57944428D01*
D11*
%TO.C,D1*%
X130805000Y-97457500D03*
X130805000Y-95582500D03*
%TD*%
D12*
%TO.C,F1*%
X127635000Y-67642500D03*
X127635000Y-69517500D03*
%TD*%
D13*
%TO.C,R1*%
X128651000Y-80668500D03*
X128651000Y-78843500D03*
%TD*%
D14*
%TO.C,R3*%
X123444000Y-57126500D03*
X123444000Y-58951500D03*
%TD*%
D15*
%TO.C,J2*%
X139700000Y-96520000D03*
D16*
X139700000Y-93980000D03*
X139700000Y-91440000D03*
X139700000Y-88900000D03*
X139700000Y-86360000D03*
X139700000Y-83820000D03*
X139700000Y-81280000D03*
X139700000Y-78740000D03*
X139700000Y-76200000D03*
X139700000Y-73660000D03*
%TD*%
D14*
%TO.C,R4*%
X128900000Y-95607500D03*
X128900000Y-97432500D03*
%TD*%
D17*
%TO.C,U3*%
X129987000Y-75613500D03*
X131887000Y-75613500D03*
X130937000Y-73738500D03*
%TD*%
D18*
%TO.C,C1*%
X136017000Y-68900000D03*
X136017000Y-70800000D03*
%TD*%
D19*
%TO.C,U1*%
X132715000Y-70215000D03*
X132715000Y-69715000D03*
X132715000Y-69215000D03*
X132715000Y-68715000D03*
D20*
X132027500Y-68027500D03*
X131527500Y-68027500D03*
X131027500Y-68027500D03*
X130527500Y-68027500D03*
D19*
X129840000Y-68715000D03*
X129840000Y-69215000D03*
X129840000Y-69715000D03*
X129840000Y-70215000D03*
D20*
X130527500Y-70902500D03*
X131027500Y-70902500D03*
X131527500Y-70902500D03*
X132027500Y-70902500D03*
D21*
X131277500Y-69465000D03*
%TD*%
D22*
%TO.C,J3*%
X133700000Y-62798000D03*
X127920000Y-62798000D03*
D23*
X134060000Y-64243000D03*
X133260000Y-64243000D03*
D24*
X132060000Y-64243000D03*
X131060000Y-64243000D03*
X130560000Y-64243000D03*
X129560000Y-64243000D03*
D23*
X128360000Y-64243000D03*
X127560000Y-64243000D03*
X127560000Y-64243000D03*
X128360000Y-64243000D03*
D24*
X129060000Y-64243000D03*
X130060000Y-64243000D03*
X131560000Y-64243000D03*
X132560000Y-64243000D03*
D23*
X133260000Y-64243000D03*
X134060000Y-64243000D03*
D25*
X135130000Y-59148000D03*
X126490000Y-59148000D03*
D26*
X135130000Y-63328000D03*
X126490000Y-63328000D03*
%TD*%
D18*
%TO.C,C2*%
X138049000Y-68900000D03*
X138049000Y-70800000D03*
%TD*%
%TO.C,C5*%
X133858000Y-73726000D03*
X133858000Y-75626000D03*
%TD*%
D15*
%TO.C,J4*%
X124460000Y-67437000D03*
D16*
X121920000Y-67437000D03*
X124460000Y-69977000D03*
X121920000Y-69977000D03*
%TD*%
D15*
%TO.C,J1*%
X121920000Y-73660000D03*
D16*
X121920000Y-76200000D03*
X121920000Y-78740000D03*
X121920000Y-81280000D03*
X121920000Y-83820000D03*
X121920000Y-86360000D03*
X121920000Y-88900000D03*
X121920000Y-91440000D03*
X121920000Y-93980000D03*
X121920000Y-96520000D03*
%TD*%
D27*
%TO.C,U2*%
X127947500Y-82165000D03*
X127947500Y-82815000D03*
X127947500Y-83465000D03*
X127947500Y-84115000D03*
X127947500Y-84765000D03*
X127947500Y-85415000D03*
X127947500Y-86065000D03*
X127947500Y-86715000D03*
X127947500Y-87365000D03*
X127947500Y-88015000D03*
X133672500Y-88015000D03*
X133672500Y-87365000D03*
X133672500Y-86715000D03*
X133672500Y-86065000D03*
X133672500Y-85415000D03*
X133672500Y-84765000D03*
X133672500Y-84115000D03*
X133672500Y-83465000D03*
X133672500Y-82815000D03*
X133672500Y-82165000D03*
%TD*%
D18*
%TO.C,C4*%
X127762000Y-73726000D03*
X127762000Y-75626000D03*
%TD*%
D28*
%TO.C,C3*%
X131760000Y-90170000D03*
X129860000Y-90170000D03*
%TD*%
D15*
%TO.C,J5*%
X125730000Y-102500000D03*
D16*
X128270000Y-102500000D03*
X130810000Y-102500000D03*
X133350000Y-102500000D03*
X135890000Y-102500000D03*
%TD*%
D14*
%TO.C,R2*%
X121158000Y-57126500D03*
X121158000Y-58951500D03*
%TD*%
M02*
