%TF.GenerationSoftware,KiCad,Pcbnew,(6.0.4)*%
%TF.CreationDate,2022-06-11T16:48:39+08:00*%
%TF.ProjectId,G030F6P6_test,47303330-4636-4503-965f-746573742e6b,rev?*%
%TF.SameCoordinates,Original*%
%TF.FileFunction,Copper,L1,Top*%
%TF.FilePolarity,Positive*%
%FSLAX46Y46*%
G04 Gerber Fmt 4.6, Leading zero omitted, Abs format (unit mm)*
G04 Created by KiCad (PCBNEW (6.0.4)) date 2022-06-11 16:48:39*
%MOMM*%
%LPD*%
G01*
G04 APERTURE LIST*
G04 Aperture macros list*
%AMRoundRect*
0 Rectangle with rounded corners*
0 $1 Rounding radius*
0 $2 $3 $4 $5 $6 $7 $8 $9 X,Y pos of 4 corners*
0 Add a 4 corners polygon primitive as box body*
4,1,4,$2,$3,$4,$5,$6,$7,$8,$9,$2,$3,0*
0 Add four circle primitives for the rounded corners*
1,1,$1+$1,$2,$3*
1,1,$1+$1,$4,$5*
1,1,$1+$1,$6,$7*
1,1,$1+$1,$8,$9*
0 Add four rect primitives between the rounded corners*
20,1,$1+$1,$2,$3,$4,$5,0*
20,1,$1+$1,$4,$5,$6,$7,0*
20,1,$1+$1,$6,$7,$8,$9,0*
20,1,$1+$1,$8,$9,$2,$3,0*%
G04 Aperture macros list end*
%TA.AperFunction,ComponentPad*%
%ADD10R,1.700000X1.700000*%
%TD*%
%TA.AperFunction,ComponentPad*%
%ADD11O,1.700000X1.700000*%
%TD*%
%TA.AperFunction,SMDPad,CuDef*%
%ADD12RoundRect,0.243750X0.456250X-0.243750X0.456250X0.243750X-0.456250X0.243750X-0.456250X-0.243750X0*%
%TD*%
%TA.AperFunction,SMDPad,CuDef*%
%ADD13RoundRect,0.243750X-0.456250X0.243750X-0.456250X-0.243750X0.456250X-0.243750X0.456250X0.243750X0*%
%TD*%
%TA.AperFunction,SMDPad,CuDef*%
%ADD14RoundRect,0.250000X0.450000X-0.262500X0.450000X0.262500X-0.450000X0.262500X-0.450000X-0.262500X0*%
%TD*%
%TA.AperFunction,SMDPad,CuDef*%
%ADD15RoundRect,0.250000X-0.450000X0.262500X-0.450000X-0.262500X0.450000X-0.262500X0.450000X0.262500X0*%
%TD*%
%TA.AperFunction,SMDPad,CuDef*%
%ADD16RoundRect,0.150000X0.150000X-0.587500X0.150000X0.587500X-0.150000X0.587500X-0.150000X-0.587500X0*%
%TD*%
%TA.AperFunction,SMDPad,CuDef*%
%ADD17RoundRect,0.250000X-0.475000X0.250000X-0.475000X-0.250000X0.475000X-0.250000X0.475000X0.250000X0*%
%TD*%
%TA.AperFunction,SMDPad,CuDef*%
%ADD18RoundRect,0.062500X0.375000X0.062500X-0.375000X0.062500X-0.375000X-0.062500X0.375000X-0.062500X0*%
%TD*%
%TA.AperFunction,SMDPad,CuDef*%
%ADD19RoundRect,0.062500X0.062500X0.375000X-0.062500X0.375000X-0.062500X-0.375000X0.062500X-0.375000X0*%
%TD*%
%TA.AperFunction,SMDPad,CuDef*%
%ADD20R,1.450000X1.450000*%
%TD*%
%TA.AperFunction,ComponentPad*%
%ADD21C,0.600000*%
%TD*%
%TA.AperFunction,SMDPad,CuDef*%
%ADD22R,0.600000X1.450000*%
%TD*%
%TA.AperFunction,SMDPad,CuDef*%
%ADD23R,0.300000X1.450000*%
%TD*%
%TA.AperFunction,ComponentPad*%
%ADD24O,1.000000X1.600000*%
%TD*%
%TA.AperFunction,ComponentPad*%
%ADD25O,1.000000X2.100000*%
%TD*%
%TA.AperFunction,SMDPad,CuDef*%
%ADD26RoundRect,0.100000X-0.637500X-0.100000X0.637500X-0.100000X0.637500X0.100000X-0.637500X0.100000X0*%
%TD*%
%TA.AperFunction,SMDPad,CuDef*%
%ADD27RoundRect,0.250000X0.250000X0.475000X-0.250000X0.475000X-0.250000X-0.475000X0.250000X-0.475000X0*%
%TD*%
%TA.AperFunction,ViaPad*%
%ADD28C,0.800000*%
%TD*%
%TA.AperFunction,Conductor*%
%ADD29C,0.250000*%
%TD*%
%TA.AperFunction,Conductor*%
%ADD30C,0.200000*%
%TD*%
%TA.AperFunction,Conductor*%
%ADD31C,0.600000*%
%TD*%
G04 APERTURE END LIST*
D10*
%TO.P,J4,1,Pin_1*%
%TO.N,GND*%
X124460000Y-67437000D03*
D11*
%TO.P,J4,2,Pin_2*%
%TO.N,VBUS*%
X121920000Y-67437000D03*
%TO.P,J4,3,Pin_3*%
%TO.N,GND*%
X124460000Y-69977000D03*
%TO.P,J4,4,Pin_4*%
%TO.N,VBUS*%
X121920000Y-69977000D03*
%TD*%
D12*
%TO.P,D1,1,K*%
%TO.N,GND*%
X130805000Y-97457500D03*
%TO.P,D1,2,A*%
%TO.N,Net-(D1-Pad2)*%
X130805000Y-95582500D03*
%TD*%
D13*
%TO.P,F1,1*%
%TO.N,Net-(F1-Pad1)*%
X127635000Y-67642500D03*
%TO.P,F1,2*%
%TO.N,VBUS*%
X127635000Y-69517500D03*
%TD*%
D14*
%TO.P,R1,1*%
%TO.N,GND*%
X128651000Y-80668500D03*
%TO.P,R1,2*%
%TO.N,/BOOT0*%
X128651000Y-78843500D03*
%TD*%
%TO.P,R3,1*%
%TO.N,GND*%
X137414000Y-64412500D03*
%TO.P,R3,2*%
%TO.N,/CC1*%
X137414000Y-62587500D03*
%TD*%
D10*
%TO.P,J2,1,Pin_1*%
%TO.N,/PIN11*%
X139700000Y-96520000D03*
D11*
%TO.P,J2,2,Pin_2*%
%TO.N,/PIN12*%
X139700000Y-93980000D03*
%TO.P,J2,3,Pin_3*%
%TO.N,/PIN13*%
X139700000Y-91440000D03*
%TO.P,J2,4,Pin_4*%
%TO.N,/PIN14*%
X139700000Y-88900000D03*
%TO.P,J2,5,Pin_5*%
%TO.N,/PIN15*%
X139700000Y-86360000D03*
%TO.P,J2,6,Pin_6*%
%TO.N,/PIN16*%
X139700000Y-83820000D03*
%TO.P,J2,7,Pin_7*%
%TO.N,/PIN17*%
X139700000Y-81280000D03*
%TO.P,J2,8,Pin_8*%
%TO.N,/PIN18*%
X139700000Y-78740000D03*
%TO.P,J2,9,Pin_9*%
%TO.N,/PIN19*%
X139700000Y-76200000D03*
%TO.P,J2,10,Pin_10*%
%TO.N,/PIN20*%
X139700000Y-73660000D03*
%TD*%
D15*
%TO.P,R4,1*%
%TO.N,Net-(D1-Pad2)*%
X128900000Y-95607500D03*
%TO.P,R4,2*%
%TO.N,+3V3*%
X128900000Y-97432500D03*
%TD*%
D16*
%TO.P,U3,1,GND*%
%TO.N,GND*%
X129987000Y-75613500D03*
%TO.P,U3,2,VO*%
%TO.N,+3V3*%
X131887000Y-75613500D03*
%TO.P,U3,3,VI*%
%TO.N,VBUS*%
X130937000Y-73738500D03*
%TD*%
D17*
%TO.P,C1,1*%
%TO.N,+3V3*%
X136017000Y-68900000D03*
%TO.P,C1,2*%
%TO.N,GND*%
X136017000Y-70800000D03*
%TD*%
D18*
%TO.P,U1,1,VIO*%
%TO.N,+3V3*%
X132715000Y-70215000D03*
%TO.P,U1,2,GND*%
%TO.N,GND*%
X132715000Y-69715000D03*
%TO.P,U1,3,VDD5*%
%TO.N,VBUS*%
X132715000Y-69215000D03*
%TO.P,U1,4,TXD*%
%TO.N,/TXD*%
X132715000Y-68715000D03*
D19*
%TO.P,U1,5,RXD*%
%TO.N,/RXD*%
X132027500Y-68027500D03*
%TO.P,U1,6,V3*%
%TO.N,Net-(C2-Pad1)*%
X131527500Y-68027500D03*
%TO.P,U1,7,UD+*%
%TO.N,/USBD+*%
X131027500Y-68027500D03*
%TO.P,U1,8,UD-*%
%TO.N,/USBD-*%
X130527500Y-68027500D03*
D18*
%TO.P,U1,9,VBUS*%
%TO.N,VBUS*%
X129840000Y-68715000D03*
%TO.P,U1,10,ACT#*%
%TO.N,/ACT#*%
X129840000Y-69215000D03*
%TO.P,U1,11,DCD*%
%TO.N,unconnected-(U1-Pad11)*%
X129840000Y-69715000D03*
%TO.P,U1,12,DTR/TNOW*%
%TO.N,/BOOT0*%
X129840000Y-70215000D03*
D19*
%TO.P,U1,13,RTS*%
%TO.N,/~{RTS}*%
X130527500Y-70902500D03*
%TO.P,U1,14,DSR*%
%TO.N,unconnected-(U1-Pad14)*%
X131027500Y-70902500D03*
%TO.P,U1,15,CTS*%
%TO.N,unconnected-(U1-Pad15)*%
X131527500Y-70902500D03*
%TO.P,U1,16,RI*%
%TO.N,unconnected-(U1-Pad16)*%
X132027500Y-70902500D03*
D20*
%TO.P,U1,17,GND*%
%TO.N,GND*%
X131277500Y-69465000D03*
D21*
X130852500Y-69890000D03*
X131702500Y-69890000D03*
X131702500Y-69040000D03*
X130852500Y-69040000D03*
%TD*%
D22*
%TO.P,J3,A1,GND*%
%TO.N,GND*%
X134060000Y-64243000D03*
%TO.P,J3,A4,VBUS*%
%TO.N,Net-(F1-Pad1)*%
X133260000Y-64243000D03*
D23*
%TO.P,J3,A5,CC1*%
%TO.N,/CC1*%
X132060000Y-64243000D03*
%TO.P,J3,A6,D+*%
%TO.N,/USBD+*%
X131060000Y-64243000D03*
%TO.P,J3,A7,D-*%
%TO.N,/USBD-*%
X130560000Y-64243000D03*
%TO.P,J3,A8,SBU1*%
%TO.N,unconnected-(J3-PadA8)*%
X129560000Y-64243000D03*
D22*
%TO.P,J3,A9,VBUS*%
%TO.N,Net-(F1-Pad1)*%
X128360000Y-64243000D03*
%TO.P,J3,A12,GND*%
%TO.N,GND*%
X127560000Y-64243000D03*
%TO.P,J3,B1,GND*%
X127560000Y-64243000D03*
%TO.P,J3,B4,VBUS*%
%TO.N,Net-(F1-Pad1)*%
X128360000Y-64243000D03*
D23*
%TO.P,J3,B5,CC2*%
%TO.N,/CC2*%
X129060000Y-64243000D03*
%TO.P,J3,B6,D+*%
%TO.N,/USBD+*%
X130060000Y-64243000D03*
%TO.P,J3,B7,D-*%
%TO.N,/USBD-*%
X131560000Y-64243000D03*
%TO.P,J3,B8,SBU2*%
%TO.N,unconnected-(J3-PadB8)*%
X132560000Y-64243000D03*
D22*
%TO.P,J3,B9,VBUS*%
%TO.N,Net-(F1-Pad1)*%
X133260000Y-64243000D03*
%TO.P,J3,B12,GND*%
%TO.N,GND*%
X134060000Y-64243000D03*
D24*
%TO.P,J3,S1,SHIELD*%
X135130000Y-59148000D03*
X126490000Y-59148000D03*
D25*
X135130000Y-63328000D03*
X126490000Y-63328000D03*
%TD*%
D17*
%TO.P,C2,1*%
%TO.N,Net-(C2-Pad1)*%
X138049000Y-68900000D03*
%TO.P,C2,2*%
%TO.N,GND*%
X138049000Y-70800000D03*
%TD*%
%TO.P,C5,1*%
%TO.N,+3V3*%
X133858000Y-73726000D03*
%TO.P,C5,2*%
%TO.N,GND*%
X133858000Y-75626000D03*
%TD*%
D10*
%TO.P,J1,1,Pin_1*%
%TO.N,/PIN1*%
X121920000Y-73660000D03*
D11*
%TO.P,J1,2,Pin_2*%
%TO.N,/PIN2*%
X121920000Y-76200000D03*
%TO.P,J1,3,Pin_3*%
%TO.N,/PIN3*%
X121920000Y-78740000D03*
%TO.P,J1,4,Pin_4*%
%TO.N,/PIN4*%
X121920000Y-81280000D03*
%TO.P,J1,5,Pin_5*%
%TO.N,/PIN5*%
X121920000Y-83820000D03*
%TO.P,J1,6,Pin_6*%
%TO.N,/PIN6*%
X121920000Y-86360000D03*
%TO.P,J1,7,Pin_7*%
%TO.N,/PIN7*%
X121920000Y-88900000D03*
%TO.P,J1,8,Pin_8*%
%TO.N,/PIN8*%
X121920000Y-91440000D03*
%TO.P,J1,9,Pin_9*%
%TO.N,/PIN9*%
X121920000Y-93980000D03*
%TO.P,J1,10,Pin_10*%
%TO.N,/PIN10*%
X121920000Y-96520000D03*
%TD*%
D26*
%TO.P,U2,1,PB7/PB8*%
%TO.N,/PIN1*%
X127947500Y-82165000D03*
%TO.P,U2,2,PB9/PC14-OSC32_IN*%
%TO.N,/PIN2*%
X127947500Y-82815000D03*
%TO.P,U2,3,PC15-OSC32_OUT*%
%TO.N,/PIN3*%
X127947500Y-83465000D03*
%TO.P,U2,4,VDD/VDDA*%
%TO.N,/PIN4*%
X127947500Y-84115000D03*
%TO.P,U2,5,VSS/VSSA*%
%TO.N,/PIN5*%
X127947500Y-84765000D03*
%TO.P,U2,6,NRST*%
%TO.N,/PIN6*%
X127947500Y-85415000D03*
%TO.P,U2,7,PA0*%
%TO.N,/PIN7*%
X127947500Y-86065000D03*
%TO.P,U2,8,PA1*%
%TO.N,/PIN8*%
X127947500Y-86715000D03*
%TO.P,U2,9,PA2*%
%TO.N,/PIN9*%
X127947500Y-87365000D03*
%TO.P,U2,10,PA3*%
%TO.N,/PIN10*%
X127947500Y-88015000D03*
%TO.P,U2,11,PA4*%
%TO.N,/PIN11*%
X133672500Y-88015000D03*
%TO.P,U2,12,PA5*%
%TO.N,/PIN12*%
X133672500Y-87365000D03*
%TO.P,U2,13,PA6*%
%TO.N,/PIN13*%
X133672500Y-86715000D03*
%TO.P,U2,14,PA7*%
%TO.N,/PIN14*%
X133672500Y-86065000D03*
%TO.P,U2,15,PB0/PB1/PB2/PA8*%
%TO.N,/PIN15*%
X133672500Y-85415000D03*
%TO.P,U2,16,PA11[PA9]*%
%TO.N,/PIN16*%
X133672500Y-84765000D03*
%TO.P,U2,17,PA12[PA10]*%
%TO.N,/PIN17*%
X133672500Y-84115000D03*
%TO.P,U2,18,PA13*%
%TO.N,/PIN18*%
X133672500Y-83465000D03*
%TO.P,U2,19,PA15/PA14-BOOT0*%
%TO.N,/PIN19*%
X133672500Y-82815000D03*
%TO.P,U2,20,PB3/PB4/PB5/PB6*%
%TO.N,/PIN20*%
X133672500Y-82165000D03*
%TD*%
D17*
%TO.P,C4,1*%
%TO.N,VBUS*%
X127762000Y-73726000D03*
%TO.P,C4,2*%
%TO.N,GND*%
X127762000Y-75626000D03*
%TD*%
D27*
%TO.P,C3,1*%
%TO.N,/PIN4*%
X131760000Y-90170000D03*
%TO.P,C3,2*%
%TO.N,/PIN5*%
X129860000Y-90170000D03*
%TD*%
D10*
%TO.P,J5,1,Pin_1*%
%TO.N,+3V3*%
X125730000Y-102500000D03*
D11*
%TO.P,J5,2,Pin_2*%
%TO.N,GND*%
X128270000Y-102500000D03*
%TO.P,J5,3,Pin_3*%
%TO.N,/SWCLK*%
X130810000Y-102500000D03*
%TO.P,J5,4,Pin_4*%
%TO.N,/SWDIO*%
X133350000Y-102500000D03*
%TO.P,J5,5,Pin_5*%
%TO.N,/NRST*%
X135890000Y-102500000D03*
%TD*%
D15*
%TO.P,R2,1*%
%TO.N,GND*%
X137414000Y-58904500D03*
%TO.P,R2,2*%
%TO.N,/CC2*%
X137414000Y-60729500D03*
%TD*%
D28*
%TO.N,/PIN1*%
X126492000Y-72009000D03*
%TO.N,/PIN4*%
X132842000Y-90170000D03*
%TO.N,/PIN5*%
X128651000Y-90170000D03*
%TO.N,+3V3*%
X131572000Y-72263000D03*
%TO.N,GND*%
X127635000Y-89408000D03*
X133858000Y-69850000D03*
X133604000Y-78232000D03*
%TO.N,/RXD*%
X133223000Y-67691000D03*
%TO.N,/TXD*%
X134747000Y-67800500D03*
%TO.N,Net-(F1-Pad1)*%
X132969000Y-66040000D03*
X126365000Y-66421000D03*
%TO.N,VBUS*%
X134366000Y-68834000D03*
X127635000Y-70612000D03*
%TO.N,/USBD+*%
X131259500Y-66616461D03*
X129794000Y-66802000D03*
%TO.N,/~{RTS}*%
X130175000Y-72390000D03*
%TO.N,/BOOT0*%
X128579400Y-72009000D03*
X127353540Y-78740000D03*
X132080000Y-78486000D03*
%TD*%
D29*
%TO.N,/CC2*%
X129413000Y-61976000D02*
X129060000Y-62329000D01*
X131953000Y-61976000D02*
X129413000Y-61976000D01*
X129060000Y-62329000D02*
X129060000Y-64243000D01*
X133199500Y-60729500D02*
X131953000Y-61976000D01*
X137414000Y-60729500D02*
X133199500Y-60729500D01*
%TO.N,/CC1*%
X132060000Y-62631000D02*
X132060000Y-64243000D01*
X133223000Y-61468000D02*
X132060000Y-62631000D01*
X137136500Y-62587500D02*
X136017000Y-61468000D01*
X136017000Y-61468000D02*
X133223000Y-61468000D01*
X137414000Y-62587500D02*
X137136500Y-62587500D01*
D30*
%TO.N,/USBD+*%
X130060000Y-63107000D02*
X130302000Y-62865000D01*
X130302000Y-62865000D02*
X130810000Y-62865000D01*
X131060000Y-63115000D02*
X131060000Y-64243000D01*
X130060000Y-64243000D02*
X130060000Y-63107000D01*
X130810000Y-62865000D02*
X131060000Y-63115000D01*
X129794000Y-65913000D02*
X130060000Y-65647000D01*
X130060000Y-65647000D02*
X130060000Y-64243000D01*
X129794000Y-66802000D02*
X129794000Y-65913000D01*
D31*
%TO.N,VBUS*%
X121920000Y-71247000D02*
X121920000Y-69977000D01*
X122682000Y-72009000D02*
X121920000Y-71247000D01*
X124968000Y-72009000D02*
X122682000Y-72009000D01*
X126365000Y-70612000D02*
X124968000Y-72009000D01*
X127635000Y-70612000D02*
X126365000Y-70612000D01*
X121920000Y-67437000D02*
X121920000Y-69977000D01*
%TO.N,Net-(F1-Pad1)*%
X127888000Y-66421000D02*
X126365000Y-66421000D01*
X128360000Y-65949000D02*
X127888000Y-66421000D01*
X128360000Y-64624000D02*
X128360000Y-65949000D01*
X127635000Y-67642500D02*
X127586500Y-67642500D01*
X127586500Y-67642500D02*
X126365000Y-66421000D01*
D29*
%TO.N,/BOOT0*%
X128579400Y-70683600D02*
X128579400Y-72009000D01*
X129048000Y-70215000D02*
X128579400Y-70683600D01*
D31*
%TO.N,VBUS*%
X127624499Y-73588499D02*
X127762000Y-73726000D01*
X127635000Y-70612000D02*
X127624499Y-70622501D01*
X127624499Y-70622501D02*
X127624499Y-73588499D01*
D29*
%TO.N,/BOOT0*%
X129840000Y-70215000D02*
X129048000Y-70215000D01*
%TO.N,/PIN1*%
X126629040Y-72146040D02*
X126492000Y-72009000D01*
X127947500Y-82165000D02*
X126629040Y-80846540D01*
X124841000Y-73660000D02*
X126492000Y-72009000D01*
X121920000Y-73660000D02*
X124841000Y-73660000D01*
X126629040Y-80846540D02*
X126629040Y-72146040D01*
%TO.N,/PIN2*%
X126179520Y-81734881D02*
X126179520Y-77919520D01*
X127947500Y-82815000D02*
X127259639Y-82815000D01*
X126179520Y-77919520D02*
X124460000Y-76200000D01*
X127259639Y-82815000D02*
X126179520Y-81734881D01*
X124460000Y-76200000D02*
X121920000Y-76200000D01*
%TO.N,/PIN3*%
X127259639Y-83465000D02*
X125730000Y-81935361D01*
X125730000Y-80010000D02*
X124460000Y-78740000D01*
X124460000Y-78740000D02*
X121920000Y-78740000D01*
X125730000Y-81935361D02*
X125730000Y-80010000D01*
X127947500Y-83465000D02*
X127259639Y-83465000D01*
%TO.N,/PIN4*%
X132842000Y-90170000D02*
X131760000Y-90170000D01*
X123825718Y-81280000D02*
X121920000Y-81280000D01*
X130343000Y-84115000D02*
X131760000Y-85532000D01*
X127947500Y-84115000D02*
X130343000Y-84115000D01*
X126660718Y-84115000D02*
X123825718Y-81280000D01*
X127947500Y-84115000D02*
X126660718Y-84115000D01*
X131760000Y-85532000D02*
X131760000Y-90170000D01*
%TO.N,/PIN5*%
X128651000Y-90170000D02*
X129860000Y-90170000D01*
X125730000Y-83820000D02*
X121920000Y-83820000D01*
X130231000Y-84765000D02*
X131064000Y-85598000D01*
X127947500Y-84765000D02*
X130231000Y-84765000D01*
X127947500Y-84765000D02*
X126675000Y-84765000D01*
X131064000Y-88966000D02*
X129860000Y-90170000D01*
X131064000Y-85598000D02*
X131064000Y-88966000D01*
X126675000Y-84765000D02*
X125730000Y-83820000D01*
%TO.N,/PIN6*%
X126410460Y-86264179D02*
X126410461Y-86278461D01*
X126410461Y-86278461D02*
X126328922Y-86360000D01*
X127947500Y-85415000D02*
X127259639Y-85415000D01*
X126328922Y-86360000D02*
X121920000Y-86360000D01*
X127259639Y-85415000D02*
X126410460Y-86264179D01*
%TO.N,/PIN7*%
X125651468Y-87673171D02*
X125651468Y-87708532D01*
X127259639Y-86065000D02*
X125651468Y-87673171D01*
X127947500Y-86065000D02*
X127259639Y-86065000D01*
X124460000Y-88900000D02*
X121920000Y-88900000D01*
X125651468Y-87708532D02*
X124460000Y-88900000D01*
%TO.N,/PIN8*%
X125634511Y-89756081D02*
X123950592Y-91440000D01*
X127947500Y-86715000D02*
X127259639Y-86715000D01*
X125634512Y-88486080D02*
X125634511Y-89756081D01*
X127259639Y-86715000D02*
X126365000Y-87609639D01*
X126365000Y-87609639D02*
X126365000Y-87755592D01*
X123950592Y-91440000D02*
X121920000Y-91440000D01*
X126365000Y-87755592D02*
X125634512Y-88486080D01*
%TO.N,/PIN9*%
X126084022Y-90450274D02*
X125634511Y-90899785D01*
X124460000Y-93980000D02*
X121920000Y-93980000D01*
X127947500Y-87365000D02*
X127259639Y-87365000D01*
X127259639Y-87365000D02*
X126885480Y-87739159D01*
X125634511Y-92805489D02*
X124460000Y-93980000D01*
X126885480Y-87870816D02*
X126084022Y-88672274D01*
X125634511Y-90899785D02*
X125634511Y-92805489D01*
X126084022Y-88672274D02*
X126084022Y-90450274D01*
X126885480Y-87739159D02*
X126885480Y-87870816D01*
%TO.N,/PIN10*%
X126533533Y-90636467D02*
X126533533Y-88858467D01*
X124460000Y-96520000D02*
X126084022Y-94895978D01*
X127000000Y-88392000D02*
X127570500Y-88392000D01*
X127570500Y-88392000D02*
X127947500Y-88015000D01*
X126084022Y-94895978D02*
X126084022Y-91085978D01*
X126084022Y-91085978D02*
X126533533Y-90636467D01*
X126533533Y-88858467D02*
X127000000Y-88392000D01*
X124460000Y-96520000D02*
X121920000Y-96520000D01*
%TO.N,/PIN11*%
X133672500Y-95572500D02*
X134620000Y-96520000D01*
X133672500Y-88015000D02*
X133672500Y-95572500D01*
X134620000Y-96520000D02*
X139700000Y-96520000D01*
%TO.N,/PIN12*%
X134747000Y-87751639D02*
X134747000Y-92964000D01*
X135763000Y-93980000D02*
X139700000Y-93980000D01*
X134360361Y-87365000D02*
X134747000Y-87751639D01*
X133672500Y-87365000D02*
X134360361Y-87365000D01*
X134747000Y-92964000D02*
X135763000Y-93980000D01*
%TO.N,/PIN13*%
X133672500Y-86715000D02*
X134721000Y-86715000D01*
X134721000Y-86715000D02*
X135196520Y-87190520D01*
X135196520Y-90932000D02*
X135704520Y-91440000D01*
X135196520Y-87190520D02*
X135196520Y-90932000D01*
X135704520Y-91440000D02*
X139700000Y-91440000D01*
%TO.N,/PIN14*%
X134706718Y-86065000D02*
X135646040Y-87004322D01*
X135646040Y-87004322D02*
X135646040Y-88588121D01*
X133672500Y-86065000D02*
X134706718Y-86065000D01*
X135957919Y-88900000D02*
X139700000Y-88900000D01*
X135646040Y-88588121D02*
X135957919Y-88900000D01*
%TO.N,/PIN15*%
X133672500Y-85415000D02*
X134692436Y-85415000D01*
X134692436Y-85415000D02*
X135637436Y-86360000D01*
X135637436Y-86360000D02*
X139700000Y-86360000D01*
%TO.N,/PIN16*%
X136215000Y-84765000D02*
X137160000Y-83820000D01*
X133672500Y-84765000D02*
X136215000Y-84765000D01*
X137160000Y-83820000D02*
X139700000Y-83820000D01*
%TO.N,/PIN17*%
X137160000Y-81280000D02*
X139700000Y-81280000D01*
X135985489Y-82454511D02*
X137160000Y-81280000D01*
X135722000Y-84115000D02*
X135985489Y-83851511D01*
X135985489Y-83851511D02*
X135985489Y-82454511D01*
X133672500Y-84115000D02*
X135722000Y-84115000D01*
%TO.N,/PIN18*%
X134848717Y-83465000D02*
X135509000Y-82804717D01*
X133672500Y-83465000D02*
X134848717Y-83465000D01*
X135509000Y-79502000D02*
X136271000Y-78740000D01*
X135509000Y-82804717D02*
X135509000Y-79502000D01*
X136271000Y-78740000D02*
X139700000Y-78740000D01*
%TO.N,/PIN19*%
X135001000Y-82677000D02*
X135001000Y-78613000D01*
X133672500Y-82815000D02*
X134863000Y-82815000D01*
X135001000Y-78613000D02*
X137414000Y-76200000D01*
X137414000Y-76200000D02*
X139700000Y-76200000D01*
X134863000Y-82815000D02*
X135001000Y-82677000D01*
%TO.N,/PIN20*%
X134243000Y-82165000D02*
X134551480Y-81856520D01*
X134551480Y-78426802D02*
X135985489Y-76992793D01*
X135985489Y-74834511D02*
X137160000Y-73660000D01*
X134551480Y-81856520D02*
X134551480Y-78426802D01*
X137160000Y-73660000D02*
X139700000Y-73660000D01*
X133672500Y-82165000D02*
X134243000Y-82165000D01*
X135985489Y-76992793D02*
X135985489Y-74834511D01*
D31*
%TO.N,+3V3*%
X133477000Y-72263000D02*
X134112000Y-72898000D01*
X131887000Y-75613500D02*
X131887000Y-74234000D01*
D29*
X134342499Y-70574501D02*
X133074501Y-70574501D01*
X133074501Y-70574501D02*
X132715000Y-70215000D01*
D31*
X132395000Y-73726000D02*
X134112000Y-73726000D01*
X134112000Y-72898000D02*
X134112000Y-73726000D01*
X125730000Y-99187000D02*
X127484500Y-97432500D01*
X131572000Y-72263000D02*
X133477000Y-72263000D01*
X127484500Y-97432500D02*
X128900000Y-97432500D01*
D29*
X133477000Y-71961828D02*
X133477000Y-72263000D01*
D31*
X125730000Y-102500000D02*
X125730000Y-99187000D01*
D29*
X132715000Y-71199828D02*
X133477000Y-71961828D01*
D31*
X131887000Y-74234000D02*
X132395000Y-73726000D01*
D29*
X132715000Y-70215000D02*
X132715000Y-71199828D01*
X136017000Y-68900000D02*
X134342499Y-70574501D01*
%TO.N,GND*%
X132715000Y-69715000D02*
X133723000Y-69715000D01*
X133723000Y-69715000D02*
X133858000Y-69850000D01*
%TO.N,Net-(C2-Pad1)*%
X131527500Y-67373075D02*
X131527500Y-68027500D01*
X138049000Y-68900000D02*
X138049000Y-67310000D01*
X138049000Y-67310000D02*
X137541000Y-66802000D01*
X132098575Y-66802000D02*
X131527500Y-67373075D01*
X137541000Y-66802000D02*
X132098575Y-66802000D01*
%TO.N,Net-(D1-Pad2)*%
X128900000Y-95607500D02*
X130780000Y-95607500D01*
X130780000Y-95607500D02*
X130805000Y-95582500D01*
%TO.N,/RXD*%
X133223000Y-67691000D02*
X132364000Y-67691000D01*
X132364000Y-67691000D02*
X132027500Y-68027500D01*
%TO.N,/TXD*%
X132754011Y-68675989D02*
X133433517Y-68675989D01*
X132715000Y-68715000D02*
X132754011Y-68675989D01*
X133433517Y-68675989D02*
X134309007Y-67800500D01*
X134309007Y-67800500D02*
X134747000Y-67800500D01*
D31*
%TO.N,Net-(F1-Pad1)*%
X133260000Y-64624000D02*
X133260000Y-65749000D01*
X133260000Y-65749000D02*
X132969000Y-66040000D01*
%TO.N,VBUS*%
X127635000Y-69263500D02*
X127635000Y-70612000D01*
D29*
X133557901Y-69125499D02*
X134074501Y-69125499D01*
X133468400Y-69215000D02*
X133557901Y-69125499D01*
D31*
X130937000Y-73738500D02*
X127774500Y-73738500D01*
D29*
X132715000Y-69215000D02*
X133468400Y-69215000D01*
X129840000Y-68715000D02*
X128183500Y-68715000D01*
X128183500Y-68715000D02*
X127635000Y-69263500D01*
X134074501Y-69125499D02*
X134366000Y-68834000D01*
D31*
X127774500Y-73738500D02*
X127762000Y-73726000D01*
D30*
%TO.N,/USBD+*%
X131259500Y-66616461D02*
X131027500Y-66848461D01*
X131027500Y-66848461D02*
X131027500Y-68027500D01*
%TO.N,/USBD-*%
X131187000Y-65917000D02*
X130560000Y-65917000D01*
X130560000Y-65917000D02*
X130560000Y-64624000D01*
X131560000Y-65544000D02*
X131187000Y-65917000D01*
X130527500Y-68027500D02*
X130560000Y-67995000D01*
X130560000Y-67995000D02*
X130560000Y-65917000D01*
X131560000Y-64624000D02*
X131560000Y-65544000D01*
D29*
%TO.N,/~{RTS}*%
X130175000Y-72390000D02*
X130556000Y-72009000D01*
X130556000Y-72009000D02*
X130556000Y-70931000D01*
X130556000Y-70931000D02*
X130527500Y-70902500D01*
%TO.N,/BOOT0*%
X128547500Y-78740000D02*
X128651000Y-78843500D01*
X128651000Y-78843500D02*
X131722500Y-78843500D01*
X127353540Y-78740000D02*
X128547500Y-78740000D01*
X131722500Y-78843500D02*
X132080000Y-78486000D01*
%TD*%
%TA.AperFunction,Conductor*%
%TO.N,GND*%
G36*
X141673621Y-56408502D02*
G01*
X141720114Y-56462158D01*
X141731500Y-56514500D01*
X141731500Y-104394500D01*
X141711498Y-104462621D01*
X141657842Y-104509114D01*
X141605500Y-104520500D01*
X120014500Y-104520500D01*
X119946379Y-104500498D01*
X119899886Y-104446842D01*
X119888500Y-104394500D01*
X119888500Y-103398134D01*
X124371500Y-103398134D01*
X124378255Y-103460316D01*
X124429385Y-103596705D01*
X124516739Y-103713261D01*
X124633295Y-103800615D01*
X124769684Y-103851745D01*
X124831866Y-103858500D01*
X126628134Y-103858500D01*
X126690316Y-103851745D01*
X126826705Y-103800615D01*
X126943261Y-103713261D01*
X127030615Y-103596705D01*
X127074798Y-103478848D01*
X127117440Y-103422084D01*
X127184001Y-103397384D01*
X127253350Y-103412592D01*
X127288017Y-103440580D01*
X127313218Y-103469673D01*
X127320580Y-103476883D01*
X127484434Y-103612916D01*
X127492881Y-103618831D01*
X127676756Y-103726279D01*
X127686042Y-103730729D01*
X127885001Y-103806703D01*
X127894899Y-103809579D01*
X127998250Y-103830606D01*
X128012299Y-103829410D01*
X128016000Y-103819065D01*
X128016000Y-103818517D01*
X128524000Y-103818517D01*
X128528064Y-103832359D01*
X128541478Y-103834393D01*
X128548184Y-103833534D01*
X128558262Y-103831392D01*
X128762255Y-103770191D01*
X128771842Y-103766433D01*
X128963095Y-103672739D01*
X128971945Y-103667464D01*
X129145328Y-103543792D01*
X129153200Y-103537139D01*
X129304052Y-103386812D01*
X129310730Y-103378965D01*
X129438022Y-103201819D01*
X129439279Y-103202722D01*
X129486373Y-103159362D01*
X129556311Y-103147145D01*
X129621751Y-103174678D01*
X129649579Y-103206511D01*
X129709987Y-103305088D01*
X129856250Y-103473938D01*
X130028126Y-103616632D01*
X130221000Y-103729338D01*
X130429692Y-103809030D01*
X130434760Y-103810061D01*
X130434763Y-103810062D01*
X130529862Y-103829410D01*
X130648597Y-103853567D01*
X130653772Y-103853757D01*
X130653774Y-103853757D01*
X130866673Y-103861564D01*
X130866677Y-103861564D01*
X130871837Y-103861753D01*
X130876957Y-103861097D01*
X130876959Y-103861097D01*
X131088288Y-103834025D01*
X131088289Y-103834025D01*
X131093416Y-103833368D01*
X131098366Y-103831883D01*
X131302429Y-103770661D01*
X131302434Y-103770659D01*
X131307384Y-103769174D01*
X131507994Y-103670896D01*
X131689860Y-103541173D01*
X131848096Y-103383489D01*
X131978453Y-103202077D01*
X131979776Y-103203028D01*
X132026645Y-103159857D01*
X132096580Y-103147625D01*
X132162026Y-103175144D01*
X132189875Y-103206994D01*
X132249987Y-103305088D01*
X132396250Y-103473938D01*
X132568126Y-103616632D01*
X132761000Y-103729338D01*
X132969692Y-103809030D01*
X132974760Y-103810061D01*
X132974763Y-103810062D01*
X133069862Y-103829410D01*
X133188597Y-103853567D01*
X133193772Y-103853757D01*
X133193774Y-103853757D01*
X133406673Y-103861564D01*
X133406677Y-103861564D01*
X133411837Y-103861753D01*
X133416957Y-103861097D01*
X133416959Y-103861097D01*
X133628288Y-103834025D01*
X133628289Y-103834025D01*
X133633416Y-103833368D01*
X133638366Y-103831883D01*
X133842429Y-103770661D01*
X133842434Y-103770659D01*
X133847384Y-103769174D01*
X134047994Y-103670896D01*
X134229860Y-103541173D01*
X134388096Y-103383489D01*
X134518453Y-103202077D01*
X134519776Y-103203028D01*
X134566645Y-103159857D01*
X134636580Y-103147625D01*
X134702026Y-103175144D01*
X134729875Y-103206994D01*
X134789987Y-103305088D01*
X134936250Y-103473938D01*
X135108126Y-103616632D01*
X135301000Y-103729338D01*
X135509692Y-103809030D01*
X135514760Y-103810061D01*
X135514763Y-103810062D01*
X135609862Y-103829410D01*
X135728597Y-103853567D01*
X135733772Y-103853757D01*
X135733774Y-103853757D01*
X135946673Y-103861564D01*
X135946677Y-103861564D01*
X135951837Y-103861753D01*
X135956957Y-103861097D01*
X135956959Y-103861097D01*
X136168288Y-103834025D01*
X136168289Y-103834025D01*
X136173416Y-103833368D01*
X136178366Y-103831883D01*
X136382429Y-103770661D01*
X136382434Y-103770659D01*
X136387384Y-103769174D01*
X136587994Y-103670896D01*
X136769860Y-103541173D01*
X136928096Y-103383489D01*
X137058453Y-103202077D01*
X137071995Y-103174678D01*
X137155136Y-103006453D01*
X137155137Y-103006451D01*
X137157430Y-103001811D01*
X137222370Y-102788069D01*
X137251529Y-102566590D01*
X137253156Y-102500000D01*
X137234852Y-102277361D01*
X137180431Y-102060702D01*
X137091354Y-101855840D01*
X136970014Y-101668277D01*
X136819670Y-101503051D01*
X136815619Y-101499852D01*
X136815615Y-101499848D01*
X136648414Y-101367800D01*
X136648410Y-101367798D01*
X136644359Y-101364598D01*
X136608028Y-101344542D01*
X136592136Y-101335769D01*
X136448789Y-101256638D01*
X136443920Y-101254914D01*
X136443916Y-101254912D01*
X136243087Y-101183795D01*
X136243083Y-101183794D01*
X136238212Y-101182069D01*
X136233119Y-101181162D01*
X136233116Y-101181161D01*
X136023373Y-101143800D01*
X136023367Y-101143799D01*
X136018284Y-101142894D01*
X135944452Y-101141992D01*
X135800081Y-101140228D01*
X135800079Y-101140228D01*
X135794911Y-101140165D01*
X135574091Y-101173955D01*
X135361756Y-101243357D01*
X135163607Y-101346507D01*
X135159474Y-101349610D01*
X135159471Y-101349612D01*
X134989100Y-101477530D01*
X134984965Y-101480635D01*
X134830629Y-101642138D01*
X134723201Y-101799621D01*
X134668293Y-101844621D01*
X134597768Y-101852792D01*
X134534021Y-101821538D01*
X134513324Y-101797054D01*
X134432822Y-101672617D01*
X134432820Y-101672614D01*
X134430014Y-101668277D01*
X134279670Y-101503051D01*
X134275619Y-101499852D01*
X134275615Y-101499848D01*
X134108414Y-101367800D01*
X134108410Y-101367798D01*
X134104359Y-101364598D01*
X134068028Y-101344542D01*
X134052136Y-101335769D01*
X133908789Y-101256638D01*
X133903920Y-101254914D01*
X133903916Y-101254912D01*
X133703087Y-101183795D01*
X133703083Y-101183794D01*
X133698212Y-101182069D01*
X133693119Y-101181162D01*
X133693116Y-101181161D01*
X133483373Y-101143800D01*
X133483367Y-101143799D01*
X133478284Y-101142894D01*
X133404452Y-101141992D01*
X133260081Y-101140228D01*
X133260079Y-101140228D01*
X133254911Y-101140165D01*
X133034091Y-101173955D01*
X132821756Y-101243357D01*
X132623607Y-101346507D01*
X132619474Y-101349610D01*
X132619471Y-101349612D01*
X132449100Y-101477530D01*
X132444965Y-101480635D01*
X132290629Y-101642138D01*
X132183201Y-101799621D01*
X132128293Y-101844621D01*
X132057768Y-101852792D01*
X131994021Y-101821538D01*
X131973324Y-101797054D01*
X131892822Y-101672617D01*
X131892820Y-101672614D01*
X131890014Y-101668277D01*
X131739670Y-101503051D01*
X131735619Y-101499852D01*
X131735615Y-101499848D01*
X131568414Y-101367800D01*
X131568410Y-101367798D01*
X131564359Y-101364598D01*
X131528028Y-101344542D01*
X131512136Y-101335769D01*
X131368789Y-101256638D01*
X131363920Y-101254914D01*
X131363916Y-101254912D01*
X131163087Y-101183795D01*
X131163083Y-101183794D01*
X131158212Y-101182069D01*
X131153119Y-101181162D01*
X131153116Y-101181161D01*
X130943373Y-101143800D01*
X130943367Y-101143799D01*
X130938284Y-101142894D01*
X130864452Y-101141992D01*
X130720081Y-101140228D01*
X130720079Y-101140228D01*
X130714911Y-101140165D01*
X130494091Y-101173955D01*
X130281756Y-101243357D01*
X130083607Y-101346507D01*
X130079474Y-101349610D01*
X130079471Y-101349612D01*
X129909100Y-101477530D01*
X129904965Y-101480635D01*
X129750629Y-101642138D01*
X129643204Y-101799618D01*
X129642898Y-101800066D01*
X129587987Y-101845069D01*
X129517462Y-101853240D01*
X129453715Y-101821986D01*
X129433018Y-101797502D01*
X129352426Y-101672926D01*
X129346136Y-101664757D01*
X129202806Y-101507240D01*
X129195273Y-101500215D01*
X129028139Y-101368222D01*
X129019552Y-101362517D01*
X128833117Y-101259599D01*
X128823705Y-101255369D01*
X128622959Y-101184280D01*
X128612988Y-101181646D01*
X128541837Y-101168972D01*
X128528540Y-101170432D01*
X128524000Y-101184989D01*
X128524000Y-103818517D01*
X128016000Y-103818517D01*
X128016000Y-101183102D01*
X128012082Y-101169758D01*
X127997806Y-101167771D01*
X127959324Y-101173660D01*
X127949288Y-101176051D01*
X127746868Y-101242212D01*
X127737359Y-101246209D01*
X127548463Y-101344542D01*
X127539738Y-101350036D01*
X127369433Y-101477905D01*
X127361726Y-101484748D01*
X127284478Y-101565584D01*
X127222954Y-101601014D01*
X127152042Y-101597557D01*
X127094255Y-101556311D01*
X127075402Y-101522763D01*
X127033767Y-101411703D01*
X127030615Y-101403295D01*
X126943261Y-101286739D01*
X126826705Y-101199385D01*
X126690316Y-101148255D01*
X126663086Y-101145297D01*
X126650892Y-101143972D01*
X126585330Y-101116730D01*
X126544904Y-101058366D01*
X126538500Y-101018709D01*
X126538500Y-99574082D01*
X126558502Y-99505961D01*
X126575405Y-99484987D01*
X127782282Y-98278109D01*
X127844594Y-98244084D01*
X127915409Y-98249148D01*
X127960395Y-98278031D01*
X127976697Y-98294305D01*
X127982927Y-98298145D01*
X127982928Y-98298146D01*
X128120246Y-98382790D01*
X128127262Y-98387115D01*
X128134480Y-98389509D01*
X128288611Y-98440632D01*
X128288613Y-98440632D01*
X128295139Y-98442797D01*
X128301975Y-98443497D01*
X128301978Y-98443498D01*
X128345031Y-98447909D01*
X128399600Y-98453500D01*
X129400400Y-98453500D01*
X129403646Y-98453163D01*
X129403650Y-98453163D01*
X129499308Y-98443238D01*
X129499312Y-98443237D01*
X129506166Y-98442526D01*
X129512702Y-98440345D01*
X129512704Y-98440345D01*
X129665077Y-98389509D01*
X129673946Y-98386550D01*
X129784364Y-98318221D01*
X129852816Y-98299383D01*
X129916783Y-98318105D01*
X130022654Y-98383365D01*
X130035832Y-98389509D01*
X130188740Y-98440227D01*
X130202106Y-98443093D01*
X130295601Y-98452672D01*
X130302016Y-98453000D01*
X130532885Y-98453000D01*
X130548124Y-98448525D01*
X130549329Y-98447135D01*
X130551000Y-98439452D01*
X130551000Y-98434884D01*
X131059000Y-98434884D01*
X131063475Y-98450123D01*
X131064865Y-98451328D01*
X131072548Y-98452999D01*
X131307933Y-98452999D01*
X131314452Y-98452662D01*
X131409170Y-98442834D01*
X131422564Y-98439942D01*
X131575365Y-98388964D01*
X131588543Y-98382790D01*
X131725149Y-98298256D01*
X131736550Y-98289220D01*
X131850051Y-98175521D01*
X131859063Y-98164110D01*
X131943365Y-98027346D01*
X131949509Y-98014168D01*
X132000227Y-97861260D01*
X132003093Y-97847894D01*
X132012672Y-97754399D01*
X132013000Y-97747984D01*
X132013000Y-97729615D01*
X132008525Y-97714376D01*
X132007135Y-97713171D01*
X131999452Y-97711500D01*
X131077115Y-97711500D01*
X131061876Y-97715975D01*
X131060671Y-97717365D01*
X131059000Y-97725048D01*
X131059000Y-98434884D01*
X130551000Y-98434884D01*
X130551000Y-97329500D01*
X130571002Y-97261379D01*
X130624658Y-97214886D01*
X130677000Y-97203500D01*
X131994884Y-97203500D01*
X132010123Y-97199025D01*
X132011328Y-97197635D01*
X132012999Y-97189952D01*
X132012999Y-97167067D01*
X132012662Y-97160548D01*
X132002834Y-97065830D01*
X131999942Y-97052436D01*
X131948964Y-96899635D01*
X131942790Y-96886457D01*
X131858256Y-96749851D01*
X131849220Y-96738450D01*
X131735521Y-96624949D01*
X131728249Y-96619206D01*
X131687186Y-96561289D01*
X131683954Y-96490366D01*
X131719579Y-96428954D01*
X131726254Y-96423160D01*
X131731689Y-96419797D01*
X131855617Y-96295653D01*
X131947661Y-96146329D01*
X131982406Y-96041577D01*
X132000719Y-95986366D01*
X132000719Y-95986364D01*
X132002885Y-95979835D01*
X132013500Y-95876231D01*
X132013499Y-95288770D01*
X132002616Y-95183871D01*
X132000437Y-95177340D01*
X132000436Y-95177335D01*
X131949420Y-95024422D01*
X131947102Y-95017474D01*
X131854797Y-94868311D01*
X131730653Y-94744383D01*
X131581329Y-94652339D01*
X131503482Y-94626518D01*
X131421366Y-94599281D01*
X131421364Y-94599281D01*
X131414835Y-94597115D01*
X131311231Y-94586500D01*
X130808904Y-94586500D01*
X130298770Y-94586501D01*
X130193871Y-94597384D01*
X130187340Y-94599563D01*
X130187335Y-94599564D01*
X130039189Y-94648990D01*
X130027474Y-94652898D01*
X129993915Y-94673665D01*
X129916637Y-94721486D01*
X129848185Y-94740324D01*
X129784218Y-94721602D01*
X129678968Y-94656725D01*
X129678966Y-94656724D01*
X129672738Y-94652885D01*
X129560634Y-94615702D01*
X129511389Y-94599368D01*
X129511387Y-94599368D01*
X129504861Y-94597203D01*
X129498025Y-94596503D01*
X129498022Y-94596502D01*
X129454969Y-94592091D01*
X129400400Y-94586500D01*
X128399600Y-94586500D01*
X128396354Y-94586837D01*
X128396350Y-94586837D01*
X128300692Y-94596762D01*
X128300688Y-94596763D01*
X128293834Y-94597474D01*
X128287298Y-94599655D01*
X128287296Y-94599655D01*
X128185845Y-94633502D01*
X128126054Y-94653450D01*
X127975652Y-94746522D01*
X127970479Y-94751704D01*
X127937153Y-94785088D01*
X127850695Y-94871697D01*
X127846855Y-94877927D01*
X127846854Y-94877928D01*
X127773822Y-94996408D01*
X127757885Y-95022262D01*
X127755581Y-95029209D01*
X127705420Y-95180441D01*
X127702203Y-95190139D01*
X127691500Y-95294600D01*
X127691500Y-95920400D01*
X127691837Y-95923646D01*
X127691837Y-95923650D01*
X127700756Y-96009607D01*
X127702474Y-96026166D01*
X127704655Y-96032702D01*
X127704655Y-96032704D01*
X127708627Y-96044610D01*
X127758450Y-96193946D01*
X127851522Y-96344348D01*
X127856704Y-96349521D01*
X127916113Y-96408827D01*
X127950192Y-96471110D01*
X127945189Y-96541930D01*
X127902691Y-96598803D01*
X127836193Y-96623671D01*
X127827095Y-96624000D01*
X127493760Y-96624000D01*
X127492441Y-96623993D01*
X127402279Y-96623049D01*
X127395393Y-96624538D01*
X127395391Y-96624538D01*
X127386063Y-96626555D01*
X127359903Y-96632211D01*
X127347337Y-96634269D01*
X127304245Y-96639103D01*
X127297594Y-96641419D01*
X127297590Y-96641420D01*
X127272570Y-96650133D01*
X127257757Y-96654296D01*
X127224990Y-96661381D01*
X127185689Y-96679707D01*
X127173906Y-96684492D01*
X127132948Y-96698755D01*
X127126971Y-96702490D01*
X127104516Y-96716521D01*
X127090999Y-96723860D01*
X127066981Y-96735060D01*
X127066977Y-96735062D01*
X127060598Y-96738037D01*
X127055034Y-96742353D01*
X127055032Y-96742354D01*
X127026340Y-96764609D01*
X127015885Y-96771903D01*
X126979124Y-96794874D01*
X126974127Y-96799836D01*
X126974126Y-96799837D01*
X126950321Y-96823476D01*
X126949696Y-96824061D01*
X126949030Y-96824578D01*
X126923040Y-96850568D01*
X126850418Y-96922685D01*
X126849760Y-96923722D01*
X126848657Y-96924951D01*
X125164842Y-98608766D01*
X125163905Y-98609694D01*
X125099493Y-98672771D01*
X125076002Y-98709221D01*
X125068583Y-98719546D01*
X125041524Y-98753443D01*
X125038459Y-98759784D01*
X125038458Y-98759785D01*
X125026928Y-98783637D01*
X125019399Y-98797054D01*
X125001235Y-98825238D01*
X124998827Y-98831855D01*
X124998824Y-98831860D01*
X124986408Y-98865973D01*
X124981447Y-98877716D01*
X124965646Y-98910403D01*
X124965644Y-98910408D01*
X124962579Y-98916749D01*
X124960996Y-98923607D01*
X124960995Y-98923609D01*
X124955035Y-98949426D01*
X124950668Y-98964169D01*
X124939197Y-98995685D01*
X124938314Y-99002675D01*
X124938312Y-99002683D01*
X124933762Y-99038701D01*
X124931526Y-99051253D01*
X124921776Y-99093485D01*
X124921751Y-99100531D01*
X124921751Y-99100534D01*
X124921634Y-99134056D01*
X124921605Y-99134938D01*
X124921500Y-99135769D01*
X124921500Y-99172572D01*
X124921143Y-99274870D01*
X124921411Y-99276070D01*
X124921500Y-99277707D01*
X124921500Y-101018709D01*
X124901498Y-101086830D01*
X124847842Y-101133323D01*
X124809108Y-101143972D01*
X124796914Y-101145297D01*
X124769684Y-101148255D01*
X124633295Y-101199385D01*
X124516739Y-101286739D01*
X124429385Y-101403295D01*
X124378255Y-101539684D01*
X124371500Y-101601866D01*
X124371500Y-103398134D01*
X119888500Y-103398134D01*
X119888500Y-96486695D01*
X120557251Y-96486695D01*
X120557548Y-96491848D01*
X120557548Y-96491851D01*
X120565641Y-96632209D01*
X120570110Y-96709715D01*
X120571247Y-96714761D01*
X120571248Y-96714767D01*
X120579155Y-96749851D01*
X120619222Y-96927639D01*
X120679014Y-97074890D01*
X120696662Y-97118351D01*
X120703266Y-97134616D01*
X120819987Y-97325088D01*
X120966250Y-97493938D01*
X121138126Y-97636632D01*
X121331000Y-97749338D01*
X121539692Y-97829030D01*
X121544760Y-97830061D01*
X121544763Y-97830062D01*
X121632411Y-97847894D01*
X121758597Y-97873567D01*
X121763772Y-97873757D01*
X121763774Y-97873757D01*
X121976673Y-97881564D01*
X121976677Y-97881564D01*
X121981837Y-97881753D01*
X121986957Y-97881097D01*
X121986959Y-97881097D01*
X122198288Y-97854025D01*
X122198289Y-97854025D01*
X122203416Y-97853368D01*
X122208366Y-97851883D01*
X122412429Y-97790661D01*
X122412434Y-97790659D01*
X122417384Y-97789174D01*
X122617994Y-97690896D01*
X122799860Y-97561173D01*
X122958096Y-97403489D01*
X123017594Y-97320689D01*
X123085435Y-97226277D01*
X123088453Y-97222077D01*
X123090746Y-97217437D01*
X123092446Y-97214608D01*
X123144674Y-97166518D01*
X123200451Y-97153500D01*
X124381233Y-97153500D01*
X124392416Y-97154027D01*
X124399909Y-97155702D01*
X124407835Y-97155453D01*
X124407836Y-97155453D01*
X124467986Y-97153562D01*
X124471945Y-97153500D01*
X124499856Y-97153500D01*
X124503791Y-97153003D01*
X124503856Y-97152995D01*
X124515693Y-97152062D01*
X124547951Y-97151048D01*
X124551970Y-97150922D01*
X124559889Y-97150673D01*
X124579343Y-97145021D01*
X124598700Y-97141013D01*
X124610930Y-97139468D01*
X124610931Y-97139468D01*
X124618797Y-97138474D01*
X124626168Y-97135555D01*
X124626170Y-97135555D01*
X124659912Y-97122196D01*
X124671142Y-97118351D01*
X124705983Y-97108229D01*
X124705984Y-97108229D01*
X124713593Y-97106018D01*
X124720412Y-97101985D01*
X124720417Y-97101983D01*
X124731028Y-97095707D01*
X124748776Y-97087012D01*
X124767617Y-97079552D01*
X124787987Y-97064753D01*
X124803387Y-97053564D01*
X124813307Y-97047048D01*
X124844535Y-97028580D01*
X124844538Y-97028578D01*
X124851362Y-97024542D01*
X124865683Y-97010221D01*
X124880717Y-96997380D01*
X124882432Y-96996134D01*
X124897107Y-96985472D01*
X124925298Y-96951395D01*
X124933288Y-96942616D01*
X126476275Y-95399630D01*
X126484561Y-95392090D01*
X126491040Y-95387978D01*
X126537666Y-95338326D01*
X126540420Y-95335485D01*
X126560157Y-95315748D01*
X126562637Y-95312551D01*
X126570342Y-95303529D01*
X126595181Y-95277078D01*
X126600608Y-95271299D01*
X126604427Y-95264353D01*
X126604429Y-95264350D01*
X126610370Y-95253544D01*
X126621221Y-95237025D01*
X126628780Y-95227279D01*
X126633636Y-95221019D01*
X126636781Y-95213750D01*
X126636784Y-95213746D01*
X126651196Y-95180441D01*
X126656413Y-95169791D01*
X126677717Y-95131038D01*
X126682755Y-95111415D01*
X126689159Y-95092712D01*
X126694055Y-95081398D01*
X126694055Y-95081397D01*
X126697203Y-95074123D01*
X126698442Y-95066300D01*
X126698445Y-95066290D01*
X126704121Y-95030454D01*
X126706527Y-95018834D01*
X126715550Y-94983689D01*
X126715550Y-94983688D01*
X126717522Y-94976008D01*
X126717522Y-94955754D01*
X126719073Y-94936043D01*
X126721002Y-94923864D01*
X126722242Y-94916035D01*
X126718081Y-94872016D01*
X126717522Y-94860159D01*
X126717522Y-91400572D01*
X126737524Y-91332451D01*
X126754427Y-91311477D01*
X126925780Y-91140124D01*
X126934070Y-91132580D01*
X126940551Y-91128467D01*
X126949990Y-91118416D01*
X126987191Y-91078800D01*
X126989946Y-91075958D01*
X127009668Y-91056236D01*
X127012145Y-91053043D01*
X127019850Y-91044022D01*
X127044692Y-91017567D01*
X127050119Y-91011788D01*
X127053940Y-91004838D01*
X127059879Y-90994035D01*
X127070735Y-90977508D01*
X127078290Y-90967769D01*
X127078291Y-90967767D01*
X127083147Y-90961507D01*
X127100707Y-90920927D01*
X127105924Y-90910279D01*
X127123408Y-90878476D01*
X127123409Y-90878474D01*
X127127228Y-90871527D01*
X127132266Y-90851904D01*
X127138670Y-90833201D01*
X127143566Y-90821887D01*
X127143566Y-90821886D01*
X127146714Y-90814612D01*
X127147953Y-90806789D01*
X127147956Y-90806779D01*
X127153632Y-90770943D01*
X127156038Y-90759323D01*
X127165061Y-90724178D01*
X127165061Y-90724177D01*
X127167033Y-90716497D01*
X127167033Y-90696243D01*
X127168584Y-90676532D01*
X127170513Y-90664353D01*
X127171753Y-90656524D01*
X127167592Y-90612505D01*
X127167033Y-90600648D01*
X127167033Y-89173062D01*
X127187035Y-89104941D01*
X127203940Y-89083964D01*
X127225503Y-89062402D01*
X127287816Y-89028379D01*
X127314596Y-89025500D01*
X127491733Y-89025500D01*
X127502916Y-89026027D01*
X127510409Y-89027702D01*
X127518335Y-89027453D01*
X127518336Y-89027453D01*
X127578486Y-89025562D01*
X127582445Y-89025500D01*
X127610356Y-89025500D01*
X127614291Y-89025003D01*
X127614356Y-89024995D01*
X127626193Y-89024062D01*
X127658451Y-89023048D01*
X127662470Y-89022922D01*
X127670389Y-89022673D01*
X127689843Y-89017021D01*
X127709200Y-89013013D01*
X127721430Y-89011468D01*
X127721431Y-89011468D01*
X127729297Y-89010474D01*
X127736668Y-89007555D01*
X127736670Y-89007555D01*
X127770412Y-88994196D01*
X127781642Y-88990351D01*
X127816483Y-88980229D01*
X127816484Y-88980229D01*
X127824093Y-88978018D01*
X127830912Y-88973985D01*
X127830917Y-88973983D01*
X127841528Y-88967707D01*
X127859276Y-88959012D01*
X127878117Y-88951552D01*
X127894077Y-88939957D01*
X127913887Y-88925564D01*
X127923807Y-88919048D01*
X127955035Y-88900580D01*
X127955038Y-88900578D01*
X127961862Y-88896542D01*
X127976183Y-88882221D01*
X127991217Y-88869380D01*
X128007607Y-88857472D01*
X128035798Y-88823395D01*
X128043788Y-88814616D01*
X128098000Y-88760404D01*
X128160312Y-88726378D01*
X128187095Y-88723499D01*
X128624884Y-88723499D01*
X128628969Y-88722961D01*
X128628973Y-88722961D01*
X128735663Y-88708916D01*
X128735665Y-88708916D01*
X128743850Y-88707838D01*
X128817863Y-88677181D01*
X128884248Y-88649684D01*
X128884250Y-88649683D01*
X128891876Y-88646524D01*
X129018987Y-88548987D01*
X129024013Y-88542437D01*
X129024016Y-88542434D01*
X129106992Y-88434297D01*
X129116524Y-88421875D01*
X129177838Y-88273850D01*
X129180209Y-88255840D01*
X129192962Y-88158972D01*
X129192962Y-88158971D01*
X129193500Y-88154885D01*
X129193499Y-87875116D01*
X129177838Y-87756150D01*
X129170411Y-87738219D01*
X129162821Y-87667630D01*
X129170411Y-87641780D01*
X129174678Y-87631480D01*
X129174679Y-87631477D01*
X129177838Y-87623850D01*
X129193500Y-87504885D01*
X129193499Y-87225116D01*
X129186111Y-87168990D01*
X129178916Y-87114337D01*
X129178916Y-87114335D01*
X129177838Y-87106150D01*
X129170411Y-87088219D01*
X129162821Y-87017630D01*
X129170411Y-86991780D01*
X129174678Y-86981480D01*
X129174679Y-86981477D01*
X129177838Y-86973850D01*
X129193500Y-86854885D01*
X129193499Y-86575116D01*
X129177838Y-86456150D01*
X129170411Y-86438219D01*
X129162821Y-86367630D01*
X129170411Y-86341780D01*
X129174678Y-86331480D01*
X129174679Y-86331477D01*
X129177838Y-86323850D01*
X129193500Y-86204885D01*
X129193499Y-85925116D01*
X129184981Y-85860405D01*
X129178916Y-85814337D01*
X129178916Y-85814335D01*
X129177838Y-85806150D01*
X129170411Y-85788219D01*
X129162821Y-85717630D01*
X129170411Y-85691780D01*
X129174678Y-85681480D01*
X129174679Y-85681477D01*
X129177838Y-85673850D01*
X129193500Y-85554885D01*
X129193500Y-85524500D01*
X129213502Y-85456379D01*
X129267158Y-85409886D01*
X129319500Y-85398500D01*
X129916405Y-85398500D01*
X129984526Y-85418502D01*
X130005501Y-85435405D01*
X130393596Y-85823501D01*
X130427621Y-85885813D01*
X130430500Y-85912596D01*
X130430500Y-88651406D01*
X130410498Y-88719527D01*
X130393595Y-88740501D01*
X130234501Y-88899595D01*
X130172189Y-88933621D01*
X130145406Y-88936500D01*
X129559600Y-88936500D01*
X129556354Y-88936837D01*
X129556350Y-88936837D01*
X129460692Y-88946762D01*
X129460688Y-88946763D01*
X129453834Y-88947474D01*
X129447298Y-88949655D01*
X129447296Y-88949655D01*
X129325316Y-88990351D01*
X129286054Y-89003450D01*
X129135652Y-89096522D01*
X129010695Y-89221697D01*
X129006855Y-89227927D01*
X129006854Y-89227928D01*
X129004992Y-89230949D01*
X129003181Y-89232578D01*
X129002317Y-89233673D01*
X129002130Y-89233525D01*
X128952220Y-89278442D01*
X128882148Y-89289866D01*
X128871535Y-89288080D01*
X128752944Y-89262872D01*
X128752939Y-89262872D01*
X128746487Y-89261500D01*
X128555513Y-89261500D01*
X128549061Y-89262872D01*
X128549056Y-89262872D01*
X128462113Y-89281353D01*
X128368712Y-89301206D01*
X128362682Y-89303891D01*
X128362681Y-89303891D01*
X128200278Y-89376197D01*
X128200276Y-89376198D01*
X128194248Y-89378882D01*
X128188907Y-89382762D01*
X128188906Y-89382763D01*
X128162689Y-89401811D01*
X128039747Y-89491134D01*
X128035326Y-89496044D01*
X128035325Y-89496045D01*
X127939854Y-89602077D01*
X127911960Y-89633056D01*
X127816473Y-89798444D01*
X127757458Y-89980072D01*
X127737496Y-90170000D01*
X127738186Y-90176565D01*
X127751381Y-90302104D01*
X127757458Y-90359928D01*
X127816473Y-90541556D01*
X127819776Y-90547278D01*
X127819777Y-90547279D01*
X127839903Y-90582138D01*
X127911960Y-90706944D01*
X127916378Y-90711851D01*
X127916379Y-90711852D01*
X128015455Y-90821887D01*
X128039747Y-90848866D01*
X128060368Y-90863848D01*
X128170400Y-90943791D01*
X128194248Y-90961118D01*
X128200276Y-90963802D01*
X128200278Y-90963803D01*
X128292445Y-91004838D01*
X128368712Y-91038794D01*
X128436054Y-91053108D01*
X128549056Y-91077128D01*
X128549061Y-91077128D01*
X128555513Y-91078500D01*
X128746487Y-91078500D01*
X128752939Y-91077128D01*
X128752944Y-91077128D01*
X128838043Y-91059039D01*
X128871676Y-91051890D01*
X128942466Y-91057292D01*
X128999098Y-91100109D01*
X129005006Y-91108818D01*
X129011522Y-91119348D01*
X129136697Y-91244305D01*
X129142927Y-91248145D01*
X129142928Y-91248146D01*
X129280090Y-91332694D01*
X129287262Y-91337115D01*
X129367005Y-91363564D01*
X129448611Y-91390632D01*
X129448613Y-91390632D01*
X129455139Y-91392797D01*
X129461975Y-91393497D01*
X129461978Y-91393498D01*
X129505031Y-91397909D01*
X129559600Y-91403500D01*
X130160400Y-91403500D01*
X130163646Y-91403163D01*
X130163650Y-91403163D01*
X130259308Y-91393238D01*
X130259312Y-91393237D01*
X130266166Y-91392526D01*
X130272702Y-91390345D01*
X130272704Y-91390345D01*
X130404806Y-91346272D01*
X130433946Y-91336550D01*
X130584348Y-91243478D01*
X130709305Y-91118303D01*
X130711906Y-91114084D01*
X130769030Y-91073583D01*
X130839953Y-91070351D01*
X130901365Y-91105976D01*
X130907922Y-91113530D01*
X130911522Y-91119348D01*
X131036697Y-91244305D01*
X131042927Y-91248145D01*
X131042928Y-91248146D01*
X131180090Y-91332694D01*
X131187262Y-91337115D01*
X131267005Y-91363564D01*
X131348611Y-91390632D01*
X131348613Y-91390632D01*
X131355139Y-91392797D01*
X131361975Y-91393497D01*
X131361978Y-91393498D01*
X131405031Y-91397909D01*
X131459600Y-91403500D01*
X132060400Y-91403500D01*
X132063646Y-91403163D01*
X132063650Y-91403163D01*
X132159308Y-91393238D01*
X132159312Y-91393237D01*
X132166166Y-91392526D01*
X132172702Y-91390345D01*
X132172704Y-91390345D01*
X132304806Y-91346272D01*
X132333946Y-91336550D01*
X132484348Y-91243478D01*
X132609305Y-91118303D01*
X132609418Y-91118416D01*
X132664421Y-91079419D01*
X132731579Y-91075327D01*
X132740046Y-91077127D01*
X132740061Y-91077129D01*
X132746513Y-91078500D01*
X132913000Y-91078500D01*
X132981121Y-91098502D01*
X133027614Y-91152158D01*
X133039000Y-91204500D01*
X133039000Y-95493733D01*
X133038473Y-95504916D01*
X133036798Y-95512409D01*
X133037047Y-95520335D01*
X133037047Y-95520336D01*
X133038938Y-95580486D01*
X133039000Y-95584445D01*
X133039000Y-95612356D01*
X133039497Y-95616290D01*
X133039497Y-95616291D01*
X133039505Y-95616356D01*
X133040438Y-95628193D01*
X133041827Y-95672389D01*
X133046443Y-95688277D01*
X133047478Y-95691839D01*
X133051487Y-95711200D01*
X133054026Y-95731297D01*
X133056945Y-95738668D01*
X133056945Y-95738670D01*
X133070304Y-95772412D01*
X133074149Y-95783642D01*
X133086482Y-95826093D01*
X133090515Y-95832912D01*
X133090517Y-95832917D01*
X133096793Y-95843528D01*
X133105488Y-95861276D01*
X133112948Y-95880117D01*
X133117610Y-95886533D01*
X133117610Y-95886534D01*
X133138936Y-95915887D01*
X133145452Y-95925807D01*
X133167958Y-95963862D01*
X133182279Y-95978183D01*
X133195119Y-95993216D01*
X133207028Y-96009607D01*
X133241105Y-96037798D01*
X133249884Y-96045788D01*
X134116343Y-96912247D01*
X134123887Y-96920537D01*
X134128000Y-96927018D01*
X134133777Y-96932443D01*
X134177667Y-96973658D01*
X134180509Y-96976413D01*
X134200230Y-96996134D01*
X134203425Y-96998612D01*
X134212447Y-97006318D01*
X134244679Y-97036586D01*
X134251628Y-97040406D01*
X134262432Y-97046346D01*
X134278956Y-97057199D01*
X134294959Y-97069613D01*
X134335543Y-97087176D01*
X134346173Y-97092383D01*
X134384940Y-97113695D01*
X134392617Y-97115666D01*
X134392622Y-97115668D01*
X134404558Y-97118732D01*
X134423266Y-97125137D01*
X134441855Y-97133181D01*
X134449680Y-97134420D01*
X134449682Y-97134421D01*
X134485519Y-97140097D01*
X134497140Y-97142504D01*
X134528959Y-97150673D01*
X134539970Y-97153500D01*
X134560231Y-97153500D01*
X134579940Y-97155051D01*
X134599943Y-97158219D01*
X134607835Y-97157473D01*
X134613062Y-97156979D01*
X134643954Y-97154059D01*
X134655811Y-97153500D01*
X138215500Y-97153500D01*
X138283621Y-97173502D01*
X138330114Y-97227158D01*
X138341500Y-97279500D01*
X138341500Y-97418134D01*
X138348255Y-97480316D01*
X138399385Y-97616705D01*
X138486739Y-97733261D01*
X138603295Y-97820615D01*
X138739684Y-97871745D01*
X138801866Y-97878500D01*
X140598134Y-97878500D01*
X140660316Y-97871745D01*
X140796705Y-97820615D01*
X140913261Y-97733261D01*
X141000615Y-97616705D01*
X141051745Y-97480316D01*
X141058500Y-97418134D01*
X141058500Y-95621866D01*
X141051745Y-95559684D01*
X141000615Y-95423295D01*
X140913261Y-95306739D01*
X140796705Y-95219385D01*
X140769905Y-95209338D01*
X140678203Y-95174960D01*
X140621439Y-95132318D01*
X140596739Y-95065756D01*
X140611947Y-94996408D01*
X140633493Y-94967727D01*
X140665288Y-94936043D01*
X140738096Y-94863489D01*
X140797594Y-94780689D01*
X140865435Y-94686277D01*
X140868453Y-94682077D01*
X140872145Y-94674608D01*
X140965136Y-94486453D01*
X140965137Y-94486451D01*
X140967430Y-94481811D01*
X141032370Y-94268069D01*
X141061529Y-94046590D01*
X141063156Y-93980000D01*
X141044852Y-93757361D01*
X140990431Y-93540702D01*
X140901354Y-93335840D01*
X140780014Y-93148277D01*
X140629670Y-92983051D01*
X140625619Y-92979852D01*
X140625615Y-92979848D01*
X140458414Y-92847800D01*
X140458410Y-92847798D01*
X140454359Y-92844598D01*
X140413053Y-92821796D01*
X140363084Y-92771364D01*
X140348312Y-92701921D01*
X140373428Y-92635516D01*
X140400780Y-92608909D01*
X140444603Y-92577650D01*
X140579860Y-92481173D01*
X140738096Y-92323489D01*
X140797594Y-92240689D01*
X140865435Y-92146277D01*
X140868453Y-92142077D01*
X140872145Y-92134608D01*
X140965136Y-91946453D01*
X140965137Y-91946451D01*
X140967430Y-91941811D01*
X141032370Y-91728069D01*
X141061529Y-91506590D01*
X141061676Y-91500580D01*
X141063074Y-91443365D01*
X141063074Y-91443361D01*
X141063156Y-91440000D01*
X141044852Y-91217361D01*
X140990431Y-91000702D01*
X140901354Y-90795840D01*
X140843557Y-90706500D01*
X140782822Y-90612617D01*
X140782820Y-90612614D01*
X140780014Y-90608277D01*
X140629670Y-90443051D01*
X140625619Y-90439852D01*
X140625615Y-90439848D01*
X140458414Y-90307800D01*
X140458410Y-90307798D01*
X140454359Y-90304598D01*
X140413053Y-90281796D01*
X140363084Y-90231364D01*
X140348312Y-90161921D01*
X140373428Y-90095516D01*
X140400780Y-90068909D01*
X140444603Y-90037650D01*
X140579860Y-89941173D01*
X140738096Y-89783489D01*
X140797594Y-89700689D01*
X140865435Y-89606277D01*
X140868453Y-89602077D01*
X140871408Y-89596099D01*
X140965136Y-89406453D01*
X140965137Y-89406451D01*
X140967430Y-89401811D01*
X141003625Y-89282681D01*
X141030865Y-89193023D01*
X141030865Y-89193021D01*
X141032370Y-89188069D01*
X141061529Y-88966590D01*
X141061825Y-88954469D01*
X141063074Y-88903365D01*
X141063074Y-88903361D01*
X141063156Y-88900000D01*
X141044852Y-88677361D01*
X140990431Y-88460702D01*
X140901354Y-88255840D01*
X140780014Y-88068277D01*
X140629670Y-87903051D01*
X140625619Y-87899852D01*
X140625615Y-87899848D01*
X140458414Y-87767800D01*
X140458410Y-87767798D01*
X140454359Y-87764598D01*
X140413053Y-87741796D01*
X140363084Y-87691364D01*
X140348312Y-87621921D01*
X140373428Y-87555516D01*
X140400780Y-87528909D01*
X140444603Y-87497650D01*
X140579860Y-87401173D01*
X140738096Y-87243489D01*
X140754237Y-87221027D01*
X140865435Y-87066277D01*
X140868453Y-87062077D01*
X140872145Y-87054608D01*
X140965136Y-86866453D01*
X140965137Y-86866451D01*
X140967430Y-86861811D01*
X141032370Y-86648069D01*
X141061529Y-86426590D01*
X141063156Y-86360000D01*
X141044852Y-86137361D01*
X140990431Y-85920702D01*
X140901354Y-85715840D01*
X140821298Y-85592092D01*
X140782822Y-85532617D01*
X140782820Y-85532614D01*
X140780014Y-85528277D01*
X140629670Y-85363051D01*
X140625619Y-85359852D01*
X140625615Y-85359848D01*
X140458414Y-85227800D01*
X140458410Y-85227798D01*
X140454359Y-85224598D01*
X140413053Y-85201796D01*
X140363084Y-85151364D01*
X140348312Y-85081921D01*
X140373428Y-85015516D01*
X140400780Y-84988909D01*
X140444603Y-84957650D01*
X140579860Y-84861173D01*
X140738096Y-84703489D01*
X140797594Y-84620689D01*
X140865435Y-84526277D01*
X140868453Y-84522077D01*
X140872145Y-84514608D01*
X140965136Y-84326453D01*
X140965137Y-84326451D01*
X140967430Y-84321811D01*
X141032370Y-84108069D01*
X141061529Y-83886590D01*
X141063156Y-83820000D01*
X141044852Y-83597361D01*
X140990431Y-83380702D01*
X140901354Y-83175840D01*
X140840310Y-83081480D01*
X140782822Y-82992617D01*
X140782820Y-82992614D01*
X140780014Y-82988277D01*
X140629670Y-82823051D01*
X140625619Y-82819852D01*
X140625615Y-82819848D01*
X140458414Y-82687800D01*
X140458410Y-82687798D01*
X140454359Y-82684598D01*
X140413053Y-82661796D01*
X140363084Y-82611364D01*
X140348312Y-82541921D01*
X140373428Y-82475516D01*
X140400780Y-82448909D01*
X140447391Y-82415662D01*
X140579860Y-82321173D01*
X140600342Y-82300763D01*
X140734435Y-82167137D01*
X140738096Y-82163489D01*
X140797594Y-82080689D01*
X140865435Y-81986277D01*
X140868453Y-81982077D01*
X140872145Y-81974608D01*
X140965136Y-81786453D01*
X140965137Y-81786451D01*
X140967430Y-81781811D01*
X141032370Y-81568069D01*
X141061529Y-81346590D01*
X141063156Y-81280000D01*
X141044852Y-81057361D01*
X140990431Y-80840702D01*
X140901354Y-80635840D01*
X140839676Y-80540500D01*
X140782822Y-80452617D01*
X140782820Y-80452614D01*
X140780014Y-80448277D01*
X140629670Y-80283051D01*
X140625619Y-80279852D01*
X140625615Y-80279848D01*
X140458414Y-80147800D01*
X140458410Y-80147798D01*
X140454359Y-80144598D01*
X140413053Y-80121796D01*
X140363084Y-80071364D01*
X140348312Y-80001921D01*
X140373428Y-79935516D01*
X140400780Y-79908909D01*
X140463039Y-79864500D01*
X140579860Y-79781173D01*
X140586557Y-79774500D01*
X140694294Y-79667138D01*
X140738096Y-79623489D01*
X140797594Y-79540689D01*
X140865435Y-79446277D01*
X140868453Y-79442077D01*
X140872145Y-79434608D01*
X140965136Y-79246453D01*
X140965137Y-79246451D01*
X140967430Y-79241811D01*
X141032370Y-79028069D01*
X141061529Y-78806590D01*
X141063156Y-78740000D01*
X141044852Y-78517361D01*
X140990431Y-78300702D01*
X140901354Y-78095840D01*
X140830218Y-77985881D01*
X140782822Y-77912617D01*
X140782820Y-77912614D01*
X140780014Y-77908277D01*
X140629670Y-77743051D01*
X140625619Y-77739852D01*
X140625615Y-77739848D01*
X140458414Y-77607800D01*
X140458410Y-77607798D01*
X140454359Y-77604598D01*
X140413053Y-77581796D01*
X140363084Y-77531364D01*
X140348312Y-77461921D01*
X140373428Y-77395516D01*
X140400780Y-77368909D01*
X140444603Y-77337650D01*
X140579860Y-77241173D01*
X140738096Y-77083489D01*
X140797594Y-77000689D01*
X140865435Y-76906277D01*
X140868453Y-76902077D01*
X140872145Y-76894608D01*
X140965136Y-76706453D01*
X140965137Y-76706451D01*
X140967430Y-76701811D01*
X141032370Y-76488069D01*
X141061529Y-76266590D01*
X141063156Y-76200000D01*
X141044852Y-75977361D01*
X140990431Y-75760702D01*
X140901354Y-75555840D01*
X140811780Y-75417379D01*
X140782822Y-75372617D01*
X140782820Y-75372614D01*
X140780014Y-75368277D01*
X140629670Y-75203051D01*
X140625619Y-75199852D01*
X140625615Y-75199848D01*
X140458414Y-75067800D01*
X140458410Y-75067798D01*
X140454359Y-75064598D01*
X140413053Y-75041796D01*
X140363084Y-74991364D01*
X140348312Y-74921921D01*
X140373428Y-74855516D01*
X140400780Y-74828909D01*
X140466177Y-74782262D01*
X140579860Y-74701173D01*
X140616964Y-74664199D01*
X140688903Y-74592510D01*
X140738096Y-74543489D01*
X140774043Y-74493464D01*
X140865435Y-74366277D01*
X140868453Y-74362077D01*
X140872611Y-74353665D01*
X140965136Y-74166453D01*
X140965137Y-74166451D01*
X140967430Y-74161811D01*
X141032370Y-73948069D01*
X141061529Y-73726590D01*
X141063156Y-73660000D01*
X141044852Y-73437361D01*
X140990431Y-73220702D01*
X140901354Y-73015840D01*
X140843845Y-72926944D01*
X140782822Y-72832617D01*
X140782820Y-72832614D01*
X140780014Y-72828277D01*
X140629670Y-72663051D01*
X140625619Y-72659852D01*
X140625615Y-72659848D01*
X140458414Y-72527800D01*
X140458410Y-72527798D01*
X140454359Y-72524598D01*
X140258789Y-72416638D01*
X140253920Y-72414914D01*
X140253916Y-72414912D01*
X140053087Y-72343795D01*
X140053083Y-72343794D01*
X140048212Y-72342069D01*
X140043119Y-72341162D01*
X140043116Y-72341161D01*
X139833373Y-72303800D01*
X139833367Y-72303799D01*
X139828284Y-72302894D01*
X139754452Y-72301992D01*
X139610081Y-72300228D01*
X139610079Y-72300228D01*
X139604911Y-72300165D01*
X139384091Y-72333955D01*
X139171756Y-72403357D01*
X138973607Y-72506507D01*
X138969474Y-72509610D01*
X138969471Y-72509612D01*
X138806323Y-72632107D01*
X138794965Y-72640635D01*
X138640629Y-72802138D01*
X138637715Y-72806410D01*
X138637714Y-72806411D01*
X138525095Y-72971504D01*
X138470184Y-73016507D01*
X138421007Y-73026500D01*
X137238763Y-73026500D01*
X137227579Y-73025973D01*
X137220091Y-73024299D01*
X137212168Y-73024548D01*
X137152033Y-73026438D01*
X137148075Y-73026500D01*
X137120144Y-73026500D01*
X137116229Y-73026995D01*
X137116225Y-73026995D01*
X137116167Y-73027003D01*
X137116138Y-73027006D01*
X137104296Y-73027939D01*
X137060110Y-73029327D01*
X137042744Y-73034372D01*
X137040658Y-73034978D01*
X137021306Y-73038986D01*
X137009068Y-73040532D01*
X137009066Y-73040533D01*
X137001203Y-73041526D01*
X136960086Y-73057806D01*
X136948885Y-73061641D01*
X136906406Y-73073982D01*
X136899587Y-73078015D01*
X136899582Y-73078017D01*
X136888971Y-73084293D01*
X136871221Y-73092990D01*
X136852383Y-73100448D01*
X136845967Y-73105109D01*
X136845966Y-73105110D01*
X136816625Y-73126428D01*
X136806701Y-73132947D01*
X136775460Y-73151422D01*
X136775455Y-73151426D01*
X136768637Y-73155458D01*
X136754313Y-73169782D01*
X136739281Y-73182621D01*
X136722893Y-73194528D01*
X136705168Y-73215954D01*
X136694712Y-73228593D01*
X136686722Y-73237373D01*
X135593236Y-74330859D01*
X135584950Y-74338399D01*
X135578471Y-74342511D01*
X135573046Y-74348288D01*
X135531846Y-74392162D01*
X135529091Y-74395004D01*
X135509354Y-74414741D01*
X135506874Y-74417938D01*
X135499171Y-74426958D01*
X135468903Y-74459190D01*
X135465084Y-74466136D01*
X135465082Y-74466139D01*
X135459141Y-74476945D01*
X135448290Y-74493464D01*
X135435875Y-74509470D01*
X135432730Y-74516739D01*
X135432727Y-74516743D01*
X135418315Y-74550048D01*
X135413098Y-74560698D01*
X135391794Y-74599451D01*
X135389823Y-74607126D01*
X135389823Y-74607127D01*
X135386756Y-74619073D01*
X135380352Y-74637777D01*
X135372308Y-74656366D01*
X135371069Y-74664189D01*
X135371066Y-74664199D01*
X135365390Y-74700035D01*
X135362984Y-74711655D01*
X135359867Y-74723797D01*
X135351989Y-74754481D01*
X135351989Y-74774735D01*
X135350438Y-74794445D01*
X135347269Y-74814454D01*
X135348015Y-74822346D01*
X135351430Y-74858472D01*
X135351989Y-74870330D01*
X135351989Y-76678199D01*
X135331987Y-76746320D01*
X135315084Y-76767294D01*
X134159227Y-77923150D01*
X134150941Y-77930690D01*
X134144462Y-77934802D01*
X134139037Y-77940579D01*
X134097837Y-77984453D01*
X134095082Y-77987295D01*
X134075345Y-78007032D01*
X134072865Y-78010229D01*
X134065162Y-78019249D01*
X134034894Y-78051481D01*
X134031075Y-78058427D01*
X134031073Y-78058430D01*
X134025132Y-78069236D01*
X134014281Y-78085755D01*
X134001866Y-78101761D01*
X133998721Y-78109030D01*
X133998718Y-78109034D01*
X133984306Y-78142339D01*
X133979089Y-78152989D01*
X133957785Y-78191742D01*
X133955814Y-78199417D01*
X133955814Y-78199418D01*
X133952747Y-78211364D01*
X133946343Y-78230068D01*
X133938299Y-78248657D01*
X133937060Y-78256480D01*
X133937057Y-78256490D01*
X133931381Y-78292326D01*
X133928975Y-78303946D01*
X133919984Y-78338968D01*
X133917980Y-78346772D01*
X133917980Y-78367026D01*
X133916429Y-78386736D01*
X133913260Y-78406745D01*
X133914006Y-78414637D01*
X133917421Y-78450763D01*
X133917980Y-78462621D01*
X133917980Y-81330500D01*
X133897978Y-81398621D01*
X133844322Y-81445114D01*
X133791980Y-81456500D01*
X133024357Y-81456501D01*
X132995116Y-81456501D01*
X132991031Y-81457039D01*
X132991027Y-81457039D01*
X132884337Y-81471084D01*
X132884335Y-81471084D01*
X132876150Y-81472162D01*
X132802137Y-81502819D01*
X132735752Y-81530316D01*
X132735750Y-81530317D01*
X132728124Y-81533476D01*
X132721574Y-81538502D01*
X132689728Y-81562939D01*
X132601013Y-81631013D01*
X132595987Y-81637563D01*
X132595984Y-81637566D01*
X132582701Y-81654877D01*
X132503476Y-81758125D01*
X132442162Y-81906150D01*
X132441084Y-81914337D01*
X132441084Y-81914338D01*
X132433274Y-81973665D01*
X132426500Y-82025115D01*
X132426501Y-82304884D01*
X132427039Y-82308969D01*
X132427039Y-82308973D01*
X132441084Y-82415662D01*
X132442162Y-82423850D01*
X132449589Y-82441780D01*
X132457179Y-82512370D01*
X132449589Y-82538220D01*
X132445322Y-82548520D01*
X132445321Y-82548523D01*
X132442162Y-82556150D01*
X132426500Y-82675115D01*
X132426501Y-82954884D01*
X132442162Y-83073850D01*
X132449589Y-83091780D01*
X132457179Y-83162370D01*
X132449589Y-83188220D01*
X132445322Y-83198520D01*
X132445321Y-83198523D01*
X132442162Y-83206150D01*
X132426500Y-83325115D01*
X132426501Y-83604884D01*
X132427039Y-83608969D01*
X132427039Y-83608973D01*
X132433935Y-83661357D01*
X132442162Y-83723850D01*
X132445322Y-83731478D01*
X132449589Y-83741780D01*
X132457179Y-83812370D01*
X132449590Y-83838218D01*
X132442162Y-83856150D01*
X132441084Y-83864338D01*
X132438155Y-83886590D01*
X132426500Y-83975115D01*
X132426501Y-84254884D01*
X132427039Y-84258969D01*
X132427039Y-84258973D01*
X132441084Y-84365663D01*
X132442162Y-84373850D01*
X132445322Y-84381478D01*
X132449589Y-84391780D01*
X132457179Y-84462370D01*
X132449590Y-84488218D01*
X132442162Y-84506150D01*
X132426500Y-84625115D01*
X132426501Y-84904884D01*
X132427039Y-84908968D01*
X132427039Y-84908974D01*
X132437524Y-84988620D01*
X132426584Y-85058769D01*
X132379455Y-85111867D01*
X132311101Y-85131056D01*
X132243223Y-85110244D01*
X132226220Y-85095923D01*
X132225472Y-85094893D01*
X132191395Y-85066702D01*
X132182616Y-85058712D01*
X130846652Y-83722747D01*
X130839112Y-83714461D01*
X130835000Y-83707982D01*
X130785348Y-83661356D01*
X130782507Y-83658602D01*
X130762770Y-83638865D01*
X130759573Y-83636385D01*
X130750551Y-83628680D01*
X130724100Y-83603841D01*
X130718321Y-83598414D01*
X130711375Y-83594595D01*
X130711372Y-83594593D01*
X130700566Y-83588652D01*
X130684047Y-83577801D01*
X130683583Y-83577441D01*
X130668041Y-83565386D01*
X130660772Y-83562241D01*
X130660768Y-83562238D01*
X130627463Y-83547826D01*
X130616813Y-83542609D01*
X130578060Y-83521305D01*
X130558437Y-83516267D01*
X130539734Y-83509863D01*
X130528420Y-83504967D01*
X130528419Y-83504967D01*
X130521145Y-83501819D01*
X130513322Y-83500580D01*
X130513312Y-83500577D01*
X130477476Y-83494901D01*
X130465856Y-83492495D01*
X130430711Y-83483472D01*
X130430710Y-83483472D01*
X130423030Y-83481500D01*
X130402776Y-83481500D01*
X130383065Y-83479949D01*
X130370886Y-83478020D01*
X130363057Y-83476780D01*
X130355165Y-83477526D01*
X130319039Y-83480941D01*
X130307181Y-83481500D01*
X129319499Y-83481500D01*
X129251378Y-83461498D01*
X129204885Y-83407842D01*
X129193499Y-83355500D01*
X129193499Y-83325116D01*
X129182860Y-83244293D01*
X129178916Y-83214337D01*
X129178916Y-83214335D01*
X129177838Y-83206150D01*
X129170411Y-83188219D01*
X129162821Y-83117630D01*
X129170411Y-83091780D01*
X129174678Y-83081480D01*
X129174679Y-83081477D01*
X129177838Y-83073850D01*
X129193500Y-82954885D01*
X129193499Y-82675116D01*
X129192775Y-82669612D01*
X129178916Y-82564337D01*
X129178916Y-82564335D01*
X129177838Y-82556150D01*
X129170411Y-82538219D01*
X129162821Y-82467630D01*
X129170411Y-82441780D01*
X129171366Y-82439476D01*
X129174679Y-82431478D01*
X129174679Y-82431477D01*
X129177838Y-82423850D01*
X129193500Y-82304885D01*
X129193499Y-82025116D01*
X129187834Y-81982077D01*
X129178916Y-81914337D01*
X129178916Y-81914335D01*
X129177838Y-81906150D01*
X129155104Y-81851265D01*
X129147515Y-81780675D01*
X129179294Y-81717188D01*
X129244915Y-81679886D01*
X129263603Y-81675850D01*
X129417784Y-81624412D01*
X129430962Y-81618239D01*
X129568807Y-81532937D01*
X129580208Y-81523901D01*
X129694739Y-81409171D01*
X129703751Y-81397760D01*
X129788816Y-81259757D01*
X129794963Y-81246576D01*
X129846138Y-81092290D01*
X129849005Y-81078914D01*
X129858672Y-80984562D01*
X129859000Y-80978146D01*
X129859000Y-80940615D01*
X129854525Y-80925376D01*
X129853135Y-80924171D01*
X129845452Y-80922500D01*
X128523000Y-80922500D01*
X128454879Y-80902498D01*
X128408386Y-80848842D01*
X128397000Y-80796500D01*
X128397000Y-80540500D01*
X128417002Y-80472379D01*
X128470658Y-80425886D01*
X128523000Y-80414500D01*
X129840884Y-80414500D01*
X129856123Y-80410025D01*
X129857328Y-80408635D01*
X129858999Y-80400952D01*
X129858999Y-80358905D01*
X129858662Y-80352386D01*
X129848743Y-80256794D01*
X129845851Y-80243400D01*
X129794412Y-80089216D01*
X129788239Y-80076038D01*
X129702937Y-79938193D01*
X129693901Y-79926792D01*
X129612538Y-79845570D01*
X129578459Y-79783287D01*
X129583462Y-79712467D01*
X129612383Y-79667380D01*
X129695130Y-79584488D01*
X129695134Y-79584483D01*
X129700305Y-79579303D01*
X129704148Y-79573069D01*
X129726454Y-79536883D01*
X129779226Y-79489390D01*
X129833713Y-79477000D01*
X131643733Y-79477000D01*
X131654916Y-79477527D01*
X131662409Y-79479202D01*
X131670335Y-79478953D01*
X131670336Y-79478953D01*
X131730486Y-79477062D01*
X131734445Y-79477000D01*
X131762356Y-79477000D01*
X131766291Y-79476503D01*
X131766356Y-79476495D01*
X131778193Y-79475562D01*
X131810451Y-79474548D01*
X131814470Y-79474422D01*
X131822389Y-79474173D01*
X131841843Y-79468521D01*
X131861200Y-79464513D01*
X131873430Y-79462968D01*
X131873431Y-79462968D01*
X131881297Y-79461974D01*
X131888668Y-79459055D01*
X131888670Y-79459055D01*
X131922412Y-79445696D01*
X131933642Y-79441851D01*
X131968483Y-79431729D01*
X131968484Y-79431729D01*
X131976093Y-79429518D01*
X131982912Y-79425485D01*
X131982917Y-79425483D01*
X131993528Y-79419207D01*
X132011281Y-79410509D01*
X132029371Y-79403347D01*
X132075751Y-79394500D01*
X132175487Y-79394500D01*
X132181939Y-79393128D01*
X132181944Y-79393128D01*
X132274284Y-79373500D01*
X132362288Y-79354794D01*
X132373440Y-79349829D01*
X132530722Y-79279803D01*
X132530724Y-79279802D01*
X132536752Y-79277118D01*
X132691253Y-79164866D01*
X132809965Y-79033023D01*
X132814621Y-79027852D01*
X132814622Y-79027851D01*
X132819040Y-79022944D01*
X132914527Y-78857556D01*
X132973542Y-78675928D01*
X132978798Y-78625925D01*
X132992814Y-78492565D01*
X132993504Y-78486000D01*
X132990422Y-78456677D01*
X132974232Y-78302635D01*
X132974232Y-78302633D01*
X132973542Y-78296072D01*
X132914527Y-78114444D01*
X132907932Y-78103020D01*
X132854317Y-78010158D01*
X132819040Y-77949056D01*
X132812058Y-77941301D01*
X132695675Y-77812045D01*
X132695674Y-77812044D01*
X132691253Y-77807134D01*
X132567924Y-77717530D01*
X132542094Y-77698763D01*
X132542093Y-77698762D01*
X132536752Y-77694882D01*
X132530724Y-77692198D01*
X132530722Y-77692197D01*
X132368319Y-77619891D01*
X132368318Y-77619891D01*
X132362288Y-77617206D01*
X132268887Y-77597353D01*
X132181944Y-77578872D01*
X132181939Y-77578872D01*
X132175487Y-77577500D01*
X131984513Y-77577500D01*
X131978061Y-77578872D01*
X131978056Y-77578872D01*
X131891113Y-77597353D01*
X131797712Y-77617206D01*
X131791682Y-77619891D01*
X131791681Y-77619891D01*
X131629278Y-77692197D01*
X131629276Y-77692198D01*
X131623248Y-77694882D01*
X131617907Y-77698762D01*
X131617906Y-77698763D01*
X131592076Y-77717530D01*
X131468747Y-77807134D01*
X131464326Y-77812044D01*
X131464325Y-77812045D01*
X131347943Y-77941301D01*
X131340960Y-77949056D01*
X131305683Y-78010158D01*
X131252069Y-78103020D01*
X131245473Y-78114444D01*
X131243432Y-78120727D01*
X131242715Y-78122933D01*
X131241954Y-78124046D01*
X131240747Y-78126757D01*
X131240251Y-78126536D01*
X131202643Y-78181540D01*
X131137247Y-78209178D01*
X131122881Y-78210000D01*
X129833634Y-78210000D01*
X129765513Y-78189998D01*
X129726490Y-78150303D01*
X129726378Y-78150121D01*
X129699478Y-78106652D01*
X129574303Y-77981695D01*
X129568072Y-77977854D01*
X129429968Y-77892725D01*
X129429966Y-77892724D01*
X129423738Y-77888885D01*
X129263254Y-77835655D01*
X129262389Y-77835368D01*
X129262387Y-77835368D01*
X129255861Y-77833203D01*
X129249025Y-77832503D01*
X129249022Y-77832502D01*
X129205969Y-77828091D01*
X129151400Y-77822500D01*
X128150600Y-77822500D01*
X128147354Y-77822837D01*
X128147350Y-77822837D01*
X128051692Y-77832762D01*
X128051688Y-77832763D01*
X128044834Y-77833474D01*
X128038298Y-77835655D01*
X128038296Y-77835655D01*
X127935850Y-77869834D01*
X127877054Y-77889450D01*
X127849934Y-77906233D01*
X127781484Y-77925070D01*
X127732383Y-77914195D01*
X127641859Y-77873891D01*
X127641858Y-77873891D01*
X127635828Y-77871206D01*
X127542428Y-77851353D01*
X127455484Y-77832872D01*
X127455479Y-77832872D01*
X127449027Y-77831500D01*
X127388540Y-77831500D01*
X127320419Y-77811498D01*
X127273926Y-77757842D01*
X127262540Y-77705500D01*
X127262540Y-76760000D01*
X127282542Y-76691879D01*
X127336198Y-76645386D01*
X127388540Y-76634000D01*
X127489885Y-76634000D01*
X127505124Y-76629525D01*
X127506329Y-76628135D01*
X127508000Y-76620452D01*
X127508000Y-75498000D01*
X127528002Y-75429879D01*
X127581658Y-75383386D01*
X127634000Y-75372000D01*
X127890000Y-75372000D01*
X127958121Y-75392002D01*
X128004614Y-75445658D01*
X128016000Y-75498000D01*
X128016000Y-76615884D01*
X128020475Y-76631123D01*
X128021865Y-76632328D01*
X128029548Y-76633999D01*
X128284095Y-76633999D01*
X128290614Y-76633662D01*
X128386206Y-76623743D01*
X128399600Y-76620851D01*
X128553784Y-76569412D01*
X128566962Y-76563239D01*
X128704807Y-76477937D01*
X128716208Y-76468901D01*
X128830739Y-76354171D01*
X128839751Y-76342760D01*
X128924816Y-76204757D01*
X128930964Y-76191574D01*
X128933408Y-76184205D01*
X128973838Y-76125845D01*
X129039402Y-76098608D01*
X129109284Y-76111141D01*
X129161296Y-76159466D01*
X129179001Y-76223872D01*
X129179001Y-76264984D01*
X129179195Y-76269920D01*
X129181430Y-76298336D01*
X129183730Y-76310931D01*
X129226107Y-76456790D01*
X129232352Y-76471221D01*
X129308911Y-76600678D01*
X129318551Y-76613104D01*
X129424896Y-76719449D01*
X129437322Y-76729089D01*
X129566779Y-76805648D01*
X129581210Y-76811893D01*
X129715605Y-76850939D01*
X129729706Y-76850899D01*
X129733000Y-76843630D01*
X129733000Y-76837878D01*
X130241000Y-76837878D01*
X130244973Y-76851409D01*
X130252871Y-76852544D01*
X130392790Y-76811893D01*
X130407221Y-76805648D01*
X130536678Y-76729089D01*
X130549104Y-76719449D01*
X130655449Y-76613104D01*
X130665089Y-76600678D01*
X130741648Y-76471221D01*
X130747893Y-76456790D01*
X130790269Y-76310935D01*
X130792570Y-76298333D01*
X130794807Y-76269916D01*
X130795000Y-76264986D01*
X130795000Y-75885615D01*
X130790525Y-75870376D01*
X130789135Y-75869171D01*
X130781452Y-75867500D01*
X130259115Y-75867500D01*
X130243876Y-75871975D01*
X130242671Y-75873365D01*
X130241000Y-75881048D01*
X130241000Y-76837878D01*
X129733000Y-76837878D01*
X129733000Y-75485500D01*
X129753002Y-75417379D01*
X129806658Y-75370886D01*
X129859000Y-75359500D01*
X130776884Y-75359500D01*
X130792123Y-75355025D01*
X130793328Y-75353635D01*
X130794999Y-75345952D01*
X130794999Y-75110500D01*
X130815001Y-75042379D01*
X130868657Y-74995886D01*
X130920999Y-74984500D01*
X130952500Y-74984500D01*
X131020621Y-75004502D01*
X131067114Y-75058158D01*
X131078500Y-75110500D01*
X131078500Y-76267502D01*
X131078693Y-76269950D01*
X131078693Y-76269958D01*
X131080927Y-76298336D01*
X131081438Y-76304831D01*
X131103614Y-76381163D01*
X131125586Y-76456790D01*
X131127855Y-76464601D01*
X131131891Y-76471425D01*
X131131892Y-76471427D01*
X131208509Y-76600980D01*
X131208511Y-76600983D01*
X131212547Y-76607807D01*
X131330193Y-76725453D01*
X131337017Y-76729489D01*
X131337020Y-76729491D01*
X131400942Y-76767294D01*
X131473399Y-76810145D01*
X131481010Y-76812356D01*
X131481012Y-76812357D01*
X131488788Y-76814616D01*
X131633169Y-76856562D01*
X131639574Y-76857066D01*
X131639579Y-76857067D01*
X131668042Y-76859307D01*
X131668050Y-76859307D01*
X131670498Y-76859500D01*
X132103502Y-76859500D01*
X132105950Y-76859307D01*
X132105958Y-76859307D01*
X132134421Y-76857067D01*
X132134426Y-76857066D01*
X132140831Y-76856562D01*
X132285212Y-76814616D01*
X132292988Y-76812357D01*
X132292990Y-76812356D01*
X132300601Y-76810145D01*
X132373058Y-76767294D01*
X132436980Y-76729491D01*
X132436983Y-76729489D01*
X132443807Y-76725453D01*
X132561453Y-76607807D01*
X132565489Y-76600983D01*
X132565491Y-76600980D01*
X132635300Y-76482939D01*
X132646145Y-76464601D01*
X132648334Y-76457067D01*
X132693725Y-76402520D01*
X132761433Y-76381163D01*
X132829939Y-76399802D01*
X132852965Y-76417965D01*
X132904829Y-76469739D01*
X132916240Y-76478751D01*
X133054243Y-76563816D01*
X133067424Y-76569963D01*
X133221710Y-76621138D01*
X133235086Y-76624005D01*
X133329438Y-76633672D01*
X133335854Y-76634000D01*
X133585885Y-76634000D01*
X133601124Y-76629525D01*
X133602329Y-76628135D01*
X133604000Y-76620452D01*
X133604000Y-76615884D01*
X134112000Y-76615884D01*
X134116475Y-76631123D01*
X134117865Y-76632328D01*
X134125548Y-76633999D01*
X134380095Y-76633999D01*
X134386614Y-76633662D01*
X134482206Y-76623743D01*
X134495600Y-76620851D01*
X134649784Y-76569412D01*
X134662962Y-76563239D01*
X134800807Y-76477937D01*
X134812208Y-76468901D01*
X134926739Y-76354171D01*
X134935751Y-76342760D01*
X135020816Y-76204757D01*
X135026963Y-76191576D01*
X135078138Y-76037290D01*
X135081005Y-76023914D01*
X135090672Y-75929562D01*
X135091000Y-75923146D01*
X135091000Y-75898115D01*
X135086525Y-75882876D01*
X135085135Y-75881671D01*
X135077452Y-75880000D01*
X134130115Y-75880000D01*
X134114876Y-75884475D01*
X134113671Y-75885865D01*
X134112000Y-75893548D01*
X134112000Y-76615884D01*
X133604000Y-76615884D01*
X133604000Y-75498000D01*
X133624002Y-75429879D01*
X133677658Y-75383386D01*
X133730000Y-75372000D01*
X135072884Y-75372000D01*
X135088123Y-75367525D01*
X135089328Y-75366135D01*
X135090999Y-75358452D01*
X135090999Y-75328905D01*
X135090662Y-75322386D01*
X135080743Y-75226794D01*
X135077851Y-75213400D01*
X135026412Y-75059216D01*
X135020239Y-75046038D01*
X134934937Y-74908193D01*
X134925901Y-74896792D01*
X134811172Y-74782262D01*
X134802238Y-74775206D01*
X134761177Y-74717288D01*
X134757947Y-74646365D01*
X134793574Y-74584954D01*
X134801407Y-74578154D01*
X134807348Y-74574478D01*
X134932305Y-74449303D01*
X134936146Y-74443072D01*
X135021275Y-74304968D01*
X135021276Y-74304966D01*
X135025115Y-74298738D01*
X135052926Y-74214890D01*
X135078632Y-74137389D01*
X135078632Y-74137387D01*
X135080797Y-74130861D01*
X135091500Y-74026400D01*
X135091500Y-73425600D01*
X135091163Y-73422350D01*
X135081238Y-73326692D01*
X135081237Y-73326688D01*
X135080526Y-73319834D01*
X135038721Y-73194528D01*
X135026868Y-73159002D01*
X135024550Y-73152054D01*
X135010856Y-73129924D01*
X134954581Y-73038986D01*
X134939356Y-73014382D01*
X134920500Y-72948080D01*
X134920500Y-72907260D01*
X134920507Y-72905941D01*
X134921377Y-72822826D01*
X134921451Y-72815779D01*
X134912289Y-72773403D01*
X134910230Y-72760832D01*
X134906182Y-72724744D01*
X134905397Y-72717745D01*
X134901844Y-72707540D01*
X134894367Y-72686070D01*
X134890204Y-72671258D01*
X134884609Y-72645381D01*
X134883119Y-72638490D01*
X134864793Y-72599189D01*
X134860008Y-72587406D01*
X134845745Y-72546448D01*
X134827979Y-72518016D01*
X134820640Y-72504499D01*
X134809440Y-72480481D01*
X134809438Y-72480477D01*
X134806463Y-72474098D01*
X134790811Y-72453919D01*
X134779891Y-72439840D01*
X134772597Y-72429385D01*
X134753359Y-72398598D01*
X134749626Y-72392624D01*
X134721024Y-72363821D01*
X134720439Y-72363196D01*
X134719922Y-72362530D01*
X134693932Y-72336540D01*
X134621815Y-72263918D01*
X134620778Y-72263260D01*
X134619549Y-72262157D01*
X134071355Y-71713963D01*
X134043298Y-71671250D01*
X134039473Y-71661589D01*
X134036552Y-71654211D01*
X134010564Y-71618441D01*
X134004048Y-71608521D01*
X133985580Y-71577293D01*
X133985578Y-71577290D01*
X133981542Y-71570466D01*
X133967221Y-71556145D01*
X133954380Y-71541111D01*
X133947132Y-71531135D01*
X133942472Y-71524721D01*
X133908401Y-71496535D01*
X133899622Y-71488546D01*
X133834172Y-71423096D01*
X133800146Y-71360784D01*
X133805211Y-71289969D01*
X133847758Y-71233133D01*
X133914278Y-71208322D01*
X133923267Y-71208001D01*
X134263732Y-71208001D01*
X134274915Y-71208528D01*
X134282408Y-71210203D01*
X134290334Y-71209954D01*
X134290335Y-71209954D01*
X134350485Y-71208063D01*
X134354444Y-71208001D01*
X134382355Y-71208001D01*
X134386290Y-71207504D01*
X134386355Y-71207496D01*
X134398192Y-71206563D01*
X134430450Y-71205549D01*
X134434469Y-71205423D01*
X134442388Y-71205174D01*
X134461842Y-71199522D01*
X134481199Y-71195514D01*
X134493429Y-71193969D01*
X134493430Y-71193969D01*
X134501296Y-71192975D01*
X134508667Y-71190056D01*
X134508669Y-71190056D01*
X134542411Y-71176697D01*
X134553641Y-71172852D01*
X134588482Y-71162730D01*
X134588483Y-71162730D01*
X134596092Y-71160519D01*
X134602911Y-71156486D01*
X134602916Y-71156484D01*
X134613527Y-71150208D01*
X134631299Y-71141503D01*
X134633087Y-71140795D01*
X134703789Y-71134327D01*
X134766763Y-71167109D01*
X134798976Y-71218078D01*
X134848588Y-71366784D01*
X134854761Y-71379962D01*
X134940063Y-71517807D01*
X134949099Y-71529208D01*
X135063829Y-71643739D01*
X135075240Y-71652751D01*
X135213243Y-71737816D01*
X135226424Y-71743963D01*
X135380710Y-71795138D01*
X135394086Y-71798005D01*
X135488438Y-71807672D01*
X135494854Y-71808000D01*
X135744885Y-71808000D01*
X135760124Y-71803525D01*
X135761329Y-71802135D01*
X135763000Y-71794452D01*
X135763000Y-71789884D01*
X136271000Y-71789884D01*
X136275475Y-71805123D01*
X136276865Y-71806328D01*
X136284548Y-71807999D01*
X136539095Y-71807999D01*
X136545614Y-71807662D01*
X136641206Y-71797743D01*
X136654600Y-71794851D01*
X136808784Y-71743412D01*
X136821962Y-71737239D01*
X136966035Y-71648083D01*
X136967663Y-71650714D01*
X137020582Y-71629304D01*
X137090344Y-71642485D01*
X137100825Y-71649208D01*
X137101009Y-71648910D01*
X137245243Y-71737816D01*
X137258424Y-71743963D01*
X137412710Y-71795138D01*
X137426086Y-71798005D01*
X137520438Y-71807672D01*
X137526854Y-71808000D01*
X137776885Y-71808000D01*
X137792124Y-71803525D01*
X137793329Y-71802135D01*
X137795000Y-71794452D01*
X137795000Y-71789884D01*
X138303000Y-71789884D01*
X138307475Y-71805123D01*
X138308865Y-71806328D01*
X138316548Y-71807999D01*
X138571095Y-71807999D01*
X138577614Y-71807662D01*
X138673206Y-71797743D01*
X138686600Y-71794851D01*
X138840784Y-71743412D01*
X138853962Y-71737239D01*
X138991807Y-71651937D01*
X139003208Y-71642901D01*
X139117739Y-71528171D01*
X139126751Y-71516760D01*
X139211816Y-71378757D01*
X139217963Y-71365576D01*
X139269138Y-71211290D01*
X139272005Y-71197914D01*
X139281672Y-71103562D01*
X139282000Y-71097146D01*
X139282000Y-71072115D01*
X139277525Y-71056876D01*
X139276135Y-71055671D01*
X139268452Y-71054000D01*
X138321115Y-71054000D01*
X138305876Y-71058475D01*
X138304671Y-71059865D01*
X138303000Y-71067548D01*
X138303000Y-71789884D01*
X137795000Y-71789884D01*
X137795000Y-71072115D01*
X137790525Y-71056876D01*
X137789135Y-71055671D01*
X137781452Y-71054000D01*
X136289115Y-71054000D01*
X136273876Y-71058475D01*
X136272671Y-71059865D01*
X136271000Y-71067548D01*
X136271000Y-71789884D01*
X135763000Y-71789884D01*
X135763000Y-70672000D01*
X135783002Y-70603879D01*
X135836658Y-70557386D01*
X135889000Y-70546000D01*
X139263884Y-70546000D01*
X139279123Y-70541525D01*
X139280328Y-70540135D01*
X139281999Y-70532452D01*
X139281999Y-70502905D01*
X139281662Y-70496386D01*
X139271743Y-70400794D01*
X139268851Y-70387400D01*
X139217412Y-70233216D01*
X139211239Y-70220038D01*
X139125937Y-70082193D01*
X139116901Y-70070792D01*
X139002172Y-69956262D01*
X138993238Y-69949206D01*
X138952177Y-69891288D01*
X138948947Y-69820365D01*
X138984574Y-69758954D01*
X138992407Y-69752154D01*
X138998348Y-69748478D01*
X139123305Y-69623303D01*
X139175722Y-69538268D01*
X139212275Y-69478968D01*
X139212276Y-69478966D01*
X139216115Y-69472738D01*
X139271797Y-69304861D01*
X139272915Y-69293955D01*
X139279776Y-69226986D01*
X139282500Y-69200400D01*
X139282500Y-68599600D01*
X139281286Y-68587898D01*
X139272238Y-68500692D01*
X139272237Y-68500688D01*
X139271526Y-68493834D01*
X139267303Y-68481174D01*
X139217868Y-68333002D01*
X139215550Y-68326054D01*
X139122478Y-68175652D01*
X138997303Y-68050695D01*
X138970662Y-68034273D01*
X138852968Y-67961725D01*
X138852966Y-67961724D01*
X138846738Y-67957885D01*
X138771754Y-67933014D01*
X138768833Y-67932045D01*
X138710473Y-67891614D01*
X138683236Y-67826050D01*
X138682500Y-67812452D01*
X138682500Y-67388763D01*
X138683027Y-67377579D01*
X138684701Y-67370091D01*
X138682562Y-67302032D01*
X138682500Y-67298075D01*
X138682500Y-67270144D01*
X138681994Y-67266138D01*
X138681061Y-67254292D01*
X138679922Y-67218037D01*
X138679673Y-67210110D01*
X138674022Y-67190658D01*
X138670014Y-67171306D01*
X138668468Y-67159068D01*
X138668467Y-67159066D01*
X138667474Y-67151203D01*
X138651194Y-67110086D01*
X138647359Y-67098885D01*
X138635018Y-67056406D01*
X138630985Y-67049587D01*
X138630983Y-67049582D01*
X138624707Y-67038971D01*
X138616010Y-67021221D01*
X138608552Y-67002383D01*
X138582571Y-66966623D01*
X138576053Y-66956701D01*
X138557578Y-66925460D01*
X138557574Y-66925455D01*
X138553542Y-66918637D01*
X138539218Y-66904313D01*
X138526376Y-66889278D01*
X138514472Y-66872893D01*
X138480406Y-66844711D01*
X138471627Y-66836722D01*
X138044652Y-66409747D01*
X138037112Y-66401461D01*
X138033000Y-66394982D01*
X137983348Y-66348356D01*
X137980507Y-66345602D01*
X137960770Y-66325865D01*
X137957573Y-66323385D01*
X137948551Y-66315680D01*
X137922100Y-66290841D01*
X137916321Y-66285414D01*
X137909375Y-66281595D01*
X137909372Y-66281593D01*
X137898566Y-66275652D01*
X137882047Y-66264801D01*
X137881583Y-66264441D01*
X137866041Y-66252386D01*
X137858772Y-66249241D01*
X137858768Y-66249238D01*
X137825463Y-66234826D01*
X137814813Y-66229609D01*
X137776060Y-66208305D01*
X137756437Y-66203267D01*
X137737734Y-66196863D01*
X137726420Y-66191967D01*
X137726419Y-66191967D01*
X137719145Y-66188819D01*
X137711322Y-66187580D01*
X137711312Y-66187577D01*
X137675476Y-66181901D01*
X137663856Y-66179495D01*
X137628711Y-66170472D01*
X137628710Y-66170472D01*
X137621030Y-66168500D01*
X137600776Y-66168500D01*
X137581065Y-66166949D01*
X137568886Y-66165020D01*
X137561057Y-66163780D01*
X137553165Y-66164526D01*
X137517039Y-66167941D01*
X137505181Y-66168500D01*
X134151368Y-66168500D01*
X134083247Y-66148498D01*
X134036754Y-66094842D01*
X134026650Y-66024568D01*
X134028597Y-66014156D01*
X134034965Y-65986573D01*
X134039332Y-65971831D01*
X134050803Y-65940315D01*
X134051686Y-65933325D01*
X134051688Y-65933317D01*
X134056238Y-65897299D01*
X134058474Y-65884747D01*
X134066638Y-65849386D01*
X134066638Y-65849383D01*
X134068224Y-65842515D01*
X134068366Y-65801944D01*
X134068395Y-65801062D01*
X134068500Y-65800231D01*
X134068500Y-65763428D01*
X134068857Y-65661130D01*
X134068589Y-65659930D01*
X134068500Y-65658293D01*
X134068500Y-65601999D01*
X134088502Y-65533878D01*
X134142158Y-65487385D01*
X134194500Y-65475999D01*
X134404669Y-65475999D01*
X134411490Y-65475629D01*
X134462352Y-65470105D01*
X134477604Y-65466479D01*
X134598054Y-65421324D01*
X134613649Y-65412786D01*
X134715724Y-65336285D01*
X134728285Y-65323724D01*
X134804786Y-65221649D01*
X134813324Y-65206054D01*
X134858478Y-65085606D01*
X134862105Y-65070351D01*
X134867631Y-65019486D01*
X134868000Y-65012672D01*
X134868000Y-64887934D01*
X134875665Y-64853892D01*
X134876000Y-64849648D01*
X134876000Y-64515115D01*
X134871525Y-64499876D01*
X134870135Y-64498671D01*
X134862452Y-64497000D01*
X134194500Y-64497000D01*
X134126379Y-64476998D01*
X134079886Y-64423342D01*
X134068500Y-64371000D01*
X134068500Y-64011137D01*
X134088502Y-63943016D01*
X134142158Y-63896523D01*
X134212432Y-63886419D01*
X134277012Y-63915913D01*
X134315396Y-63975639D01*
X134318475Y-63986124D01*
X134319865Y-63987329D01*
X134327548Y-63989000D01*
X134857885Y-63989000D01*
X134873124Y-63984525D01*
X134874329Y-63983135D01*
X134876000Y-63975452D01*
X134876000Y-63600115D01*
X134871525Y-63584876D01*
X134870135Y-63583671D01*
X134862452Y-63582000D01*
X134400674Y-63582000D01*
X134332553Y-63561998D01*
X134286060Y-63508342D01*
X134275956Y-63438068D01*
X134305450Y-63373488D01*
X134314101Y-63364452D01*
X134333527Y-63346082D01*
X134333529Y-63346080D01*
X134338485Y-63341393D01*
X134342317Y-63335755D01*
X134342320Y-63335751D01*
X134436442Y-63197255D01*
X134440277Y-63191612D01*
X134455638Y-63153206D01*
X134499505Y-63097387D01*
X134572626Y-63074000D01*
X136138000Y-63074000D01*
X136138000Y-63076346D01*
X136182896Y-63076347D01*
X136242621Y-63114733D01*
X136266917Y-63157363D01*
X136270131Y-63166997D01*
X136270133Y-63167002D01*
X136272450Y-63173946D01*
X136365522Y-63324348D01*
X136370704Y-63329521D01*
X136452463Y-63411138D01*
X136486542Y-63473421D01*
X136481539Y-63544241D01*
X136452618Y-63589329D01*
X136370259Y-63671831D01*
X136362880Y-63681174D01*
X136304963Y-63722236D01*
X136234040Y-63725466D01*
X136172629Y-63689840D01*
X136140228Y-63626668D01*
X136138000Y-63603080D01*
X136138000Y-63600115D01*
X136133525Y-63584876D01*
X136132135Y-63583671D01*
X136124452Y-63582000D01*
X135402115Y-63582000D01*
X135386876Y-63586475D01*
X135385671Y-63587865D01*
X135384000Y-63595548D01*
X135384000Y-64835924D01*
X135387973Y-64849455D01*
X135395768Y-64850575D01*
X135503521Y-64818862D01*
X135514889Y-64814269D01*
X135679154Y-64728393D01*
X135688779Y-64722095D01*
X136206001Y-64722095D01*
X136206338Y-64728614D01*
X136216257Y-64824206D01*
X136219149Y-64837600D01*
X136270588Y-64991784D01*
X136276761Y-65004962D01*
X136362063Y-65142807D01*
X136371099Y-65154208D01*
X136485829Y-65268739D01*
X136497240Y-65277751D01*
X136635243Y-65362816D01*
X136648424Y-65368963D01*
X136802710Y-65420138D01*
X136816086Y-65423005D01*
X136910438Y-65432672D01*
X136916854Y-65433000D01*
X137141885Y-65433000D01*
X137157124Y-65428525D01*
X137158329Y-65427135D01*
X137160000Y-65419452D01*
X137160000Y-65414884D01*
X137668000Y-65414884D01*
X137672475Y-65430123D01*
X137673865Y-65431328D01*
X137681548Y-65432999D01*
X137911095Y-65432999D01*
X137917614Y-65432662D01*
X138013206Y-65422743D01*
X138026600Y-65419851D01*
X138180784Y-65368412D01*
X138193962Y-65362239D01*
X138331807Y-65276937D01*
X138343208Y-65267901D01*
X138457739Y-65153171D01*
X138466751Y-65141760D01*
X138551816Y-65003757D01*
X138557963Y-64990576D01*
X138609138Y-64836290D01*
X138612005Y-64822914D01*
X138621672Y-64728562D01*
X138622000Y-64722146D01*
X138622000Y-64684615D01*
X138617525Y-64669376D01*
X138616135Y-64668171D01*
X138608452Y-64666500D01*
X137686115Y-64666500D01*
X137670876Y-64670975D01*
X137669671Y-64672365D01*
X137668000Y-64680048D01*
X137668000Y-65414884D01*
X137160000Y-65414884D01*
X137160000Y-64684615D01*
X137155525Y-64669376D01*
X137154135Y-64668171D01*
X137146452Y-64666500D01*
X136224116Y-64666500D01*
X136208877Y-64670975D01*
X136207672Y-64672365D01*
X136206001Y-64680048D01*
X136206001Y-64722095D01*
X135688779Y-64722095D01*
X135689415Y-64721679D01*
X135833873Y-64605532D01*
X135842632Y-64596954D01*
X135961778Y-64454961D01*
X135968708Y-64444841D01*
X136058002Y-64282415D01*
X136062834Y-64271142D01*
X136071664Y-64243306D01*
X136111327Y-64184422D01*
X136176529Y-64156329D01*
X136218546Y-64158283D01*
X136219544Y-64158500D01*
X138603884Y-64158500D01*
X138619123Y-64154025D01*
X138620328Y-64152635D01*
X138621999Y-64144952D01*
X138621999Y-64102905D01*
X138621662Y-64096386D01*
X138611743Y-64000794D01*
X138608851Y-63987400D01*
X138557412Y-63833216D01*
X138551239Y-63820038D01*
X138465937Y-63682193D01*
X138456901Y-63670792D01*
X138375538Y-63589570D01*
X138341459Y-63527287D01*
X138346462Y-63456467D01*
X138375383Y-63411380D01*
X138458130Y-63328488D01*
X138458134Y-63328483D01*
X138463305Y-63323303D01*
X138501836Y-63260794D01*
X138552275Y-63178968D01*
X138552276Y-63178966D01*
X138556115Y-63172738D01*
X138611797Y-63004861D01*
X138622500Y-62900400D01*
X138622500Y-62274600D01*
X138611526Y-62168834D01*
X138601386Y-62138439D01*
X138557868Y-62008002D01*
X138555550Y-62001054D01*
X138462478Y-61850652D01*
X138359390Y-61747744D01*
X138325312Y-61685463D01*
X138330315Y-61614643D01*
X138359236Y-61569554D01*
X138458134Y-61470483D01*
X138463305Y-61465303D01*
X138473387Y-61448947D01*
X138552275Y-61320968D01*
X138552276Y-61320966D01*
X138556115Y-61314738D01*
X138611797Y-61146861D01*
X138622500Y-61042400D01*
X138622500Y-60416600D01*
X138622163Y-60413350D01*
X138612238Y-60317692D01*
X138612237Y-60317688D01*
X138611526Y-60310834D01*
X138608802Y-60302667D01*
X138557868Y-60150002D01*
X138555550Y-60143054D01*
X138462478Y-59992652D01*
X138421823Y-59952068D01*
X138375537Y-59905862D01*
X138341458Y-59843579D01*
X138346461Y-59772759D01*
X138375382Y-59727671D01*
X138457739Y-59645171D01*
X138466751Y-59633760D01*
X138551816Y-59495757D01*
X138557963Y-59482576D01*
X138609138Y-59328290D01*
X138612005Y-59314914D01*
X138621672Y-59220562D01*
X138622000Y-59214146D01*
X138622000Y-59176615D01*
X138617525Y-59161376D01*
X138616135Y-59160171D01*
X138608452Y-59158500D01*
X136224116Y-59158500D01*
X136208877Y-59162975D01*
X136207672Y-59164365D01*
X136206001Y-59172048D01*
X136206001Y-59214095D01*
X136206338Y-59220612D01*
X136210736Y-59262996D01*
X136197871Y-59332818D01*
X136149300Y-59384600D01*
X136085409Y-59402000D01*
X134140115Y-59402000D01*
X134124876Y-59406475D01*
X134123671Y-59407865D01*
X134122000Y-59415548D01*
X134122000Y-59494657D01*
X134122301Y-59500805D01*
X134135812Y-59638603D01*
X134138195Y-59650638D01*
X134191767Y-59828076D01*
X134196441Y-59839416D01*
X134234421Y-59910847D01*
X134248740Y-59980385D01*
X134223192Y-60046625D01*
X134165887Y-60088538D01*
X134123169Y-60096000D01*
X133278267Y-60096000D01*
X133267084Y-60095473D01*
X133259591Y-60093798D01*
X133251665Y-60094047D01*
X133251664Y-60094047D01*
X133191514Y-60095938D01*
X133187555Y-60096000D01*
X133159644Y-60096000D01*
X133155710Y-60096497D01*
X133155709Y-60096497D01*
X133155644Y-60096505D01*
X133143807Y-60097438D01*
X133111990Y-60098438D01*
X133107529Y-60098578D01*
X133099610Y-60098827D01*
X133081954Y-60103956D01*
X133080158Y-60104478D01*
X133060806Y-60108486D01*
X133053735Y-60109380D01*
X133040703Y-60111026D01*
X133033334Y-60113943D01*
X133033332Y-60113944D01*
X132999597Y-60127300D01*
X132988369Y-60131145D01*
X132945907Y-60143482D01*
X132939085Y-60147516D01*
X132939079Y-60147519D01*
X132928468Y-60153794D01*
X132910718Y-60162490D01*
X132899256Y-60167028D01*
X132899251Y-60167031D01*
X132891883Y-60169948D01*
X132874470Y-60182599D01*
X132856125Y-60195927D01*
X132846207Y-60202443D01*
X132827519Y-60213495D01*
X132808137Y-60224958D01*
X132793813Y-60239282D01*
X132778781Y-60252121D01*
X132762393Y-60264028D01*
X132739518Y-60291679D01*
X132734212Y-60298093D01*
X132726222Y-60306873D01*
X131727500Y-61305595D01*
X131665188Y-61339621D01*
X131638405Y-61342500D01*
X129491763Y-61342500D01*
X129480579Y-61341973D01*
X129473091Y-61340299D01*
X129465168Y-61340548D01*
X129405033Y-61342438D01*
X129401075Y-61342500D01*
X129373144Y-61342500D01*
X129369229Y-61342995D01*
X129369225Y-61342995D01*
X129369167Y-61343003D01*
X129369138Y-61343006D01*
X129357296Y-61343939D01*
X129313110Y-61345327D01*
X129295744Y-61350372D01*
X129293658Y-61350978D01*
X129274306Y-61354986D01*
X129262068Y-61356532D01*
X129262066Y-61356533D01*
X129254203Y-61357526D01*
X129213086Y-61373806D01*
X129201885Y-61377641D01*
X129159406Y-61389982D01*
X129152587Y-61394015D01*
X129152582Y-61394017D01*
X129141971Y-61400293D01*
X129124221Y-61408990D01*
X129105383Y-61416448D01*
X129098967Y-61421109D01*
X129098966Y-61421110D01*
X129069625Y-61442428D01*
X129059701Y-61448947D01*
X129028460Y-61467422D01*
X129028455Y-61467426D01*
X129021637Y-61471458D01*
X129007313Y-61485782D01*
X128992281Y-61498621D01*
X128975893Y-61510528D01*
X128947712Y-61544593D01*
X128939722Y-61553373D01*
X128667747Y-61825348D01*
X128659461Y-61832888D01*
X128652982Y-61837000D01*
X128647557Y-61842777D01*
X128606357Y-61886651D01*
X128603602Y-61889493D01*
X128583865Y-61909230D01*
X128581385Y-61912427D01*
X128573682Y-61921447D01*
X128543414Y-61953679D01*
X128539595Y-61960625D01*
X128539593Y-61960628D01*
X128533652Y-61971434D01*
X128522801Y-61987953D01*
X128510386Y-62003959D01*
X128507239Y-62011230D01*
X128503202Y-62018057D01*
X128501659Y-62017144D01*
X128462547Y-62064153D01*
X128394840Y-62085516D01*
X128339066Y-62073736D01*
X128196369Y-62007195D01*
X128196366Y-62007194D01*
X128190192Y-62004315D01*
X128183544Y-62002829D01*
X128183541Y-62002828D01*
X128018494Y-61965936D01*
X128018495Y-61965936D01*
X128013457Y-61964810D01*
X128007912Y-61964500D01*
X127874756Y-61964500D01*
X127739963Y-61979143D01*
X127656609Y-62007195D01*
X127574796Y-62034728D01*
X127574794Y-62034729D01*
X127568325Y-62036906D01*
X127416349Y-62128222D01*
X127416346Y-62128223D01*
X127413095Y-62130177D01*
X127412745Y-62129594D01*
X127351083Y-62153065D01*
X127281609Y-62138439D01*
X127243609Y-62107085D01*
X127212603Y-62069067D01*
X127203959Y-62060363D01*
X127061144Y-61942216D01*
X127050973Y-61935356D01*
X126887924Y-61847196D01*
X126876619Y-61842444D01*
X126761308Y-61806750D01*
X126747205Y-61806544D01*
X126744000Y-61813299D01*
X126744000Y-63055885D01*
X126748475Y-63071124D01*
X126749865Y-63072329D01*
X126757548Y-63074000D01*
X127047243Y-63074000D01*
X127115364Y-63094002D01*
X127158700Y-63141235D01*
X127171647Y-63165791D01*
X127224922Y-63266836D01*
X127229327Y-63272049D01*
X127229330Y-63272053D01*
X127316051Y-63374672D01*
X127344743Y-63439613D01*
X127333770Y-63509756D01*
X127286617Y-63562833D01*
X127219813Y-63582000D01*
X126762115Y-63582000D01*
X126746876Y-63586475D01*
X126745671Y-63587865D01*
X126744000Y-63595548D01*
X126744000Y-63970885D01*
X126748475Y-63986124D01*
X126749865Y-63987329D01*
X126757548Y-63989000D01*
X127287885Y-63989000D01*
X127303124Y-63984525D01*
X127312290Y-63973947D01*
X127336404Y-63929786D01*
X127398716Y-63895761D01*
X127469532Y-63900825D01*
X127526368Y-63943372D01*
X127551179Y-64009892D01*
X127551500Y-64018881D01*
X127551500Y-64371000D01*
X127531498Y-64439121D01*
X127477842Y-64485614D01*
X127425500Y-64497000D01*
X126762115Y-64497000D01*
X126746876Y-64501475D01*
X126745671Y-64502865D01*
X126744000Y-64510548D01*
X126744000Y-64835924D01*
X126746897Y-64845790D01*
X126752001Y-64881288D01*
X126752001Y-65012669D01*
X126752371Y-65019490D01*
X126757895Y-65070352D01*
X126761521Y-65085604D01*
X126806676Y-65206054D01*
X126815214Y-65221649D01*
X126891715Y-65323724D01*
X126904276Y-65336285D01*
X126970176Y-65385674D01*
X127012691Y-65442533D01*
X127017717Y-65513351D01*
X126983657Y-65575645D01*
X126921326Y-65609635D01*
X126894611Y-65612500D01*
X126809494Y-65612500D01*
X126758245Y-65601607D01*
X126653319Y-65554891D01*
X126653318Y-65554891D01*
X126647288Y-65552206D01*
X126553888Y-65532353D01*
X126466944Y-65513872D01*
X126466939Y-65513872D01*
X126460487Y-65512500D01*
X126269513Y-65512500D01*
X126263061Y-65513872D01*
X126263056Y-65513872D01*
X126176112Y-65532353D01*
X126082712Y-65552206D01*
X126076682Y-65554891D01*
X126076681Y-65554891D01*
X125914278Y-65627197D01*
X125914276Y-65627198D01*
X125908248Y-65629882D01*
X125902907Y-65633762D01*
X125902906Y-65633763D01*
X125852843Y-65670136D01*
X125753747Y-65742134D01*
X125749326Y-65747044D01*
X125749325Y-65747045D01*
X125646603Y-65861130D01*
X125625960Y-65884056D01*
X125547595Y-66019789D01*
X125545156Y-66024013D01*
X125493774Y-66073006D01*
X125424060Y-66086442D01*
X125419233Y-66085642D01*
X125361486Y-66079369D01*
X125354672Y-66079000D01*
X124732115Y-66079000D01*
X124716876Y-66083475D01*
X124715671Y-66084865D01*
X124714000Y-66092548D01*
X124714000Y-67164885D01*
X124718475Y-67180124D01*
X124719865Y-67181329D01*
X124727548Y-67183000D01*
X125817999Y-67183000D01*
X125817999Y-67186173D01*
X125860082Y-67186177D01*
X125898633Y-67205133D01*
X125902902Y-67208235D01*
X125902909Y-67208239D01*
X125908248Y-67212118D01*
X125914276Y-67214802D01*
X125914278Y-67214803D01*
X126075242Y-67286468D01*
X126113088Y-67312480D01*
X126389595Y-67588987D01*
X126423621Y-67651299D01*
X126426500Y-67678082D01*
X126426501Y-67812452D01*
X126426501Y-67936230D01*
X126437384Y-68041129D01*
X126439563Y-68047660D01*
X126439564Y-68047665D01*
X126463124Y-68118282D01*
X126492898Y-68207526D01*
X126585203Y-68356689D01*
X126709347Y-68480617D01*
X126712270Y-68482419D01*
X126752408Y-68539029D01*
X126755642Y-68609952D01*
X126720018Y-68671364D01*
X126713622Y-68676916D01*
X126708311Y-68680203D01*
X126584383Y-68804347D01*
X126492339Y-68953671D01*
X126490034Y-68960619D01*
X126490034Y-68960620D01*
X126443887Y-69099749D01*
X126437115Y-69120165D01*
X126426500Y-69223769D01*
X126426501Y-69511297D01*
X126426501Y-69676729D01*
X126406499Y-69744850D01*
X126352844Y-69791343D01*
X126299181Y-69802722D01*
X126282779Y-69802550D01*
X126275893Y-69804039D01*
X126275891Y-69804039D01*
X126257313Y-69808056D01*
X126240414Y-69811710D01*
X126227835Y-69813770D01*
X126191741Y-69817818D01*
X126191738Y-69817819D01*
X126184745Y-69818603D01*
X126153714Y-69829409D01*
X126153068Y-69829634D01*
X126138258Y-69833796D01*
X126112378Y-69839391D01*
X126112374Y-69839392D01*
X126105489Y-69840881D01*
X126099105Y-69843858D01*
X126099099Y-69843860D01*
X126066193Y-69859204D01*
X126054384Y-69863999D01*
X126013448Y-69878255D01*
X126007476Y-69881987D01*
X126007467Y-69881991D01*
X125999653Y-69886874D01*
X125931284Y-69906010D01*
X125863423Y-69885144D01*
X125817615Y-69830903D01*
X125807308Y-69790342D01*
X125804781Y-69759605D01*
X125803096Y-69749424D01*
X125751214Y-69542875D01*
X125747894Y-69533124D01*
X125662972Y-69337814D01*
X125658105Y-69328739D01*
X125542426Y-69149926D01*
X125536136Y-69141757D01*
X125391931Y-68983279D01*
X125360879Y-68919433D01*
X125369273Y-68848934D01*
X125414450Y-68794166D01*
X125440894Y-68780497D01*
X125548054Y-68740324D01*
X125563649Y-68731786D01*
X125665724Y-68655285D01*
X125678285Y-68642724D01*
X125754786Y-68540649D01*
X125763324Y-68525054D01*
X125808478Y-68404606D01*
X125812105Y-68389351D01*
X125817631Y-68338486D01*
X125818000Y-68331672D01*
X125818000Y-67709115D01*
X125813525Y-67693876D01*
X125812135Y-67692671D01*
X125804452Y-67691000D01*
X124732115Y-67691000D01*
X124716876Y-67695475D01*
X124715671Y-67696865D01*
X124714000Y-67704548D01*
X124714000Y-70105000D01*
X124693998Y-70173121D01*
X124640342Y-70219614D01*
X124588000Y-70231000D01*
X124332000Y-70231000D01*
X124263879Y-70210998D01*
X124217386Y-70157342D01*
X124206000Y-70105000D01*
X124206000Y-66097116D01*
X124201525Y-66081877D01*
X124200135Y-66080672D01*
X124192452Y-66079001D01*
X123565331Y-66079001D01*
X123558510Y-66079371D01*
X123507648Y-66084895D01*
X123492396Y-66088521D01*
X123371946Y-66133676D01*
X123356351Y-66142214D01*
X123254276Y-66218715D01*
X123241715Y-66231276D01*
X123165214Y-66333351D01*
X123156676Y-66348946D01*
X123115297Y-66459322D01*
X123072655Y-66516087D01*
X123006093Y-66540786D01*
X122936744Y-66525578D01*
X122904121Y-66499891D01*
X122853151Y-66443876D01*
X122853148Y-66443873D01*
X122849670Y-66440051D01*
X122845619Y-66436852D01*
X122845615Y-66436848D01*
X122678414Y-66304800D01*
X122678410Y-66304798D01*
X122674359Y-66301598D01*
X122478789Y-66193638D01*
X122473920Y-66191914D01*
X122473916Y-66191912D01*
X122273087Y-66120795D01*
X122273083Y-66120794D01*
X122268212Y-66119069D01*
X122263119Y-66118162D01*
X122263116Y-66118161D01*
X122053373Y-66080800D01*
X122053367Y-66080799D01*
X122048284Y-66079894D01*
X121974452Y-66078992D01*
X121830081Y-66077228D01*
X121830079Y-66077228D01*
X121824911Y-66077165D01*
X121604091Y-66110955D01*
X121391756Y-66180357D01*
X121330738Y-66212121D01*
X121244062Y-66257242D01*
X121193607Y-66283507D01*
X121189474Y-66286610D01*
X121189471Y-66286612D01*
X121019100Y-66414530D01*
X121014965Y-66417635D01*
X120860629Y-66579138D01*
X120734743Y-66763680D01*
X120687716Y-66864992D01*
X120659648Y-66925460D01*
X120640688Y-66966305D01*
X120580989Y-67181570D01*
X120557251Y-67403695D01*
X120557548Y-67408848D01*
X120557548Y-67408851D01*
X120567935Y-67588987D01*
X120570110Y-67626715D01*
X120571247Y-67631761D01*
X120571248Y-67631767D01*
X120585606Y-67695475D01*
X120619222Y-67844639D01*
X120703266Y-68051616D01*
X120705965Y-68056020D01*
X120783092Y-68181880D01*
X120819987Y-68242088D01*
X120966250Y-68410938D01*
X120970225Y-68414238D01*
X120970228Y-68414241D01*
X121065985Y-68493740D01*
X121105620Y-68552643D01*
X121111500Y-68590684D01*
X121111500Y-68822195D01*
X121091498Y-68890316D01*
X121061153Y-68922955D01*
X121019106Y-68954525D01*
X121019100Y-68954531D01*
X121014965Y-68957635D01*
X121011391Y-68961375D01*
X120872353Y-69106870D01*
X120860629Y-69119138D01*
X120734743Y-69303680D01*
X120640688Y-69506305D01*
X120580989Y-69721570D01*
X120557251Y-69943695D01*
X120557548Y-69948848D01*
X120557548Y-69948851D01*
X120566389Y-70102185D01*
X120570110Y-70166715D01*
X120571247Y-70171761D01*
X120571248Y-70171767D01*
X120582031Y-70219614D01*
X120619222Y-70384639D01*
X120703266Y-70591616D01*
X120819987Y-70782088D01*
X120966250Y-70950938D01*
X120970225Y-70954238D01*
X120970228Y-70954241D01*
X121065985Y-71033740D01*
X121105620Y-71092643D01*
X121111500Y-71130684D01*
X121111500Y-71237786D01*
X121111493Y-71239106D01*
X121110549Y-71329221D01*
X121119711Y-71371597D01*
X121121769Y-71384163D01*
X121126603Y-71427255D01*
X121128919Y-71433906D01*
X121128920Y-71433910D01*
X121137633Y-71458930D01*
X121141796Y-71473742D01*
X121148881Y-71506510D01*
X121167208Y-71545813D01*
X121171990Y-71557589D01*
X121186255Y-71598552D01*
X121189989Y-71604527D01*
X121189990Y-71604530D01*
X121204027Y-71626995D01*
X121211366Y-71640512D01*
X121221195Y-71661589D01*
X121225538Y-71670902D01*
X121229855Y-71676467D01*
X121229856Y-71676469D01*
X121252106Y-71705153D01*
X121259402Y-71715612D01*
X121276773Y-71743412D01*
X121282374Y-71752376D01*
X121287334Y-71757371D01*
X121287335Y-71757372D01*
X121310976Y-71781179D01*
X121311561Y-71781804D01*
X121312078Y-71782470D01*
X121338068Y-71808460D01*
X121410185Y-71881082D01*
X121411222Y-71881740D01*
X121412451Y-71882843D01*
X121616013Y-72086405D01*
X121650039Y-72148717D01*
X121644974Y-72219532D01*
X121602427Y-72276368D01*
X121535907Y-72301179D01*
X121526918Y-72301500D01*
X121021866Y-72301500D01*
X120959684Y-72308255D01*
X120823295Y-72359385D01*
X120706739Y-72446739D01*
X120619385Y-72563295D01*
X120568255Y-72699684D01*
X120561500Y-72761866D01*
X120561500Y-74558134D01*
X120568255Y-74620316D01*
X120619385Y-74756705D01*
X120706739Y-74873261D01*
X120823295Y-74960615D01*
X120831704Y-74963767D01*
X120831705Y-74963768D01*
X120940451Y-75004535D01*
X120997216Y-75047176D01*
X121021916Y-75113738D01*
X121006709Y-75183087D01*
X120987316Y-75209568D01*
X120860629Y-75342138D01*
X120857715Y-75346410D01*
X120857714Y-75346411D01*
X120826614Y-75392002D01*
X120734743Y-75526680D01*
X120696011Y-75610121D01*
X120659471Y-75688841D01*
X120640688Y-75729305D01*
X120580989Y-75944570D01*
X120557251Y-76166695D01*
X120557548Y-76171848D01*
X120557548Y-76171851D01*
X120563203Y-76269920D01*
X120570110Y-76389715D01*
X120571247Y-76394761D01*
X120571248Y-76394767D01*
X120588144Y-76469739D01*
X120619222Y-76607639D01*
X120667061Y-76725453D01*
X120699625Y-76805648D01*
X120703266Y-76814616D01*
X120751707Y-76893665D01*
X120817291Y-77000688D01*
X120819987Y-77005088D01*
X120966250Y-77173938D01*
X121138126Y-77316632D01*
X121208595Y-77357811D01*
X121211445Y-77359476D01*
X121260169Y-77411114D01*
X121273240Y-77480897D01*
X121246509Y-77546669D01*
X121206055Y-77580027D01*
X121193607Y-77586507D01*
X121189474Y-77589610D01*
X121189471Y-77589612D01*
X121019100Y-77717530D01*
X121014965Y-77720635D01*
X120860629Y-77882138D01*
X120857715Y-77886410D01*
X120857714Y-77886411D01*
X120831343Y-77925070D01*
X120734743Y-78066680D01*
X120697093Y-78147791D01*
X120646637Y-78256490D01*
X120640688Y-78269305D01*
X120580989Y-78484570D01*
X120557251Y-78706695D01*
X120557548Y-78711848D01*
X120557548Y-78711851D01*
X120563011Y-78806590D01*
X120570110Y-78929715D01*
X120571247Y-78934761D01*
X120571248Y-78934767D01*
X120589832Y-79017226D01*
X120619222Y-79147639D01*
X120703266Y-79354616D01*
X120737516Y-79410507D01*
X120817291Y-79540688D01*
X120819987Y-79545088D01*
X120966250Y-79713938D01*
X121138126Y-79856632D01*
X121151591Y-79864500D01*
X121211445Y-79899476D01*
X121260169Y-79951114D01*
X121273240Y-80020897D01*
X121246509Y-80086669D01*
X121206055Y-80120027D01*
X121193607Y-80126507D01*
X121189474Y-80129610D01*
X121189471Y-80129612D01*
X121019100Y-80257530D01*
X121014965Y-80260635D01*
X120860629Y-80422138D01*
X120734743Y-80606680D01*
X120696011Y-80690121D01*
X120658273Y-80771422D01*
X120640688Y-80809305D01*
X120580989Y-81024570D01*
X120557251Y-81246695D01*
X120557548Y-81251848D01*
X120557548Y-81251851D01*
X120568737Y-81445911D01*
X120570110Y-81469715D01*
X120571247Y-81474761D01*
X120571248Y-81474767D01*
X120583767Y-81530316D01*
X120619222Y-81687639D01*
X120703266Y-81894616D01*
X120751707Y-81973665D01*
X120817291Y-82080688D01*
X120819987Y-82085088D01*
X120966250Y-82253938D01*
X121138126Y-82396632D01*
X121208595Y-82437811D01*
X121211445Y-82439476D01*
X121260169Y-82491114D01*
X121273240Y-82560897D01*
X121246509Y-82626669D01*
X121206055Y-82660027D01*
X121193607Y-82666507D01*
X121189474Y-82669610D01*
X121189471Y-82669612D01*
X121056959Y-82769105D01*
X121014965Y-82800635D01*
X120860629Y-82962138D01*
X120734743Y-83146680D01*
X120700715Y-83219988D01*
X120650003Y-83329238D01*
X120640688Y-83349305D01*
X120580989Y-83564570D01*
X120557251Y-83786695D01*
X120557548Y-83791848D01*
X120557548Y-83791851D01*
X120563011Y-83886590D01*
X120570110Y-84009715D01*
X120571247Y-84014761D01*
X120571248Y-84014767D01*
X120591119Y-84102939D01*
X120619222Y-84227639D01*
X120703266Y-84434616D01*
X120742426Y-84498520D01*
X120817291Y-84620688D01*
X120819987Y-84625088D01*
X120966250Y-84793938D01*
X121138126Y-84936632D01*
X121208595Y-84977811D01*
X121211445Y-84979476D01*
X121260169Y-85031114D01*
X121273240Y-85100897D01*
X121246509Y-85166669D01*
X121206055Y-85200027D01*
X121193607Y-85206507D01*
X121189474Y-85209610D01*
X121189471Y-85209612D01*
X121023092Y-85334533D01*
X121014965Y-85340635D01*
X120860629Y-85502138D01*
X120857715Y-85506410D01*
X120857714Y-85506411D01*
X120824648Y-85554884D01*
X120734743Y-85686680D01*
X120640688Y-85889305D01*
X120580989Y-86104570D01*
X120557251Y-86326695D01*
X120557548Y-86331848D01*
X120557548Y-86331851D01*
X120563011Y-86426590D01*
X120570110Y-86549715D01*
X120571247Y-86554761D01*
X120571248Y-86554767D01*
X120591119Y-86642939D01*
X120619222Y-86767639D01*
X120703266Y-86974616D01*
X120722816Y-87006518D01*
X120817291Y-87160688D01*
X120819987Y-87165088D01*
X120966250Y-87333938D01*
X121138126Y-87476632D01*
X121193470Y-87508972D01*
X121211445Y-87519476D01*
X121260169Y-87571114D01*
X121273240Y-87640897D01*
X121246509Y-87706669D01*
X121206055Y-87740027D01*
X121193607Y-87746507D01*
X121189474Y-87749610D01*
X121189471Y-87749612D01*
X121019100Y-87877530D01*
X121014965Y-87880635D01*
X120860629Y-88042138D01*
X120734743Y-88226680D01*
X120720898Y-88256507D01*
X120647679Y-88414245D01*
X120640688Y-88429305D01*
X120580989Y-88644570D01*
X120557251Y-88866695D01*
X120557548Y-88871848D01*
X120557548Y-88871851D01*
X120566378Y-89024995D01*
X120570110Y-89089715D01*
X120571247Y-89094761D01*
X120571248Y-89094767D01*
X120573541Y-89104941D01*
X120619222Y-89307639D01*
X120657461Y-89401811D01*
X120700657Y-89508190D01*
X120703266Y-89514616D01*
X120717365Y-89537624D01*
X120817291Y-89700688D01*
X120819987Y-89705088D01*
X120966250Y-89873938D01*
X121138126Y-90016632D01*
X121208595Y-90057811D01*
X121211445Y-90059476D01*
X121260169Y-90111114D01*
X121273240Y-90180897D01*
X121246509Y-90246669D01*
X121206055Y-90280027D01*
X121193607Y-90286507D01*
X121189474Y-90289610D01*
X121189471Y-90289612D01*
X121019100Y-90417530D01*
X121014965Y-90420635D01*
X120860629Y-90582138D01*
X120857715Y-90586410D01*
X120857714Y-90586411D01*
X120842798Y-90608277D01*
X120734743Y-90766680D01*
X120720898Y-90796507D01*
X120644308Y-90961507D01*
X120640688Y-90969305D01*
X120580989Y-91184570D01*
X120557251Y-91406695D01*
X120557548Y-91411848D01*
X120557548Y-91411851D01*
X120567283Y-91580686D01*
X120570110Y-91629715D01*
X120571247Y-91634761D01*
X120571248Y-91634767D01*
X120591119Y-91722939D01*
X120619222Y-91847639D01*
X120677051Y-91990055D01*
X120696662Y-92038351D01*
X120703266Y-92054616D01*
X120716970Y-92076979D01*
X120817291Y-92240688D01*
X120819987Y-92245088D01*
X120966250Y-92413938D01*
X121138126Y-92556632D01*
X121178097Y-92579989D01*
X121211445Y-92599476D01*
X121260169Y-92651114D01*
X121273240Y-92720897D01*
X121246509Y-92786669D01*
X121206055Y-92820027D01*
X121193607Y-92826507D01*
X121189474Y-92829610D01*
X121189471Y-92829612D01*
X121165247Y-92847800D01*
X121014965Y-92960635D01*
X120860629Y-93122138D01*
X120734743Y-93306680D01*
X120640688Y-93509305D01*
X120580989Y-93724570D01*
X120557251Y-93946695D01*
X120557548Y-93951848D01*
X120557548Y-93951851D01*
X120563011Y-94046590D01*
X120570110Y-94169715D01*
X120571247Y-94174761D01*
X120571248Y-94174767D01*
X120572559Y-94180583D01*
X120619222Y-94387639D01*
X120674900Y-94524758D01*
X120700104Y-94586828D01*
X120703266Y-94594616D01*
X120736902Y-94649505D01*
X120817291Y-94780688D01*
X120819987Y-94785088D01*
X120966250Y-94953938D01*
X121138126Y-95096632D01*
X121146991Y-95101812D01*
X121211445Y-95139476D01*
X121260169Y-95191114D01*
X121273240Y-95260897D01*
X121246509Y-95326669D01*
X121206055Y-95360027D01*
X121193607Y-95366507D01*
X121189474Y-95369610D01*
X121189471Y-95369612D01*
X121019100Y-95497530D01*
X121014965Y-95500635D01*
X120860629Y-95662138D01*
X120734743Y-95846680D01*
X120700388Y-95920692D01*
X120651429Y-96026166D01*
X120640688Y-96049305D01*
X120580989Y-96264570D01*
X120557251Y-96486695D01*
X119888500Y-96486695D01*
X119888500Y-63924657D01*
X125482000Y-63924657D01*
X125482301Y-63930805D01*
X125495812Y-64068603D01*
X125498195Y-64080638D01*
X125551767Y-64258076D01*
X125556441Y-64269416D01*
X125643460Y-64433077D01*
X125650249Y-64443294D01*
X125767397Y-64586933D01*
X125776041Y-64595637D01*
X125918856Y-64713784D01*
X125929027Y-64720644D01*
X126092076Y-64808804D01*
X126103381Y-64813556D01*
X126218692Y-64849250D01*
X126232795Y-64849456D01*
X126236000Y-64842701D01*
X126236000Y-63600115D01*
X126231525Y-63584876D01*
X126230135Y-63583671D01*
X126222452Y-63582000D01*
X125500115Y-63582000D01*
X125484876Y-63586475D01*
X125483671Y-63587865D01*
X125482000Y-63595548D01*
X125482000Y-63924657D01*
X119888500Y-63924657D01*
X119888500Y-63055885D01*
X125482000Y-63055885D01*
X125486475Y-63071124D01*
X125487865Y-63072329D01*
X125495548Y-63074000D01*
X126217885Y-63074000D01*
X126233124Y-63069525D01*
X126234329Y-63068135D01*
X126236000Y-63060452D01*
X126236000Y-61820076D01*
X126232027Y-61806545D01*
X126224232Y-61805425D01*
X126116479Y-61837138D01*
X126105111Y-61841731D01*
X125940846Y-61927607D01*
X125930585Y-61934321D01*
X125786127Y-62050468D01*
X125777368Y-62059046D01*
X125658222Y-62201039D01*
X125651292Y-62211159D01*
X125561998Y-62373585D01*
X125557166Y-62384858D01*
X125501120Y-62561538D01*
X125498570Y-62573532D01*
X125482393Y-62717761D01*
X125482000Y-62724785D01*
X125482000Y-63055885D01*
X119888500Y-63055885D01*
X119888500Y-59494657D01*
X125482000Y-59494657D01*
X125482301Y-59500805D01*
X125495812Y-59638603D01*
X125498195Y-59650638D01*
X125551767Y-59828076D01*
X125556441Y-59839416D01*
X125643460Y-60003077D01*
X125650249Y-60013294D01*
X125767397Y-60156933D01*
X125776041Y-60165637D01*
X125918856Y-60283784D01*
X125929027Y-60290644D01*
X126092076Y-60378804D01*
X126103381Y-60383556D01*
X126218692Y-60419250D01*
X126232795Y-60419456D01*
X126236000Y-60412701D01*
X126236000Y-60405924D01*
X126744000Y-60405924D01*
X126747973Y-60419455D01*
X126755768Y-60420575D01*
X126863521Y-60388862D01*
X126874889Y-60384269D01*
X127039154Y-60298393D01*
X127049415Y-60291679D01*
X127193873Y-60175532D01*
X127202632Y-60166954D01*
X127321778Y-60024961D01*
X127328708Y-60014841D01*
X127418002Y-59852415D01*
X127422834Y-59841142D01*
X127478880Y-59664462D01*
X127481430Y-59652468D01*
X127497607Y-59508239D01*
X127498000Y-59501215D01*
X127498000Y-59420115D01*
X127493525Y-59404876D01*
X127492135Y-59403671D01*
X127484452Y-59402000D01*
X126762115Y-59402000D01*
X126746876Y-59406475D01*
X126745671Y-59407865D01*
X126744000Y-59415548D01*
X126744000Y-60405924D01*
X126236000Y-60405924D01*
X126236000Y-59420115D01*
X126231525Y-59404876D01*
X126230135Y-59403671D01*
X126222452Y-59402000D01*
X125500115Y-59402000D01*
X125484876Y-59406475D01*
X125483671Y-59407865D01*
X125482000Y-59415548D01*
X125482000Y-59494657D01*
X119888500Y-59494657D01*
X119888500Y-58875885D01*
X125482000Y-58875885D01*
X125486475Y-58891124D01*
X125487865Y-58892329D01*
X125495548Y-58894000D01*
X126217885Y-58894000D01*
X126233124Y-58889525D01*
X126234329Y-58888135D01*
X126236000Y-58880452D01*
X126236000Y-58875885D01*
X126744000Y-58875885D01*
X126748475Y-58891124D01*
X126749865Y-58892329D01*
X126757548Y-58894000D01*
X127479885Y-58894000D01*
X127495124Y-58889525D01*
X127496329Y-58888135D01*
X127498000Y-58880452D01*
X127498000Y-58875885D01*
X134122000Y-58875885D01*
X134126475Y-58891124D01*
X134127865Y-58892329D01*
X134135548Y-58894000D01*
X134857885Y-58894000D01*
X134873124Y-58889525D01*
X134874329Y-58888135D01*
X134876000Y-58880452D01*
X134876000Y-58875885D01*
X135384000Y-58875885D01*
X135388475Y-58891124D01*
X135389865Y-58892329D01*
X135397548Y-58894000D01*
X136119885Y-58894000D01*
X136135124Y-58889525D01*
X136136329Y-58888135D01*
X136138000Y-58880452D01*
X136138000Y-58801343D01*
X136137699Y-58795194D01*
X136137072Y-58788795D01*
X136150332Y-58719047D01*
X136199195Y-58667541D01*
X136262471Y-58650500D01*
X137141885Y-58650500D01*
X137157124Y-58646025D01*
X137158329Y-58644635D01*
X137160000Y-58636952D01*
X137160000Y-58632385D01*
X137668000Y-58632385D01*
X137672475Y-58647624D01*
X137673865Y-58648829D01*
X137681548Y-58650500D01*
X138603884Y-58650500D01*
X138619123Y-58646025D01*
X138620328Y-58644635D01*
X138621999Y-58636952D01*
X138621999Y-58594905D01*
X138621662Y-58588386D01*
X138611743Y-58492794D01*
X138608851Y-58479400D01*
X138557412Y-58325216D01*
X138551239Y-58312038D01*
X138465937Y-58174193D01*
X138456901Y-58162792D01*
X138342171Y-58048261D01*
X138330760Y-58039249D01*
X138192757Y-57954184D01*
X138179576Y-57948037D01*
X138025290Y-57896862D01*
X138011914Y-57893995D01*
X137917562Y-57884328D01*
X137911145Y-57884000D01*
X137686115Y-57884000D01*
X137670876Y-57888475D01*
X137669671Y-57889865D01*
X137668000Y-57897548D01*
X137668000Y-58632385D01*
X137160000Y-58632385D01*
X137160000Y-57902116D01*
X137155525Y-57886877D01*
X137154135Y-57885672D01*
X137146452Y-57884001D01*
X136916905Y-57884001D01*
X136910386Y-57884338D01*
X136814794Y-57894257D01*
X136801400Y-57897149D01*
X136647216Y-57948588D01*
X136634038Y-57954761D01*
X136496193Y-58040063D01*
X136484792Y-58049099D01*
X136370261Y-58163829D01*
X136361249Y-58175240D01*
X136276184Y-58313243D01*
X136270037Y-58326424D01*
X136256791Y-58366359D01*
X136216360Y-58424719D01*
X136150796Y-58451955D01*
X136080914Y-58439421D01*
X136025946Y-58385844D01*
X135976540Y-58292923D01*
X135969751Y-58282706D01*
X135852603Y-58139067D01*
X135843959Y-58130363D01*
X135701144Y-58012216D01*
X135690973Y-58005356D01*
X135527924Y-57917196D01*
X135516619Y-57912444D01*
X135401308Y-57876750D01*
X135387205Y-57876544D01*
X135384000Y-57883299D01*
X135384000Y-58875885D01*
X134876000Y-58875885D01*
X134876000Y-57890076D01*
X134872027Y-57876545D01*
X134864232Y-57875425D01*
X134756479Y-57907138D01*
X134745111Y-57911731D01*
X134580846Y-57997607D01*
X134570585Y-58004321D01*
X134426127Y-58120468D01*
X134417368Y-58129046D01*
X134298222Y-58271039D01*
X134291292Y-58281159D01*
X134201998Y-58443585D01*
X134197166Y-58454858D01*
X134141120Y-58631538D01*
X134138570Y-58643532D01*
X134122393Y-58787761D01*
X134122000Y-58794785D01*
X134122000Y-58875885D01*
X127498000Y-58875885D01*
X127498000Y-58801343D01*
X127497699Y-58795195D01*
X127484188Y-58657397D01*
X127481805Y-58645362D01*
X127428233Y-58467924D01*
X127423559Y-58456584D01*
X127336540Y-58292923D01*
X127329751Y-58282706D01*
X127212603Y-58139067D01*
X127203959Y-58130363D01*
X127061144Y-58012216D01*
X127050973Y-58005356D01*
X126887924Y-57917196D01*
X126876619Y-57912444D01*
X126761308Y-57876750D01*
X126747205Y-57876544D01*
X126744000Y-57883299D01*
X126744000Y-58875885D01*
X126236000Y-58875885D01*
X126236000Y-57890076D01*
X126232027Y-57876545D01*
X126224232Y-57875425D01*
X126116479Y-57907138D01*
X126105111Y-57911731D01*
X125940846Y-57997607D01*
X125930585Y-58004321D01*
X125786127Y-58120468D01*
X125777368Y-58129046D01*
X125658222Y-58271039D01*
X125651292Y-58281159D01*
X125561998Y-58443585D01*
X125557166Y-58454858D01*
X125501120Y-58631538D01*
X125498570Y-58643532D01*
X125482393Y-58787761D01*
X125482000Y-58794785D01*
X125482000Y-58875885D01*
X119888500Y-58875885D01*
X119888500Y-56514500D01*
X119908502Y-56446379D01*
X119962158Y-56399886D01*
X120014500Y-56388500D01*
X141605500Y-56388500D01*
X141673621Y-56408502D01*
G37*
%TD.AperFunction*%
%TA.AperFunction,Conductor*%
G36*
X130919356Y-68972907D02*
G01*
X130919370Y-68972692D01*
X130923488Y-68972962D01*
X130927575Y-68973500D01*
X130957045Y-68973500D01*
X131103593Y-68973499D01*
X131171714Y-68993501D01*
X131209592Y-69031378D01*
X131221289Y-69049579D01*
X131264689Y-69092979D01*
X131278631Y-69100591D01*
X131280466Y-69100460D01*
X131287080Y-69096209D01*
X131330481Y-69052809D01*
X131337959Y-69039114D01*
X131388162Y-68988912D01*
X131448545Y-68973500D01*
X131594587Y-68973499D01*
X131627424Y-68973499D01*
X131631514Y-68972961D01*
X131635627Y-68972691D01*
X131635763Y-68974760D01*
X131697686Y-68984347D01*
X131750837Y-69031416D01*
X131770103Y-69099749D01*
X131769593Y-69106856D01*
X131769808Y-69106870D01*
X131769538Y-69110988D01*
X131769000Y-69115075D01*
X131769000Y-69119197D01*
X131769001Y-69291093D01*
X131748999Y-69359214D01*
X131711122Y-69397092D01*
X131692921Y-69408789D01*
X131649521Y-69452189D01*
X131641909Y-69466131D01*
X131642040Y-69467966D01*
X131646291Y-69474580D01*
X131689692Y-69517982D01*
X131703629Y-69525592D01*
X131737413Y-69523176D01*
X131806787Y-69538268D01*
X131846364Y-69572152D01*
X131897119Y-69638298D01*
X131922719Y-69704518D01*
X131908454Y-69774067D01*
X131897119Y-69791704D01*
X131841233Y-69864537D01*
X131838073Y-69872166D01*
X131831053Y-69889113D01*
X131786505Y-69944394D01*
X131719142Y-69966815D01*
X131698198Y-69965817D01*
X131631513Y-69957038D01*
X131631510Y-69957038D01*
X131627425Y-69956500D01*
X131597955Y-69956500D01*
X131451407Y-69956501D01*
X131383286Y-69936499D01*
X131345408Y-69898622D01*
X131333711Y-69880421D01*
X131290311Y-69837021D01*
X131276369Y-69829409D01*
X131274534Y-69829540D01*
X131267920Y-69833791D01*
X131224519Y-69877191D01*
X131217041Y-69890886D01*
X131166838Y-69941088D01*
X131106455Y-69956500D01*
X130960413Y-69956501D01*
X130927576Y-69956501D01*
X130923486Y-69957039D01*
X130919373Y-69957309D01*
X130919237Y-69955240D01*
X130857314Y-69945653D01*
X130804163Y-69898584D01*
X130784897Y-69830251D01*
X130785407Y-69823144D01*
X130785192Y-69823130D01*
X130785462Y-69819012D01*
X130786000Y-69814925D01*
X130785999Y-69638907D01*
X130806001Y-69570786D01*
X130843878Y-69532908D01*
X130862079Y-69521211D01*
X130905479Y-69477811D01*
X130913091Y-69463869D01*
X130912960Y-69462034D01*
X130908709Y-69455420D01*
X130865309Y-69412019D01*
X130851614Y-69404541D01*
X130801412Y-69354338D01*
X130786000Y-69293955D01*
X130785999Y-69119199D01*
X130785999Y-69115076D01*
X130785461Y-69110986D01*
X130785191Y-69106873D01*
X130787260Y-69106737D01*
X130796847Y-69044814D01*
X130843916Y-68991663D01*
X130912249Y-68972397D01*
X130919356Y-68972907D01*
G37*
%TD.AperFunction*%
%TD*%
M02*
