%TF.GenerationSoftware,KiCad,Pcbnew,(6.0.4)*%
%TF.CreationDate,2022-06-11T09:06:55+08:00*%
%TF.ProjectId,G030F6P6_test,47303330-4636-4503-965f-746573742e6b,rev?*%
%TF.SameCoordinates,Original*%
%TF.FileFunction,Paste,Top*%
%TF.FilePolarity,Positive*%
%FSLAX46Y46*%
G04 Gerber Fmt 4.6, Leading zero omitted, Abs format (unit mm)*
G04 Created by KiCad (PCBNEW (6.0.4)) date 2022-06-11 09:06:55*
%MOMM*%
%LPD*%
G01*
G04 APERTURE LIST*
G04 Aperture macros list*
%AMRoundRect*
0 Rectangle with rounded corners*
0 $1 Rounding radius*
0 $2 $3 $4 $5 $6 $7 $8 $9 X,Y pos of 4 corners*
0 Add a 4 corners polygon primitive as box body*
4,1,4,$2,$3,$4,$5,$6,$7,$8,$9,$2,$3,0*
0 Add four circle primitives for the rounded corners*
1,1,$1+$1,$2,$3*
1,1,$1+$1,$4,$5*
1,1,$1+$1,$6,$7*
1,1,$1+$1,$8,$9*
0 Add four rect primitives between the rounded corners*
20,1,$1+$1,$2,$3,$4,$5,0*
20,1,$1+$1,$4,$5,$6,$7,0*
20,1,$1+$1,$6,$7,$8,$9,0*
20,1,$1+$1,$8,$9,$2,$3,0*%
G04 Aperture macros list end*
%ADD10RoundRect,0.243750X0.456250X-0.243750X0.456250X0.243750X-0.456250X0.243750X-0.456250X-0.243750X0*%
%ADD11RoundRect,0.243750X-0.456250X0.243750X-0.456250X-0.243750X0.456250X-0.243750X0.456250X0.243750X0*%
%ADD12RoundRect,0.250000X0.450000X-0.262500X0.450000X0.262500X-0.450000X0.262500X-0.450000X-0.262500X0*%
%ADD13RoundRect,0.250000X-0.450000X0.262500X-0.450000X-0.262500X0.450000X-0.262500X0.450000X0.262500X0*%
%ADD14RoundRect,0.150000X0.150000X-0.587500X0.150000X0.587500X-0.150000X0.587500X-0.150000X-0.587500X0*%
%ADD15RoundRect,0.250000X-0.475000X0.250000X-0.475000X-0.250000X0.475000X-0.250000X0.475000X0.250000X0*%
%ADD16RoundRect,0.157500X0.157500X0.157500X-0.157500X0.157500X-0.157500X-0.157500X0.157500X-0.157500X0*%
%ADD17RoundRect,0.062500X0.375000X0.062500X-0.375000X0.062500X-0.375000X-0.062500X0.375000X-0.062500X0*%
%ADD18RoundRect,0.062500X0.062500X0.375000X-0.062500X0.375000X-0.062500X-0.375000X0.062500X-0.375000X0*%
%ADD19R,0.600000X1.450000*%
%ADD20R,0.300000X1.450000*%
%ADD21RoundRect,0.100000X-0.637500X-0.100000X0.637500X-0.100000X0.637500X0.100000X-0.637500X0.100000X0*%
%ADD22RoundRect,0.250000X0.250000X0.475000X-0.250000X0.475000X-0.250000X-0.475000X0.250000X-0.475000X0*%
G04 APERTURE END LIST*
D10*
%TO.C,D1*%
X130805000Y-97457500D03*
X130805000Y-95582500D03*
%TD*%
D11*
%TO.C,F1*%
X127635000Y-67642500D03*
X127635000Y-69517500D03*
%TD*%
D12*
%TO.C,R1*%
X128651000Y-80668500D03*
X128651000Y-78843500D03*
%TD*%
%TO.C,R3*%
X137414000Y-65022100D03*
X137414000Y-63197100D03*
%TD*%
D13*
%TO.C,R4*%
X128900000Y-95607500D03*
X128900000Y-97432500D03*
%TD*%
D14*
%TO.C,U3*%
X129987000Y-75613500D03*
X131887000Y-75613500D03*
X130937000Y-73738500D03*
%TD*%
D15*
%TO.C,C1*%
X136017000Y-68900000D03*
X136017000Y-70800000D03*
%TD*%
D16*
%TO.C,U1*%
X130917500Y-69105000D03*
X130917500Y-69825000D03*
X131637500Y-69105000D03*
X131637500Y-69825000D03*
D17*
X132715000Y-70215000D03*
X132715000Y-69715000D03*
X132715000Y-69215000D03*
X132715000Y-68715000D03*
D18*
X132027500Y-68027500D03*
X131527500Y-68027500D03*
X131027500Y-68027500D03*
X130527500Y-68027500D03*
D17*
X129840000Y-68715000D03*
X129840000Y-69215000D03*
X129840000Y-69715000D03*
X129840000Y-70215000D03*
D18*
X130527500Y-70902500D03*
X131027500Y-70902500D03*
X131527500Y-70902500D03*
X132027500Y-70902500D03*
%TD*%
D19*
%TO.C,J3*%
X134060000Y-64243000D03*
X133260000Y-64243000D03*
D20*
X132060000Y-64243000D03*
X131060000Y-64243000D03*
X130560000Y-64243000D03*
X129560000Y-64243000D03*
D19*
X128360000Y-64243000D03*
X127560000Y-64243000D03*
X127560000Y-64243000D03*
X128360000Y-64243000D03*
D20*
X129060000Y-64243000D03*
X130060000Y-64243000D03*
X131560000Y-64243000D03*
X132560000Y-64243000D03*
D19*
X133260000Y-64243000D03*
X134060000Y-64243000D03*
%TD*%
D15*
%TO.C,C2*%
X138049000Y-68900000D03*
X138049000Y-70800000D03*
%TD*%
%TO.C,C5*%
X133858000Y-73726000D03*
X133858000Y-75626000D03*
%TD*%
D21*
%TO.C,U2*%
X127947500Y-82165000D03*
X127947500Y-82815000D03*
X127947500Y-83465000D03*
X127947500Y-84115000D03*
X127947500Y-84765000D03*
X127947500Y-85415000D03*
X127947500Y-86065000D03*
X127947500Y-86715000D03*
X127947500Y-87365000D03*
X127947500Y-88015000D03*
X133672500Y-88015000D03*
X133672500Y-87365000D03*
X133672500Y-86715000D03*
X133672500Y-86065000D03*
X133672500Y-85415000D03*
X133672500Y-84765000D03*
X133672500Y-84115000D03*
X133672500Y-83465000D03*
X133672500Y-82815000D03*
X133672500Y-82165000D03*
%TD*%
D15*
%TO.C,C4*%
X127762000Y-73726000D03*
X127762000Y-75626000D03*
%TD*%
D22*
%TO.C,C3*%
X131760000Y-90170000D03*
X129860000Y-90170000D03*
%TD*%
D12*
%TO.C,R2*%
X124206000Y-64793500D03*
X124206000Y-62968500D03*
%TD*%
M02*
